<svg width="124" height="40" viewBox="0 0 124 40" fill="none" xmlns="http://www.w3.org/2000/svg">
<g clip-path="url(#clip0_1504_62741)">
<path d="M15.8177 0.00341797H16.9074C20.6908 0.0856656 24.4125 1.60725 27.0856 4.30086C26.0986 5.30839 25.0911 6.2748 24.1247 7.28234C22.6237 5.92525 20.8142 4.87659 18.8403 4.50648C15.9205 3.88962 12.7745 4.44479 10.3276 6.11031C7.65458 7.85807 5.84513 10.819 5.45445 13.9855C5.02265 17.1109 5.90681 20.4008 7.94244 22.8271C9.89582 25.1918 12.8773 26.6722 15.9616 26.775C18.8403 26.9395 21.8423 26.0554 23.9396 24.0403C25.5846 22.6215 26.3454 20.4625 26.5921 18.3652C23.1788 18.3652 19.7655 18.3858 16.3523 18.3652V14.1295H30.725C31.4653 18.6736 30.3961 23.7936 26.9417 27.0423C24.6387 29.3453 21.4516 30.7024 18.2028 30.9697C15.0569 31.2781 11.8081 30.6818 9.01166 29.1602C5.66007 27.3713 2.98702 24.3487 1.67106 20.7915C0.437341 17.5222 0.416779 13.821 1.56825 10.5311C2.6169 7.52908 4.63197 4.87659 7.22277 3.02602C9.71077 1.19601 12.7334 0.188475 15.8177 0.00341797Z" fill="#3780FF"/>
<path d="M98.2715 1.07275H102.672V30.4352C101.212 30.4352 99.7314 30.4557 98.2715 30.4146C98.292 20.6477 98.2715 10.8602 98.2715 1.07275Z" fill="#38B137"/>
<path d="M40.5129 11.251C43.2271 10.737 46.1674 11.3127 48.4087 12.9371C50.4443 14.3764 51.8631 16.6382 52.2949 19.1057C52.8501 21.9638 52.151 25.0892 50.3004 27.351C48.3059 29.8801 45.0365 31.2372 41.8494 31.0316C38.9296 30.8671 36.0921 29.4072 34.3649 27.022C32.4115 24.3901 31.9386 20.7712 33.0078 17.6869C34.077 14.3764 37.0996 11.8473 40.5129 11.251ZM41.1298 15.1578C40.0194 15.4456 38.9913 16.0831 38.2511 16.9878C36.2566 19.373 36.38 23.2592 38.5801 25.4798C39.8344 26.7547 41.7261 27.351 43.4738 27.0014C45.0982 26.7136 46.517 25.6238 47.2983 24.1844C48.6554 21.7376 48.2648 18.3654 46.188 16.4532C44.8515 15.2195 42.8981 14.7054 41.1298 15.1578Z" fill="#FA3913"/>
<path d="M62.3082 11.2508C65.4131 10.6545 68.8058 11.5181 71.1293 13.6977C74.9127 17.0904 75.3239 23.444 72.0957 27.3508C70.1423 29.8182 66.9758 31.1753 63.8504 31.0314C60.8689 30.9491 57.9285 29.4687 56.1602 27.0218C54.1657 24.3282 53.7339 20.627 54.8648 17.4811C55.9957 14.2734 58.9566 11.8265 62.3082 11.2508ZM62.9251 15.1576C61.8147 15.4454 60.7866 16.0829 60.0464 16.967C58.0725 19.3111 58.1547 23.1356 60.2726 25.3768C61.5269 26.7134 63.4802 27.3714 65.2897 27.0012C66.8935 26.6928 68.3328 25.6236 69.1142 24.1843C70.4507 21.7168 70.06 18.3447 67.9627 16.4324C66.6262 15.1987 64.6728 14.7052 62.9251 15.1576Z" fill="#FCBD06"/>
<path d="M80.7941 12.4436C83.1587 10.9631 86.3047 10.5519 88.8543 11.8267C89.6563 12.1762 90.3142 12.7725 90.9517 13.3688C90.9722 12.8137 90.9517 12.2379 90.9722 11.6622C92.3499 11.6828 93.7275 11.6622 95.1257 11.6828V29.8184C95.1052 32.5531 94.4061 35.4523 92.4321 37.4468C90.2731 39.647 86.9626 40.3255 83.9812 39.8731C80.7941 39.4002 78.0182 37.0767 76.7845 34.1364C78.0182 33.5401 79.3136 33.0672 80.5885 32.512C81.3081 34.1981 82.768 35.6374 84.598 35.9664C86.428 36.2954 88.5459 35.843 89.7385 34.3214C91.0133 32.7587 91.0133 30.6203 90.9517 28.708C90.0058 29.6333 88.916 30.4558 87.6001 30.7642C84.742 31.5661 81.596 30.5792 79.3959 28.6463C77.1752 26.7135 75.8592 23.732 75.9826 20.7711C76.0443 17.4195 77.936 14.1913 80.7941 12.4436ZM85.0504 15.0755C83.7961 15.2811 82.6241 15.9802 81.8222 16.9466C79.8893 19.2495 79.8893 22.9301 81.8427 25.1919C82.9531 26.5285 84.742 27.2687 86.4692 27.0836C88.0936 26.9191 89.5946 25.891 90.3965 24.4723C91.7536 22.0665 91.5274 18.7972 89.6974 16.6999C88.5665 15.4045 86.757 14.767 85.0504 15.0755Z" fill="#3780FF"/>
<path d="M107.955 13.4921C110.423 11.1892 114.227 10.4078 117.393 11.621C120.395 12.7519 122.308 15.61 123.274 18.5503C118.812 20.4009 114.371 22.2309 109.909 24.0815C110.526 25.2535 111.472 26.3227 112.746 26.7545C114.535 27.392 116.674 27.1658 118.175 25.9732C118.771 25.5208 119.244 24.9245 119.696 24.3488C120.827 25.1096 121.958 25.8498 123.089 26.6106C121.485 29.0163 118.792 30.7024 115.892 30.9697C112.685 31.3604 109.271 30.1267 107.195 27.6181C103.781 23.6703 104.11 17.0493 107.955 13.4921ZM110.156 17.2961C109.457 18.3036 109.169 19.5373 109.189 20.7505C112.171 19.5167 115.152 18.283 118.134 17.0288C117.64 15.8773 116.448 15.1782 115.234 14.9931C113.281 14.6436 111.245 15.6922 110.156 17.2961Z" fill="#FA3913"/>
</g>
<defs>
<clipPath id="clip0_1504_62741">
<rect width="122.549" height="40" fill="white" transform="translate(0.725586)"/>
</clipPath>
</defs>
</svg>
