<svg width="61" height="60" viewBox="0 0 61 60" fill="none" xmlns="http://www.w3.org/2000/svg">
<g clip-path="url(#clip0_1504_62725)">
<path d="M60.5029 30C60.5029 39.75 52.6279 47.7188 42.7842 47.7188C33.0342 47.7188 25.0654 39.75 25.0654 30C25.0654 20.25 32.9404 12.2812 42.6904 12.2812C52.6279 12.2812 60.5029 20.25 60.5029 30Z" fill="#FFB600"/>
<path d="M42.7842 12.2812C52.5342 12.2812 60.5029 20.25 60.5029 30C60.5029 39.75 52.6279 47.7188 42.7842 47.7188C33.0342 47.7188 25.0654 39.75 25.0654 30" fill="#F7981D"/>
<path d="M42.7842 12.2812C52.5342 12.2812 60.5029 20.25 60.5029 30C60.5029 39.75 52.6279 47.7188 42.7842 47.7188" fill="#FF8500"/>
<path d="M18.9717 12.2812C9.31543 12.375 1.44043 20.25 1.44043 30C1.44043 39.75 9.31543 47.7188 19.1592 47.7188C23.7529 47.7188 27.8779 45.9375 31.0654 43.125C31.7217 42.5625 32.2842 41.9062 32.8467 41.25H29.1904C28.7217 40.6875 28.2529 40.0312 27.8779 39.4687H34.1592C34.5342 38.9062 34.9092 38.25 35.1904 37.5937H26.8467C26.5654 37.0312 26.2842 36.375 26.0967 35.7187H35.8467C36.4092 33.9375 36.7842 32.0625 36.7842 30.0937C36.7842 28.7812 36.5967 27.5625 36.4092 26.3438H25.5342C25.6279 25.6875 25.8154 25.125 26.0029 24.4688H35.7529C35.5654 23.8125 35.2842 23.1563 35.0029 22.5938H26.7529C27.0342 21.9375 27.4092 21.375 27.7842 20.7188H34.0654C33.6904 20.0625 33.2217 19.4063 32.6592 18.8438H29.1904C29.7529 18.1875 30.3154 17.625 30.9717 17.0625C27.8779 14.1563 23.6592 12.4687 19.0654 12.4687C19.0654 12.2812 19.0654 12.2812 18.9717 12.2812Z" fill="#FF5050"/>
<path d="M1.44043 30C1.44043 39.75 9.31543 47.7187 19.1592 47.7187C23.7529 47.7187 27.8779 45.9375 31.0654 43.125C31.7217 42.5625 32.2842 41.9062 32.8467 41.25H29.1904C28.7217 40.6875 28.2529 40.0312 27.8779 39.4687H34.1592C34.5342 38.9062 34.9092 38.25 35.1904 37.5937H26.8467C26.5654 37.0312 26.2842 36.375 26.0967 35.7187H35.8467C36.4092 33.9375 36.7842 32.0625 36.7842 30.0937C36.7842 28.7812 36.5967 27.5625 36.4092 26.3437H25.5342C25.6279 25.6875 25.8154 25.125 26.0029 24.4687H35.7529C35.5654 23.8125 35.2842 23.1562 35.0029 22.5937H26.7529C27.0342 21.9375 27.4092 21.375 27.7842 20.7187H34.0654C33.6904 20.0625 33.2217 19.4062 32.6592 18.8437H29.1904C29.7529 18.1875 30.3154 17.625 30.9717 17.0625C27.8779 14.1563 23.6592 12.4688 19.0654 12.4688H18.9717" fill="#E52836"/>
<path d="M19.1592 47.7187C23.7529 47.7187 27.8779 45.9375 31.0654 43.125C31.7217 42.5625 32.2842 41.9062 32.8467 41.25H29.1904C28.7217 40.6875 28.2529 40.0312 27.8779 39.4687H34.1592C34.5342 38.9062 34.9092 38.25 35.1904 37.5937H26.8467C26.5654 37.0312 26.2842 36.375 26.0967 35.7187H35.8467C36.4092 33.9375 36.7842 32.0625 36.7842 30.0937C36.7842 28.7812 36.5967 27.5625 36.4092 26.3437H25.5342C25.6279 25.6875 25.8154 25.125 26.0029 24.4687H35.7529C35.5654 23.8125 35.2842 23.1562 35.0029 22.5937H26.7529C27.0342 21.9375 27.4092 21.375 27.7842 20.7187H34.0654C33.6904 20.0625 33.2217 19.4062 32.6592 18.8437H29.1904C29.7529 18.1875 30.3154 17.625 30.9717 17.0625C27.8779 14.1563 23.6592 12.4688 19.0654 12.4688H18.9717" fill="#CB2026"/>
<path d="M25.4404 34.5L25.7217 32.9062C25.6279 32.9062 25.4404 33 25.2529 33C24.5967 33 24.5029 32.625 24.5967 32.4375L25.1592 29.1562H26.1904L26.4717 27.375H25.5342L25.7217 26.25H23.8467C23.8467 26.25 22.7217 32.4375 22.7217 33.1875C22.7217 34.3125 23.3779 34.7812 24.2217 34.7812C24.7842 34.7812 25.2529 34.5937 25.4404 34.5ZM26.0967 31.5C26.0967 34.125 27.8779 34.7812 29.3779 34.7812C30.7842 34.7812 31.3467 34.5 31.3467 34.5L31.7217 32.7188C31.7217 32.7188 30.6904 33.1875 29.7529 33.1875C27.6904 33.1875 28.0654 31.6875 28.0654 31.6875H31.9092C31.9092 31.6875 32.1904 30.4687 32.1904 30C32.1904 28.7812 31.5342 27.2812 29.4717 27.2812C27.5029 27.0937 26.0967 29.1562 26.0967 31.5ZM29.3779 28.7813C30.4092 28.7813 30.2217 30 30.2217 30.0937H28.1592C28.1592 30 28.3467 28.7813 29.3779 28.7813ZM41.2842 34.5L41.6592 32.4375C41.6592 32.4375 40.7217 32.9062 40.0654 32.9062C38.7529 32.9062 38.1904 31.875 38.1904 30.75C38.1904 28.5 39.3154 27.2812 40.6279 27.2812C41.5654 27.2812 42.3154 27.8438 42.3154 27.8438L42.5967 25.875C42.5967 25.875 41.4717 25.4062 40.4404 25.4062C38.2842 25.4062 36.1279 27.2813 36.1279 30.8438C36.1279 33.1875 37.2529 34.7812 39.5029 34.7812C40.2529 34.7812 41.2842 34.5 41.2842 34.5ZM15.1279 27.0937C13.8154 27.0937 12.8779 27.4687 12.8779 27.4687L12.5967 29.0625C12.5967 29.0625 13.4404 28.6875 14.6592 28.6875C15.3154 28.6875 15.8779 28.7812 15.8779 29.3437C15.8779 29.7187 15.7842 29.8125 15.7842 29.8125H14.9404C13.3467 29.8125 11.5654 30.4687 11.5654 32.625C11.5654 34.3125 12.6904 34.6875 13.3467 34.6875C14.6592 34.6875 15.2217 33.8437 15.3154 33.8437L15.2217 34.5938H16.9092L17.6592 29.4375C17.6592 27.1875 15.7842 27.0937 15.1279 27.0937ZM15.5029 31.3125C15.5029 31.5938 15.3154 33.0937 14.1904 33.0937C13.6279 33.0937 13.4404 32.625 13.4404 32.3437C13.4404 31.875 13.7217 31.2187 15.1279 31.2187C15.4092 31.3125 15.5029 31.3125 15.5029 31.3125ZM19.4404 34.6875C19.9092 34.6875 22.2529 34.7813 22.2529 32.25C22.2529 29.9063 20.0029 30.375 20.0029 29.4375C20.0029 28.9687 20.3779 28.7813 21.0342 28.7813C21.3154 28.7813 22.3467 28.875 22.3467 28.875L22.6279 27.1875C22.6279 27.1875 21.9717 27 20.8467 27C19.4404 27 18.0342 27.5625 18.0342 29.4375C18.0342 31.5937 20.3779 31.4063 20.3779 32.25C20.3779 32.8125 19.7217 32.9062 19.2529 32.9062C18.4092 32.9062 17.5654 32.625 17.5654 32.625L17.2842 34.3125C17.3779 34.5 17.8467 34.6875 19.4404 34.6875ZM56.8467 25.5937L56.4717 28.125C56.4717 28.125 55.7217 27.1875 54.6904 27.1875C53.0029 27.1875 51.5029 29.25 51.5029 31.6875C51.5029 33.1875 52.2529 34.7812 53.8467 34.7812C54.9717 34.7812 55.6279 34.0312 55.6279 34.0312L55.5342 34.6875H57.4092L58.8154 25.6875L56.8467 25.5937ZM56.0029 30.5625C56.0029 31.5937 55.5342 32.9062 54.5029 32.9062C53.8467 32.9062 53.4717 32.3437 53.4717 31.4062C53.4717 29.9062 54.1279 28.9687 54.9717 28.9687C55.6279 28.9687 56.0029 29.4375 56.0029 30.5625ZM4.90918 34.5938L6.03418 27.8438L6.22168 34.5938H7.53418L9.97168 27.8438L8.94043 34.5938H10.9092L12.4092 25.5937H9.31543L7.44043 31.125L7.34668 25.5937H4.62793L3.12793 34.5938H4.90918ZM33.9717 34.5938C34.5342 31.5 34.6279 28.9687 35.9404 29.4375C36.1279 28.2187 36.4092 27.75 36.5967 27.2812H36.2217C35.3779 27.2812 34.7217 28.4062 34.7217 28.4062L34.9092 27.375H33.1279L31.9092 34.6875H33.9717V34.5938ZM45.5967 27.0937C44.2842 27.0937 43.3467 27.4687 43.3467 27.4687L43.0654 29.0625C43.0654 29.0625 43.9092 28.6875 45.1279 28.6875C45.7842 28.6875 46.3467 28.7812 46.3467 29.3437C46.3467 29.7187 46.2529 29.8125 46.2529 29.8125H45.4092C43.8154 29.8125 42.0342 30.4687 42.0342 32.625C42.0342 34.3125 43.1592 34.6875 43.8154 34.6875C45.1279 34.6875 45.6904 33.8437 45.7842 33.8437L45.6904 34.5938H47.3779L48.1279 29.4375C48.2217 27.1875 46.2529 27.0937 45.5967 27.0937ZM46.0654 31.3125C46.0654 31.5938 45.8779 33.0937 44.7529 33.0937C44.1904 33.0937 44.0029 32.625 44.0029 32.3437C44.0029 31.875 44.2842 31.2187 45.6904 31.2187C45.9717 31.3125 45.9717 31.3125 46.0654 31.3125ZM49.7217 34.5938C50.2842 31.5 50.3779 28.9687 51.6904 29.4375C51.8779 28.2187 52.1592 27.75 52.3467 27.2812H51.9717C51.1279 27.2812 50.4717 28.4062 50.4717 28.4062L50.6592 27.375H48.8779L47.6592 34.6875H49.7217V34.5938Z" fill="white"/>
<path d="M22.5342 33.1875C22.5342 34.3125 23.1904 34.7812 24.0342 34.7812C24.6904 34.7812 25.2529 34.5937 25.4404 34.5L25.7217 32.9062C25.6279 32.9062 25.4404 33 25.2529 33C24.5967 33 24.5029 32.625 24.5967 32.4375L25.1592 29.1562H26.1904L26.4717 27.375H25.5342L25.7217 26.25M27.0342 31.5C27.0342 34.125 27.8779 34.7812 29.3779 34.7812C30.7842 34.7812 31.3467 34.5 31.3467 34.5L31.7217 32.7188C31.7217 32.7188 30.6904 33.1875 29.7529 33.1875C27.6904 33.1875 28.0654 31.6875 28.0654 31.6875H31.9092C31.9092 31.6875 32.1904 30.4687 32.1904 30C32.1904 28.7812 31.5342 27.2812 29.4717 27.2812C27.5029 27.0937 27.0342 29.1562 27.0342 31.5ZM29.3779 28.7813C30.4092 28.7813 30.5967 30 30.5967 30.0937H28.1592C28.1592 30 28.3467 28.7813 29.3779 28.7813ZM41.2842 34.5L41.6592 32.4375C41.6592 32.4375 40.7217 32.9062 40.0654 32.9062C38.7529 32.9062 38.1904 31.875 38.1904 30.75C38.1904 28.5 39.3154 27.2812 40.6279 27.2812C41.5654 27.2812 42.3154 27.8438 42.3154 27.8438L42.5967 25.875C42.5967 25.875 41.4717 25.4062 40.4404 25.4062C38.2842 25.4062 37.0654 27.2813 37.0654 30.8438C37.0654 33.1875 37.2529 34.7812 39.5029 34.7812C40.2529 34.7812 41.2842 34.5 41.2842 34.5ZM12.5967 29.1562C12.5967 29.1562 13.4404 28.7813 14.6592 28.7813C15.3154 28.7813 15.8779 28.875 15.8779 29.4375C15.8779 29.8125 15.7842 29.9062 15.7842 29.9062H14.9404C13.3467 29.9062 11.5654 30.5625 11.5654 32.7188C11.5654 34.4063 12.6904 34.7812 13.3467 34.7812C14.6592 34.7812 15.2217 33.9375 15.3154 33.9375L15.2217 34.6875H16.9092L17.6592 29.5312C17.6592 27.375 15.7842 27.2812 15.0342 27.2812M16.4404 31.3125C16.4404 31.5938 15.3154 33.0937 14.1904 33.0937C13.6279 33.0937 13.4404 32.625 13.4404 32.3437C13.4404 31.875 13.7217 31.2187 15.1279 31.2187C15.4092 31.3125 16.4404 31.3125 16.4404 31.3125ZM17.3779 34.5C17.3779 34.5 17.9404 34.6875 19.5342 34.6875C20.0029 34.6875 22.3467 34.7813 22.3467 32.25C22.3467 29.9063 20.0967 30.375 20.0967 29.4375C20.0967 28.9687 20.4717 28.7813 21.1279 28.7813C21.4092 28.7813 22.4404 28.875 22.4404 28.875L22.7217 27.1875C22.7217 27.1875 22.0654 27 20.9404 27C19.5342 27 19.0654 27.5625 19.0654 29.4375C19.0654 31.5937 20.4717 31.4063 20.4717 32.25C20.4717 32.8125 19.8154 32.9062 19.3467 32.9062M56.4717 28.125C56.4717 28.125 55.7217 27.1875 54.6904 27.1875C53.0029 27.1875 52.4404 29.25 52.4404 31.6875C52.4404 33.1875 52.2529 34.7812 53.8467 34.7812C54.9717 34.7812 55.6279 34.0312 55.6279 34.0312L55.5342 34.6875H57.4092L58.8154 25.6875M56.3779 30.5625C56.3779 31.5937 55.5342 32.9062 54.5029 32.9062C53.8467 32.9062 53.4717 32.3437 53.4717 31.4062C53.4717 29.9062 54.1279 28.9687 54.9717 28.9687C55.6279 28.9687 56.3779 29.4375 56.3779 30.5625ZM4.90918 34.5938L6.03418 27.8438L6.22168 34.5938H7.53418L9.97168 27.8438L8.94043 34.5938H10.9092L12.4092 25.5937H10.0654L7.44043 31.125L7.34668 25.5937H6.31543L3.12793 34.5938H4.90918ZM32.0029 34.5938H33.9717C34.5342 31.5 34.6279 28.9687 35.9404 29.4375C36.1279 28.2187 36.4092 27.75 36.5967 27.2812H36.2217C35.3779 27.2812 34.7217 28.4062 34.7217 28.4062L34.9092 27.375M43.0654 29.1562C43.0654 29.1562 43.9092 28.7813 45.1279 28.7813C45.7842 28.7813 46.3467 28.875 46.3467 29.4375C46.3467 29.8125 46.2529 29.9062 46.2529 29.9062H45.4092C43.8154 29.9062 42.0342 30.5625 42.0342 32.7188C42.0342 34.4063 43.1592 34.7812 43.8154 34.7812C45.1279 34.7812 45.6904 33.9375 45.7842 33.9375L45.6904 34.6875H47.3779L48.1279 29.5312C48.1279 27.375 46.2529 27.2812 45.5029 27.2812M46.9092 31.3125C46.9092 31.5938 45.7842 33.0937 44.6592 33.0937C44.0967 33.0937 43.9092 32.625 43.9092 32.3437C43.9092 31.875 44.1904 31.2187 45.5967 31.2187C45.9717 31.3125 46.9092 31.3125 46.9092 31.3125ZM47.7529 34.5938H49.7217C50.2842 31.5 50.3779 28.9687 51.6904 29.4375C51.8779 28.2187 52.1592 27.75 52.3467 27.2812H51.9717C51.1279 27.2812 50.4717 28.4062 50.4717 28.4062L50.6592 27.375" fill="#DCE5E5"/>
</g>
<defs>
<clipPath id="clip0_1504_62725">
<rect width="60" height="60" fill="white" transform="translate(0.97168)"/>
</clipPath>
</defs>
</svg>
