<svg width="187" height="40" viewBox="0 0 187 40" fill="none" xmlns="http://www.w3.org/2000/svg">
<g clip-path="url(#clip0_1504_62735)">
<path d="M186.725 18.0963V14.8029H182.669V9.68302L182.532 9.72541L178.722 10.9007L178.647 10.9237V14.8031H172.633V12.642C172.633 11.6357 172.856 10.8656 173.296 10.352C173.733 9.84461 174.357 9.58664 175.154 9.58664C175.727 9.58664 176.32 9.72269 176.917 9.99098L177.067 10.0584V6.59001L176.997 6.56393C176.44 6.36212 175.682 6.2605 174.743 6.2605C173.56 6.2605 172.485 6.52009 171.547 7.03456C170.609 7.54976 169.871 8.28524 169.354 9.22035C168.839 10.1544 168.578 11.2331 168.578 12.4269V14.8029H165.753V18.0963H168.578V31.9706H172.633V18.0963H178.647V26.9132C178.647 30.5444 180.346 32.3845 183.696 32.3845C184.247 32.3845 184.826 32.3195 185.418 32.1922C186.021 32.0614 186.431 31.9307 186.672 31.7913L186.726 31.7594V28.4356L186.561 28.5455C186.341 28.6934 186.067 28.8142 185.745 28.904C185.423 28.9955 185.153 29.0414 184.944 29.0414C184.159 29.0414 183.579 28.8281 183.218 28.4073C182.854 27.9827 182.669 27.2402 182.669 26.2014V18.0963H186.725ZM156.697 29.0419C155.225 29.0419 154.065 28.5499 153.247 27.5807C152.424 26.6067 152.008 25.218 152.008 23.4535C152.008 21.6331 152.424 20.2084 153.248 19.2171C154.066 18.2323 155.215 17.7325 156.664 17.7325C158.07 17.7325 159.19 18.2099 159.991 19.1521C160.797 20.0991 161.206 21.5125 161.206 23.3541C161.206 25.2183 160.822 26.6503 160.063 27.6083C159.31 28.559 158.178 29.0419 156.697 29.0419ZM156.878 14.3894C154.07 14.3894 151.839 15.2189 150.249 16.8549C148.66 18.491 147.854 20.7553 147.854 23.5852C147.854 26.2732 148.641 28.4352 150.192 30.0103C151.743 31.586 153.855 32.3842 156.467 32.3842C159.189 32.3842 161.375 31.5431 162.964 29.8844C164.554 28.2276 165.359 25.9848 165.359 23.2209C165.359 20.491 164.603 18.3128 163.112 16.7482C161.621 15.1828 159.523 14.3894 156.878 14.3894ZM141.316 14.3894C139.406 14.3894 137.826 14.8819 136.619 15.8531C135.405 16.83 134.789 18.1113 134.789 19.6618C134.789 20.4678 134.922 21.1837 135.183 21.7909C135.447 22.4001 135.854 22.9365 136.395 23.3867C136.932 23.8332 137.761 24.301 138.86 24.7768C139.784 25.16 140.472 25.4841 140.91 25.7395C141.337 25.9898 141.641 26.2415 141.812 26.4866C141.979 26.7264 142.063 27.0547 142.063 27.4597C142.063 28.6131 141.207 29.1743 139.444 29.1743C138.79 29.1743 138.044 29.0367 137.227 28.7653C136.416 28.498 135.65 28.1066 134.957 27.6048L134.788 27.4831V31.419L134.85 31.448C135.424 31.715 136.147 31.9402 137 32.1173C137.851 32.2947 138.624 32.3849 139.296 32.3849C141.369 32.3849 143.038 31.89 144.256 30.913C145.481 29.9294 146.102 28.6178 146.102 27.0137C146.102 25.8565 145.768 24.8642 145.109 24.0638C144.454 23.27 143.318 22.5412 141.733 21.8971C140.471 21.3862 139.662 20.9621 139.329 20.6366C139.007 20.3221 138.844 19.8774 138.844 19.3142C138.844 18.8149 139.045 18.4149 139.459 18.091C139.876 17.7655 140.457 17.5999 141.185 17.5999C141.86 17.5999 142.552 17.7075 143.239 17.9184C143.926 18.1293 144.529 18.4117 145.033 18.7571L145.199 18.8713V15.1377L145.135 15.1102C144.671 14.9093 144.058 14.7374 143.314 14.5979C142.573 14.4593 141.901 14.3894 141.316 14.3894ZM124.217 29.0419C122.746 29.0419 121.585 28.5499 120.767 27.5807C119.945 26.6067 119.528 25.2183 119.528 23.4535C119.528 21.6331 119.945 20.2084 120.768 19.2171C121.586 18.2323 122.735 17.7325 124.185 17.7325C125.59 17.7325 126.71 18.2099 127.512 19.1521C128.318 20.0991 128.726 21.5125 128.726 23.3541C128.726 25.2183 128.342 26.6503 127.583 27.6083C126.83 28.559 125.698 29.0419 124.217 29.0419ZM124.398 14.3894C121.589 14.3894 119.359 15.2189 117.77 16.8549C116.18 18.491 115.374 20.7553 115.374 23.5852C115.374 26.2743 116.161 28.4352 117.713 30.0103C119.264 31.586 121.375 32.3842 123.987 32.3842C126.709 32.3842 128.895 31.5431 130.485 29.8844C132.074 28.2276 132.879 25.9848 132.879 23.2209C132.879 20.491 132.124 18.3128 130.632 16.7482C129.14 15.1828 127.043 14.3894 124.398 14.3894ZM109.219 17.776V14.8029H105.213V31.9702H109.219V23.1885C109.219 21.6953 109.554 20.4685 110.217 19.5419C110.871 18.6263 111.743 18.1624 112.808 18.1624C113.169 18.1624 113.574 18.2224 114.012 18.341C114.446 18.459 114.761 18.587 114.946 18.7218L115.115 18.8448V14.7736L115.05 14.7455C114.677 14.5857 114.149 14.5051 113.481 14.5051C112.475 14.5051 111.574 14.8312 110.802 15.4732C110.125 16.0375 109.636 16.8112 109.261 17.776H109.219ZM98.0396 14.3894C96.2019 14.3894 94.5628 14.7866 93.1686 15.5698C91.7715 16.3547 90.691 17.4753 89.9559 18.9003C89.2241 20.3218 88.8525 21.9822 88.8525 23.8339C88.8525 25.456 89.2127 26.9445 89.9248 28.2564C90.6373 29.5705 91.6457 30.5986 92.9222 31.3116C94.197 32.0237 95.6702 32.3847 97.3015 32.3847C99.2051 32.3847 100.83 32.001 102.133 31.2444L102.186 31.2139V27.5142L102.018 27.6382C101.427 28.0717 100.768 28.4177 100.058 28.6669C99.3501 28.916 98.7047 29.0419 98.1386 29.0419C96.5669 29.0419 95.3051 28.5461 94.3892 27.5686C93.4714 26.5898 93.006 25.2154 93.006 23.4859C93.006 21.7456 93.4913 20.3359 94.4478 19.2957C95.4014 18.2586 96.6655 17.7325 98.2048 17.7325C99.5213 17.7325 100.804 18.182 102.018 19.0696L102.186 19.1926V15.2944L102.132 15.2636C101.675 15.0058 101.052 14.793 100.279 14.6316C99.5086 14.4705 98.7553 14.3894 98.0396 14.3894ZM86.0937 14.8031H82.088V31.9702H86.0937V14.8031ZM84.1318 7.4898C83.4725 7.4898 82.8975 7.71606 82.4251 8.16441C81.9508 8.61403 81.7102 9.18014 81.7102 9.84823C81.7102 10.5058 81.9479 11.0616 82.4178 11.4993C82.8846 11.9357 83.4614 12.1568 84.132 12.1568C84.8024 12.1568 85.3814 11.9357 85.8538 11.5C86.3293 11.0616 86.5704 10.506 86.5704 9.84823C86.5704 9.20351 86.3357 8.6432 85.8734 8.18253C85.4114 7.72276 84.8253 7.4898 84.1318 7.4898ZM74.1375 13.5365V31.9702H78.2254V8.01532H72.5675L65.376 25.8083L58.397 8.01532H52.5088V31.9701H56.3504V13.5347H56.4823L63.8519 31.9702H66.751L74.0056 13.5365H74.1375Z" fill="#706D6E"/>
<path d="M19.8154 19.0074H0.97168V0.0102539H19.8154V19.0074Z" fill="#F1511B"/>
<path d="M40.6207 19.0074H21.7773V0.0102539H40.6207V19.0074Z" fill="#80CC28"/>
<path d="M19.8148 39.9899H0.97168V20.9929H19.8148V39.9899Z" fill="#00ADEF"/>
<path d="M40.6207 39.9899H21.7773V20.9929H40.6207V39.9899Z" fill="#FBBC09"/>
</g>
<defs>
<clipPath id="clip0_1504_62735">
<rect width="185.753" height="40" fill="white" transform="translate(0.97168)"/>
</clipPath>
</defs>
</svg>
