<svg width="18" height="19" viewBox="0 0 18 19" fill="none" xmlns="http://www.w3.org/2000/svg">
<path d="M12.15 4.02499L12.675 3.12499C12.825 2.74999 12.75 2.29999 12.375 2.07499C12 1.92499 11.55 1.99999 11.325 2.37499L10.875 3.19999C11.325 3.34999 11.775 3.64999 12.15 4.02499ZM5.85 4.02499C6.225 3.64999 6.6 3.42499 7.125 3.19999L6.675 2.37499C6.45 1.99999 6 1.92499 5.625 2.07499C5.25 2.22499 5.175 2.74999 5.325 3.12499L5.85 4.02499ZM4.5 7.24999H13.5V8.74999H4.5V7.24999Z" fill="#FAFBFF"/>
<path d="M9 2.75C6.525 2.75 4.5 4.775 4.5 7.25H13.5C13.5 4.775 11.475 2.75 9 2.75ZM15.75 7.25C15.3 7.25 15 7.55 15 8V11C15 11.45 15.3 11.75 15.75 11.75C16.2 11.75 16.5 11.45 16.5 11V8C16.5 7.55 16.2 7.25 15.75 7.25ZM2.25 7.25C1.8 7.25 1.5 7.55 1.5 8V11C1.5 11.45 1.8 11.75 2.25 11.75C2.7 11.75 3 11.45 3 11V8C3 7.55 2.7 7.25 2.25 7.25ZM4.5 13.25C4.5 13.7 4.8 14 5.25 14H6.75V16.25C6.75 16.7 7.05 17 7.5 17C7.95 17 8.25 16.7 8.25 16.25V14H9.75V16.25C9.75 16.7 10.05 17 10.5 17C10.95 17 11.25 16.7 11.25 16.25V14H12.75C13.2 14 13.5 13.7 13.5 13.25V8.75H4.5V13.25Z" fill="#FAFBFF"/>
</svg>
