<svg width="18" height="19" viewBox="0 0 18 19" fill="none" xmlns="http://www.w3.org/2000/svg">
<path d="M11.2054 4.3925C11.4889 4.06571 11.7051 3.68613 11.8415 3.27555C11.9779 2.86498 12.0319 2.4315 12.0004 2C11.1299 2.07027 10.3219 2.47967 9.75036 3.14C9.47669 3.45648 9.26929 3.82466 9.14047 4.22273C9.01164 4.62081 8.964 5.04068 9.00036 5.4575C9.42497 5.46104 9.8447 5.36682 10.2271 5.18214C10.6094 4.99747 10.9442 4.72728 11.2054 4.3925ZM13.0954 9.9725C13.1004 9.3978 13.2518 8.83386 13.5352 8.3339C13.8187 7.83394 14.2248 7.41444 14.7154 7.115C14.4058 6.66893 13.9965 6.30112 13.52 6.04076C13.0436 5.78039 12.513 5.63461 11.9704 5.615C10.8004 5.495 9.72036 6.2975 9.09786 6.2975C8.47536 6.2975 7.59786 5.63 6.62286 5.645C5.98546 5.666 5.36438 5.85184 4.8202 6.18439C4.27602 6.51694 3.82732 6.98486 3.51786 7.5425C2.19786 9.8375 3.18036 13.25 4.50036 15.1025C5.10036 16.01 5.85036 17.0375 6.84036 17C7.83036 16.9625 8.15286 16.385 9.30036 16.385C10.4479 16.385 10.8004 17 11.7754 16.9775C12.7504 16.955 13.4404 16.0475 14.0704 15.14C14.5166 14.4811 14.8653 13.7612 15.1054 13.0025C14.511 12.749 14.0039 12.327 13.6466 11.7885C13.2894 11.25 13.0978 10.6187 13.0954 9.9725Z" fill="#FAFBFF"/>
</svg>
