<?xml version="1.0" encoding="UTF-8"?>
<svg xmlns="http://www.w3.org/2000/svg" xmlns:xlink="http://www.w3.org/1999/xlink" width="0" height="0">

<symbol id="cases" width="32" height="32" viewBox="0 0 32 32" fill="none">
<path d="M24.7079 20.2281L22.9038 19.3103L16.7507 22.4386C16.2789 22.6786 15.722 22.6786 15.2502 22.4386L9.09714 19.3103L7.293 20.2281C7.1568 20.2973 7.04242 20.4029 6.96252 20.5331C6.88262 20.6633 6.84033 20.8131 6.84033 20.9659C6.84033 21.1187 6.88262 21.2685 6.96252 21.3987C7.04242 21.5289 7.1568 21.6345 7.293 21.7037L15.2502 25.7498C15.722 25.9898 16.2789 25.9898 16.7507 25.7498L24.7079 21.7037C24.8441 21.6345 24.9585 21.5289 25.0384 21.3987C25.1183 21.2685 25.1606 21.1187 25.1606 20.9659C25.1606 20.8131 25.1183 20.6633 25.0384 20.5331C24.9585 20.4029 24.8441 20.2973 24.7079 20.2281Z"/>
<path d="M24.7079 15.2625L22.9038 14.3447L16.7507 17.473C16.2789 17.713 15.722 17.713 15.2502 17.473L9.09714 14.3447L7.293 15.2625C7.1568 15.3317 7.04242 15.4373 6.96252 15.5675C6.88262 15.6977 6.84033 15.8475 6.84033 16.0003C6.84033 16.1531 6.88262 16.3029 6.96252 16.4331C7.04242 16.5633 7.1568 16.6689 7.293 16.7381L15.2502 20.7842C15.722 21.0242 16.2789 21.0242 16.7507 20.7842L24.7079 16.7381C24.8441 16.6689 24.9585 16.5633 25.0384 16.4331C25.1183 16.3029 25.1606 16.1531 25.1606 16.0003C25.1606 15.8475 25.1183 15.6977 25.0384 15.5675C24.9585 15.4373 24.8441 15.3317 24.7079 15.2625Z"/>
<path d="M15.2501 6.25102L7.29203 10.2971C7.15583 10.3663 7.04144 10.4719 6.96154 10.6021C6.88165 10.7323 6.83936 10.8821 6.83936 11.0349C6.83936 11.1877 6.88165 11.3375 6.96154 11.4677C7.04144 11.5979 7.15583 11.7035 7.29203 11.7727L15.2493 15.8187C15.721 16.0587 16.278 16.0587 16.7497 15.8187L24.7069 11.7727C24.8431 11.7035 24.9575 11.5979 25.0374 11.4677C25.1173 11.3375 25.1596 11.1877 25.1596 11.0349C25.1596 10.8821 25.1173 10.7323 25.0374 10.6021C24.9575 10.4719 24.8431 10.3663 24.7069 10.2971L16.7497 6.25102C16.5175 6.13272 16.2605 6.07104 15.9999 6.07104C15.7393 6.07104 15.4823 6.13272 15.2501 6.25102Z"/>
</symbol>

<symbol id="clients" width="32" height="32" viewBox="0 0 32 32" fill="none">
<path d="M14.8 11.2001C14.8 12.1549 14.4207 13.0706 13.7455 13.7457C13.0704 14.4208 12.1547 14.8001 11.2 14.8001C10.2452 14.8001 9.3295 14.4208 8.65437 13.7457C7.97924 13.0706 7.59995 12.1549 7.59995 11.2001C7.59995 10.2453 7.97924 9.32964 8.65437 8.65451C9.3295 7.97938 10.2452 7.6001 11.2 7.6001C12.1547 7.6001 13.0704 7.97938 13.7455 8.65451C14.4207 9.32964 14.8 10.2453 14.8 11.2001V11.2001ZM24.4 11.2001C24.4 11.6729 24.3068 12.141 24.1259 12.5778C23.945 13.0145 23.6798 13.4114 23.3455 13.7457C23.0112 14.08 22.6144 14.3451 22.1776 14.5261C21.7408 14.707 21.2727 14.8001 20.8 14.8001C20.3272 14.8001 19.8591 14.707 19.4223 14.5261C18.9855 14.3451 18.5887 14.08 18.2544 13.7457C17.9201 13.4114 17.6549 13.0145 17.474 12.5778C17.2931 12.141 17.2 11.6729 17.2 11.2001C17.2 10.2453 17.5792 9.32964 18.2544 8.65451C18.9295 7.97938 19.8452 7.6001 20.8 7.6001C21.7547 7.6001 22.6704 7.97938 23.3455 8.65451C24.0207 9.32964 24.4 10.2453 24.4 11.2001V11.2001ZM19.516 24.4001C19.5712 24.0077 19.6 23.6081 19.6 23.2001C19.6027 21.3147 18.9684 19.4837 17.8 18.0041C18.7121 17.4775 19.7467 17.2003 20.7999 17.2002C21.8531 17.2002 22.8878 17.4775 23.7999 18.0041C24.712 18.5307 25.4694 19.2881 25.996 20.2002C26.5227 21.1122 26.7999 22.1469 26.7999 23.2001V24.4001H19.516ZM11.2 17.2001C12.7912 17.2001 14.3174 17.8322 15.4426 18.9575C16.5678 20.0827 17.2 21.6088 17.2 23.2001V24.4001H5.19995V23.2001C5.19995 21.6088 5.83209 20.0827 6.95731 18.9575C8.08253 17.8322 9.60865 17.2001 11.2 17.2001V17.2001Z"/>
</symbol>

<symbol id="gavel" width="32" height="32" viewBox="0 0 32 32" fill="none">
<path d="M14.9199 11.6275C14.9894 11.6984 15.0722 11.7548 15.1636 11.7934C15.255 11.832 15.3532 11.8521 15.4524 11.8525C15.6503 11.8497 15.839 11.7688 15.9774 11.6275L16.0674 11.5375L16.9974 12.475L18.0549 13.5325L19.0824 14.56L18.9999 14.6425C18.9296 14.7122 18.8738 14.7952 18.8358 14.8866C18.7977 14.978 18.7781 15.076 18.7781 15.175C18.7781 15.274 18.7977 15.372 18.8358 15.4634C18.8738 15.5548 18.9296 15.6378 18.9999 15.7075L21.0699 17.7775C21.2105 17.9172 21.4005 17.9956 21.5987 17.9956C21.7968 17.9956 21.9869 17.9172 22.1274 17.7775L25.6599 14.2525C25.7302 14.1828 25.786 14.0998 25.8241 14.0084C25.8622 13.9171 25.8818 13.819 25.8818 13.72C25.8818 13.621 25.8622 13.523 25.8241 13.4316C25.786 13.3402 25.7302 13.2572 25.6599 13.1875L23.5899 11.1175C23.5202 11.0472 23.4373 10.9914 23.3459 10.9533C23.2545 10.9153 23.1564 10.8957 23.0574 10.8957C22.9584 10.8957 22.8604 10.9153 22.769 10.9533C22.6776 10.9914 22.5947 11.0472 22.5249 11.1175L22.4424 11.2075L19.4424 8.20751L19.5324 8.12501C19.6027 8.05529 19.6585 7.97234 19.6966 7.88094C19.7347 7.78955 19.7543 7.69152 19.7543 7.59251C19.7543 7.4935 19.7347 7.39547 19.6966 7.30408C19.6585 7.21269 19.6027 7.12973 19.5324 7.06001L17.4399 4.96751C17.3698 4.898 17.2867 4.84301 17.1954 4.80568C17.104 4.76836 17.0061 4.74944 16.9074 4.75001C16.7089 4.75278 16.5187 4.83046 16.3749 4.96751L12.8499 8.50001C12.7102 8.64053 12.6318 8.83062 12.6318 9.02876C12.6318 9.2269 12.7102 9.41699 12.8499 9.55751L14.9199 11.6275Z"/>
<path d="M16.465 13L13.75 15.7L13.1425 15.0925C12.9991 14.9696 12.8145 14.9054 12.6257 14.9127C12.437 14.92 12.2579 14.9983 12.1244 15.1318C11.9908 15.2654 11.9125 15.4445 11.9052 15.6332C11.898 15.822 11.9622 16.0065 12.085 16.15L12.6925 16.7575L9.44503 20.035C9.87552 20.2998 10.2378 20.662 10.5025 21.0925L13.75 17.815L14.35 18.415C14.4935 18.5379 14.6781 18.6021 14.8668 18.5948C15.0556 18.5875 15.2346 18.5092 15.3682 18.3757C15.5018 18.2421 15.58 18.063 15.5873 17.8743C15.5946 17.6855 15.5304 17.501 15.4075 17.3575L14.8075 16.7575L17.5 14.065L16.465 13ZM8.89753 20.575C8.53172 20.376 8.12148 20.2728 7.70503 20.275C7.20069 20.275 6.70767 20.4246 6.28833 20.7048C5.86898 20.9849 5.54214 21.3832 5.34914 21.8492C5.15613 22.3151 5.10564 22.8278 5.20403 23.3225C5.30242 23.8171 5.54528 24.2715 5.90191 24.6281C6.25853 24.9847 6.7129 25.2276 7.20755 25.326C7.7022 25.4244 8.21492 25.3739 8.68087 25.1809C9.14682 24.9879 9.54508 24.661 9.82528 24.2417C10.1055 23.8224 10.255 23.3293 10.255 22.825C10.2583 22.4084 10.155 21.998 9.95503 21.6325C9.71766 21.1811 9.34892 20.8124 8.89753 20.575ZM24.0625 23.65H20.59C20.2195 23.6519 19.853 23.7274 19.5118 23.8722C19.1707 24.0169 18.8617 24.228 18.6028 24.4932C18.344 24.7583 18.1404 25.0723 18.0038 25.4168C17.8673 25.7613 17.8006 26.1295 17.8075 26.5C17.8075 26.6989 17.8865 26.8897 18.0272 27.0303C18.1679 27.171 18.3586 27.25 18.5575 27.25H26.095C26.3019 27.2347 26.495 27.1406 26.6346 26.9871C26.7741 26.8336 26.8494 26.6324 26.845 26.425C26.843 25.6883 26.549 24.9825 26.0274 24.4623C25.5058 23.9421 24.7992 23.65 24.0625 23.65Z"/>
</symbol>

<symbol id="key" width="32" height="32" viewBox="0 0 32 32" fill="none">
<path fill-rule="evenodd" clip-rule="evenodd" d="M25.5999 13.6C25.6002 14.7246 25.3371 15.8337 24.8316 16.8383C24.3262 17.8429 23.5924 18.7151 22.6891 19.3851C21.7859 20.055 20.7382 20.5041 19.6301 20.6963C18.5221 20.8884 17.3844 20.8183 16.3083 20.4916L15.9999 20.8L14.7999 22L13.5999 23.2H11.1999V25.6H6.3999V20.8L11.5083 15.6916C11.2088 14.7017 11.1262 13.6588 11.266 12.634C11.4057 11.6092 11.7647 10.6265 12.3183 9.7529C12.8719 8.87927 13.6073 8.13518 14.4743 7.57126C15.3414 7.00735 16.3197 6.63686 17.3428 6.48501C18.3659 6.33315 19.4097 6.4035 20.4031 6.69126C21.3966 6.97903 22.3163 7.47745 23.0999 8.1526C23.8834 8.82775 24.5123 9.66379 24.9437 10.6038C25.3751 11.5438 25.5989 12.5658 25.5999 13.6V13.6ZM18.3999 8.80004C18.0816 8.80004 17.7764 8.92647 17.5514 9.15151C17.3263 9.37656 17.1999 9.68178 17.1999 10C17.1999 10.3183 17.3263 10.6235 17.5514 10.8486C17.7764 11.0736 18.0816 11.2 18.3999 11.2C19.0364 11.2 19.6469 11.4529 20.097 11.903C20.547 12.3531 20.7999 12.9635 20.7999 13.6C20.7999 13.9183 20.9263 14.2235 21.1514 14.4486C21.3764 14.6736 21.6816 14.8 21.9999 14.8C22.3182 14.8 22.6234 14.6736 22.8484 14.4486C23.0735 14.2235 23.1999 13.9183 23.1999 13.6C23.1999 12.327 22.6942 11.1061 21.794 10.2059C20.8938 9.30575 19.6729 8.80004 18.3999 8.80004Z"/>
</symbol>

<symbol id="law_overview" width="32" height="32" viewBox="0 0 32 32" fill="none">
<path d="M25 13H23V11.3506C23 10.4707 22.6025 9.65633 21.9092 9.11523C21.2159 8.57413 20.3281 8.38382 19.4776 8.60062L11.1475 10.6826C9.8828 10.998 9 12.1289 9 13.4326V15H7C6.4473 15 6 15.4473 6 16V16.5C6 18.4297 7.5703 20 9.5 20H10.5C12.4297 20 14 18.4297 14 16.5V16C14 15.4473 13.5527 15 13 15H11V13.4326C11 13.0488 11.2598 12.7158 11.6318 12.6221L15 11.7803V21H17V11.2805L19.9629 10.54C20.2139 10.4785 20.4766 10.5341 20.6787 10.6923C20.8828 10.8516 21 11.0918 21 11.3506V13H19C18.4473 13 18 13.4473 18 14V14.5C18 16.4297 19.5703 18 21.5 18H22.5C24.4297 18 26 16.4297 26 14.5V14C26 13.4473 25.5527 13 25 13ZM11.9141 17C11.708 17.582 11.1523 18 10.5 18H9.5C8.8477 18 8.292 17.582 8.0859 17H11.9141ZM22.5 16H21.5C20.8477 16 20.292 15.582 20.0859 15H23.914C23.708 15.582 23.1523 16 22.5 16ZM18 24C18.5527 24 19 23.5527 19 23C19 22.4473 18.5527 22 18 22H14C13.4473 22 13 22.4473 13 23C13 23.5527 13.4473 24 14 24H18Z"/>
</symbol>

<symbol id="receipt" width="32" height="32" viewBox="0 0 32 32" fill="none">
<path fill-rule="evenodd" clip-rule="evenodd" d="M10.0001 6.3999C9.36358 6.3999 8.75313 6.65276 8.30304 7.10285C7.85295 7.55293 7.6001 8.16338 7.6001 8.7999V25.5999L11.8001 23.1999L16.0001 25.5999L20.2001 23.1999L24.4001 25.5999V8.7999C24.4001 8.16338 24.1472 7.55293 23.6972 7.10285C23.2471 6.65276 22.6366 6.3999 22.0001 6.3999H10.0001ZM13.0001 9.9999C12.5227 9.9999 12.0649 10.1895 11.7273 10.5271C11.3897 10.8647 11.2001 11.3225 11.2001 11.7999C11.2001 12.2773 11.3897 12.7351 11.7273 13.0727C12.0649 13.4103 12.5227 13.5999 13.0001 13.5999C13.4775 13.5999 13.9353 13.4103 14.2729 13.0727C14.6105 12.7351 14.8001 12.2773 14.8001 11.7999C14.8001 11.3225 14.6105 10.8647 14.2729 10.5271C13.9353 10.1895 13.4775 9.9999 13.0001 9.9999V9.9999ZM20.4485 10.3515C20.2235 10.1265 19.9183 10.0002 19.6001 10.0002C19.2819 10.0002 18.9767 10.1265 18.7517 10.3515L11.5517 17.5515C11.4371 17.6622 11.3457 17.7946 11.2828 17.941C11.2199 18.0874 11.1868 18.2449 11.1854 18.4042C11.184 18.5636 11.2144 18.7216 11.2747 18.869C11.335 19.0165 11.4242 19.1505 11.5368 19.2632C11.6495 19.3758 11.7835 19.465 11.931 19.5253C12.0784 19.5856 12.2364 19.616 12.3958 19.6146C12.5551 19.6132 12.7126 19.5801 12.859 19.5172C13.0054 19.4543 13.1378 19.3629 13.2485 19.2483L20.4485 12.0483C20.6735 11.8233 20.7998 11.5181 20.7998 11.1999C20.7998 10.8817 20.6735 10.5765 20.4485 10.3515V10.3515ZM19.0001 15.9999C18.5227 15.9999 18.0649 16.1895 17.7273 16.5271C17.3897 16.8647 17.2001 17.3225 17.2001 17.7999C17.2001 18.2773 17.3897 18.7351 17.7273 19.0727C18.0649 19.4103 18.5227 19.5999 19.0001 19.5999C19.4775 19.5999 19.9353 19.4103 20.2729 19.0727C20.6105 18.7351 20.8001 18.2773 20.8001 17.7999C20.8001 17.3225 20.6105 16.8647 20.2729 16.5271C19.9353 16.1895 19.4775 15.9999 19.0001 15.9999V15.9999Z"/>
</symbol>

<symbol id="user" width="32" height="32" viewBox="0 0 32 32" fill="none">
<path fill-rule="evenodd" clip-rule="evenodd" d="M16.0001 14.8001C16.9549 14.8001 17.8706 14.4208 18.5457 13.7457C19.2208 13.0706 19.6001 12.1549 19.6001 11.2001C19.6001 10.2453 19.2208 9.32964 18.5457 8.65451C17.8706 7.97938 16.9549 7.6001 16.0001 7.6001C15.0453 7.6001 14.1296 7.97938 13.4545 8.65451C12.7794 9.32964 12.4001 10.2453 12.4001 11.2001C12.4001 12.1549 12.7794 13.0706 13.4545 13.7457C14.1296 14.4208 15.0453 14.8001 16.0001 14.8001V14.8001ZM7.6001 25.6001C7.6001 24.497 7.81737 23.4047 8.23951 22.3856C8.66165 21.3664 9.28039 20.4404 10.0604 19.6604C10.8404 18.8804 11.7664 18.2616 12.7856 17.8395C13.8047 17.4174 14.897 17.2001 16.0001 17.2001C17.1032 17.2001 18.1955 17.4174 19.2146 17.8395C20.2338 18.2616 21.1598 18.8804 21.9398 19.6604C22.7198 20.4404 23.3385 21.3664 23.7607 22.3856C24.1828 23.4047 24.4001 24.497 24.4001 25.6001H7.6001Z"/>
</symbol>

</svg>