<svg width="200" height="46" viewBox="0 0 200 46" fill="none" xmlns="http://www.w3.org/2000/svg">
<g clip-path="url(#clip0_1642_62535)">
<path d="M21.8249 45.5851C33.8785 45.5851 43.6499 35.3805 43.6499 22.7925C43.6499 10.2046 33.8785 0 21.8249 0C9.77136 0 0 10.2046 0 22.7925C0 35.3805 9.77136 45.5851 21.8249 45.5851Z" fill="#232323"/>
<path d="M9.49414 16.3541C9.49414 16.3541 11.8369 14.2938 14.7962 13.2636L11.8369 25.6256L11.0971 29.2312C11.0971 29.2312 9.98736 33.9958 12.8234 34.2533L14.4263 34.3821C14.4263 34.3821 14.303 34.1246 14.6729 32.0642C15.0429 30.0039 17.8789 14.2938 19.2352 11.7183C19.2352 11.7183 23.0577 10.1731 28.9763 10.6882C28.9763 10.6882 28.3598 7.85518 25.6471 7.72641C22.9344 7.59764 13.9331 8.88535 10.4806 10.5594C9.9228 12.4407 9.59144 14.3873 9.49414 16.3541Z" fill="#FAFBFF"/>
<path d="M19.853 22.2773C19.853 22.2773 18.3734 24.3376 17.7568 31.8064C17.7568 31.8064 18.8666 33.4804 20.7162 33.2228C20.7162 33.2228 24.4153 25.239 25.7716 23.6938L24.1687 30.2611C24.1687 30.2611 23.435 33.4057 27.0688 33.2499C27.0688 33.2499 27.9911 32.2519 28.9776 29.9688C29.964 27.6857 30.7038 26.913 30.7038 26.913L29.2242 32.579C29.2242 32.579 28.1144 36.5709 31.6903 36.8285C31.6903 36.8285 32.5534 31.1625 33.7865 27.2994C35.0195 23.4362 33.0466 21.2471 30.8271 23.1787C30.8271 23.1787 29.4708 24.3376 28.2377 27.1706L29.7174 21.7622C29.7174 21.7622 30.2106 19.058 27.9911 18.8004C25.7716 18.5429 22.689 25.239 21.8259 26.913L22.4424 24.7239C22.4424 24.7239 22.9356 23.565 21.8259 22.9211C20.7162 22.2773 19.853 22.2773 19.853 22.2773Z" fill="#FAFBFF"/>
<path d="M65.3748 15.229C64.8199 15.229 63.956 15.1889 62.7829 15.1087C61.654 15.0245 60.7872 14.9884 60.1911 14.9944C60.2199 15.8425 60.3159 17.3463 60.479 19.5057C60.6288 21.4225 60.7037 22.9383 60.7037 24.0531C60.7104 24.4291 60.7354 24.8045 60.7786 25.1779C60.8275 25.6771 60.8534 26.0531 60.8534 26.3057C60.8607 26.8289 60.7429 27.3458 60.5107 27.8095C60.4051 28.0641 60.2306 28.2809 60.0085 28.4332C59.7864 28.5855 59.5265 28.6666 59.2609 28.6666C58.8828 28.6713 58.5157 28.5336 58.227 28.2787C58.0685 28.1487 57.9408 27.9823 57.8539 27.7925C57.767 27.6026 57.7232 27.3943 57.7259 27.1839C57.7316 27.0254 57.7489 26.8675 57.7777 26.7117C57.8092 26.5523 57.8275 26.3903 57.8325 26.2275C57.8325 25.8847 57.8094 25.3674 57.7633 24.6786C57.7173 23.9899 57.6942 23.4756 57.6942 23.1177C57.6942 22.1152 57.6194 20.7668 57.4696 19.0726C57.2968 17.1177 57.2008 15.7683 57.1816 15.0245H56.6114C55.3431 15.0572 54.0754 14.9381 52.833 14.6696C52.044 14.4791 51.6494 13.9969 51.6494 13.2229C51.6509 12.8433 51.7874 12.4778 52.0324 12.1974C52.1743 12.0206 52.3558 11.8834 52.5608 11.7978C52.7659 11.7123 52.988 11.6811 53.2074 11.7072C53.457 11.7212 54.0224 11.7843 54.9036 11.8966C55.4705 11.9687 56.0405 12.0099 56.6114 12.0199C57.0453 12.0199 57.6952 12.0129 58.5611 11.9989C59.4269 11.9849 60.0759 11.9768 60.5078 11.9748C61.0493 11.9748 61.8585 12.0139 62.9413 12.0921C64.0241 12.1703 64.8334 12.2094 65.3748 12.2094C65.572 12.2037 65.7682 12.2391 65.9521 12.3135C66.1361 12.3878 66.304 12.4997 66.4461 12.6425C66.5858 12.7795 66.6964 12.9456 66.7708 13.13C66.8452 13.3144 66.8817 13.5131 66.8781 13.7132C66.8815 13.9141 66.8448 14.1136 66.7705 14.2989C66.6961 14.4843 66.5856 14.6515 66.4461 14.7899C66.305 14.9346 66.1374 15.0481 65.9533 15.1236C65.7693 15.199 65.5725 15.2349 65.3748 15.229Z" fill="#232323"/>
<path d="M76.7851 20.5586C76.7189 21.6955 76.2264 22.2639 75.2991 22.2639C74.3718 22.2639 73.9542 21.7797 73.9542 20.8143L73.9024 19.6895C73.1681 19.7806 72.4679 20.0645 71.8671 20.5147C71.2663 20.9649 70.7846 21.5667 70.4667 22.2639V27.8699C70.4719 28.0659 70.4377 28.2609 70.3663 28.4422C70.2949 28.6235 70.1878 28.7872 70.052 28.9226C69.9112 29.062 69.7452 29.1707 69.5638 29.2425C69.3823 29.3143 69.189 29.3476 68.9951 29.3406C68.8031 29.3523 68.611 29.3184 68.4334 29.2413C68.2558 29.1642 68.0973 29.0459 67.9699 28.8955C67.7434 28.6108 67.6255 28.2488 67.6387 27.879V20.5677C67.6387 20.3391 67.6387 19.9962 67.6588 19.5391C67.679 19.0819 67.679 18.7361 67.679 18.5075C67.6673 18.1244 67.796 17.7511 68.039 17.4639C68.1695 17.322 68.3281 17.2117 68.5037 17.1405C68.6793 17.0693 68.8676 17.0391 69.0556 17.0519C69.8485 17.0519 70.3189 17.4759 70.4667 18.324C71.67 17.3627 73.1448 16.8455 74.6598 16.8534C76.0824 16.8534 76.7937 17.8408 76.7937 19.8158C76.7937 20.1907 76.7909 20.4383 76.7851 20.5586Z" fill="#232323"/>
<path d="M81.6824 23.3675C81.6824 23.7885 81.6824 24.4712 81.7199 25.4066C81.7573 26.3419 81.7544 27.0216 81.7544 27.4457C81.7602 27.6435 81.7263 27.8404 81.6549 28.0238C81.5834 28.2071 81.4761 28.3729 81.3397 28.5103C81.0481 28.7797 80.6722 28.9284 80.2828 28.9284C79.8935 28.9284 79.5176 28.7797 79.2259 28.5103C79.0895 28.3729 78.9822 28.2071 78.9108 28.0238C78.8393 27.8404 78.8054 27.6435 78.8112 27.4457C78.8112 27.0216 78.8112 26.3419 78.7738 25.4066C78.7363 24.4712 78.7363 23.7885 78.7363 23.3675C78.7363 22.7058 78.7718 21.8767 78.8429 20.8802C78.912 19.8847 78.9494 19.0577 78.9494 18.396C78.9433 18.1981 78.9771 18.0011 79.0485 17.8177C79.1199 17.6343 79.2275 17.4686 79.3641 17.3313C79.6558 17.062 80.0317 16.9133 80.421 16.9133C80.8104 16.9133 81.1863 17.062 81.4779 17.3313C81.615 17.4684 81.723 17.634 81.7949 17.8174C81.8668 18.0008 81.9011 18.1979 81.8955 18.396C81.8955 19.0577 81.8581 19.8847 81.789 20.8802C81.7199 21.8757 81.6824 22.7058 81.6824 23.3675ZM80.7753 15.196C80.3334 15.2046 79.9058 15.033 79.583 14.7178C79.4254 14.5705 79.2994 14.3902 79.2131 14.1886C79.1268 13.987 79.0822 13.7687 79.0822 13.5479C79.0822 13.327 79.1268 13.1087 79.2131 12.9071C79.2994 12.7055 79.4254 12.5252 79.583 12.3779C79.9032 12.0619 80.329 11.8892 80.7695 11.8967C81.2074 11.8894 81.6305 12.0622 81.9474 12.3779C82.1033 12.5262 82.228 12.7068 82.3132 12.9083C82.3985 13.1098 82.4425 13.3276 82.4425 13.5479C82.4425 13.7681 82.3985 13.986 82.3132 14.1874C82.228 14.3889 82.1033 14.5695 81.9474 14.7178C81.6308 15.0298 81.2106 15.2013 80.7753 15.196Z" fill="#232323"/>
<path d="M93.6782 29.2082C93.3499 29.2082 92.8305 28.8773 92.1202 28.2157C91.5603 28.5015 90.9831 28.7486 90.3923 28.9555C89.9837 29.1068 89.5554 29.192 89.1223 29.2082C87.4059 29.2082 86.1195 28.728 85.2633 27.7676C84.407 26.8072 83.9779 25.3736 83.976 23.4668C83.9667 22.604 84.1311 21.7488 84.4585 20.9567C84.786 20.1645 85.2691 19.453 85.8767 18.8683C86.4752 18.2505 87.1856 17.7635 87.9663 17.4356C88.7471 17.1077 89.5825 16.9455 90.424 16.9585C91.2368 16.9939 92.0348 17.1984 92.771 17.56C93.8462 18.0372 94.3837 18.5926 94.3837 19.2262C94.3865 19.4818 94.2982 19.7294 94.1361 19.9209C94.0549 20.286 94 20.657 93.9719 21.0307C93.9316 21.4758 93.9115 21.9961 93.9115 22.5916C93.9115 23.9961 94.0094 24.9976 94.1994 25.6262C94.2196 25.6924 94.3837 26.0743 94.689 26.7751C94.8614 27.12 95.0013 27.4816 95.1066 27.8548C95.11 28.0403 95.0729 28.2243 94.998 28.3926C94.9232 28.5609 94.8126 28.7092 94.6746 28.8262C94.3984 29.0766 94.0439 29.2125 93.6782 29.2082ZM91.0316 21.6893C91.0327 21.4159 91.049 21.1427 91.0806 20.8713C91.1122 20.5705 91.1583 20.2186 91.2245 19.8397C91.1027 19.7739 90.9755 19.7195 90.8444 19.6773C90.7512 19.6464 90.6542 19.6292 90.5564 19.6262C90.0769 19.6269 89.6029 19.733 89.1653 19.9377C88.7277 20.1424 88.3362 20.441 88.0164 20.8141C87.6697 21.1742 87.3949 21.6026 87.208 22.0745C87.0212 22.5464 86.9259 23.0524 86.9278 23.563C86.9278 24.5655 87.0987 25.3134 87.4404 25.8066C87.6146 26.0573 87.8467 26.2577 88.1151 26.3892C88.3836 26.5206 88.6795 26.5789 88.9754 26.5585C89.4037 26.5617 89.829 26.4843 90.231 26.33C90.6362 26.1726 91.013 25.9449 91.3455 25.6563C91.1684 24.3393 91.0636 23.0128 91.0316 21.6833V21.6893Z" fill="#232323"/>
<path d="M99.9001 26.9555C99.9001 28.359 99.4086 29.0608 98.4256 29.0608C98.2313 29.0675 98.0376 29.0334 97.856 28.9606C97.6745 28.8877 97.5088 28.7776 97.3687 28.6367C97.2311 28.4946 97.1231 28.3242 97.0518 28.1363C96.9804 27.9484 96.9471 27.747 96.954 27.545V12.1434C96.9489 11.9435 96.9863 11.7448 97.0634 11.5618C97.1406 11.3787 97.2557 11.2158 97.4004 11.0848C97.6965 10.8278 98.0725 10.693 98.4573 10.7058C98.8388 10.6915 99.2106 10.8328 99.4941 11.0998C99.6289 11.2336 99.7349 11.3959 99.8049 11.5759C99.875 11.7558 99.9074 11.9493 99.9001 12.1434V26.9555Z" fill="#232323"/>
<path d="M116.637 19.7886C116.314 20.9916 115.866 22.8082 115.292 25.2382C115.157 26.0763 115.025 26.9124 114.894 27.7465C114.603 28.8012 114.066 29.3285 113.285 29.3285C113.067 29.3378 112.851 29.2956 112.651 29.2049C112.452 29.1143 112.274 28.9776 112.133 28.8052C111.892 28.5106 111.763 28.1339 111.77 27.7465C111.816 26.25 112.065 24.7677 112.507 23.3435C113.239 20.751 113.633 19.3134 113.691 19.0307C113.898 17.8878 114.105 16.742 114.321 15.5991C114.64 14.0232 114.987 12.9735 115.361 12.4502C115.517 12.2077 115.727 12.009 115.974 11.8715C116.22 11.7341 116.495 11.6622 116.775 11.6622C117.087 11.6567 117.393 11.7523 117.651 11.936C117.909 12.1197 118.106 12.3823 118.215 12.6878C118.503 13.3344 118.805 14.6577 119.131 16.6578C119.484 18.7709 119.951 20.8615 120.53 22.9194C121.339 20.7139 122.092 18.2918 122.791 15.6532L123.39 13.0908C123.773 12.0261 124.369 11.4968 125.173 11.4968C125.976 11.4968 126.523 12.1134 126.901 13.3465C127.138 14.2596 127.305 15.1908 127.402 16.1314C127.728 18.879 128.242 21.5987 128.94 24.2698C129.573 26.5636 129.89 27.8117 129.89 28.0142C129.892 28.2258 129.848 28.4353 129.761 28.6265C129.675 28.8178 129.547 28.9858 129.389 29.118C129.093 29.3784 128.719 29.5203 128.332 29.518C127.557 29.518 126.981 28.9405 126.604 27.7796L126.005 25.0728C125.665 23.7375 125.296 21.8167 124.896 19.3104C124.576 20.3129 124.046 21.8778 123.307 24.0051L122.664 26.0743C122.452 26.7658 122.177 27.4345 121.844 28.0713C121.701 28.3821 121.477 28.6443 121.198 28.8275C120.919 29.0106 120.595 29.1072 120.265 29.1059C119.595 29.1059 119.083 28.6939 118.728 27.8698L118.129 25.7736C117.583 23.8768 117.086 21.8818 116.637 19.7886Z" fill="#232323"/>
<path d="M140.584 29.2081C140.256 29.2081 139.737 28.8773 139.026 28.2156C138.467 28.5014 137.889 28.7485 137.299 28.9555C136.89 29.1068 136.462 29.192 136.029 29.2081C134.316 29.2081 133.03 28.7279 132.17 27.7675C131.309 26.8071 130.881 25.3735 130.885 23.4667C130.876 22.604 131.04 21.7488 131.368 20.9566C131.695 20.1644 132.178 19.4529 132.786 18.8682C133.384 18.2508 134.094 17.764 134.874 17.4361C135.654 17.1082 136.489 16.9458 137.33 16.9584C138.144 16.9935 138.943 17.198 139.68 17.56C140.753 18.0371 141.29 18.5925 141.29 19.2261C141.294 19.4814 141.207 19.729 141.045 19.9209C140.963 20.2859 140.907 20.6569 140.878 21.0306C140.841 21.4758 140.821 21.9961 140.821 22.5916C140.821 23.9961 140.916 24.9976 141.109 25.6261C141.132 25.6923 141.293 26.0743 141.601 26.775C141.773 27.1196 141.912 27.4813 142.016 27.8547C142.019 28.0403 141.982 28.2242 141.907 28.3925C141.832 28.5609 141.722 28.7092 141.584 28.8262C141.307 29.0779 140.951 29.214 140.584 29.2081ZM137.935 21.6893C137.938 21.4159 137.954 21.1428 137.984 20.8712C138.016 20.5705 138.065 20.2186 138.128 19.8397C138.007 19.7734 137.881 19.719 137.751 19.6773C137.657 19.6466 137.56 19.6294 137.463 19.6261C136.983 19.6264 136.508 19.7324 136.07 19.9371C135.632 20.1417 135.24 20.4406 134.92 20.8141C134.573 21.1742 134.298 21.6026 134.111 22.0745C133.925 22.5464 133.829 23.0523 133.831 23.563C133.831 24.5585 134.004 25.3073 134.344 25.8066C134.519 26.057 134.751 26.2573 135.02 26.3887C135.289 26.5201 135.585 26.5785 135.882 26.5585C136.309 26.5614 136.733 26.484 137.134 26.3299C137.541 26.1733 137.919 25.9455 138.252 25.6562C138.074 24.3392 137.968 23.0128 137.935 21.6833V21.6893Z" fill="#232323"/>
<path d="M151.928 29.3824C151.053 29.3824 150.565 28.9323 150.465 28.032C150.368 27.2681 150.267 26.4982 150.177 25.7253C150.073 24.9612 150.019 24.1904 150.016 23.4185C150.016 23.226 150.016 22.8952 150.054 22.426C150.091 21.9568 150.091 21.629 150.091 21.4335C150.091 21.3824 150.091 21.2501 150.111 21.0395C150.131 20.829 150.134 20.6546 150.134 20.5222C150.134 19.9057 149.99 19.5959 149.705 19.5959C149.098 19.5959 148.499 20.0049 147.914 20.823C147.273 21.7616 146.806 22.8174 146.537 23.9358C146.537 24.1854 146.494 24.5373 146.448 24.9403C146.408 25.2735 146.388 25.609 146.388 25.9448C146.38 26.2676 146.357 26.5898 146.318 26.9102C146.28 27.2306 146.257 27.5528 146.249 27.8756C146.255 28.076 146.22 28.2754 146.147 28.4608C146.074 28.6463 145.965 28.8137 145.826 28.9523C145.686 29.0947 145.52 29.2061 145.338 29.28C145.156 29.3539 144.961 29.3887 144.766 29.3824C144.572 29.3896 144.378 29.3554 144.196 29.282C144.014 29.2086 143.849 29.0975 143.709 28.9553C143.572 28.8171 143.464 28.6505 143.392 28.4661C143.32 28.2817 143.286 28.0837 143.292 27.8847C143.292 27.6711 143.272 27.3523 143.228 26.9253C143.185 26.4982 143.165 26.1764 143.165 25.9659C143.165 25.238 143.215 24.2275 143.315 22.9343C143.413 21.641 143.465 20.6305 143.465 19.9027C143.465 19.6771 143.45 19.3373 143.427 18.8891C143.404 18.441 143.39 18.1042 143.39 17.8846C143.384 17.6874 143.42 17.4914 143.495 17.3101C143.57 17.1289 143.681 16.9667 143.822 16.835C144.11 16.5583 144.49 16.4095 144.881 16.42C145.815 16.42 146.313 17.0034 146.376 18.1703V18.2906C147.417 17.1999 148.512 16.6545 149.662 16.6545C151.006 16.6545 151.935 17.241 152.45 18.4139C152.79 19.2019 152.959 20.3799 152.959 21.9478V22.7388C152.959 23.0816 152.959 23.3222 152.959 23.4636C152.976 24.2158 153.052 24.9652 153.187 25.7042C153.324 26.4389 153.401 27.1845 153.417 27.9328C153.422 28.1276 153.386 28.3211 153.312 28.5001C153.239 28.6791 153.129 28.8395 152.991 28.9704C152.702 29.2473 152.321 29.3951 151.928 29.3824Z" fill="#232323"/>
<path d="M164.171 29.2081C163.843 29.2081 163.324 28.8773 162.613 28.2156C162.053 28.5014 161.476 28.7485 160.885 28.9555C160.477 29.1068 160.048 29.192 159.615 29.2081C157.903 29.2081 156.617 28.7279 155.759 27.7675C154.901 26.8071 154.468 25.3735 154.46 23.4667C154.451 22.604 154.615 21.7488 154.943 20.9566C155.27 20.1644 155.753 19.4529 156.361 18.8682C156.959 18.2508 157.669 17.764 158.449 17.4361C159.23 17.1082 160.065 16.9458 160.905 16.9584C161.719 16.9935 162.518 17.198 163.255 17.56C164.331 18.0371 164.867 18.5925 164.865 19.2261C164.869 19.4814 164.782 19.729 164.62 19.9209C164.538 20.2857 164.483 20.6568 164.456 21.0306C164.416 21.4758 164.396 21.9961 164.396 22.5916C164.396 23.9961 164.494 24.9976 164.684 25.6262C164.707 25.6923 164.871 26.0743 165.176 26.775C165.349 27.1196 165.487 27.4813 165.591 27.8547C165.594 28.0403 165.557 28.2242 165.482 28.3926C165.408 28.5609 165.297 28.7092 165.159 28.8262C164.886 29.0757 164.534 29.2116 164.171 29.2081ZM161.525 21.6893C161.526 21.416 161.541 21.1429 161.571 20.8712C161.602 20.5705 161.651 20.2186 161.715 19.8397C161.594 19.7734 161.468 19.719 161.337 19.6773C161.244 19.6463 161.147 19.6291 161.049 19.6261C160.57 19.6268 160.096 19.733 159.658 19.9377C159.221 20.1423 158.829 20.441 158.509 20.8141C158.163 21.1742 157.888 21.6026 157.701 22.0745C157.514 22.5464 157.419 23.0523 157.421 23.563C157.421 24.5655 157.592 25.3134 157.933 25.8066C158.108 26.0572 158.34 26.2576 158.608 26.3891C158.877 26.5206 159.173 26.5789 159.468 26.5585C159.897 26.5611 160.322 26.4837 160.724 26.3299C161.129 26.1726 161.506 25.9448 161.839 25.6562C161.661 24.3392 161.557 23.0128 161.525 21.6833V21.6893Z" fill="#232323"/>
<path d="M176.997 21.951C176.692 23.7778 176.514 25.6252 176.464 27.4789C176.393 29.8849 176.009 31.6272 175.312 32.7059C174.379 34.1556 172.728 34.8804 170.359 34.8804C167.592 34.8804 166.209 34.308 166.209 33.1631C166.202 32.9798 166.231 32.797 166.295 32.6262C166.359 32.4553 166.456 32.3002 166.581 32.1706C166.712 32.0418 166.866 31.9417 167.035 31.8761C167.203 31.8105 167.383 31.7808 167.563 31.7886C168.026 31.8071 168.487 31.8706 168.939 31.9781C169.462 32.0956 169.994 32.1591 170.529 32.1676C171.592 32.1676 172.372 31.8308 172.879 31.1541C173.386 30.4774 173.648 29.4428 173.743 27.9992C173.396 28.375 172.978 28.6711 172.516 28.8683C172.042 29.0704 171.534 29.1726 171.021 29.1691C170.381 29.1945 169.742 29.0792 169.147 28.8305C168.551 28.5818 168.013 28.2054 167.565 27.7255C167.121 27.232 166.774 26.6511 166.546 26.0166C166.318 25.382 166.214 24.7065 166.238 24.0292C166.238 22.0082 166.828 20.3741 168.009 19.1269C169.234 17.8337 170.888 17.1871 172.971 17.1871C173.556 17.174 174.14 17.2603 174.699 17.4427C175.149 17.5902 175.554 17.8601 175.871 18.2247C176.775 18.337 177.227 18.8934 177.227 19.8939C177.205 20.5851 177.128 21.2731 176.997 21.951ZM172.856 19.7224C171.656 19.7224 170.721 20.1345 170.051 20.9585C169.424 21.7874 169.103 22.8237 169.147 23.8788C169.147 24.7631 169.307 25.4277 169.627 25.8728C169.797 26.099 170.016 26.2784 170.267 26.3953C170.519 26.5122 170.793 26.5631 171.067 26.5435C171.643 26.5435 172.237 26.1886 172.827 25.4849C173.326 24.937 173.657 24.2457 173.777 23.4999C173.912 22.7861 174.068 21.6753 174.247 20.1675C174.022 20.0282 173.782 19.9162 173.533 19.8337C173.313 19.7621 173.085 19.7246 172.856 19.7224Z" fill="#232323"/>
<path d="M184.085 29.1062C182.382 29.1062 180.991 28.6831 179.912 27.837C178.718 26.8987 178.12 25.5794 178.118 23.8791C178.068 22.1681 178.567 20.4889 179.537 19.1092C180.026 18.4147 180.669 17.855 181.411 17.4782C182.153 17.1015 182.972 16.9191 183.797 16.9467C184.857 16.9085 185.912 17.1224 186.881 17.5723C187.956 18.1197 188.494 18.9738 188.494 20.1347C188.494 20.9528 188.056 21.6776 187.181 22.3092C186.413 22.7969 185.61 23.2213 184.779 23.5784L181.182 25.2385C181.524 25.6257 181.948 25.9234 182.42 26.1077C182.953 26.3142 183.517 26.4162 184.085 26.4084C184.929 26.4404 185.766 26.2325 186.507 25.8069C186.929 25.5037 187.417 25.3155 187.926 25.2596C188.666 25.2596 189.036 25.6345 189.038 26.3844C189.038 27.2325 188.444 27.9242 187.255 28.4596C186.252 28.8987 185.173 29.1187 184.085 29.1062ZM183.797 19.6445C183.484 19.6378 183.174 19.6955 182.883 19.8141C182.592 19.9328 182.326 20.1102 182.101 20.3362C181.563 20.9173 181.174 21.6298 180.969 22.4084L183.371 21.3257C184.167 20.9667 184.937 20.5465 185.674 20.0686C185.095 19.7591 184.447 19.6129 183.797 19.6445Z" fill="#232323"/>
<path d="M199.87 20.5585C199.806 21.6954 199.312 22.2638 198.387 22.2638C197.492 22.2638 197.044 21.7806 197.042 20.8142L196.99 19.6894C196.255 19.7808 195.555 20.0648 194.954 20.515C194.352 20.9651 193.87 21.5667 193.551 22.2638V27.8698C193.557 28.0661 193.522 28.2614 193.45 28.4428C193.378 28.6242 193.27 28.7877 193.134 28.9225C192.994 29.0626 192.829 29.1719 192.648 29.2437C192.466 29.3156 192.273 29.3485 192.08 29.3405C191.888 29.3525 191.696 29.3186 191.518 29.2415C191.34 29.1644 191.182 29.046 191.054 28.8954C190.822 28.6101 190.7 28.2444 190.712 27.8698V20.5676C190.712 20.339 190.712 19.9961 190.735 19.539C190.758 19.0818 190.755 18.736 190.755 18.5074C190.742 18.1247 190.87 17.7515 191.112 17.4638C191.243 17.3211 191.402 17.2098 191.578 17.1376C191.754 17.0654 191.943 17.0341 192.132 17.0457C192.921 17.0457 193.39 17.4698 193.54 18.3179C194.744 17.357 196.22 16.8399 197.736 16.8472C199.158 16.8472 199.87 17.8347 199.87 19.8097C199.881 20.1886 199.878 20.4382 199.87 20.5585Z" fill="#232323"/>
</g>
<defs>
<clipPath id="clip0_1642_62535">
<rect width="199.878" height="45.5851" fill="white"/>
</clipPath>
</defs>
</svg>
