<svg width="263" height="64" viewBox="0 0 263 64" fill="none" xmlns="http://www.w3.org/2000/svg">
<path d="M32 64C49.6731 64 64 49.6731 64 32C64 14.3269 49.6731 0 32 0C14.3269 0 0 14.3269 0 32C0 49.6731 14.3269 64 32 64Z" fill="#232323"/>
<path d="M13.9209 22.9604C13.9209 22.9604 17.3559 20.0678 21.6949 18.6214L17.3559 35.9774L16.2712 41.0395C16.2712 41.0395 14.6441 47.7288 18.8023 48.0904L21.1525 48.2712C21.1525 48.2712 20.9717 47.9096 21.5141 45.0169C22.0565 42.1243 26.2147 20.0678 28.2034 16.4519C28.2034 16.4519 33.8079 14.2825 42.4859 15.0056C42.4859 15.0056 41.5819 11.0282 37.6045 10.8474C33.6271 10.6666 20.4294 12.4745 15.3672 14.8248C14.5494 17.4662 14.0636 20.199 13.9209 22.9604Z" fill="#FAFBFF" stroke="#FAFBFF" stroke-miterlimit="10"/>
<path d="M29.1076 31.2768C29.1076 31.2768 26.9381 34.1695 26.0342 44.6554C26.0342 44.6554 27.6613 47.0056 30.3732 46.6441C30.3732 46.6441 35.7969 35.435 37.7856 33.2655L35.4353 42.4859C35.4353 42.4859 34.3596 46.9008 39.6875 46.682C39.6875 46.682 41.0398 45.2809 42.4862 42.0755C43.9325 38.87 45.0172 37.7853 45.0172 37.7853L42.8477 45.7401C42.8477 45.7401 41.2206 51.3446 46.4636 51.7062C46.4636 51.7062 47.7291 43.7514 49.537 38.3277C51.3449 32.9039 48.4523 29.8305 45.198 32.5424C45.198 32.5424 43.2093 34.1695 41.4014 38.1469L43.5709 30.5537C43.5709 30.5537 44.2941 26.7571 41.0398 26.3955C37.7856 26.0339 33.2658 35.435 32.0003 37.7853L32.9042 34.7119C32.9042 34.7119 33.6274 33.0847 32.0003 32.1808C30.3732 31.2768 29.1076 31.2768 29.1076 31.2768Z" fill="#FAFBFF" stroke="#FAFBFF" stroke-miterlimit="10"/>
<path d="M94.272 42V24.024H98.108V42H94.272ZM88.392 25.9V22.4H103.96V25.9H88.392ZM107.485 34.636C107.485 33.124 107.774 31.8733 108.353 30.884C108.95 29.8947 109.706 29.1573 110.621 28.672C111.554 28.1867 112.525 27.944 113.533 27.944V31.528C112.674 31.528 111.862 31.6307 111.097 31.836C110.35 32.0413 109.744 32.3773 109.277 32.844C108.81 33.3107 108.577 33.908 108.577 34.636H107.485ZM104.881 42V28H108.577V42H104.881ZM115.715 42V28H119.411V42H115.715ZM117.563 25.732C117.003 25.732 116.508 25.5267 116.079 25.116C115.649 24.6867 115.435 24.1827 115.435 23.604C115.435 23.0253 115.649 22.5307 116.079 22.12C116.508 21.6907 117.003 21.476 117.563 21.476C118.141 21.476 118.636 21.6907 119.047 22.12C119.476 22.5307 119.691 23.0253 119.691 23.604C119.691 24.1827 119.476 24.6867 119.047 25.116C118.636 25.5267 118.141 25.732 117.563 25.732ZM131.219 42L131.079 39.172V34.916C131.079 34.076 130.985 33.3667 130.799 32.788C130.612 32.1907 130.323 31.7427 129.931 31.444C129.557 31.1267 129.053 30.968 128.419 30.968C127.859 30.968 127.355 31.0893 126.907 31.332C126.459 31.5747 126.076 31.9667 125.759 32.508L122.399 31.36C122.66 30.7627 123.043 30.184 123.547 29.624C124.051 29.0453 124.704 28.5787 125.507 28.224C126.328 27.8507 127.327 27.664 128.503 27.664C129.903 27.664 131.069 27.916 132.003 28.42C132.955 28.924 133.664 29.6707 134.131 30.66C134.597 31.6307 134.821 32.8253 134.803 34.244L134.719 42H131.219ZM127.355 42.336C125.675 42.336 124.368 41.9627 123.435 41.216C122.52 40.4693 122.063 39.4147 122.063 38.052C122.063 36.5587 122.557 35.4387 123.547 34.692C124.555 33.9267 125.964 33.544 127.775 33.544H131.331V36.288H129.063C127.849 36.288 127.009 36.4373 126.543 36.736C126.076 37.016 125.843 37.4173 125.843 37.94C125.843 38.3507 126.029 38.6773 126.403 38.92C126.776 39.144 127.299 39.256 127.971 39.256C128.568 39.256 129.1 39.116 129.567 38.836C130.033 38.5373 130.397 38.164 130.659 37.716C130.939 37.2493 131.079 36.7733 131.079 36.288H132.059C132.059 38.192 131.685 39.676 130.939 40.74C130.211 41.804 129.016 42.336 127.355 42.336ZM137.748 42V22.4H141.444V42H137.748ZM161.727 37.296L152.011 23.156L153.803 22.624L156.015 22.4L163.659 33.74L161.727 37.296ZM151.843 42V22.4H155.679V42H151.843ZM161.727 37.296L159.795 33.74L167.439 22.4L169.651 22.624L171.387 23.1L161.727 37.296ZM167.775 42V22.4H171.583V42H167.775ZM183.719 42L183.579 39.172V34.916C183.579 34.076 183.485 33.3667 183.299 32.788C183.112 32.1907 182.823 31.7427 182.431 31.444C182.057 31.1267 181.553 30.968 180.919 30.968C180.359 30.968 179.855 31.0893 179.407 31.332C178.959 31.5747 178.576 31.9667 178.259 32.508L174.899 31.36C175.16 30.7627 175.543 30.184 176.047 29.624C176.551 29.0453 177.204 28.5787 178.007 28.224C178.828 27.8507 179.827 27.664 181.003 27.664C182.403 27.664 183.569 27.916 184.503 28.42C185.455 28.924 186.164 29.6707 186.631 30.66C187.097 31.6307 187.321 32.8253 187.303 34.244L187.219 42H183.719ZM179.855 42.336C178.175 42.336 176.868 41.9627 175.935 41.216C175.02 40.4693 174.563 39.4147 174.563 38.052C174.563 36.5587 175.057 35.4387 176.047 34.692C177.055 33.9267 178.464 33.544 180.275 33.544H183.831V36.288H181.563C180.349 36.288 179.509 36.4373 179.043 36.736C178.576 37.016 178.343 37.4173 178.343 37.94C178.343 38.3507 178.529 38.6773 178.903 38.92C179.276 39.144 179.799 39.256 180.471 39.256C181.068 39.256 181.6 39.116 182.067 38.836C182.533 38.5373 182.897 38.164 183.159 37.716C183.439 37.2493 183.579 36.7733 183.579 36.288H184.559C184.559 38.192 184.185 39.676 183.439 40.74C182.711 41.804 181.516 42.336 179.855 42.336ZM190.248 42V28H193.72L193.944 30.576V42H190.248ZM199.516 42V34.832L203.212 33.992V42H199.516ZM199.516 34.832C199.516 33.88 199.404 33.1427 199.18 32.62C198.975 32.0973 198.676 31.724 198.284 31.5C197.892 31.2573 197.435 31.136 196.912 31.136C195.96 31.1173 195.223 31.4067 194.7 32.004C194.196 32.6013 193.944 33.488 193.944 34.664H192.712C192.712 33.1707 192.927 31.9107 193.356 30.884C193.804 29.8387 194.42 29.0453 195.204 28.504C195.988 27.944 196.912 27.664 197.976 27.664C199.675 27.664 200.972 28.1867 201.868 29.232C202.783 30.2587 203.231 31.8453 203.212 33.992L199.516 34.832ZM214.562 42L214.422 39.172V34.916C214.422 34.076 214.329 33.3667 214.142 32.788C213.956 32.1907 213.666 31.7427 213.274 31.444C212.901 31.1267 212.397 30.968 211.762 30.968C211.202 30.968 210.698 31.0893 210.25 31.332C209.802 31.5747 209.42 31.9667 209.102 32.508L205.742 31.36C206.004 30.7627 206.386 30.184 206.89 29.624C207.394 29.0453 208.048 28.5787 208.85 28.224C209.672 27.8507 210.67 27.664 211.846 27.664C213.246 27.664 214.413 27.916 215.346 28.42C216.298 28.924 217.008 29.6707 217.474 30.66C217.941 31.6307 218.165 32.8253 218.146 34.244L218.062 42H214.562ZM210.698 42.336C209.018 42.336 207.712 41.9627 206.778 41.216C205.864 40.4693 205.406 39.4147 205.406 38.052C205.406 36.5587 205.901 35.4387 206.89 34.692C207.898 33.9267 209.308 33.544 211.118 33.544H214.674V36.288H212.406C211.193 36.288 210.353 36.4373 209.886 36.736C209.42 37.016 209.186 37.4173 209.186 37.94C209.186 38.3507 209.373 38.6773 209.746 38.92C210.12 39.144 210.642 39.256 211.314 39.256C211.912 39.256 212.444 39.116 212.91 38.836C213.377 38.5373 213.741 38.164 214.002 37.716C214.282 37.2493 214.422 36.7733 214.422 36.288H215.402C215.402 38.192 215.029 39.676 214.282 40.74C213.554 41.804 212.36 42.336 210.698 42.336ZM227.392 47.964C226.328 47.964 225.385 47.8893 224.564 47.74C223.743 47.5907 223.052 47.3947 222.492 47.152C221.932 46.9093 221.475 46.6667 221.12 46.424L222.576 43.456C222.837 43.6053 223.183 43.7733 223.612 43.96C224.041 44.1653 224.555 44.3333 225.152 44.464C225.749 44.6133 226.44 44.688 227.224 44.688C227.971 44.688 228.624 44.5387 229.184 44.24C229.763 43.96 230.211 43.512 230.528 42.896C230.864 42.2987 231.032 41.5333 231.032 40.6V28H234.728V40.488C234.728 42.056 234.429 43.4 233.832 44.52C233.235 45.6587 232.385 46.5173 231.284 47.096C230.201 47.6747 228.904 47.964 227.392 47.964ZM226.664 41.608C225.376 41.608 224.256 41.328 223.304 40.768C222.371 40.208 221.643 39.424 221.12 38.416C220.597 37.408 220.336 36.2133 220.336 34.832C220.336 33.376 220.597 32.116 221.12 31.052C221.643 29.9693 222.371 29.1387 223.304 28.56C224.256 27.9627 225.376 27.664 226.664 27.664C227.784 27.664 228.755 27.9627 229.576 28.56C230.397 29.1387 231.032 29.9693 231.48 31.052C231.928 32.1347 232.152 33.4227 232.152 34.916C232.152 36.26 231.928 37.436 231.48 38.444C231.032 39.452 230.397 40.236 229.576 40.796C228.755 41.3373 227.784 41.608 226.664 41.608ZM227.728 38.5C228.363 38.5 228.913 38.3413 229.38 38.024C229.865 37.688 230.239 37.24 230.5 36.68C230.761 36.1013 230.892 35.448 230.892 34.72C230.892 33.9733 230.752 33.32 230.472 32.76C230.211 32.2 229.837 31.7613 229.352 31.444C228.885 31.1267 228.335 30.968 227.7 30.968C227.047 30.968 226.468 31.1267 225.964 31.444C225.46 31.7613 225.068 32.2 224.788 32.76C224.508 33.32 224.359 33.9733 224.34 34.72C224.359 35.448 224.508 36.1013 224.788 36.68C225.068 37.24 225.46 37.688 225.964 38.024C226.487 38.3413 227.075 38.5 227.728 38.5ZM244.237 42.336C242.855 42.336 241.633 42.028 240.569 41.412C239.505 40.7773 238.665 39.9093 238.049 38.808C237.451 37.7067 237.153 36.4373 237.153 35C237.153 33.5627 237.461 32.2933 238.077 31.192C238.711 30.0907 239.57 29.232 240.653 28.616C241.754 27.9813 243.014 27.664 244.433 27.664C245.646 27.664 246.766 27.9907 247.793 28.644C248.838 29.2787 249.678 30.2213 250.312 31.472C250.947 32.704 251.265 34.2067 251.265 35.98H247.513C247.531 34.748 247.401 33.768 247.121 33.04C246.859 32.2933 246.486 31.7613 246.001 31.444C245.515 31.108 244.946 30.94 244.293 30.94C243.565 30.94 242.949 31.0893 242.445 31.388C241.941 31.6867 241.558 32.144 241.297 32.76C241.054 33.3573 240.933 34.1413 240.933 35.112C240.933 35.952 241.101 36.652 241.437 37.212C241.773 37.772 242.221 38.2013 242.781 38.5C243.341 38.78 243.957 38.92 244.629 38.92C245.357 38.92 245.945 38.7613 246.393 38.444C246.859 38.1267 247.214 37.716 247.457 37.212L250.929 38.556C250.537 39.34 250.023 40.0213 249.389 40.6C248.773 41.16 248.035 41.5893 247.177 41.888C246.318 42.1867 245.338 42.336 244.237 42.336ZM239.561 35.98L239.589 33.096H249.445V35.98H239.561ZM256.016 34.636C256.016 33.124 256.306 31.8733 256.884 30.884C257.482 29.8947 258.238 29.1573 259.152 28.672C260.086 28.1867 261.056 27.944 262.064 27.944V31.528C261.206 31.528 260.394 31.6307 259.628 31.836C258.882 32.0413 258.275 32.3773 257.808 32.844C257.342 33.3107 257.108 33.908 257.108 34.636H256.016ZM253.412 42V28H257.108V42H253.412Z" fill="#232323"/>
</svg>
