<svg width="38" height="53" viewBox="0 0 38 53" fill="none" xmlns="http://www.w3.org/2000/svg">
<g clip-path="url(#clip0_1638_35791)">
<path d="M28.4999 27.7444C28.4999 27.7444 25.8722 29.8792 23.4843 35.0972L26.3498 25.1354C26.3498 25.1354 27.307 20.1534 23.0068 19.6792C19.7168 19.3167 15.4484 26.4483 12.8737 31.2027C14.8583 21.6497 17.4287 10.2927 18.9909 7.47502C18.9909 7.47502 26.3965 4.62787 37.8646 5.57833C37.8646 5.57833 36.6696 0.358199 31.4142 0.122165C26.1587 -0.113868 8.71776 2.257 2.02748 5.34019C0.946598 8.80636 0.304891 12.3928 0.117188 16.0165C0.117188 16.0165 4.6552 12.2231 10.4009 10.3264L4.6552 33.0867L3.22248 39.7294C3.22248 39.7294 1.07234 48.5132 6.56761 48.9874L9.6729 49.2255C9.6729 49.2255 9.43306 48.7492 10.1505 44.9537C10.2248 44.5596 10.3627 43.9 10.5219 43.0086C12.7931 38.5071 16.8641 30.6885 18.7044 28.6927L15.5991 40.7915C15.5991 40.7915 14.177 46.5744 21.2259 46.2962C21.2259 46.2962 23.0131 44.4585 24.9234 40.252C26.8337 36.0456 28.2686 34.6231 28.2686 34.6231L25.401 45.0612C25.401 45.0612 23.2445 52.4141 30.1725 52.8967C30.1725 52.8967 31.845 42.4606 34.235 35.3438C36.625 28.227 32.8002 24.1849 28.4999 27.7444Z" fill="#232323" stroke="#232323" stroke-miterlimit="10"/>
</g>
<defs>
<clipPath id="clip0_1638_35791">
<rect width="38" height="53" fill="white"/>
</clipPath>
</defs>
</svg>
