<svg width="246" height="100" viewBox="0 0 246 100" fill="none" xmlns="http://www.w3.org/2000/svg">
<path d="M32 82C49.6731 82 64 67.6731 64 50C64 32.3269 49.6731 18 32 18C14.3269 18 0 32.3269 0 50C0 67.6731 14.3269 82 32 82Z" fill="#FAFBFF"/>
<path d="M13.9209 40.9604C13.9209 40.9604 17.3559 38.0678 21.6949 36.6214L17.3559 53.9774L16.2712 59.0395C16.2712 59.0395 14.6441 65.7288 18.8023 66.0904L21.1525 66.2712C21.1525 66.2712 20.9717 65.9096 21.5141 63.0169C22.0565 60.1243 26.2147 38.0678 28.2034 34.4519C28.2034 34.4519 33.8079 32.2825 42.4859 33.0056C42.4859 33.0056 41.5819 29.0282 37.6045 28.8474C33.6271 28.6666 20.4294 30.4745 15.3672 32.8248C14.5494 35.4662 14.0636 38.199 13.9209 40.9604Z" fill="#232323" stroke="#232323" stroke-miterlimit="10"/>
<path d="M29.1076 49.2768C29.1076 49.2768 26.9381 52.1694 26.0342 62.6553C26.0342 62.6553 27.6613 65.0056 30.3732 64.644C30.3732 64.644 35.7969 53.435 37.7856 51.2655L35.4353 60.4858C35.4353 60.4858 34.3596 64.9007 39.6875 64.682C39.6875 64.682 41.0398 63.2808 42.4862 60.0754C43.9325 56.87 45.0172 55.7852 45.0172 55.7852L42.8477 63.74C42.8477 63.74 41.2206 69.3446 46.4636 69.7061C46.4636 69.7061 47.7291 61.7513 49.537 56.3276C51.3449 50.9039 48.4523 47.8304 45.198 50.5423C45.198 50.5423 43.2093 52.1694 41.4014 56.1468L43.5709 48.5536C43.5709 48.5536 44.2941 44.757 41.0398 44.3954C37.7856 44.0338 33.2658 53.435 32.0003 55.7852L32.9042 52.7118C32.9042 52.7118 33.6274 51.0847 32.0003 50.1807C30.3732 49.2768 29.1076 49.2768 29.1076 49.2768Z" fill="#232323" stroke="#232323" stroke-miterlimit="10"/>
<path d="M80.384 60V42.024H83.632V60H80.384ZM74.364 43.368V40.4H89.652V43.368H74.364ZM92.683 52.552C92.683 51.04 92.9723 49.7987 93.551 48.828C94.1297 47.8573 94.8763 47.1387 95.791 46.672C96.7243 46.1867 97.695 45.944 98.703 45.944V48.94C97.8443 48.94 97.0323 49.0613 96.267 49.304C95.5203 49.528 94.9137 49.9013 94.447 50.424C93.9803 50.9467 93.747 51.6373 93.747 52.496L92.683 52.552ZM90.611 60V46H93.747V60H90.611ZM100.979 60L101.007 46H104.115L104.087 60H100.979ZM102.547 43.34C102.043 43.34 101.604 43.1627 101.231 42.808C100.876 42.4347 100.699 41.996 100.699 41.492C100.699 40.988 100.876 40.5587 101.231 40.204C101.604 39.8493 102.043 39.672 102.547 39.672C103.051 39.672 103.48 39.8493 103.835 40.204C104.208 40.5587 104.395 40.988 104.395 41.492C104.395 41.996 104.208 42.4347 103.835 42.808C103.48 43.1627 103.051 43.34 102.547 43.34ZM116.267 60L116.127 57.368V52.804C116.127 51.852 116.024 51.0587 115.819 50.424C115.614 49.7893 115.287 49.304 114.839 48.968C114.41 48.632 113.84 48.464 113.131 48.464C112.478 48.464 111.899 48.604 111.395 48.884C110.891 49.164 110.471 49.5933 110.135 50.172L107.279 49.164C107.596 48.548 108.007 47.9693 108.511 47.428C109.015 46.8867 109.65 46.4573 110.415 46.14C111.199 45.8227 112.123 45.664 113.187 45.664C114.55 45.664 115.679 45.916 116.575 46.42C117.49 46.924 118.171 47.6707 118.619 48.66C119.067 49.6493 119.291 50.872 119.291 52.328L119.207 60H116.267ZM112.291 60.336C110.611 60.336 109.304 59.9627 108.371 59.216C107.456 58.4693 106.999 57.4147 106.999 56.052C106.999 54.596 107.484 53.4853 108.455 52.72C109.444 51.9547 110.816 51.572 112.571 51.572H116.323V53.98H113.579C112.328 53.98 111.451 54.1573 110.947 54.512C110.443 54.848 110.191 55.3333 110.191 55.968C110.191 56.5093 110.406 56.9387 110.835 57.256C111.283 57.5547 111.899 57.704 112.683 57.704C113.374 57.704 113.971 57.5453 114.475 57.228C114.998 56.892 115.399 56.4627 115.679 55.94C115.978 55.3987 116.127 54.82 116.127 54.204H117.275C117.275 56.108 116.864 57.6107 116.043 58.712C115.24 59.7947 113.99 60.336 112.291 60.336ZM122.466 60V40.4H125.602V60H122.466ZM146.03 54.96L136.678 41.24L138.134 40.708L139.898 40.4L147.682 51.88L146.03 54.96ZM136.426 60V40.4H139.674V60H136.426ZM146.03 54.96L144.434 51.88L152.162 40.4L153.954 40.708L155.382 41.184L146.03 54.96ZM152.414 60V40.4H155.662V60H152.414ZM168.193 60L168.053 57.368V52.804C168.053 51.852 167.95 51.0587 167.745 50.424C167.539 49.7893 167.213 49.304 166.765 48.968C166.335 48.632 165.766 48.464 165.057 48.464C164.403 48.464 163.825 48.604 163.321 48.884C162.817 49.164 162.397 49.5933 162.061 50.172L159.205 49.164C159.522 48.548 159.933 47.9693 160.437 47.428C160.941 46.8867 161.575 46.4573 162.341 46.14C163.125 45.8227 164.049 45.664 165.113 45.664C166.475 45.664 167.605 45.916 168.501 46.42C169.415 46.924 170.097 47.6707 170.545 48.66C170.993 49.6493 171.217 50.872 171.217 52.328L171.133 60H168.193ZM164.217 60.336C162.537 60.336 161.23 59.9627 160.297 59.216C159.382 58.4693 158.925 57.4147 158.925 56.052C158.925 54.596 159.41 53.4853 160.381 52.72C161.37 51.9547 162.742 51.572 164.497 51.572H168.249V53.98H165.505C164.254 53.98 163.377 54.1573 162.873 54.512C162.369 54.848 162.117 55.3333 162.117 55.968C162.117 56.5093 162.331 56.9387 162.761 57.256C163.209 57.5547 163.825 57.704 164.609 57.704C165.299 57.704 165.897 57.5453 166.401 57.228C166.923 56.892 167.325 56.4627 167.605 55.94C167.903 55.3987 168.053 54.82 168.053 54.204H169.201C169.201 56.108 168.79 57.6107 167.969 58.712C167.166 59.7947 165.915 60.336 164.217 60.336ZM174.392 60V46H177.332L177.528 48.576V60H174.392ZM183.884 60V52.832L187.02 51.992V60H183.884ZM183.884 52.832C183.884 51.712 183.754 50.8533 183.492 50.256C183.25 49.64 182.895 49.2107 182.428 48.968C181.98 48.7253 181.448 48.604 180.832 48.604C179.787 48.5853 178.975 48.9307 178.396 49.64C177.818 50.3493 177.528 51.3667 177.528 52.692H176.352C176.352 51.2173 176.567 49.9573 176.996 48.912C177.426 47.848 178.042 47.0453 178.844 46.504C179.647 45.944 180.599 45.664 181.7 45.664C183.399 45.664 184.706 46.1867 185.62 47.232C186.554 48.2587 187.02 49.8453 187.02 51.992L183.884 52.832ZM198.681 60L198.541 57.368V52.804C198.541 51.852 198.438 51.0587 198.233 50.424C198.028 49.7893 197.701 49.304 197.253 48.968C196.824 48.632 196.254 48.464 195.545 48.464C194.892 48.464 194.313 48.604 193.809 48.884C193.305 49.164 192.885 49.5933 192.549 50.172L189.693 49.164C190.01 48.548 190.421 47.9693 190.925 47.428C191.429 46.8867 192.064 46.4573 192.829 46.14C193.613 45.8227 194.537 45.664 195.601 45.664C196.964 45.664 198.093 45.916 198.989 46.42C199.904 46.924 200.585 47.6707 201.033 48.66C201.481 49.6493 201.705 50.872 201.705 52.328L201.621 60H198.681ZM194.705 60.336C193.025 60.336 191.718 59.9627 190.785 59.216C189.87 58.4693 189.413 57.4147 189.413 56.052C189.413 54.596 189.898 53.4853 190.869 52.72C191.858 51.9547 193.23 51.572 194.985 51.572H198.737V53.98H195.993C194.742 53.98 193.865 54.1573 193.361 54.512C192.857 54.848 192.605 55.3333 192.605 55.968C192.605 56.5093 192.82 56.9387 193.249 57.256C193.697 57.5547 194.313 57.704 195.097 57.704C195.788 57.704 196.385 57.5453 196.889 57.228C197.412 56.892 197.813 56.4627 198.093 55.94C198.392 55.3987 198.541 54.82 198.541 54.204H199.689C199.689 56.108 199.278 57.6107 198.457 58.712C197.654 59.7947 196.404 60.336 194.705 60.336ZM210.901 65.964C209.911 65.964 209.015 65.88 208.213 65.712C207.429 65.544 206.766 65.348 206.225 65.124C205.683 64.9 205.263 64.6853 204.965 64.48L206.169 61.96C206.43 62.0907 206.775 62.2493 207.205 62.436C207.653 62.6413 208.175 62.8187 208.773 62.968C209.37 63.1173 210.042 63.192 210.789 63.192C211.591 63.192 212.31 63.024 212.945 62.688C213.579 62.3707 214.074 61.876 214.429 61.204C214.783 60.532 214.961 59.6733 214.961 58.628V46H218.097V58.544C218.097 60.1307 217.798 61.4747 217.201 62.576C216.603 63.696 215.763 64.536 214.681 65.096C213.598 65.6747 212.338 65.964 210.901 65.964ZM210.425 59.72C209.155 59.72 208.045 59.4307 207.093 58.852C206.159 58.2733 205.422 57.4707 204.881 56.444C204.358 55.3987 204.097 54.1947 204.097 52.832C204.097 51.376 204.358 50.116 204.881 49.052C205.422 47.988 206.159 47.1573 207.093 46.56C208.045 45.9627 209.155 45.664 210.425 45.664C211.563 45.664 212.553 45.9627 213.393 46.56C214.251 47.1573 214.914 47.9973 215.381 49.08C215.847 50.144 216.081 51.404 216.081 52.86C216.081 54.2413 215.847 55.4453 215.381 56.472C214.914 57.4987 214.251 58.3013 213.393 58.88C212.553 59.44 211.563 59.72 210.425 59.72ZM211.293 57.06C212.002 57.06 212.618 56.8733 213.141 56.5C213.682 56.1267 214.102 55.6227 214.401 54.988C214.699 54.3347 214.849 53.588 214.849 52.748C214.849 51.8893 214.699 51.1427 214.401 50.508C214.102 49.8547 213.682 49.3507 213.141 48.996C212.599 48.6227 211.974 48.436 211.265 48.436C210.518 48.436 209.855 48.6227 209.277 48.996C208.717 49.3507 208.269 49.8547 207.933 50.508C207.615 51.1427 207.457 51.8893 207.457 52.748C207.457 53.588 207.615 54.3347 207.933 54.988C208.269 55.6227 208.726 56.1267 209.305 56.5C209.883 56.8733 210.546 57.06 211.293 57.06ZM227.804 60.336C226.442 60.336 225.228 60.028 224.164 59.412C223.119 58.7773 222.288 57.9093 221.672 56.808C221.075 55.7067 220.776 54.4373 220.776 53C220.776 51.5627 221.084 50.2933 221.7 49.192C222.316 48.0907 223.156 47.232 224.22 46.616C225.303 45.9813 226.535 45.664 227.916 45.664C229.167 45.664 230.287 45.9907 231.276 46.644C232.284 47.2787 233.087 48.2027 233.684 49.416C234.282 50.6293 234.58 52.076 234.58 53.756H231.416C231.416 52.5427 231.267 51.544 230.968 50.76C230.688 49.976 230.278 49.3973 229.736 49.024C229.214 48.632 228.57 48.436 227.804 48.436C227.002 48.436 226.311 48.6133 225.732 48.968C225.154 49.3227 224.715 49.8453 224.416 50.536C224.118 51.208 223.968 52.0573 223.968 53.084C223.968 53.9987 224.146 54.7827 224.5 55.436C224.874 56.0893 225.368 56.5933 225.984 56.948C226.619 57.284 227.319 57.452 228.084 57.452C228.924 57.452 229.615 57.2653 230.156 56.892C230.698 56.5 231.118 56.0053 231.416 55.408L234.3 56.64C233.908 57.3867 233.404 58.04 232.788 58.6C232.191 59.16 231.472 59.5893 230.632 59.888C229.811 60.1867 228.868 60.336 227.804 60.336ZM222.848 53.756V51.264H232.928V53.756H222.848ZM239.054 52.552C239.054 51.04 239.343 49.7987 239.922 48.828C240.501 47.8573 241.247 47.1387 242.162 46.672C243.095 46.1867 244.066 45.944 245.074 45.944V48.94C244.215 48.94 243.403 49.0613 242.638 49.304C241.891 49.528 241.285 49.9013 240.818 50.424C240.351 50.9467 240.118 51.6373 240.118 52.496L239.054 52.552ZM236.982 60V46H240.118V60H236.982Z" fill="#FAFBFF"/>
</svg>
