<svg width="64" height="64" viewBox="0 0 64 64" fill="none" xmlns="http://www.w3.org/2000/svg">
<path d="M32 64C49.6731 64 64 49.6731 64 32C64 14.3269 49.6731 0 32 0C14.3269 0 0 14.3269 0 32C0 49.6731 14.3269 64 32 64Z" fill="#FAFBFF"/>
<path d="M13.9209 22.9604C13.9209 22.9604 17.3559 20.0678 21.6949 18.6214L17.3559 35.9774L16.2712 41.0395C16.2712 41.0395 14.6441 47.7288 18.8023 48.0904L21.1525 48.2712C21.1525 48.2712 20.9717 47.9096 21.5141 45.0169C22.0565 42.1243 26.2147 20.0678 28.2034 16.4519C28.2034 16.4519 33.8079 14.2825 42.4859 15.0056C42.4859 15.0056 41.5819 11.0282 37.6045 10.8474C33.6271 10.6666 20.4294 12.4745 15.3672 14.8248C14.5494 17.4662 14.0636 20.199 13.9209 22.9604Z" fill="#232323" stroke="#232323" stroke-miterlimit="10"/>
<path d="M29.1076 31.2768C29.1076 31.2768 26.9381 34.1694 26.0342 44.6553C26.0342 44.6553 27.6613 47.0056 30.3732 46.644C30.3732 46.644 35.7969 35.435 37.7856 33.2655L35.4353 42.4858C35.4353 42.4858 34.3596 46.9007 39.6875 46.682C39.6875 46.682 41.0398 45.2808 42.4862 42.0754C43.9325 38.87 45.0172 37.7852 45.0172 37.7852L42.8477 45.74C42.8477 45.74 41.2206 51.3446 46.4636 51.7061C46.4636 51.7061 47.7291 43.7513 49.537 38.3276C51.3449 32.9039 48.4523 29.8304 45.198 32.5423C45.198 32.5423 43.2093 34.1694 41.4014 38.1468L43.5709 30.5536C43.5709 30.5536 44.2941 26.757 41.0398 26.3954C37.7856 26.0338 33.2658 35.435 32.0003 37.7852L32.9042 34.7118C32.9042 34.7118 33.6274 33.0847 32.0003 32.1807C30.3732 31.2768 29.1076 31.2768 29.1076 31.2768Z" fill="#232323" stroke="#232323" stroke-miterlimit="10"/>
</svg>
