<svg width="300" height="245" viewBox="0 0 300 245" fill="none" xmlns="http://www.w3.org/2000/svg">
<g clip-path="url(#clip0_1957_41004)">
<path d="M298.796 206.902H14.0307C13.8954 206.902 13.7656 206.848 13.6699 206.753C13.5743 206.657 13.5205 206.528 13.5205 206.393C13.5205 206.258 13.5743 206.129 13.6699 206.034C13.7656 205.938 13.8954 205.885 14.0307 205.885H298.796C298.931 205.885 299.061 205.938 299.157 206.034C299.252 206.129 299.306 206.258 299.306 206.393C299.306 206.528 299.252 206.657 299.157 206.753C299.061 206.848 298.931 206.902 298.796 206.902Z" fill="#D1D3D4"/>
<path d="M74.4592 113.062C114.922 113.062 147.724 88.0537 147.724 57.204C147.724 26.3543 114.922 1.3457 74.4592 1.3457C33.9958 1.3457 1.19385 26.3543 1.19385 57.204C1.19385 88.0537 33.9958 113.062 74.4592 113.062Z" fill="white"/>
<path d="M74.4899 113.571C33.8164 113.571 0.724609 88.2909 0.724609 57.2042C0.724609 26.1176 33.7858 0.847656 74.4899 0.847656C115.194 0.847656 148.265 26.1278 148.265 57.2042C148.265 88.2807 115.143 113.571 74.4899 113.571ZM74.4899 1.86456C34.3777 1.86456 1.74502 26.6871 1.74502 57.2042C1.74502 87.7214 34.3981 112.554 74.4899 112.554C114.582 112.554 147.245 87.7316 147.245 57.2042C147.245 26.6769 114.582 1.86456 74.4899 1.86456Z" fill="#D1D3D4"/>
<path d="M155.878 33.1747C155.534 33.1849 155.191 33.2327 154.857 33.3171C151.031 34.334 149.959 39.5608 154.255 40.9642C154.849 41.1244 155.469 41.1581 156.077 41.0629C156.684 40.9677 157.264 40.7459 157.779 40.4118C158.295 40.0778 158.733 39.6391 159.067 39.1245C159.4 38.6098 159.621 38.0308 159.715 37.4253C159.784 36.887 159.735 36.3401 159.573 35.8221C159.411 35.304 159.138 34.827 158.774 34.4235C158.41 34.02 157.963 33.6995 157.463 33.484C156.963 33.2685 156.422 33.163 155.878 33.1747Z" fill="white"/>
<path d="M155.388 41.6559C154.944 41.6553 154.504 41.5867 154.082 41.4525C153.166 41.2217 152.357 40.6869 151.788 39.9364C151.218 39.1859 150.922 38.2644 150.949 37.3239C151.009 36.2698 151.407 35.2629 152.085 34.4517C152.763 33.6406 153.685 33.0682 154.714 32.819C155.094 32.7217 155.485 32.6738 155.877 32.6766C156.492 32.6644 157.101 32.7842 157.665 33.028C158.229 33.2718 158.733 33.6337 159.144 34.0892C159.554 34.5447 159.861 35.0831 160.044 35.6676C160.227 36.2521 160.282 36.869 160.204 37.4764C160.12 38.1631 159.881 38.8222 159.507 39.4048C159.132 39.9874 158.631 40.4787 158.041 40.8423C157.254 41.3628 156.332 41.6453 155.388 41.6559ZM155.877 33.6935C155.571 33.6906 155.266 33.7282 154.969 33.8054C154.153 33.998 153.421 34.4469 152.881 35.086C152.341 35.7251 152.021 36.5204 151.969 37.3544C151.952 38.0748 152.184 38.7792 152.627 39.3494C153.069 39.9196 153.694 40.321 154.398 40.4864C154.919 40.6223 155.462 40.648 155.993 40.562C156.524 40.4761 157.032 40.2802 157.483 39.9871C157.933 39.6941 158.317 39.3102 158.61 38.8603C158.903 38.4104 159.099 37.9043 159.184 37.3747C159.245 36.9104 159.206 36.4382 159.068 35.9905C158.929 35.5428 158.696 35.1301 158.383 34.7806C158.07 34.4311 157.685 34.1531 157.255 33.9654C156.824 33.7778 156.358 33.6851 155.888 33.6935H155.877Z" fill="#D1D3D4"/>
<path d="M245.021 137.336L266.112 132.008C265.316 130.503 252.5 92.1757 240.745 84.7218C230.653 76.3629 210.388 75.5697 187.439 74.6545C180.093 74.2261 172.726 74.9432 165.602 76.7798C138.837 84.1524 120.031 121.981 120.031 121.981L146.398 127.177C146.398 127.177 142.204 166.247 138.531 213.878C138.531 213.878 180.551 223.305 246.204 219.634C246.204 219.634 244.398 144.109 245.021 137.336Z" fill="#C9D4FD"/>
<path d="M180.837 87.9449L159.021 218.505L203.357 221.698L212.969 80.4707L180.837 87.9449Z" fill="#231F20"/>
<path d="M203.357 222.207L159.031 219.014C158.96 219.008 158.89 218.987 158.827 218.954C158.764 218.921 158.708 218.876 158.663 218.82C158.579 218.706 158.543 218.564 158.561 218.424L180.378 87.864C180.392 87.7661 180.436 87.6747 180.503 87.6021C180.57 87.5295 180.658 87.4789 180.755 87.4573L212.898 79.9729C212.975 79.9531 213.055 79.953 213.132 79.9726C213.209 79.9922 213.279 80.0307 213.337 80.0848C213.399 80.1347 213.447 80.1986 213.479 80.2711C213.511 80.3436 213.525 80.4226 213.521 80.5017L203.908 221.729C203.904 221.795 203.886 221.86 203.857 221.919C203.827 221.978 203.785 222.031 203.735 222.074C203.684 222.12 203.624 222.155 203.559 222.178C203.495 222.201 203.426 222.211 203.357 222.207ZM159.623 218.088L202.888 221.21L212.419 81.1627L181.276 88.4132L159.623 218.088Z" fill="#231F20"/>
<path d="M183.755 68.8678L179.674 85.9212C179.674 85.9212 183.174 97.4223 194.776 96.5376C198.208 96.2472 201.531 95.1985 204.506 93.4676C207.48 91.7368 210.03 89.3672 211.97 86.5313L216.96 55.1091C216.96 55.1091 209.398 49.3636 214.755 31.8425C204.982 34.2733 194.733 34.0379 185.082 31.1611C185.082 31.1611 176.847 49.7704 176.786 58.6174C176.725 67.4645 183.755 68.8678 183.755 68.8678Z" fill="white"/>
<path d="M193.561 97.077C182.694 97.077 179.275 86.1656 179.204 86.0436C179.184 85.9567 179.184 85.8662 179.204 85.7792L183.163 69.1936C181.48 68.6546 176.255 66.3158 176.306 58.5873C176.367 49.7403 184.306 31.7005 184.653 30.9378C184.701 30.8249 184.788 30.7335 184.899 30.6809C185.011 30.6284 185.137 30.6185 185.255 30.6531C194.816 33.4782 204.96 33.7134 214.643 31.3344C214.732 31.3102 214.826 31.3097 214.916 31.3329C215.005 31.3561 215.087 31.4022 215.153 31.4666C215.219 31.5317 215.265 31.6138 215.287 31.7035C215.308 31.7933 215.304 31.8873 215.275 31.9751C212.571 40.8323 213.235 46.5472 214.337 49.781C214.874 51.6659 215.915 53.3703 217.347 54.7129C217.419 54.7681 217.475 54.8416 217.509 54.9256C217.543 55.0096 217.554 55.1012 217.541 55.1909L212.541 86.6131C212.534 86.6794 212.509 86.7427 212.469 86.7961C210.478 89.7044 207.863 92.1355 204.814 93.9135C201.764 95.6915 198.356 96.772 194.837 97.077C194.398 97.077 193.969 97.077 193.561 97.077ZM180.224 85.8911C180.653 87.1825 184.214 96.8126 194.765 96.0601C198.095 95.7643 201.32 94.7441 204.211 93.0714C207.103 91.3988 209.591 89.1143 211.5 86.3792L216.439 55.3434C215.153 54.1841 209.582 48.0522 214.031 32.5954C204.569 34.7168 194.726 34.4441 185.398 31.8022C184.194 34.5783 177.367 50.7267 177.316 58.6483C177.255 66.9361 183.592 68.3394 183.857 68.4004C183.925 68.4096 183.99 68.4346 184.047 68.4734C184.104 68.5123 184.151 68.5639 184.184 68.6241C184.222 68.6798 184.249 68.7431 184.261 68.8097C184.273 68.8763 184.271 68.9448 184.255 69.0105L180.224 85.8911Z" fill="#231F20"/>
<path d="M210.531 53.5027C211.148 52.0424 212.222 50.8193 213.592 50.0147C214.917 49.3364 216.35 48.8893 217.827 48.6927C218.626 48.51 219.456 48.51 220.255 48.6927C220.803 48.869 221.309 49.1525 221.745 49.5266C222.858 50.3089 223.651 51.4639 223.98 52.7807C224.119 53.8598 223.989 54.9564 223.602 55.9737C223.279 57.1158 222.806 58.21 222.194 59.2278C221.559 60.2272 220.73 61.0907 219.757 61.7682C218.784 62.4458 217.685 62.9238 216.525 63.1745C215.365 63.4253 214.166 63.4437 212.999 63.2288C211.831 63.0139 210.718 62.5699 209.725 61.9226" fill="white"/>
<path d="M214.684 63.8345C212.841 63.8372 211.037 63.3073 209.49 62.3091C209.378 62.2346 209.3 62.119 209.273 61.9876C209.247 61.8562 209.273 61.7196 209.347 61.6075C209.382 61.5504 209.429 61.501 209.484 61.4623C209.538 61.4235 209.601 61.3962 209.666 61.3819C209.732 61.3677 209.8 61.3668 209.866 61.3794C209.932 61.3919 209.995 61.4176 210.051 61.455C210.988 62.0647 212.037 62.4828 213.138 62.685C214.238 62.8873 215.368 62.8696 216.462 62.6331C217.556 62.3966 218.591 61.9459 219.509 61.3073C220.426 60.6686 221.207 59.8546 221.806 58.9127C222.394 57.9361 222.851 56.8864 223.163 55.7908C223.517 54.8469 223.64 53.8323 223.52 52.8316C223.208 51.6405 222.486 50.5966 221.48 49.8826C221.093 49.5526 220.646 49.3004 220.163 49.1403C219.441 48.9788 218.692 48.9788 217.969 49.1403C216.546 49.33 215.166 49.7598 213.888 50.4114C212.594 51.1481 211.58 52.2878 211 53.6553C210.946 53.7794 210.844 53.8769 210.718 53.9265C210.592 53.9761 210.451 53.9737 210.326 53.9197C210.202 53.8658 210.104 53.7648 210.054 53.6389C210.005 53.513 210.007 53.3726 210.061 53.2486C210.736 51.6812 211.903 50.3749 213.388 49.5267C214.761 48.8134 216.25 48.3453 217.786 48.1437C218.658 47.9352 219.567 47.9352 220.439 48.1437C221.05 48.338 221.615 48.6527 222.102 49.0691C223.305 49.9316 224.154 51.1999 224.49 52.6384C224.645 53.8018 224.512 54.9855 224.102 56.0857C223.779 57.2678 223.294 58.4003 222.663 59.4517C221.99 60.5066 221.114 61.4188 220.086 62.1359C219.058 62.8531 217.899 63.3612 216.673 63.6311C216.019 63.7696 215.352 63.8378 214.684 63.8345Z" fill="#231F20"/>
<path d="M182.143 77.3994C184.166 77.9664 186.288 78.0946 188.365 77.7753C190.442 77.456 192.426 76.6968 194.184 75.5487C199.878 71.6235 199.898 68.8066 199.898 68.8066C199.898 68.8066 191.255 71.8573 184.174 69.2032L182.143 77.3994Z" fill="#231F20"/>
<path d="M186.225 78.4672C184.789 78.4789 183.359 78.2837 181.98 77.8875C181.859 77.8477 181.757 77.764 181.694 77.6529C181.632 77.5418 181.614 77.4114 181.643 77.2876L183.684 69.0812C183.727 68.9426 183.822 68.8259 183.949 68.7558C184.014 68.7284 184.083 68.7142 184.153 68.7142C184.223 68.7142 184.293 68.7284 184.357 68.7558C191.184 71.3082 199.664 68.3795 199.735 68.349C199.813 68.3229 199.897 68.3158 199.978 68.3282C200.06 68.3405 200.137 68.3721 200.204 68.4202C200.272 68.466 200.326 68.5286 200.362 68.6017C200.398 68.6748 200.414 68.756 200.408 68.8371C200.408 68.9592 200.317 71.9489 194.48 75.9554C192.054 77.6209 189.17 78.4982 186.225 78.4672ZM182.755 77.0435C184.642 77.4992 186.602 77.5647 188.515 77.2358C190.428 76.907 192.253 76.1909 193.878 75.1317C197.51 72.6302 198.745 70.6065 199.164 69.5693C196.817 70.2506 190.306 71.7963 184.521 69.8744L182.755 77.0435Z" fill="#231F20"/>
<path d="M196.051 44.1982C196.051 44.1982 188.51 51.6928 189.592 53.4724C190.674 55.2519 194.694 55.0181 194.694 55.0181" fill="white"/>
<path d="M194.214 55.4859C192.98 55.4859 190.133 55.3028 189.112 53.686C187.918 51.7132 193.816 45.6118 195.653 43.7814C195.749 43.6856 195.879 43.6318 196.015 43.6318C196.151 43.6318 196.281 43.6856 196.378 43.7814C196.474 43.8771 196.528 44.007 196.528 44.1424C196.528 44.2778 196.474 44.4076 196.378 44.5034C192.439 48.4184 189.51 52.3742 189.99 53.1572C190.745 54.3978 193.622 54.5198 194.663 54.4588C194.73 54.4547 194.797 54.4638 194.861 54.4856C194.924 54.5074 194.983 54.5415 195.033 54.5859C195.084 54.6303 195.124 54.6841 195.154 54.7443C195.183 54.8046 195.2 54.8699 195.204 54.9368C195.21 55.0038 195.202 55.0714 195.18 55.1352C195.159 55.1991 195.125 55.258 195.08 55.3084C195.035 55.3588 194.98 55.3995 194.919 55.4283C194.858 55.4571 194.792 55.4732 194.724 55.4757L194.214 55.4859Z" fill="#231F20"/>
<path d="M204.617 45.0805C204.744 43.953 204.193 42.9661 203.386 42.8761C202.58 42.7861 201.823 43.6271 201.697 44.7545C201.57 45.8819 202.121 46.8689 202.928 46.9589C203.734 47.0489 204.491 46.2079 204.617 45.0805Z" fill="#231F20"/>
<path d="M190.92 42.8972C191.374 41.8571 191.139 40.7521 190.395 40.4293C189.651 40.1064 188.68 40.6878 188.225 41.728C187.771 42.7681 188.006 43.8731 188.75 44.1959C189.494 44.5188 190.465 43.9373 190.92 42.8972Z" fill="#231F20"/>
<path d="M201.745 64.2307C201.612 64.2294 201.485 64.1786 201.388 64.0883C196.857 59.7563 184.612 57.092 184.49 57.0615C184.424 57.0483 184.362 57.0221 184.307 56.9846C184.252 56.9471 184.205 56.899 184.169 56.843C184.133 56.7871 184.108 56.7246 184.097 56.659C184.085 56.5935 184.087 56.5264 184.102 56.4616C184.115 56.3961 184.142 56.334 184.179 56.2786C184.217 56.2233 184.265 56.1758 184.321 56.139C184.377 56.1022 184.439 56.0767 184.505 56.064C184.571 56.0513 184.638 56.0516 184.704 56.065C185.214 56.1768 197.347 58.8208 202.051 63.3561C202.124 63.4261 202.174 63.516 202.196 63.6144C202.217 63.7129 202.209 63.8155 202.171 63.9092C202.134 64.0029 202.07 64.0835 201.987 64.1407C201.904 64.198 201.805 64.2293 201.704 64.2307H201.745Z" fill="#231F20"/>
<path d="M265.102 173.558C264.992 173.559 264.884 173.523 264.796 173.457L249.745 161.945C249.638 161.861 249.568 161.739 249.549 161.605C249.53 161.47 249.564 161.334 249.643 161.223C249.727 161.119 249.849 161.052 249.982 161.035C250.115 161.017 250.249 161.052 250.357 161.132L265.418 172.653C265.501 172.719 265.56 172.808 265.59 172.909C265.619 173.01 265.616 173.118 265.581 173.217C265.546 173.316 265.482 173.402 265.396 173.463C265.31 173.525 265.208 173.558 265.102 173.558Z" fill="#231F20"/>
<path d="M223.643 47.1167H223.51C223.381 47.081 223.271 46.9958 223.204 46.8797C223.137 46.7636 223.119 46.6258 223.153 46.4964C224.674 40.8628 226.153 35.1275 227.551 29.4328L227.704 28.8328C228.408 26.4388 228.799 23.9642 228.867 21.4705C228.806 19.6808 227.99 19.4367 225.418 19.4367C225.351 19.439 225.283 19.4276 225.22 19.4031C225.157 19.3786 225.099 19.3416 225.051 19.2943C224.956 19.1998 224.901 19.0723 224.898 18.9384C224.877 17.6851 224.568 16.4533 223.995 15.3375C223.422 14.2216 222.6 13.2515 221.592 12.5014C218.184 10.01 213.194 9.45074 207.888 11.1083L207.623 11.1896C202.337 12.7963 197.776 14.1793 192 14.3929C190.888 14.3929 189.735 14.3929 188.623 14.3929C186.112 14.2824 183.596 14.4495 181.123 14.8912C179.579 15.2725 178.062 15.7549 176.582 16.3351C175.311 16.7146 174.119 17.3173 173.061 18.1147C172.007 19.1368 171.188 20.3757 170.663 21.7451C170.066 22.9418 169.637 24.2147 169.388 25.5279C168.796 29.5955 171.429 33.1648 173.092 34.9648C174.112 36.0833 175.663 37.3341 177.174 36.9274C177.241 36.9093 177.31 36.9046 177.379 36.9135C177.448 36.9224 177.514 36.9447 177.575 36.9792C177.635 37.0137 177.688 37.0596 177.73 37.1144C177.772 37.1692 177.803 37.2318 177.821 37.2985C177.84 37.3653 177.844 37.435 177.835 37.5036C177.826 37.5721 177.804 37.6383 177.769 37.6983C177.735 37.7582 177.689 37.8108 177.634 37.853C177.579 37.8952 177.516 37.9262 177.449 37.9443C175.857 38.3815 174.092 37.5985 172.347 35.6867C170.602 33.775 167.735 29.8599 168.398 25.4161C168.656 24.0033 169.113 22.6339 169.755 21.3485C170.355 19.8394 171.274 18.4764 172.449 17.352C173.599 16.4789 174.894 15.8146 176.276 15.3894C177.797 14.79 179.359 14.2973 180.949 13.9149C183.499 13.4497 186.094 13.2723 188.684 13.3861C189.786 13.3861 190.918 13.3861 192.02 13.3861C197.653 13.1726 202.163 11.8099 207.378 10.2236L207.643 10.1422C213.255 8.44401 218.571 9.01347 222.245 11.6879C223.309 12.4839 224.189 13.4972 224.828 14.66C225.467 15.8227 225.849 17.1081 225.949 18.43C227.786 18.43 229.847 18.6333 229.939 21.4807C229.876 24.0672 229.474 26.6345 228.745 29.1176L228.592 29.7176C227.194 35.4122 225.704 41.1577 224.184 46.8015C224.142 46.9065 224.066 46.9945 223.968 47.0516C223.87 47.1087 223.755 47.1316 223.643 47.1167Z" fill="#231F20"/>
<path d="M206.847 89.4604C206.847 89.4604 201.082 83.9488 199.551 77.2067C198.02 70.4647 198.612 69.0105 197.561 68.7766C196.51 68.5427 194.735 69.2546 193.418 71.5528C192.102 73.8509 192.459 81.9353 194.602 85.1894C196.745 88.4435 206.847 89.4604 206.847 89.4604Z" fill="white"/>
<path d="M206.847 89.9581H206.796C206.377 89.9073 196.428 88.8701 194.173 85.4533C191.918 82.0365 191.53 73.7894 192.979 71.2879C194.428 68.7863 196.347 67.9829 197.663 68.2372C198.612 68.4405 198.684 69.2541 198.959 70.9726C199.133 72.2336 199.388 74.1454 200.051 77.074C201.53 83.5822 207.143 89.0226 207.194 89.0734C207.267 89.1487 207.317 89.2436 207.337 89.3466C207.357 89.4495 207.346 89.556 207.306 89.6531C207.266 89.7417 207.202 89.8173 207.12 89.8713C207.039 89.9252 206.944 89.9553 206.847 89.9581ZM197.173 69.2439C196.347 69.2439 194.959 69.8744 193.857 71.7861C192.755 73.6979 192.939 81.7314 195.03 84.894C196.439 87.0396 202.173 88.2803 205.49 88.7684C203.735 86.8363 200.224 82.4534 199.061 77.3079C198.388 74.3589 198.122 72.4166 197.949 71.1353C197.745 69.6608 197.673 69.3151 197.449 69.2642C197.358 69.25 197.265 69.2466 197.173 69.2541V69.2439Z" fill="#231F20"/>
<path d="M121.633 122.692C121.633 122.692 96.0001 185.547 105.612 204.665C115.225 223.782 209.765 232.324 209.765 232.324C209.765 232.324 221.786 237.409 225.521 238.182C229.255 238.955 243.418 239.778 243.418 239.778C243.418 239.778 238.072 240.795 239.939 242.432C241.806 244.07 252.184 244.029 253.296 240.307C254.408 236.585 251.429 221.677 248.194 219.278C244.959 216.878 208.663 208.092 206 207.837C203.337 207.583 143.51 186.899 143.51 186.899L151.255 128.529" fill="white"/>
<path d="M245.051 243.978C242.673 243.978 240.48 243.581 239.612 242.839C239.398 242.695 239.232 242.49 239.136 242.251C239.039 242.011 239.017 241.749 239.071 241.497C239.22 241.177 239.432 240.892 239.695 240.657C239.958 240.423 240.267 240.245 240.602 240.134C236.265 239.86 228.163 239.28 225.418 238.69C221.786 237.917 210.745 233.301 209.643 232.843C204.765 232.396 114.745 223.976 105.153 204.888C101.071 196.824 102.582 180.483 109.531 156.352C114.633 138.434 121.102 122.662 121.163 122.499C121.215 122.374 121.314 122.274 121.439 122.221C121.565 122.169 121.706 122.168 121.832 122.22C121.958 122.271 122.058 122.37 122.11 122.495C122.163 122.62 122.164 122.76 122.112 122.886C121.857 123.516 96.6735 185.7 106.071 204.441C115.469 223.182 208.867 231.755 209.816 231.836C209.863 231.826 209.912 231.826 209.959 231.836C210.082 231.887 221.98 236.921 225.633 237.663C229.286 238.405 243.306 239.239 243.449 239.249C243.572 239.256 243.689 239.308 243.777 239.394C243.865 239.48 243.919 239.595 243.929 239.717C243.934 239.84 243.897 239.962 243.822 240.06C243.748 240.159 243.641 240.228 243.52 240.256C241.98 240.561 240.184 241.273 240.061 241.721C240.061 241.792 240.153 241.924 240.276 242.026C241.296 242.9 246.194 243.388 249.847 242.3C251.01 241.944 252.48 241.283 252.806 240.144C253.888 236.382 250.765 221.84 247.918 219.664C245.071 217.488 209.214 208.641 205.98 208.326C203.276 208.051 145.776 188.201 143.367 187.357C143.257 187.32 143.163 187.246 143.102 187.148C143.04 187.05 143.015 186.933 143.031 186.818L150.776 128.438C150.784 128.371 150.806 128.307 150.84 128.248C150.873 128.19 150.918 128.139 150.972 128.098C151.025 128.057 151.087 128.027 151.152 128.009C151.217 127.991 151.285 127.987 151.352 127.996C151.419 128.004 151.484 128.026 151.542 128.06C151.601 128.093 151.652 128.138 151.693 128.191C151.735 128.245 151.765 128.306 151.782 128.371C151.8 128.436 151.805 128.503 151.796 128.57L144.102 186.533C164.888 193.713 204.041 207.105 206.092 207.309C208.143 207.512 245.041 216.237 248.541 218.85C252.041 221.464 254.888 236.616 253.796 240.429C253.439 241.68 252.173 242.666 250.153 243.276C248.494 243.746 246.776 243.982 245.051 243.978Z" fill="#231F20"/>
<path d="M230.061 141.057C230.061 141.057 212.847 97.1274 208.01 89.8972C203.174 82.667 181.949 65.0137 179.306 66.7729C176.663 68.5321 177.439 70.4947 178.541 71.8574C179.643 73.22 185.796 77.4402 185.796 77.4402C185.796 77.4402 178.867 74.2675 178.653 78.4571C178.439 82.6467 183.755 85.1483 183.755 85.1483C183.755 85.1483 177.929 80.8671 177.704 85.4737C177.675 86.8171 178.048 88.1387 178.775 89.2705C179.501 90.4022 180.55 91.2929 181.786 91.8293C181.786 91.8293 175.582 86.5821 176.174 92.053C177.194 101.042 195.316 111.781 195.316 111.781L203.01 186.493C203.01 186.493 205.765 229.823 233.51 228.511C269.112 226.823 279.429 175.632 261.633 132.343" fill="white"/>
<path d="M232.225 228.979C205.449 228.979 202.47 186.879 202.439 186.452L194.776 112.015C192.592 110.693 176.572 100.727 175.612 92.0327C175.449 90.5481 175.755 89.5922 176.521 89.1854C176.985 88.9642 177.516 88.9208 178.01 89.0634C177.368 87.9467 177.066 86.6673 177.143 85.3822C177.107 84.9016 177.207 84.4206 177.433 83.9943C177.658 83.568 178 83.2137 178.419 82.9722C178.871 82.777 179.37 82.7136 179.857 82.7891C178.719 81.5995 178.099 80.0092 178.133 78.3656C178.13 77.9314 178.237 77.5035 178.444 77.1213C178.651 76.7392 178.951 76.4152 179.317 76.1793C180.411 75.6805 181.647 75.5832 182.806 75.9047C181.157 74.7719 179.598 73.514 178.143 72.1422C177.719 71.749 177.397 71.2584 177.206 70.7131C177.014 70.1678 176.96 69.5843 177.046 69.0131C177.133 68.442 177.358 67.9005 177.702 67.4357C178.046 66.9708 178.499 66.5967 179.021 66.3459C180.959 65.0544 188.714 70.9423 193.153 74.5726C198.878 79.2402 205.817 85.7076 208.459 89.6125C213.266 96.8122 229.888 139.075 230.561 140.874C230.608 141 230.603 141.139 230.548 141.26C230.492 141.382 230.391 141.477 230.266 141.525C230.204 141.551 230.138 141.565 230.071 141.564C230.004 141.564 229.938 141.55 229.877 141.523C229.816 141.497 229.761 141.458 229.716 141.409C229.67 141.361 229.635 141.303 229.612 141.241C229.439 140.803 212.357 97.2901 207.602 90.182C205.388 86.8669 199.337 80.9079 192.531 75.3556C184.296 68.6339 180.286 66.773 179.612 67.2204C179.229 67.4232 178.894 67.7049 178.628 68.0468C178.362 68.3886 178.173 68.7829 178.072 69.2033C178.054 69.6272 178.123 70.0503 178.273 70.447C178.424 70.8437 178.654 71.2059 178.949 71.5117C179.817 72.5286 184.408 75.8234 186.092 77.003C186.196 77.0769 186.268 77.1867 186.294 77.3109C186.321 77.4351 186.299 77.5647 186.235 77.6741C186.174 77.7862 186.073 77.8707 185.951 77.9105C185.83 77.9502 185.697 77.942 185.582 77.8877C184.459 77.3691 181.245 76.2301 179.847 77.0742C179.624 77.2226 179.442 77.426 179.321 77.6647C179.199 77.9034 179.142 78.1694 179.153 78.4368C179.031 80.796 180.888 82.6061 182.327 83.6535C182.913 83.9494 183.476 84.2893 184.01 84.6704C184.107 84.7472 184.173 84.8564 184.195 84.9776C184.217 85.0989 184.194 85.224 184.13 85.3297C184.066 85.4353 183.966 85.5144 183.849 85.5521C183.731 85.5898 183.604 85.5837 183.49 85.5348C182.889 85.2421 182.312 84.902 181.766 84.5179C180.745 83.9789 179.531 83.6128 178.857 83.9281C178.439 84.1213 178.204 84.6399 178.163 85.4636C178.115 86.2649 178.236 87.0674 178.519 87.8189C178.802 88.5705 179.241 89.2543 179.806 89.8261C180.601 90.288 181.355 90.8152 182.061 91.4023C182.153 91.481 182.214 91.5898 182.233 91.709C182.251 91.8282 182.227 91.9502 182.163 92.0531C182.1 92.1567 182.001 92.2342 181.885 92.2715C181.769 92.3089 181.643 92.3035 181.531 92.2565C180.689 91.8758 179.922 91.349 179.266 90.7006C178.337 90.182 177.459 89.8668 177 90.1108C176.541 90.3549 176.51 90.9548 176.623 91.9514C177.572 100.585 195.337 111.191 195.51 111.272C195.58 111.313 195.639 111.369 195.684 111.436C195.728 111.503 195.756 111.579 195.766 111.659L203.459 186.371C203.459 186.818 206.459 229.233 233.419 227.931C244.592 227.402 253.878 221.83 260.296 211.783C272.459 192.757 272.786 160.877 261.102 132.465C261.054 132.34 261.056 132.202 261.107 132.079C261.159 131.956 261.255 131.857 261.378 131.804C261.504 131.755 261.644 131.757 261.769 131.808C261.894 131.859 261.995 131.956 262.051 132.078C273.847 160.785 273.49 193.031 261.153 212.332C254.561 222.654 244.98 228.399 233.47 228.948L232.225 228.979Z" fill="#231F20"/>
<path d="M229.174 139.37C229.174 139.37 243.062 176.995 246.623 189.402Z" fill="white"/>
<path d="M246.623 189.91C246.512 189.911 246.404 189.876 246.315 189.81C246.226 189.744 246.162 189.65 246.133 189.543C242.613 177.29 228.837 139.919 228.694 139.543C228.669 139.479 228.657 139.412 228.659 139.344C228.661 139.276 228.676 139.209 228.704 139.147C228.732 139.085 228.772 139.029 228.822 138.983C228.872 138.937 228.931 138.901 228.995 138.878C229.06 138.855 229.128 138.845 229.196 138.848C229.264 138.852 229.331 138.869 229.392 138.899C229.453 138.929 229.508 138.97 229.553 139.021C229.598 139.073 229.632 139.132 229.653 139.197C229.786 139.573 243.582 176.975 247.113 189.269C247.148 189.398 247.131 189.536 247.067 189.654C247.002 189.771 246.894 189.859 246.766 189.899L246.623 189.91Z" fill="#231F20"/>
<path d="M153.511 103.179C153.511 104.246 151.368 124.117 151.368 124.117Z" fill="#231F20"/>
<path d="M151.368 124.615H151.317C151.183 124.599 151.061 124.532 150.977 124.427C150.892 124.322 150.853 124.189 150.868 124.055C151.459 118.544 153 104.033 153 103.178C153 103.044 153.054 102.914 153.15 102.819C153.245 102.723 153.375 102.67 153.511 102.67C153.646 102.67 153.776 102.723 153.871 102.819C153.967 102.914 154.021 103.044 154.021 103.178C154.021 104.256 151.98 123.354 151.888 124.167C151.873 124.293 151.811 124.409 151.715 124.491C151.619 124.574 151.495 124.618 151.368 124.615Z" fill="#231F20"/>
<path d="M166.173 45.6933C169.102 46.2831 169.418 41.2902 166.327 41.8495C165.869 41.9104 165.448 42.1301 165.138 42.4699C164.827 42.8098 164.647 43.2479 164.628 43.7073C164.61 44.1666 164.755 44.6176 165.038 44.9809C165.32 45.3442 165.723 45.5965 166.173 45.6933Z" fill="white"/>
<path d="M166.643 46.2316C166.451 46.2309 166.259 46.2105 166.071 46.1706C165.514 46.0823 165.007 45.7957 164.645 45.3639C164.283 44.932 164.09 44.3842 164.102 43.8216C164.106 43.2224 164.322 42.6439 164.712 42.1881C165.102 41.7323 165.642 41.4284 166.235 41.3302C166.677 41.2172 167.143 41.2425 167.57 41.4026C167.997 41.5627 168.365 41.8498 168.622 42.225C168.908 42.6863 169.053 43.2207 169.038 43.7625C169.024 44.3044 168.851 44.8303 168.541 45.2757C168.33 45.5803 168.045 45.8274 167.714 45.9943C167.382 46.1613 167.014 46.2429 166.643 46.2316ZM166.327 45.2147C166.589 45.2909 166.869 45.2817 167.126 45.1884C167.383 45.0951 167.603 44.9227 167.755 44.6961C167.936 44.4179 168.038 44.0955 168.049 43.764C168.059 43.4324 167.979 43.1042 167.816 42.8148C167.666 42.61 167.456 42.4569 167.215 42.3767C166.973 42.2965 166.713 42.2933 166.469 42.3674C166.111 42.4289 165.786 42.6128 165.55 42.8875C165.313 43.1622 165.18 43.5105 165.174 43.8724C165.163 44.1991 165.276 44.5178 165.489 44.7661C165.703 45.0143 166.001 45.1743 166.327 45.2147Z" fill="#D1D3D4"/>
<path d="M66.2452 175.378C66.3751 173.661 65.9611 171.947 65.0616 170.477C64.1792 169.482 63.3482 168.444 62.5718 167.365C61.5514 165.331 62.2554 163.023 62.0105 160.837C61.765 158.952 60.8402 157.221 59.4085 155.966C58.1126 154.807 56.4493 154.013 55.2044 152.803C53.1636 150.83 52.5922 148.044 51.4391 145.573C49.6866 141.967 46.8274 139.011 43.2758 137.133C45.4901 141.068 40.4493 146.071 42.735 149.976C43.4595 151.207 44.8371 152.112 45.3677 153.424C46.6534 156.586 42.3881 160.013 43.7452 163.155C44.4289 164.721 46.3371 165.626 47.2146 167.111C48.4085 169.145 47.4697 171.545 47.5718 173.812C47.7044 176.934 49.8575 179.721 52.4085 181.887C54.0003 183.229 55.7656 184.398 57.5105 185.608C59.5514 187.063 60.4391 188.598 62.2452 186.259C64.7091 183.15 66.1107 179.338 66.2452 175.378Z" fill="#D1D3D4"/>
<path d="M70.8369 176.853C70.1737 174.433 69.7043 171.819 70.8369 169.541C72.1023 166.958 75.2349 165.138 75.6023 162.352C75.8472 160.521 74.7961 158.671 75.2043 156.871C75.6125 155.071 77.2451 153.82 78.6635 152.508C81.7677 149.564 83.6687 145.58 84.0002 141.322C86.0974 143.502 87.821 146.009 89.1023 148.746C89.7102 150.089 89.961 151.565 89.8306 153.032C89.7001 154.5 89.1928 155.909 88.3574 157.125C87.8394 157.679 87.4062 158.306 87.0716 158.986C86.4492 160.765 88.1737 162.423 89.1125 164.07C89.6391 165.022 89.8616 166.111 89.7504 167.193C89.6392 168.274 89.1994 169.295 88.49 170.121C86.6839 172.155 83.2043 172.887 82.3676 175.307C82.1445 176.208 82.0382 177.135 82.0512 178.063C81.7868 179.745 81.0174 181.308 79.8444 182.546C78.6715 183.784 77.1498 184.639 75.4798 184.998C73.337 185.446 73.439 184.703 73.0002 183.117C72.3472 181.042 71.4288 178.978 70.8369 176.853Z" fill="#D1D3D4"/>
<path d="M64.041 159.484C62.5206 154.847 61.9084 149.997 60.3166 145.38C58.942 141.749 57.2803 138.234 55.3472 134.865L61.8574 137.285C63.8982 138.068 66.2043 138.984 67.1941 140.784C68.9084 143.926 65.8268 147.953 67.6227 151.054C68.4087 152.071 69.2718 153.026 70.2043 153.912C72.1227 156.291 71.8268 159.566 70.7757 162.332C70.3268 163.521 68.3472 169.684 66.5819 167.975C65.8778 167.284 65.8166 164.732 65.5615 163.796C65.0717 162.352 64.5104 160.928 64.041 159.484Z" fill="#D1D3D4"/>
<path d="M63.1022 202.397C61.9594 194.008 60.9696 186.727 60.9594 186.604L59.939 186.737C59.939 186.859 60.9594 194.058 62.0614 202.397H63.1022Z" fill="#D1D3D4"/>
<path d="M71.8978 202.398C73.2958 191.557 74.7448 183.514 75.5611 182.619L74.806 181.938C73.6734 183.178 72.1427 192.584 70.8774 202.398H71.8978Z" fill="#D1D3D4"/>
<path d="M70.6534 202.398C69.5412 182.802 67.5922 163.359 67.5922 163.104L66.5718 163.206C66.5718 163.46 68.6126 182.853 69.633 202.398H70.6534Z" fill="#D1D3D4"/>
<path d="M52.9795 190.754H81.8366L79.7958 212.373C79.4489 216.115 75.2448 219.024 70.1836 219.024H64.6019C59.4999 219.024 55.3366 216.115 54.9795 212.373L52.9795 190.754Z" fill="#D1D3D4"/>
<g clip-path="url(#clip1_1957_41004)">
<path d="M112.26 54.6157L97.7595 35.2088C97.4611 34.8088 97.072 34.4838 96.6236 34.2601C96.1752 34.0364 95.6801 33.9202 95.1781 33.9209H51.3919C50.8899 33.9202 50.3948 34.0364 49.9464 34.2601C49.498 34.4838 49.1089 34.8088 48.8105 35.2088L34.3101 54.6157V78.2656C34.3101 79.5523 34.8259 80.7864 35.744 81.6963C36.6621 82.6061 37.9074 83.1173 39.2058 83.1173H107.373C108.671 83.1173 109.917 82.6061 110.835 81.6963C111.753 80.7864 112.269 79.5523 112.269 78.2656L112.26 54.6157Z" fill="#093F68"/>
<path d="M107.373 83.5497H39.1969C37.7804 83.5497 36.4219 82.9921 35.4203 81.9995C34.4187 81.0069 33.856 79.6606 33.856 78.2569V54.6158C33.8547 54.5209 33.8844 54.4281 33.9406 54.3512L48.441 34.9443C48.7823 34.4896 49.226 34.1201 49.7367 33.8651C50.2474 33.6102 50.8111 33.4768 51.3829 33.4756H95.1691C95.7409 33.4768 96.3046 33.6102 96.8153 33.8651C97.326 34.1201 97.7697 34.4896 98.111 34.9443L112.611 54.3512C112.668 54.4281 112.697 54.5209 112.696 54.6158V78.2657C112.694 79.6649 112.132 81.0062 111.135 81.9964C110.137 82.9865 108.785 83.545 107.373 83.5497ZM34.755 54.7614V78.2657C34.755 79.4355 35.224 80.5574 36.0586 81.3845C36.8933 82.2117 38.0254 82.6764 39.2058 82.6764H107.373C108.553 82.6764 109.685 82.2117 110.52 81.3845C111.355 80.5574 111.824 79.4355 111.824 78.2657V54.7614L97.4122 35.4648C97.1541 35.1208 96.8185 34.8412 96.4322 34.6483C96.0459 34.4553 95.6195 34.3543 95.1869 34.3533H51.3918C50.9592 34.3543 50.5328 34.4553 50.1465 34.6483C49.7602 34.8412 49.4246 35.1208 49.1665 35.4648L34.755 54.7614Z" fill="#093F68"/>
<path d="M112.26 54.6163V78.2662C112.26 79.553 111.744 80.787 110.826 81.6969C109.908 82.6068 108.663 83.1179 107.364 83.1179H39.1971C37.8986 83.1179 36.6534 82.6068 35.7352 81.6969C34.8171 80.787 34.3013 79.553 34.3013 78.2662V54.6163H55.4021L57.3871 64.3197C57.5668 65.1918 58.0451 65.9756 58.741 66.5382C59.4369 67.1009 60.3077 67.4079 61.2059 67.4072H85.6136C86.5235 67.4064 87.4047 67.091 88.1051 66.5153C88.8055 65.9396 89.2812 65.1397 89.4501 64.2536L91.2838 54.5898L112.26 54.6163Z" fill="#C9D4FD"/>
<path d="M107.368 83.5494H39.1968C37.7803 83.5494 36.4219 82.9917 35.4203 81.9991C34.4187 81.0066 33.856 79.6603 33.856 78.2566V54.6155C33.856 54.4985 33.9028 54.3863 33.9863 54.3036C34.0698 54.2209 34.183 54.1744 34.301 54.1744H55.4019C55.506 54.1724 55.6076 54.2065 55.6889 54.271C55.7702 54.3355 55.8261 54.4262 55.8469 54.5273L57.832 64.2307C57.9899 65.0049 58.4129 65.7012 59.0292 66.2019C59.6456 66.7026 60.4175 66.9769 61.2145 66.9786H85.6222C86.4284 66.9778 87.209 66.6979 87.8291 66.1873C88.4492 65.6767 88.8698 64.9675 89.0181 64.1822L90.8518 54.5185C90.8717 54.4165 90.9273 54.3248 91.0087 54.2595C91.0901 54.1941 91.1922 54.1593 91.2969 54.1612H112.264C112.382 54.1612 112.495 54.2077 112.579 54.2904C112.662 54.3731 112.709 54.4853 112.709 54.6023V78.2522C112.71 78.9476 112.572 79.6363 112.304 80.279C112.036 80.9216 111.643 81.5056 111.147 81.9976C110.651 82.4895 110.062 82.8798 109.413 83.1461C108.765 83.4123 108.07 83.5494 107.368 83.5494ZM34.755 55.0566V78.2654C34.755 79.4352 35.2239 80.5571 36.0586 81.3842C36.8933 82.2114 38.0253 82.6761 39.2057 82.6761H107.368C108.549 82.6761 109.681 82.2114 110.516 81.3842C111.35 80.5571 111.819 79.4352 111.819 78.2654V55.0566H91.6619L89.8816 64.3586C89.6967 65.3484 89.1684 66.243 88.3881 66.8874C87.6078 67.5318 86.6246 67.8854 85.6089 67.8871H61.2145C60.2123 67.8856 59.2415 67.541 58.4661 66.9117C57.6908 66.2824 57.1586 65.407 56.9596 64.4336L55.0369 55.0566H34.755Z" fill="#093F68"/>
<path d="M51.4319 73.4798H42.6907C42.5726 73.4798 42.4594 73.4333 42.376 73.3506C42.2925 73.2679 42.2456 73.1557 42.2456 73.0387C42.2456 72.9217 42.2925 72.8096 42.376 72.7268C42.4594 72.6441 42.5726 72.5977 42.6907 72.5977H51.4319C51.5499 72.5977 51.6631 72.6441 51.7466 72.7268C51.8301 72.8096 51.877 72.9217 51.877 73.0387C51.877 73.1557 51.8301 73.2679 51.7466 73.3506C51.6631 73.4333 51.5499 73.4798 51.4319 73.4798Z" fill="#093F68"/>
<path d="M57.485 28.1122C57.3475 28.1116 57.2121 28.0793 57.0894 28.0181C56.9666 27.9569 56.8598 27.8683 56.7773 27.7594L50.7199 19.8202C50.5777 19.633 50.5163 19.3976 50.5492 19.1655C50.5822 18.9335 50.7068 18.724 50.8957 18.583C51.0846 18.4421 51.3222 18.3812 51.5563 18.4139C51.7904 18.4466 52.0019 18.5701 52.1441 18.7572L58.1971 26.6964C58.3392 26.883 58.4008 27.1179 58.3682 27.3495C58.3357 27.5811 58.2117 27.7904 58.0235 27.9314C57.8688 28.0484 57.6796 28.1119 57.485 28.1122Z" fill="#DFEAEF"/>
<path d="M86.1652 28.1122C85.9708 28.1103 85.7821 28.047 85.6267 27.9314C85.4385 27.7904 85.3145 27.5811 85.282 27.3495C85.2494 27.1179 85.311 26.883 85.4531 26.6964L91.5105 18.7572C91.6556 18.5788 91.8651 18.4634 92.0946 18.4353C92.3241 18.4073 92.5556 18.4689 92.7401 18.607C92.9246 18.7451 93.0476 18.949 93.0831 19.1754C93.1186 19.4019 93.0638 19.6331 92.9303 19.8202L86.8773 27.7594C86.7944 27.8689 86.6869 27.9579 86.5633 28.0191C86.4397 28.0803 86.3034 28.1122 86.1652 28.1122Z" fill="#DFEAEF"/>
<path d="M72.5239 25.4659C72.2879 25.4659 72.0614 25.373 71.8945 25.2076C71.7276 25.0421 71.6338 24.8178 71.6338 24.5838V13.6233C71.6338 13.3894 71.7276 13.165 71.8945 12.9996C72.0614 12.8341 72.2879 12.7412 72.5239 12.7412C72.76 12.7412 72.9864 12.8341 73.1534 12.9996C73.3203 13.165 73.4141 13.3894 73.4141 13.6233V24.5838C73.4141 24.8178 73.3203 25.0421 73.1534 25.2076C72.9864 25.373 72.76 25.4659 72.5239 25.4659Z" fill="#DFEAEF"/>
<path d="M114.872 70.1104H89.2406C88.2844 70.1104 87.5093 70.8785 87.5093 71.8261V83.4305C87.5093 84.3781 88.2844 85.1463 89.2406 85.1463H114.872C115.828 85.1463 116.604 84.3781 116.604 83.4305V71.8261C116.604 70.8785 115.828 70.1104 114.872 70.1104Z" fill="#FFBC0E"/>
<path d="M114.873 85.5924H89.2409C88.664 85.5912 88.1111 85.3636 87.7032 84.9594C87.2953 84.5551 87.0656 84.0072 87.0645 83.4356V71.8267C87.0656 71.2551 87.2953 70.7072 87.7032 70.3029C88.1111 69.8987 88.664 69.6711 89.2409 69.6699H114.873C115.449 69.6711 116.002 69.8987 116.41 70.3029C116.818 70.7072 117.048 71.2551 117.049 71.8267V83.4356C117.048 84.0072 116.818 84.5551 116.41 84.9594C116.002 85.3636 115.449 85.5912 114.873 85.5924ZM89.2409 70.5521C88.8997 70.5521 88.5725 70.6863 88.3313 70.9254C88.0901 71.1644 87.9546 71.4887 87.9546 71.8267V83.4356C87.9546 83.7736 88.0901 84.0978 88.3313 84.3369C88.5725 84.5759 88.8997 84.7102 89.2409 84.7102H114.873C115.213 84.7091 115.54 84.5744 115.781 84.3356C116.022 84.0968 116.158 83.7733 116.159 83.4356V71.8267C116.158 71.489 116.022 71.1655 115.781 70.9267C115.54 70.6879 115.213 70.5532 114.873 70.5521H89.2409Z" fill="#093F68"/>
<path d="M91.8936 74.6445H95.3028V75.659H92.9973V76.5852H95.1737V77.5953H92.9973V78.6097H95.4274V79.6197H91.8936V74.6445Z" fill="#093F68"/>
<path d="M96.1792 76.1885H97.2029V76.6516C97.2387 76.5793 97.2869 76.5137 97.3453 76.4576C97.4081 76.3877 97.4817 76.3281 97.5634 76.2812C97.6543 76.2273 97.7515 76.1843 97.8527 76.1532C97.9685 76.1208 98.0883 76.1045 98.2087 76.1047C98.4311 76.1006 98.6512 76.1506 98.8496 76.2503C99.04 76.354 99.1892 76.5189 99.2725 76.7178C99.3711 76.5207 99.5258 76.3567 99.7175 76.2459C99.9101 76.1575 100.119 76.1096 100.331 76.105C100.543 76.1005 100.754 76.1394 100.95 76.2194C101.1 76.2931 101.228 76.4022 101.324 76.537C101.421 76.6799 101.489 76.8402 101.525 77.0089C101.565 77.1988 101.585 77.3926 101.582 77.5867V79.6024H100.519V77.6132C100.522 77.4699 100.487 77.3283 100.416 77.203C100.377 77.1438 100.323 77.0964 100.258 77.066C100.194 77.0357 100.122 77.0236 100.051 77.031C99.9455 77.0278 99.8404 77.0489 99.7442 77.0927C99.6639 77.1283 99.5947 77.1847 99.5439 77.2559C99.4934 77.331 99.4571 77.4148 99.4371 77.5029C99.4151 77.5999 99.4046 77.699 99.406 77.7984V79.6024H98.3422V77.7984C98.3422 77.7367 98.3422 77.6617 98.3422 77.5735C98.3378 77.486 98.3197 77.3997 98.2888 77.3177C98.2631 77.2385 98.2152 77.1681 98.1509 77.1148C98.0696 77.0563 97.9708 77.0268 97.8705 77.031C97.756 77.0269 97.6424 77.0528 97.5411 77.1059C97.4584 77.1506 97.3904 77.218 97.3453 77.3C97.2991 77.3866 97.269 77.4807 97.2563 77.5779C97.2493 77.6866 97.2493 77.7956 97.2563 77.9043V79.6024H96.1926L96.1792 76.1885Z" fill="#093F68"/>
<path d="M102.446 76.1884H103.425V76.6295C103.474 76.5613 103.531 76.4991 103.594 76.4442C103.665 76.3751 103.746 76.3171 103.834 76.2722C103.929 76.2198 104.029 76.177 104.133 76.1443C104.247 76.1122 104.365 76.0958 104.484 76.0958C104.722 76.0935 104.958 76.137 105.179 76.2237C105.379 76.3098 105.561 76.4342 105.713 76.5898C105.863 76.7523 105.98 76.9426 106.055 77.1499C106.138 77.3777 106.178 77.6181 106.176 77.86C106.176 78.0921 106.14 78.3228 106.069 78.5437C105.999 78.7532 105.892 78.9488 105.753 79.1215C105.621 79.2901 105.454 79.4285 105.263 79.5273C105.059 79.6301 104.833 79.6816 104.604 79.6772C104.392 79.6805 104.181 79.6461 103.981 79.5758C103.791 79.5108 103.627 79.3891 103.51 79.2273V81.1945H102.446V76.1884ZM103.425 77.8953C103.414 78.1249 103.494 78.3496 103.647 78.5216C103.729 78.6028 103.828 78.666 103.936 78.7071C104.044 78.7481 104.159 78.7661 104.275 78.7598C104.391 78.7669 104.507 78.7494 104.615 78.7083C104.723 78.6672 104.821 78.6035 104.903 78.5216C105.046 78.344 105.125 78.1231 105.125 77.8953C105.125 77.6676 105.046 77.4467 104.903 77.269C104.821 77.1871 104.723 77.1235 104.615 77.0824C104.507 77.0413 104.391 77.0237 104.275 77.0308C104.159 77.0246 104.044 77.0426 103.936 77.0836C103.828 77.1246 103.729 77.1878 103.647 77.269C103.569 77.3564 103.509 77.4583 103.471 77.5689C103.433 77.6794 103.417 77.7964 103.425 77.913V77.8953Z" fill="#093F68"/>
<path d="M109.162 77.0709H108.223V78.2088C108.216 78.2939 108.216 78.3795 108.223 78.4646C108.228 78.5361 108.249 78.6054 108.285 78.6675C108.322 78.7242 108.374 78.7688 108.437 78.7954C108.523 78.8304 108.615 78.847 108.708 78.844C108.766 78.844 108.842 78.844 108.935 78.844C109.012 78.837 109.084 78.8078 109.144 78.7602V79.6423C109.025 79.6853 108.901 79.7134 108.775 79.7261C108.649 79.7421 108.523 79.7495 108.397 79.7481C108.23 79.7503 108.064 79.731 107.902 79.6908C107.76 79.6583 107.625 79.5984 107.506 79.5144C107.391 79.4316 107.299 79.3207 107.239 79.1924C107.171 79.043 107.137 78.8801 107.141 78.716V77.0709H106.46V76.1887H107.141V75.1787H108.205V76.1887H109.144L109.162 77.0709Z" fill="#093F68"/>
<path d="M111.686 80.1581C111.615 80.3389 111.543 80.5021 111.477 80.6432C111.419 80.7769 111.335 80.8971 111.227 80.9961C111.117 81.0983 110.985 81.1738 110.84 81.2166C110.64 81.2698 110.433 81.2936 110.226 81.2872C109.956 81.2889 109.686 81.2472 109.429 81.1637L109.572 80.2816C109.727 80.351 109.895 80.3871 110.066 80.3874C110.165 80.3906 110.265 80.3771 110.36 80.3477C110.431 80.3256 110.495 80.2862 110.547 80.233C110.598 80.1814 110.64 80.1218 110.671 80.0566L110.778 79.8096L110.854 79.6111L109.336 76.1885H110.484L111.374 78.4423L112.135 76.1885H113.226L111.686 80.1581Z" fill="#093F68"/>
</g>
</g>
<defs>
<clipPath id="clip0_1957_41004">
<rect width="300" height="244.056" fill="white" transform="translate(0 0.47168)"/>
</clipPath>
<clipPath id="clip1_1957_41004">
<rect width="83.6735" height="73.2168" fill="white" transform="translate(33.6733 12.6748)"/>
</clipPath>
</defs>
</svg>
