<svg width="279" height="300" viewBox="0 0 279 300" fill="none" xmlns="http://www.w3.org/2000/svg">
<g clip-path="url(#clip0_1507_65578)">
<path d="M230.925 299.145H8.1768C8.1768 299.145 -4.08868 194.628 1.68477 176.12C8.57326 154.128 59.3449 131.492 83.0706 121.017H83.1449C93.3166 116.529 100.391 113.926 100.391 113.926L162.065 115.388C169.253 117.212 176.294 119.574 183.127 122.455C204.102 131.132 233.924 148.723 239.747 179.541C248.865 227.975 230.925 299.145 230.925 299.145Z" fill="#A5C5FF"/>
<path d="M143.717 299.777C143.549 299.777 143.389 299.71 143.27 299.592C143.152 299.473 143.085 299.312 143.085 299.145V198.731C143.082 198.572 143.14 198.417 143.246 198.298L201.154 133.426C201.207 133.352 201.274 133.29 201.353 133.245C201.431 133.199 201.518 133.171 201.608 133.161C201.697 133.151 201.788 133.16 201.875 133.188C201.961 133.215 202.04 133.261 202.107 133.321C202.175 133.382 202.229 133.456 202.266 133.538C202.303 133.621 202.322 133.711 202.322 133.801C202.322 133.892 202.303 133.981 202.266 134.064C202.229 134.146 202.175 134.22 202.108 134.281L144.361 198.967V299.182C144.352 299.345 144.279 299.498 144.159 299.609C144.039 299.72 143.88 299.78 143.717 299.777Z" fill="white"/>
<path d="M115.494 299.777C115.41 299.779 115.326 299.763 115.248 299.732C115.17 299.701 115.099 299.655 115.039 299.596C114.979 299.537 114.931 299.467 114.899 299.39C114.866 299.312 114.849 299.229 114.849 299.145V198.93L57.1026 134.244C57.0464 134.182 57.003 134.11 56.9748 134.031C56.9466 133.952 56.9342 133.869 56.9382 133.786C56.9423 133.702 56.9627 133.62 56.9983 133.545C57.034 133.469 57.0841 133.401 57.1459 133.345C57.2078 133.289 57.28 133.246 57.3586 133.217C57.4372 133.189 57.5206 133.177 57.604 133.181C57.6875 133.185 57.7692 133.205 57.8448 133.241C57.9203 133.276 57.9881 133.327 58.0442 133.389L115.965 198.26C116.066 198.382 116.123 198.535 116.126 198.694V299.108C116.131 299.194 116.118 299.28 116.089 299.361C116.059 299.442 116.013 299.516 115.954 299.579C115.895 299.642 115.824 299.691 115.744 299.725C115.665 299.76 115.58 299.777 115.494 299.777Z" fill="white"/>
<path d="M183.164 122.417L130.323 176.12L83.0703 121.017H83.1446C93.3163 116.529 100.391 113.926 100.391 113.926L162.065 115.388C169.264 117.198 176.317 119.548 183.164 122.417Z" fill="#231F20"/>
<path d="M122.308 137.492L127.226 145.004L122.308 166.773L130.324 176.12L138.761 167.021L133.111 145.004L138.761 137.492L130.324 132.384L122.308 137.492Z" fill="#A5C5FF"/>
<path d="M198.229 299.145C198.229 299.145 204.573 169.711 210.842 170.901C231.78 174.88 210.78 284.008 210.78 299.145H198.229Z" fill="#231F20"/>
<path d="M150.592 6.43385L150.753 6.55782C151.794 7.27683 155.437 11.5165 156.353 11.5785C167.504 11.9132 176.647 18.1611 178.456 29.3182C179.237 34.1529 179.261 39.1611 180.835 43.8099C183.957 53.0578 192.989 60.4091 192.729 70.1653C192.605 74.7644 190.337 79.0909 190.102 83.6901C189.78 89.7149 192.815 96.0248 198.23 98.6777H68.0667C65.6756 98.8264 63.272 98.8388 60.8809 98.9876C67.5835 95.9876 70.0118 87.7066 70.4702 80.3925C70.9287 73.0785 70.2968 65.2562 73.8525 58.8223C77.1109 52.9463 83.4047 49.1901 86.564 43.2644C89.7233 37.3388 89.3145 30.062 91.5198 23.6653C97.7145 5.45452 125.219 -2.62813 142.118 2.30576C145.143 3.22517 148.003 4.61848 150.592 6.43385Z" fill="white"/>
<path d="M60.8812 99.6323C60.7386 99.6335 60.5997 99.5863 60.4873 99.4986C60.3748 99.4108 60.2953 99.2875 60.2618 99.1488C60.2225 99.0023 60.2372 98.8466 60.3032 98.71C60.3692 98.5735 60.482 98.4652 60.621 98.405C67.8564 95.1694 69.5042 85.686 69.8387 80.3306C69.9255 78.8306 69.975 77.2934 70.0246 75.7686C70.2104 69.8554 70.3963 63.7314 73.2954 58.4876C75.0675 55.6063 77.2223 52.979 79.7007 50.6777C82.1595 48.4075 84.2828 45.7987 86.0069 42.9298C87.8034 39.5579 88.4104 35.8141 89.0423 31.8471C89.4196 28.9984 90.0371 26.1867 90.8883 23.4422C93.7998 14.8761 101.494 7.84713 112.557 3.71903C122.568 2.3014e-05 133.681 -0.805761 142.292 1.69837C145.39 2.64669 148.317 4.08197 150.964 5.95044L150.605 6.4711L151.039 5.98763L151.138 6.0744C151.878 6.68503 152.574 7.34788 153.219 8.05787C154.184 9.14657 155.264 10.1275 156.441 10.9835C168.632 11.343 177.329 18.3347 179.101 29.2438C179.348 30.8554 179.534 32.4918 179.708 34.0785C179.941 37.3227 180.526 40.5317 181.455 43.6488C182.861 47.2686 184.705 50.7031 186.943 53.8761C190.189 58.9215 193.547 64.1405 193.373 70.2273C193.213 72.624 192.764 74.9924 192.035 77.281C191.397 79.3803 190.982 81.541 190.796 83.7273C190.487 89.7893 193.683 95.7025 198.577 98.1075C198.706 98.1711 198.81 98.2772 198.871 98.408C198.932 98.5388 198.946 98.6864 198.911 98.8265C198.88 98.9675 198.802 99.0936 198.689 99.1838C198.576 99.274 198.436 99.3229 198.292 99.3223H68.0671C66.9025 99.3967 65.7007 99.4339 64.4865 99.4711C63.2724 99.5083 62.1078 99.5455 60.9184 99.6323H60.8812ZM130.584 1.30167C113.065 1.30167 96.1662 11.9009 92.0901 23.8513C91.2706 26.533 90.6739 29.2779 90.306 32.0579C89.6865 35.9504 89.0671 39.9794 87.1343 43.5372C85.3546 46.5183 83.1557 49.2279 80.6051 51.5827C78.215 53.8042 76.1318 56.3348 74.4104 59.1075C71.6724 64.0661 71.4742 70.0413 71.3007 75.8058C71.3007 77.3554 71.2016 78.8926 71.1149 80.4174C70.7927 85.4504 69.3556 93.9546 63.4706 98.2314H64.4494C65.6883 98.2314 66.8281 98.1571 68.0175 98.0827H195.938C193.76 96.4026 192.03 94.2118 190.9 91.7037C189.77 89.1956 189.275 86.4476 189.458 83.7025C189.66 81.4088 190.109 79.1436 190.796 76.9463C191.476 74.7388 191.892 72.4584 192.035 70.1529C192.196 64.4628 189.087 59.6405 185.841 54.5331C183.546 51.2707 181.657 47.7405 180.216 44.0207C179.26 40.8144 178.654 37.5143 178.407 34.1777C178.233 32.6033 178.06 30.9918 177.812 29.4174C176.152 19.1529 167.901 12.5579 156.329 12.2232C155.573 12.2232 154.52 11.1942 152.278 8.91324C151.679 8.26832 151.046 7.65588 150.382 7.07853L150.209 6.95457C147.673 5.16996 144.872 3.79765 141.908 2.88845C138.226 1.8301 134.414 1.29592 130.584 1.30167Z" fill="#231F20"/>
<path d="M107.106 62.3678C105.149 50.9381 86.1189 48.3224 87.2091 61.8224C87.5808 66.4464 89.1171 71.1571 92.4127 74.4422C95.7083 77.7273 100.974 79.2273 105.186 77.2811" fill="white"/>
<path d="M101.11 78.781C97.667 78.7298 94.3808 77.3327 91.9541 74.8885C88.0638 71.0083 86.8745 65.6653 86.5647 61.872C86.0444 55.4381 89.9222 52.6364 93.7258 52.1529C99.4125 51.4339 106.561 55.4133 107.738 62.2686C107.752 62.3509 107.75 62.4351 107.732 62.5165C107.713 62.5979 107.679 62.6748 107.63 62.7428C107.582 62.8108 107.521 62.8685 107.45 62.9127C107.379 62.9568 107.3 62.9865 107.218 63C107.135 63.016 107.051 63.0151 106.969 62.9972C106.887 62.9794 106.809 62.9452 106.741 62.8965C106.672 62.8478 106.615 62.7857 106.571 62.714C106.527 62.6423 106.499 62.5625 106.487 62.4794C105.421 56.281 99.0532 52.7852 93.8868 53.4298C89.724 53.9505 87.4691 57.0744 87.8408 61.7728C88.1258 65.343 89.2408 70.3761 92.7966 73.9835C96.1417 77.3182 101.11 78.4339 104.864 76.6984C105.014 76.6487 105.178 76.6563 105.323 76.7197C105.469 76.7832 105.586 76.8981 105.652 77.0424C105.718 77.1867 105.728 77.3503 105.681 77.5018C105.634 77.6533 105.533 77.7822 105.397 77.8637C104.049 78.4702 102.588 78.7829 101.11 78.781Z" fill="#231F20"/>
<path d="M154.458 62.6653C156.168 51.186 175.136 48.1612 174.343 61.6612C174.253 66.3626 172.497 70.8791 169.387 74.405C166.166 77.7521 160.938 79.3637 156.676 77.529" fill="white"/>
<path d="M160.566 78.9421C159.152 78.9493 157.753 78.6666 156.453 78.1115C156.288 78.0441 156.157 77.9142 156.089 77.7503C156.02 77.5864 156.02 77.402 156.087 77.2376C156.154 77.0732 156.284 76.9423 156.448 76.8737C156.612 76.8051 156.796 76.8045 156.961 76.8719C160.764 78.5206 165.695 77.2934 168.966 73.8967C172.509 70.1777 173.5 65.219 173.711 61.5C173.984 56.8016 171.654 53.7272 167.516 53.2934C162.399 52.7603 156.044 56.4669 155.127 62.6281C155.135 62.7252 155.122 62.8229 155.087 62.914C155.052 63.005 154.997 63.087 154.926 63.1538C154.855 63.2206 154.77 63.2704 154.677 63.2994C154.584 63.3285 154.486 63.3361 154.39 63.3216C154.293 63.3071 154.201 63.271 154.121 63.2159C154.041 63.1609 153.974 63.0883 153.926 63.0036C153.877 62.9189 153.849 62.8244 153.842 62.7272C153.836 62.6299 153.851 62.5325 153.888 62.4421C154.916 55.562 161.978 51.4339 167.677 52.0289C171.481 52.4256 175.421 55.1405 175.111 61.5867C174.888 65.3801 173.872 70.7479 170.007 74.7148C168.802 76.0233 167.343 77.0728 165.72 77.7996C164.098 78.5263 162.344 78.915 160.566 78.9421Z" fill="#231F20"/>
<path d="M148.177 116.157C148.177 116.157 137.646 132.546 130.324 132.384C123.002 132.223 114.85 117.236 114.85 117.236L115.308 109.215L116.386 90.6199L117.414 73.2645L147.26 72.9298L148.412 87.1488L148.759 91.7604L148.177 116.157Z" fill="white"/>
<path d="M130.423 133.029H130.311C122.704 132.855 114.626 118.153 114.279 117.533C114.23 117.428 114.205 117.314 114.205 117.198L116.77 73.1405C116.779 72.9782 116.849 72.8254 116.967 72.7127C117.084 72.6001 117.239 72.5359 117.402 72.5331L147.248 72.2107C147.41 72.204 147.568 72.2612 147.689 72.3702C147.809 72.4792 147.882 72.6312 147.892 72.7934L149.403 91.624L148.821 116.169C148.819 116.288 148.784 116.404 148.722 116.504C148.288 117.174 138.005 133.029 130.423 133.029ZM115.494 117.087C116.386 118.661 123.856 131.603 130.361 131.74H130.46C136.977 131.74 146.504 117.558 147.57 115.946L148.152 91.6488L146.69 73.4752L118.033 73.7975L115.494 117.087Z" fill="#231F20"/>
<path d="M148.759 91.7355C146.408 95.803 143.072 99.2134 139.058 101.653C132.69 105.818 123.125 110.504 115.308 109.227L116.385 90.6322C122.1 91.4067 127.892 91.4067 133.607 90.6322C138.637 90.062 143.816 89.3925 148.412 87.1611L148.759 91.7355Z" fill="#231F20"/>
<path d="M118.071 110.045C117.112 110.052 116.155 109.978 115.209 109.822C115.059 109.798 114.924 109.718 114.83 109.599C114.736 109.479 114.69 109.329 114.701 109.178L115.779 90.5826C115.78 90.4979 115.8 90.4146 115.839 90.3393C115.878 90.264 115.933 90.1988 116.002 90.1487C116.068 90.0935 116.146 90.0529 116.229 90.0294C116.312 90.0059 116.399 90.0001 116.485 90.0124C122.141 90.7891 127.877 90.7891 133.533 90.0124C138.204 89.4917 143.506 88.9091 148.14 86.6033C148.228 86.5576 148.326 86.5338 148.425 86.5338C148.524 86.5338 148.622 86.5576 148.71 86.6033C148.799 86.6502 148.874 86.7194 148.928 86.8042C148.983 86.8889 149.014 86.9863 149.019 87.0868L149.379 91.6983C149.385 91.8146 149.36 91.9304 149.304 92.033C146.92 96.2209 143.509 99.7321 139.393 102.236C134.648 105.26 126.012 110.045 118.071 110.045ZM115.965 108.682C124.08 109.711 133.669 104.43 138.724 101.132C142.609 98.7687 145.842 95.4703 148.127 91.5372L147.867 88.0041C143.246 90.0744 138.179 90.6446 133.669 91.1405C128.131 91.9055 122.519 91.9555 116.968 91.2892L115.965 108.682Z" fill="#231F20"/>
<path d="M133.57 94.7852H130.509C123.552 94.8612 116.849 92.1693 111.875 87.3014C106.901 82.4334 104.062 75.788 103.984 68.8265C103.922 63.2852 103.848 48.8926 103.786 43.3513C103.786 43.3513 103.253 40.9959 111.318 41.1323C112.557 36.8554 114.217 34.1529 115.506 29.8885C115.494 32.7751 115.814 35.6536 116.46 38.467C116.532 38.9848 116.766 39.4664 117.129 39.843C117.673 40.1891 118.331 40.3092 118.963 40.1777L135.069 38.8637C136.111 34.5795 137.781 30.4731 140.025 26.6777C140.421 30.1116 140.706 35.1075 141.102 38.529C144.037 38.7048 146.981 38.6717 149.911 38.4298C149.602 38.2686 151.943 31.4753 152.389 30.9918C152.933 33.1648 153.261 35.3864 153.368 37.624C153.368 37.624 157.085 38.281 158.671 38.5166C159.984 43.5744 160.393 61.1777 159.513 68.1447C157.704 82.624 148.065 94.624 133.57 94.7852Z" fill="white"/>
<path d="M130.212 95.4546C123.138 95.455 116.348 92.6626 111.319 87.6838C106.29 82.7051 103.427 75.9421 103.352 68.8637C103.352 66.0868 103.278 61.1033 103.253 56.1199C103.228 51.1364 103.179 46.2025 103.154 43.4256C103.127 43.2026 103.148 42.9765 103.217 42.7625C103.285 42.5486 103.399 42.3519 103.55 42.186C104.479 41.0455 106.871 40.4628 110.674 40.4628H110.848C111.467 38.5042 112.161 36.843 112.818 35.2438C113.608 33.4515 114.303 31.6183 114.899 29.7521C114.94 29.603 115.035 29.4745 115.166 29.392C115.296 29.3094 115.453 29.2787 115.605 29.3058C115.756 29.3293 115.894 29.4058 115.994 29.5217C116.094 29.6375 116.149 29.7851 116.15 29.938C116.135 32.7792 116.451 35.6124 117.092 38.3802C117.133 38.7605 117.288 39.1194 117.538 39.4091C117.963 39.6215 118.448 39.6827 118.913 39.5827L134.623 38.343C135.695 34.1545 137.364 30.1423 139.579 26.4298C139.648 26.3135 139.753 26.2221 139.877 26.1687C140.002 26.1153 140.14 26.1025 140.272 26.1323C140.402 26.1581 140.521 26.2251 140.61 26.3233C140.699 26.4214 140.755 26.5457 140.768 26.6777C140.966 28.4009 141.14 30.5455 141.313 32.6157C141.462 34.4752 141.623 36.3347 141.796 37.9959C144.338 38.1551 146.887 38.1551 149.428 37.9959C150.031 35.5047 150.891 33.0826 151.993 30.7686C152.068 30.693 152.161 30.6369 152.263 30.6052C152.365 30.5735 152.473 30.5671 152.578 30.5867C152.683 30.6062 152.781 30.651 152.865 30.7173C152.949 30.7836 153.015 30.8693 153.058 30.967C153.612 33.0371 153.94 35.161 154.037 37.3017C155.102 37.4752 157.618 37.9215 158.832 38.0951C158.955 38.1133 159.071 38.1678 159.163 38.2517C159.256 38.3355 159.322 38.445 159.352 38.5661C160.74 43.8347 161.074 61.624 160.219 68.4298C158.187 84.5455 147.508 95.3802 133.644 95.5289H130.584L130.212 95.4546ZM110.674 41.7893C106.288 41.7893 104.975 42.5951 104.616 42.967C104.256 43.3389 104.418 43.2769 104.418 43.2893C104.418 46.1405 104.492 51.124 104.529 56.1075C104.566 61.0909 104.529 66.0248 104.628 68.8513C104.661 72.2178 105.356 75.545 106.675 78.6424C107.993 81.7398 109.909 84.5466 112.313 86.9024C114.717 89.2581 117.561 91.1165 120.684 92.3713C123.806 93.6261 127.145 94.2525 130.51 94.2149H133.57C144.547 94.0909 156.639 86.0083 158.881 68.1818C159.786 61.1033 159.34 44.5166 158.163 39.2108C156.428 38.938 153.269 38.3802 153.269 38.3802C153.127 38.358 152.997 38.2882 152.9 38.1823C152.804 38.0764 152.746 37.9407 152.736 37.7975C152.674 36.843 152.501 34.7232 152.228 33.0992C151.567 34.8101 151.017 36.5616 150.58 38.343C150.605 38.4364 150.605 38.5347 150.58 38.6281C150.556 38.7657 150.487 38.8914 150.384 38.9856C150.281 39.0798 150.15 39.1372 150.01 39.1488C147.05 39.3743 144.078 39.3991 141.115 39.2232C140.965 39.2125 140.823 39.1497 140.715 39.0456C140.606 38.9414 140.537 38.8025 140.52 38.6529C140.322 36.9298 140.149 34.7851 139.975 32.7025C139.876 31.3885 139.764 30.0496 139.641 28.7975C137.922 32.0436 136.615 35.4918 135.75 39.062C135.72 39.1942 135.648 39.3132 135.546 39.4023C135.443 39.4913 135.315 39.5458 135.18 39.5579L119.012 40.7975C118.216 40.9438 117.394 40.7749 116.72 40.3265C116.245 39.8651 115.936 39.2592 115.841 38.6033C115.433 36.8493 115.156 35.0676 115.01 33.2728C114.676 34.1281 114.341 34.9463 114.007 35.7521C113.219 37.5709 112.524 39.4287 111.925 41.3182C111.887 41.449 111.807 41.5636 111.698 41.6443C111.588 41.725 111.455 41.7672 111.318 41.7645H110.674V41.7893Z" fill="#231F20"/>
<path d="M132.566 75.9794C131.445 75.9871 130.324 75.9291 129.209 75.8058C128.953 75.7802 128.707 75.6937 128.491 75.5535C128.276 75.4133 128.097 75.2235 127.97 75C125.95 71.7521 131.327 57.0248 131.959 55.2893C132.023 55.1321 132.145 55.0056 132.299 54.9363C132.454 54.867 132.63 54.8602 132.789 54.9174C132.945 54.9785 133.072 55.0982 133.141 55.251C133.21 55.4038 133.218 55.5776 133.161 55.7356C130.894 61.8348 127.772 72.2852 129.035 74.3306C129.134 74.5042 129.233 74.529 129.308 74.529C131.781 74.767 134.273 74.7421 136.741 74.4546C136.825 74.4406 136.91 74.4438 136.992 74.464C137.074 74.4842 137.151 74.521 137.218 74.572C137.286 74.6231 137.342 74.6875 137.383 74.7611C137.425 74.8347 137.451 74.916 137.46 75C137.481 75.1674 137.436 75.3365 137.334 75.4709C137.232 75.6054 137.082 75.6944 136.915 75.7191C135.472 75.8911 134.02 75.9781 132.566 75.9794Z" fill="#231F20"/>
<path d="M120.936 58.0598C121.935 58.0488 122.727 56.4638 122.706 54.5195C122.685 52.5752 121.857 51.0079 120.859 51.0189C119.86 51.0299 119.067 52.615 119.088 54.5593C119.11 56.5036 119.937 58.0708 120.936 58.0598Z" fill="#231F20"/>
<path d="M144.93 57.8082C145.929 57.7972 146.721 56.2122 146.7 54.2679C146.679 52.3236 145.852 50.7563 144.853 50.7673C143.854 50.7783 143.061 52.3634 143.083 54.3077C143.104 56.252 143.931 57.8192 144.93 57.8082Z" fill="#231F20"/>
<path d="M131.328 82.1529C125.331 82.1529 119.285 79.2893 113.326 73.624C113.211 73.504 113.146 73.3441 113.146 73.1777C113.146 73.0114 113.211 72.8515 113.326 72.7314C113.385 72.6711 113.455 72.6231 113.533 72.5904C113.61 72.5576 113.694 72.5408 113.778 72.5408C113.862 72.5408 113.946 72.5576 114.023 72.5904C114.101 72.6231 114.171 72.6711 114.23 72.7314C120.425 78.6447 126.744 81.4091 132.889 80.8265C141.821 80.0455 147.471 72.5083 147.521 72.4339C147.564 72.3528 147.625 72.2821 147.698 72.2264C147.772 72.1708 147.856 72.1315 147.946 72.1114C148.036 72.0912 148.129 72.0905 148.219 72.1094C148.31 72.1283 148.395 72.1663 148.469 72.2209C148.543 72.2755 148.605 72.3454 148.65 72.4258C148.695 72.5063 148.722 72.5954 148.729 72.6873C148.737 72.7791 148.725 72.8716 148.694 72.9583C148.663 73.045 148.613 73.1241 148.549 73.1901C148.313 73.5248 142.515 81.2604 133.013 82.1033C132.48 82.1281 131.922 82.1529 131.328 82.1529Z" fill="#231F20"/>
<path d="M148.994 111.248C148.994 111.248 161.384 112.14 162.078 115.364C162.771 118.587 159.166 142.165 154.731 147.595C150.295 153.025 131.327 132.409 131.327 132.409L148.994 111.248Z" fill="white"/>
<path d="M152.649 149.12C145.922 149.12 131.438 133.512 130.819 132.843C130.718 132.726 130.662 132.576 130.662 132.421C130.662 132.267 130.718 132.117 130.819 132L148.523 110.839C148.587 110.761 148.669 110.7 148.762 110.661C148.855 110.622 148.956 110.607 149.056 110.616C151.212 110.764 161.966 111.719 162.684 115.227C163.403 118.736 159.773 142.426 155.251 147.979C154.953 148.347 154.574 148.641 154.145 148.838C153.715 149.036 153.246 149.132 152.773 149.12H152.649ZM132.145 132.384C136.568 137.107 147.805 148.029 152.736 147.843C153.02 147.849 153.301 147.792 153.56 147.677C153.82 147.561 154.05 147.389 154.235 147.174C158.484 141.992 162.139 118.736 161.445 115.488C161.049 113.641 154.21 112.302 149.279 111.917L132.145 132.384Z" fill="#231F20"/>
<path d="M113.635 110.417C113.635 110.417 101.246 110.715 100.391 113.901C99.5363 117.087 102.027 140.814 106.202 146.43C110.377 152.045 130.324 132.384 130.324 132.384L113.635 110.417Z" fill="white"/>
<path d="M108.42 148.078H108.085C107.62 148.059 107.165 147.938 106.752 147.724C106.339 147.51 105.978 147.208 105.694 146.839C101.395 141.062 98.8797 117.087 99.7718 113.764C100.664 110.442 111.467 109.847 113.623 109.797C113.723 109.794 113.823 109.814 113.914 109.857C114.004 109.9 114.083 109.965 114.143 110.045L130.832 132.025C130.936 132.141 130.993 132.291 130.993 132.446C130.993 132.602 130.936 132.752 130.832 132.868C130.089 133.475 115.221 148.078 108.42 148.078ZM113.375 111.062C108.42 111.223 101.531 112.227 101.048 114.062C100.205 117.26 102.758 140.665 106.759 146.045C106.932 146.27 107.153 146.454 107.406 146.583C107.659 146.711 107.938 146.782 108.221 146.789C113.115 147.124 124.885 136.872 129.519 132.322L113.375 111.062Z" fill="#231F20"/>
<path d="M24.5435 299.145C24.5435 299.145 7.89218 201.719 11.4231 187.079C14.9541 172.438 20.5046 165.88 20.5046 165.88C20.5046 165.88 29.586 158.814 34.6285 171.942C39.6709 185.07 40.1789 299.145 40.1789 299.145H24.5435Z" fill="#231F20"/>
<path d="M178.407 245.665C178.407 249.528 176.873 253.233 174.143 255.965C171.413 258.697 167.71 260.231 163.85 260.231C159.989 260.231 156.286 258.697 153.556 255.965C150.826 253.233 149.292 249.528 149.292 245.665H178.407Z" fill="white"/>
<path d="M163.813 260.876C159.793 260.856 155.944 259.246 153.107 256.395C150.27 253.545 148.676 249.688 148.673 245.665C148.673 245.581 148.69 245.498 148.722 245.42C148.755 245.343 148.802 245.273 148.862 245.214C148.922 245.155 148.993 245.109 149.071 245.078C149.15 245.047 149.233 245.031 149.317 245.033H178.407C178.491 245.031 178.575 245.047 178.653 245.078C178.731 245.109 178.802 245.155 178.862 245.214C178.922 245.273 178.97 245.343 179.002 245.42C179.035 245.498 179.052 245.581 179.052 245.665C179.05 247.665 178.654 249.646 177.888 251.493C177.121 253.34 175.998 255.018 174.582 256.43C173.167 257.843 171.488 258.963 169.64 259.726C167.792 260.488 165.812 260.879 163.813 260.876ZM149.912 246.31C150.096 249.876 151.642 253.235 154.23 255.694C156.817 258.153 160.25 259.524 163.819 259.524C167.388 259.524 170.82 258.153 173.408 255.694C175.996 253.235 177.542 249.876 177.726 246.31H149.912Z" fill="#231F20"/>
<path d="M178.407 246.31C178.283 246.31 178.162 246.274 178.058 246.206C177.955 246.137 177.873 246.04 177.825 245.926L163.812 214.463L149.837 245.888C149.821 245.98 149.785 246.067 149.732 246.142C149.679 246.218 149.609 246.282 149.529 246.328C149.449 246.374 149.359 246.402 149.267 246.409C149.174 246.417 149.081 246.404 148.994 246.372C148.908 246.339 148.829 246.288 148.764 246.222C148.699 246.156 148.649 246.076 148.619 245.989C148.588 245.901 148.577 245.808 148.586 245.716C148.596 245.623 148.625 245.534 148.673 245.455L163.23 212.715C163.288 212.612 163.373 212.526 163.475 212.466C163.578 212.407 163.694 212.375 163.812 212.375C163.931 212.375 164.047 212.407 164.149 212.466C164.252 212.526 164.336 212.612 164.395 212.715L178.952 245.455C178.999 245.552 179.02 245.66 179.013 245.767C179.006 245.875 178.972 245.979 178.914 246.07C178.855 246.16 178.775 246.235 178.679 246.285C178.584 246.336 178.478 246.362 178.37 246.36L178.407 246.31Z" fill="#231F20"/>
<path d="M163.812 246.31C163.641 246.31 163.477 246.242 163.357 246.121C163.236 246 163.168 245.836 163.168 245.665V212.926C163.168 212.841 163.185 212.757 163.217 212.679C163.249 212.601 163.297 212.53 163.357 212.47C163.416 212.41 163.488 212.362 163.566 212.33C163.644 212.298 163.728 212.281 163.812 212.281C163.897 212.281 163.981 212.298 164.059 212.33C164.137 212.362 164.208 212.41 164.268 212.47C164.328 212.53 164.375 212.601 164.407 212.679C164.44 212.757 164.456 212.841 164.456 212.926V245.665C164.456 245.75 164.44 245.834 164.407 245.912C164.375 245.99 164.328 246.061 164.268 246.121C164.208 246.181 164.137 246.228 164.059 246.261C163.981 246.293 163.897 246.31 163.812 246.31Z" fill="#231F20"/>
<path d="M111.033 245.665C111.033 249.528 109.499 253.233 106.769 255.965C104.039 258.697 100.336 260.231 96.4755 260.231C92.6146 260.231 88.9118 258.697 86.1818 255.965C83.4517 253.233 81.918 249.528 81.918 245.665H111.033Z" fill="white"/>
<path d="M96.4762 260.876C92.4454 260.873 88.5807 259.269 85.7305 256.417C82.8804 253.565 81.2777 249.698 81.2744 245.665C81.2744 245.581 81.2911 245.498 81.3237 245.42C81.3562 245.343 81.4038 245.273 81.4638 245.214C81.5238 245.155 81.5949 245.109 81.673 245.078C81.7511 245.047 81.8346 245.031 81.9186 245.033H111.034C111.118 245.031 111.201 245.047 111.279 245.078C111.357 245.109 111.429 245.155 111.489 245.214C111.549 245.273 111.596 245.343 111.629 245.42C111.661 245.498 111.678 245.581 111.678 245.665C111.675 249.698 110.072 253.565 107.222 256.417C104.372 259.269 100.507 260.873 96.4762 260.876ZM82.5629 246.31C82.7472 249.876 84.2928 253.235 86.8807 255.694C89.4686 258.153 92.9012 259.524 96.47 259.524C100.039 259.524 103.471 258.153 106.059 255.694C108.647 253.235 110.193 249.876 110.377 246.31H82.5629Z" fill="#231F20"/>
<path d="M111.034 246.31C110.91 246.31 110.788 246.274 110.685 246.205C110.581 246.137 110.5 246.04 110.451 245.926L96.4761 214.463L82.5009 245.888C82.4304 246.042 82.3035 246.162 82.1466 246.225C81.9897 246.287 81.8149 246.286 81.6584 246.223C81.5041 246.15 81.3836 246.021 81.3214 245.862C81.2592 245.703 81.2601 245.526 81.3239 245.368L95.8938 212.628C95.9521 212.525 96.0368 212.439 96.1391 212.379C96.2414 212.32 96.3577 212.288 96.4761 212.288C96.5945 212.288 96.7108 212.32 96.8131 212.379C96.9154 212.439 97.0001 212.525 97.0584 212.628L111.616 245.455C111.662 245.552 111.683 245.659 111.677 245.767C111.67 245.875 111.636 245.979 111.577 246.07C111.519 246.16 111.438 246.235 111.343 246.285C111.248 246.336 111.141 246.362 111.034 246.36V246.31Z" fill="#231F20"/>
<path d="M96.4757 246.31C96.3911 246.31 96.3073 246.293 96.2291 246.261C96.151 246.229 96.0799 246.181 96.0201 246.121C95.9603 246.061 95.9128 245.99 95.8805 245.912C95.8481 245.834 95.8314 245.75 95.8314 245.665V212.926C95.804 212.83 95.7993 212.729 95.8175 212.631C95.8358 212.533 95.8765 212.44 95.9366 212.36C95.9966 212.281 96.0743 212.216 96.1636 212.172C96.2528 212.127 96.3512 212.104 96.4509 212.104C96.5506 212.104 96.649 212.127 96.7382 212.172C96.8275 212.216 96.9052 212.281 96.9652 212.36C97.0253 212.44 97.066 212.533 97.0843 212.631C97.1025 212.729 97.0978 212.83 97.0704 212.926V245.665C97.0739 245.829 97.0138 245.987 96.9029 246.108C96.792 246.228 96.6389 246.3 96.4757 246.31Z" fill="#231F20"/>
<path d="M165.435 210.942H94.8525V212.926H165.435V210.942Z" fill="#231F20"/>
<path d="M130.138 214.872L122.915 212.591H137.373L130.138 214.872Z" fill="#231F20"/>
<path d="M132.133 207.942H128.144V211.934H132.133V207.942Z" fill="#231F20"/>
<path d="M130.088 209.405C129.921 209.405 129.76 209.338 129.641 209.22C129.523 209.101 129.456 208.94 129.456 208.773V187.698C129.429 187.602 129.424 187.501 129.443 187.403C129.461 187.305 129.502 187.213 129.562 187.133C129.622 187.053 129.699 186.989 129.789 186.944C129.878 186.9 129.976 186.877 130.076 186.877C130.176 186.877 130.274 186.9 130.363 186.944C130.452 186.989 130.53 187.053 130.59 187.133C130.65 187.213 130.691 187.305 130.709 187.403C130.728 187.501 130.723 187.602 130.695 187.698V208.773C130.695 208.936 130.632 209.093 130.519 209.211C130.406 209.329 130.252 209.399 130.088 209.405Z" fill="#231F20"/>
<path d="M93.7383 157.178C93.7383 157.178 133.013 150.112 135.701 153.26C138.39 156.409 151.25 172.698 150.878 178.054C150.506 183.409 126.669 197.74 122.308 192.446C119.343 188.591 116.848 184.396 114.875 179.95L93.8126 187.141L93.7383 157.178Z" fill="white"/>
<path d="M125.467 194.182C124.782 194.252 124.091 194.163 123.446 193.923C122.801 193.682 122.221 193.295 121.75 192.793C118.848 189.056 116.395 184.991 114.44 180.682L93.8861 187.686C93.7892 187.72 93.6857 187.729 93.5842 187.715C93.4827 187.7 93.3861 187.662 93.3025 187.602C93.2189 187.543 93.1506 187.464 93.1035 187.373C93.0563 187.282 93.0315 187.181 93.0312 187.079V157.178C93.0319 157.027 93.0856 156.88 93.183 156.765C93.2803 156.649 93.4152 156.572 93.564 156.546C100.18 155.306 133.334 149.579 136.122 152.827C136.283 153.012 151.881 171.855 151.447 178.017C151.15 182.219 138.822 190.537 130.385 193.227C128.802 193.788 127.145 194.11 125.467 194.182ZM114.849 179.306C114.974 179.307 115.097 179.345 115.2 179.415C115.304 179.486 115.385 179.586 115.431 179.703C117.412 184.114 119.907 188.275 122.865 192.099C123.856 193.339 126.433 193.339 130.113 192.099C139.206 189.198 150.072 181.103 150.295 178.017C150.629 173.393 139.231 158.393 135.267 153.744C133.755 151.959 113.412 154.376 94.4436 157.773V186.285L114.7 179.38C114.742 179.327 114.792 179.281 114.849 179.244V179.306Z" fill="#231F20"/>
<path d="M20.5042 165.88C20.5042 165.88 67.6705 153.26 95.4227 152.244L97.1325 190.674C97.1325 190.674 26.7484 214.227 14.6687 228.781C14.6687 228.781 9.27937 206.467 11.4227 187.017C12.9962 172.909 20.5042 165.88 20.5042 165.88Z" fill="white"/>
<path d="M14.6685 229.488H14.5322C14.4172 229.459 14.3118 229.4 14.2269 229.317C14.142 229.235 14.0806 229.131 14.049 229.017C14.049 228.781 8.65962 206.343 10.7906 187.029C12.364 172.773 19.7605 165.719 20.0702 165.421C20.1494 165.353 20.2423 165.302 20.3428 165.273C20.8136 165.149 67.8932 152.628 95.3977 151.636C95.5668 151.636 95.7299 151.7 95.854 151.815C95.9782 151.93 96.0542 152.087 96.0667 152.256L97.7764 190.686C97.7813 190.824 97.7418 190.96 97.6638 191.074C97.5857 191.187 97.4732 191.273 97.3428 191.318C96.6366 191.554 26.9835 215.033 15.164 229.227C15.107 229.306 15.0326 229.37 14.9466 229.415C14.8607 229.46 14.7655 229.485 14.6685 229.488ZM20.8632 166.463C19.9463 167.393 13.5039 174.335 12.0915 187.153C10.2579 203.715 13.9871 222.62 15.0525 227.504C28.6809 213.459 90.0331 192.471 96.5003 190.314L94.8402 152.95C68.141 154.041 23.8862 165.645 20.8384 166.463H20.8632Z" fill="#231F20"/>
<path d="M277.386 163.984H193.534V269.727H277.386V163.984Z" fill="white"/>
<path d="M277.385 270.36H193.534C193.449 270.36 193.366 270.343 193.287 270.31C193.209 270.278 193.138 270.231 193.078 270.171C193.019 270.111 192.971 270.04 192.939 269.962C192.906 269.883 192.89 269.8 192.89 269.715V163.984C192.89 163.813 192.958 163.649 193.078 163.528C193.199 163.407 193.363 163.339 193.534 163.339H277.385C277.469 163.339 277.552 163.356 277.63 163.388C277.707 163.421 277.778 163.468 277.836 163.528C277.895 163.588 277.942 163.66 277.973 163.738C278.004 163.816 278.019 163.899 278.017 163.984V269.715C278.019 269.799 278.004 269.883 277.973 269.961C277.942 270.039 277.895 270.11 277.836 270.17C277.778 270.23 277.707 270.278 277.63 270.31C277.552 270.343 277.469 270.36 277.385 270.36ZM194.166 269.12H276.741V164.616H194.166V269.12Z" fill="#231F20"/>
<path d="M265.132 181.264H205.663C205.499 181.264 205.342 181.199 205.225 181.083C205.109 180.967 205.044 180.809 205.044 180.645C205.044 180.48 205.109 180.323 205.225 180.206C205.342 180.09 205.499 180.025 205.663 180.025H265.132C265.296 180.028 265.451 180.094 265.567 180.21C265.682 180.325 265.749 180.481 265.752 180.645C265.752 180.809 265.687 180.967 265.57 181.083C265.454 181.199 265.297 181.264 265.132 181.264Z" fill="#D1D3D4"/>
<path d="M265.132 195.707H205.663C205.499 195.707 205.342 195.641 205.225 195.525C205.109 195.409 205.044 195.251 205.044 195.087C205.044 194.922 205.109 194.765 205.225 194.648C205.342 194.532 205.499 194.467 205.663 194.467H265.132C265.297 194.467 265.454 194.532 265.57 194.648C265.687 194.765 265.752 194.922 265.752 195.087C265.752 195.251 265.687 195.409 265.57 195.525C265.454 195.641 265.297 195.707 265.132 195.707Z" fill="#D1D3D4"/>
<path d="M265.132 210.149H205.663C205.499 210.149 205.342 210.084 205.225 209.967C205.109 209.851 205.044 209.693 205.044 209.529C205.044 209.365 205.109 209.207 205.225 209.091C205.342 208.974 205.499 208.909 205.663 208.909H265.132C265.297 208.909 265.454 208.974 265.57 209.091C265.687 209.207 265.752 209.365 265.752 209.529C265.749 209.692 265.682 209.848 265.567 209.964C265.451 210.079 265.296 210.146 265.132 210.149Z" fill="#D1D3D4"/>
<path d="M265.132 224.579H205.663C205.499 224.579 205.342 224.513 205.225 224.397C205.109 224.281 205.044 224.123 205.044 223.959C205.044 223.794 205.109 223.637 205.225 223.52C205.342 223.404 205.499 223.339 205.663 223.339H265.132C265.296 223.342 265.451 223.408 265.567 223.524C265.682 223.639 265.749 223.795 265.752 223.959C265.752 224.123 265.687 224.281 265.57 224.397C265.454 224.513 265.297 224.579 265.132 224.579Z" fill="#D1D3D4"/>
<path d="M251.604 239.021H205.763C205.599 239.021 205.441 238.955 205.325 238.839C205.209 238.723 205.144 238.565 205.144 238.401C205.144 238.236 205.209 238.079 205.325 237.963C205.441 237.846 205.599 237.781 205.763 237.781H251.604C251.768 237.781 251.926 237.846 252.042 237.963C252.158 238.079 252.223 238.236 252.223 238.401C252.223 238.565 252.158 238.723 252.042 238.839C251.926 238.955 251.768 239.021 251.604 239.021Z" fill="#D1D3D4"/>
<path d="M261.007 260.517C264.811 260.517 267.895 257.431 267.895 253.624C267.895 249.817 264.811 246.731 261.007 246.731C257.202 246.731 254.118 249.817 254.118 253.624C254.118 257.431 257.202 260.517 261.007 260.517Z" fill="#A5C5FF"/>
<path d="M206.233 261.57C206.111 261.575 205.99 261.542 205.886 261.476C205.783 261.411 205.702 261.315 205.654 261.203C205.605 261.09 205.592 260.965 205.616 260.845C205.64 260.725 205.7 260.615 205.787 260.529C209.16 257.005 213.045 254.008 217.309 251.641C221.026 249.57 224.173 249.26 226.329 250.773C226.555 250.905 226.75 251.084 226.902 251.298C227.054 251.512 227.158 251.755 227.208 252.012C227.229 252.456 227.098 252.893 226.837 253.252C227.46 253.215 228.084 253.215 228.707 253.252C229.172 253.233 229.634 253.316 230.063 253.496C230.491 253.676 230.874 253.948 231.185 254.293C231.303 254.461 231.395 254.644 231.458 254.839C233.74 254.076 236.225 254.2 238.421 255.186C238.495 255.221 238.562 255.27 238.617 255.33C238.673 255.391 238.715 255.462 238.743 255.539C238.771 255.616 238.783 255.698 238.778 255.78C238.774 255.862 238.754 255.943 238.718 256.017C238.685 256.091 238.637 256.157 238.578 256.212C238.518 256.268 238.448 256.31 238.372 256.338C238.296 256.366 238.215 256.378 238.134 256.374C238.053 256.37 237.973 256.349 237.9 256.314C236.89 255.869 235.802 255.627 234.699 255.604C233.595 255.58 232.498 255.775 231.47 256.178C231.308 256.757 231.016 257.291 230.615 257.74C229.654 258.78 228.363 259.455 226.961 259.649C226.845 259.664 226.727 259.645 226.621 259.594C226.516 259.543 226.427 259.463 226.366 259.364C226.299 259.265 226.263 259.148 226.263 259.029C226.263 258.91 226.299 258.793 226.366 258.694C227.328 257.209 228.695 256.03 230.306 255.298C230.283 255.199 230.241 255.107 230.182 255.025C229.959 254.715 229.476 254.541 228.67 254.492C227.765 254.44 226.857 254.469 225.957 254.579C224.41 256.657 222.479 258.42 220.27 259.773C219.758 260.154 219.119 260.322 218.486 260.244C218.254 260.196 218.035 260.096 217.847 259.952C217.658 259.809 217.504 259.624 217.396 259.413C217.253 259.148 217.166 258.855 217.141 258.555C217.115 258.254 217.151 257.951 217.247 257.665C217.6 256.862 218.211 256.199 218.982 255.781C220.894 254.569 223.037 253.767 225.276 253.426L225.796 252.632C225.908 252.482 225.984 252.308 226.019 252.124C226.019 252.124 226.019 251.938 225.66 251.727C223.454 250.19 220.246 251.38 217.953 252.657C213.798 254.97 210.014 257.896 206.729 261.335C206.669 261.409 206.594 261.468 206.508 261.509C206.422 261.55 206.328 261.571 206.233 261.57ZM224.061 254.988C222.485 255.377 220.982 256.022 219.614 256.897C219.081 257.17 218.647 257.603 218.375 258.136C218.301 258.379 218.323 258.641 218.437 258.868C218.463 258.922 218.501 258.971 218.549 259.009C218.596 259.048 218.65 259.076 218.709 259.091C219.029 259.092 219.34 258.983 219.589 258.781C221.266 257.73 222.774 256.43 224.061 254.926V254.988Z" fill="#D1D3D4"/>
<path d="M225.994 167.789C224.929 171.186 228.212 174.955 231.78 174.88C235.348 174.806 238.347 171.533 238.718 167.988C238.191 169.023 238.043 170.21 238.301 171.343C238.559 172.476 239.207 173.482 240.131 174.186C241.104 174.841 242.265 175.158 243.435 175.089C244.606 175.019 245.721 174.567 246.61 173.802C247.469 173.001 248.067 171.96 248.326 170.815C248.584 169.669 248.492 168.472 248.06 167.38C249.101 169.946 247.7 172.674 250.711 174.731C252.755 176.132 254.775 177.211 255.568 173.802C256.784 168.624 257.522 163.346 257.773 158.033C257.927 156.847 257.751 155.642 257.265 154.55C256.274 152.752 253.932 152.269 251.876 152.07C242.452 151.185 232.949 152.435 224.074 155.727C221.881 156.533 219.49 157.711 218.759 159.942C218.503 160.937 218.431 161.971 218.548 162.992C218.685 165.818 217.309 174.484 221.72 174.769C225.585 175.066 225.263 170.107 225.994 167.789Z" fill="white"/>
<path d="M253.647 176.765C252.435 176.599 251.293 176.096 250.352 175.314C249.404 174.699 248.685 173.789 248.307 172.723C247.99 173.328 247.571 173.873 247.068 174.335C246.065 175.188 244.811 175.69 243.496 175.766C242.182 175.842 240.879 175.488 239.783 174.756C238.878 174.086 238.202 173.15 237.851 172.079C237.181 173.081 236.287 173.915 235.24 174.513C234.193 175.111 233.021 175.457 231.817 175.525C230.771 175.505 229.744 175.246 228.814 174.767C227.884 174.287 227.076 173.601 226.452 172.76C226.223 172.456 226.02 172.133 225.845 171.793C225.337 173.74 224.322 175.636 221.695 175.512C217.532 175.24 217.755 168.979 217.891 165.236C217.891 164.38 217.891 163.636 217.891 163.128C217.773 162.027 217.857 160.914 218.139 159.843C218.982 157.364 221.621 156.037 223.838 155.219C232.803 151.887 242.403 150.616 251.925 151.5C253.895 151.674 256.633 152.169 257.81 154.302C258.361 155.498 258.563 156.826 258.392 158.132C258.143 163.483 257.401 168.799 256.175 174.012C255.84 175.45 255.27 176.306 254.415 176.628C254.17 176.721 253.909 176.767 253.647 176.765ZM249.026 168.422C249.123 168.987 249.185 169.559 249.212 170.132C249.311 171.719 249.41 173.095 251.107 174.26C252.21 175.017 253.325 175.686 253.994 175.426C254.663 175.165 254.812 174.384 254.973 173.703C256.175 168.565 256.905 163.328 257.153 158.058C257.302 156.99 257.156 155.901 256.732 154.909C255.852 153.322 253.66 152.926 251.851 152.752C242.495 151.868 233.06 153.105 224.247 156.372C222.302 157.091 219.985 158.182 219.291 160.19C219.061 161.113 218.998 162.071 219.106 163.017C219.106 163.574 219.106 164.343 219.106 165.223C218.969 168.719 218.783 173.988 221.707 174.186C223.937 174.322 224.445 172.364 224.916 169.574C225.014 168.914 225.15 168.26 225.325 167.616C225.376 167.451 225.49 167.314 225.642 167.234C225.794 167.154 225.972 167.137 226.137 167.188C226.301 167.239 226.438 167.353 226.518 167.505C226.599 167.658 226.615 167.836 226.564 168C226.373 168.689 226.35 169.414 226.499 170.113C226.648 170.813 226.964 171.465 227.419 172.017C227.92 172.695 228.568 173.25 229.315 173.641C230.062 174.032 230.888 174.248 231.73 174.273C232.986 174.163 234.186 173.71 235.2 172.962C236.215 172.214 237.003 171.2 237.479 170.033C237.51 169.211 237.735 168.408 238.136 167.69C238.206 167.563 238.32 167.464 238.456 167.412C238.591 167.36 238.741 167.358 238.879 167.405C239.019 167.447 239.141 167.537 239.222 167.66C239.304 167.782 239.34 167.928 239.325 168.074C239.241 168.855 239.045 169.619 238.743 170.343C238.755 171.002 238.917 171.65 239.215 172.239C239.513 172.827 239.941 173.34 240.465 173.74C241.321 174.31 242.34 174.584 243.366 174.521C244.393 174.459 245.371 174.062 246.152 173.393C246.764 172.826 247.229 172.12 247.507 171.334C247.786 170.548 247.869 169.706 247.75 168.88C247.689 168.482 247.585 168.091 247.44 167.715C247.382 167.557 247.387 167.382 247.454 167.228C247.521 167.073 247.645 166.95 247.799 166.884C247.957 166.823 248.133 166.827 248.288 166.894C248.443 166.961 248.566 167.087 248.629 167.244C248.807 167.62 248.94 168.015 249.026 168.422Z" fill="#231F20"/>
<path d="M127.288 61.4008H110.959C110.076 61.3975 109.23 61.0452 108.606 60.4205C107.982 59.7958 107.629 58.9495 107.626 58.0661V50.4793C107.621 50.0383 107.704 49.6006 107.869 49.1918C108.034 48.7829 108.279 48.4109 108.589 48.0973C108.899 47.7836 109.268 47.5347 109.675 47.3648C110.082 47.1949 110.518 47.1074 110.959 47.1074H127.288C128.172 47.1074 129.02 47.4588 129.645 48.0841C130.27 48.7095 130.621 49.5577 130.621 50.4421V58.0289C130.624 58.4695 130.54 58.9064 130.375 59.3145C130.209 59.7227 129.964 60.0941 129.654 60.4073C129.345 60.7206 128.976 60.9696 128.57 61.1401C128.164 61.3106 127.728 61.3992 127.288 61.4008ZM110.959 48.4215C110.413 48.4215 109.89 48.6383 109.505 49.0242C109.119 49.4101 108.902 49.9335 108.902 50.4793V58.0661C108.902 58.6119 109.119 59.1353 109.505 59.5212C109.89 59.9071 110.413 60.124 110.959 60.124H127.288C127.833 60.1207 128.354 59.9028 128.739 59.5176C129.124 59.1324 129.342 58.6109 129.345 58.0661V50.4793C129.345 49.9335 129.128 49.4101 128.742 49.0242C128.357 48.6383 127.834 48.4215 127.288 48.4215H110.959Z" fill="#231F20"/>
<path d="M153.059 61.4008H136.729C135.847 61.3976 135.001 61.0452 134.376 60.4205C133.752 59.7958 133.4 58.9495 133.397 58.0661V50.4793C133.392 50.0383 133.474 49.6007 133.64 49.1918C133.805 48.7829 134.05 48.4109 134.36 48.0973C134.67 47.7837 135.039 47.5347 135.445 47.3648C135.852 47.1949 136.289 47.1074 136.729 47.1074H153.059C153.497 47.1058 153.931 47.1909 154.336 47.3579C154.741 47.525 155.109 47.7705 155.419 48.0805C155.729 48.3905 155.974 48.7588 156.141 49.1641C156.308 49.5694 156.393 50.0038 156.391 50.4422V58.0289C156.396 58.47 156.314 58.9076 156.148 59.3165C155.983 59.7254 155.738 60.0974 155.428 60.411C155.119 60.7246 154.749 60.9736 154.343 61.1435C153.936 61.3134 153.499 61.4009 153.059 61.4008ZM136.729 48.4215C136.184 48.4215 135.661 48.6383 135.275 49.0242C134.889 49.4101 134.673 49.9336 134.673 50.4793V58.0661C134.676 58.6109 134.894 59.1324 135.279 59.5176C135.664 59.9029 136.185 60.1207 136.729 60.124H153.059C153.604 60.124 154.127 59.9072 154.513 59.5212C154.899 59.1353 155.115 58.6119 155.115 58.0661V50.4793C155.115 49.9336 154.899 49.4101 154.513 49.0242C154.127 48.6383 153.604 48.4215 153.059 48.4215H136.729Z" fill="#231F20"/>
<path d="M129.989 56.1571C129.824 56.1562 129.665 56.0944 129.543 55.9835C129.483 55.9246 129.435 55.8542 129.402 55.7765C129.369 55.6988 129.353 55.6153 129.353 55.531C129.353 55.4467 129.369 55.3632 129.402 55.2855C129.435 55.2078 129.483 55.1374 129.543 55.0785C129.945 54.6278 130.435 54.2635 130.983 54.0078C131.53 53.752 132.123 53.6102 132.727 53.5909C133.114 53.6357 133.486 53.7713 133.811 53.9867C134.136 54.2022 134.406 54.4913 134.598 54.8306C134.687 54.9741 134.715 55.1466 134.678 55.3112C134.641 55.4757 134.541 55.6192 134.4 55.7108C134.328 55.7558 134.249 55.786 134.166 55.7998C134.083 55.8135 133.997 55.8105 133.916 55.7909C133.834 55.7712 133.756 55.7354 133.688 55.6854C133.621 55.6355 133.563 55.5724 133.52 55.5C133.433 55.3211 133.304 55.1658 133.145 55.0471C132.985 54.9284 132.8 54.8499 132.603 54.8182C131.779 54.9014 131.017 55.2959 130.472 55.9215C130.415 55.9946 130.341 56.0537 130.258 56.0944C130.174 56.1352 130.082 56.1566 129.989 56.1571Z" fill="#231F20"/>
<path d="M102.955 56.1571C102.828 56.1571 102.704 56.1194 102.598 56.0488C102.492 55.9782 102.409 55.8779 102.361 55.7604C102.299 55.6008 102.302 55.4233 102.369 55.2659C102.436 55.1085 102.562 54.9834 102.72 54.9174L108.022 52.7852C108.1 52.7532 108.184 52.7371 108.268 52.7379C108.353 52.7388 108.436 52.7564 108.513 52.7899C108.591 52.8234 108.66 52.8721 108.719 52.933C108.777 52.9939 108.823 53.0659 108.853 53.1447C108.914 53.3011 108.913 53.4754 108.848 53.6306C108.783 53.7858 108.66 53.9095 108.506 53.9753L103.191 56.1075C103.117 56.1427 103.037 56.1597 102.955 56.1571Z" fill="#231F20"/>
<path d="M159.984 55.6859H159.749L155.598 54.0124C155.441 53.9489 155.316 53.8262 155.248 53.6708C155.181 53.5154 155.178 53.3397 155.239 53.1818C155.269 53.103 155.314 53.0311 155.373 52.9701C155.431 52.9092 155.501 52.8605 155.578 52.827C155.656 52.7935 155.739 52.7759 155.823 52.7751C155.907 52.7742 155.991 52.7903 156.069 52.8223L160.232 54.4959C160.386 54.5617 160.509 54.6854 160.574 54.8405C160.639 54.9957 160.641 55.1701 160.579 55.3264C160.525 55.438 160.441 55.5314 160.335 55.5953C160.229 55.6592 160.107 55.6907 159.984 55.6859Z" fill="#231F20"/>
</g>
<defs>
<clipPath id="clip0_1507_65578">
<rect width="278.761" height="300" fill="white"/>
</clipPath>
</defs>
</svg>
