<svg width="211" height="250" viewBox="0 0 211 250" fill="none" xmlns="http://www.w3.org/2000/svg">
<g clip-path="url(#clip0_15_19810)">
<path d="M25.4101 203.71C23.4801 221.02 18.0601 244.12 15.5701 252.77H40.8901L56.4201 250.89C56.4201 250.89 60.0201 217.14 62.2801 209.75C64.5401 202.36 62.7901 131.85 62.8601 131.14C62.9301 130.43 24.8101 147.74 21.0101 164.22C19.5401 170.64 26.0601 197.87 25.4101 203.71Z" fill="white"/>
<path d="M15.5701 253.27C15.4922 253.271 15.4151 253.254 15.3454 253.219C15.2757 253.184 15.2156 253.133 15.1701 253.07C15.1249 253.007 15.0943 252.935 15.0804 252.859C15.0666 252.783 15.0699 252.704 15.0901 252.63C17.5701 243.99 23.0101 220.75 24.9101 203.63C25.1901 201.11 24.0601 194.28 22.9101 187.06C21.3401 177.57 19.7201 167.76 20.5701 164.06C24.2201 148.18 60.4801 130.57 62.9001 130.57C63.0299 130.592 63.1469 130.661 63.2282 130.765C63.3095 130.868 63.3494 130.999 63.3401 131.13C63.3401 131.28 63.3401 133.19 63.4201 135.83C63.7301 152.57 64.6701 203.5 62.7401 209.83C60.5301 217.09 56.9401 250.53 56.9101 250.83C56.8973 250.942 56.8468 251.047 56.7669 251.127C56.687 251.207 56.5824 251.257 56.4701 251.27L41.0001 253.27H15.5701ZM16.2301 252.27H40.8901L56.0001 250.44C56.4301 246.44 59.7001 216.61 61.8401 209.6C63.0901 205.5 63.3001 180.71 62.4701 135.91C62.4701 133.64 62.4101 132.42 62.4001 131.77C57.8101 133.48 25.0601 149.07 21.5401 164.34C20.7401 167.81 22.4201 177.96 23.9001 186.91C25.1001 194.21 26.2401 201.11 25.9001 203.76C24.0001 220.52 18.8001 243.14 16.2301 252.27Z" fill="#231F20"/>
<path d="M14.9001 226.96L17.1501 211.97L63.0101 220.04L61.1601 236.24L14.9001 226.96Z" fill="white"/>
<path d="M61.1701 236.74H61.0701L14.8001 227.46C14.6747 227.431 14.5645 227.357 14.4906 227.252C14.4167 227.146 14.3845 227.018 14.4001 226.89L16.6601 211.89C16.6699 211.824 16.6926 211.761 16.727 211.705C16.7613 211.648 16.8066 211.599 16.8601 211.56C16.9144 211.521 16.9759 211.493 17.0411 211.477C17.1063 211.462 17.1739 211.459 17.2401 211.47L63.0901 219.55C63.2149 219.57 63.3272 219.637 63.4036 219.738C63.48 219.838 63.5145 219.964 63.5001 220.09L61.6601 236.3C61.6523 236.369 61.6305 236.435 61.5961 236.496C61.5618 236.556 61.5155 236.608 61.4601 236.65C61.3745 236.708 61.2736 236.739 61.1701 236.74ZM15.4601 226.56L60.7301 235.65L62.4601 220.45L17.5701 212.55L15.4601 226.56Z" fill="#231F20"/>
<path d="M64.1801 252.77L65.1601 229.81L12.8201 219.55L5.84009 252.77H64.1801Z" fill="#296C2E"/>
<path d="M64.1802 253.27H5.84018C5.76588 253.271 5.69233 253.255 5.62487 253.224C5.55741 253.193 5.49773 253.147 5.45018 253.09C5.40497 253.031 5.37271 252.963 5.35548 252.891C5.33825 252.818 5.33644 252.743 5.35018 252.67L12.3502 219.45C12.3608 219.385 12.3846 219.324 12.42 219.269C12.4553 219.214 12.5016 219.166 12.556 219.13C12.6103 219.093 12.6715 219.068 12.7359 219.056C12.8002 219.044 12.8663 219.046 12.9302 219.06L65.2802 229.32C65.3985 229.34 65.5052 229.403 65.5793 229.497C65.6533 229.592 65.6893 229.71 65.6802 229.83L64.6802 252.83C64.6634 252.951 64.6037 253.062 64.5119 253.143C64.4202 253.224 64.3024 253.269 64.1802 253.27ZM6.46018 252.27H63.7002L64.7002 230.21L13.2602 220.13L6.46018 252.27Z" fill="#231F20"/>
<path d="M144.246 1.1695L9.35181 50.2935L74.5961 229.453L209.49 180.329L144.246 1.1695Z" fill="white"/>
<path d="M74.6001 229.94C74.4973 229.94 74.3971 229.908 74.313 229.849C74.2289 229.79 74.165 229.707 74.1301 229.61L8.88008 50.46C8.83505 50.3354 8.84136 50.1979 8.89762 50.0779C8.95387 49.9579 9.05547 49.8652 9.18009 49.82L144.07 0.690024C144.132 0.665934 144.198 0.654336 144.264 0.655902C144.33 0.657468 144.395 0.672166 144.456 0.699145C144.516 0.726124 144.571 0.764846 144.616 0.813063C144.661 0.86128 144.697 0.918032 144.72 0.980023L210 180.14C210.05 180.262 210.05 180.398 210 180.52C209.974 180.58 209.935 180.634 209.887 180.679C209.839 180.724 209.782 180.758 209.72 180.78L74.8201 229.91C74.7502 229.937 74.6748 229.948 74.6001 229.94ZM10.0001 50.58L74.9001 228.8L208.9 180.01L144 1.80002L10.0001 50.58Z" fill="#231F20"/>
<path d="M140.193 0.410711L5.29956 49.5347L70.5438 228.694L205.438 179.571L140.193 0.410711Z" fill="white"/>
<path d="M70.55 229.18C70.4482 229.182 70.3481 229.152 70.2639 229.095C70.1796 229.038 70.1154 228.955 70.08 228.86L4.83004 49.6999C4.80634 49.6383 4.79533 49.5725 4.79767 49.5065C4.80002 49.4406 4.81567 49.3758 4.84369 49.316C4.87171 49.2562 4.91151 49.2027 4.96072 49.1587C5.00993 49.1147 5.06752 49.0811 5.13004 49.0599L140 -0.0701061C140.062 -0.0938096 140.127 -0.104819 140.193 -0.102474C140.259 -0.100129 140.324 -0.0844778 140.384 -0.0564591C140.444 -0.0284404 140.497 0.0113687 140.541 0.0605758C140.585 0.109783 140.619 0.167374 140.64 0.229893L205.89 179.38C205.914 179.442 205.925 179.507 205.922 179.573C205.92 179.639 205.904 179.704 205.876 179.764C205.848 179.824 205.809 179.877 205.759 179.921C205.71 179.965 205.653 179.999 205.59 180.02L70.72 229.15L70.55 229.18ZM5.94004 49.8299L70.8501 228L204.85 179.21L139.89 0.999894L5.94004 49.8299Z" fill="#231F20"/>
<path d="M136.007 -2.11558L1.0603 46.6948L65.8881 225.925L200.835 177.114L136.007 -2.11558Z" fill="white"/>
<path d="M66.3501 226C66.2488 225.999 66.1501 225.968 66.0664 225.911C65.9827 225.855 65.9178 225.774 65.8801 225.68L0.630084 46.5299C0.585052 46.4053 0.591362 46.2678 0.647616 46.1478C0.70387 46.0278 0.805468 45.9351 0.930087 45.8899L135.83 -3.24008C135.952 -3.29009 136.088 -3.29009 136.21 -3.24008C136.33 -3.17992 136.423 -3.07624 136.47 -2.95008L201.72 176.2C201.765 176.325 201.759 176.462 201.703 176.582C201.646 176.702 201.545 176.795 201.42 176.84L66.5201 226C66.4639 226.01 66.4063 226.01 66.3501 226ZM1.74008 46.6599L66.6501 224.87L200.65 176.08L135.7 -2.13008L1.74008 46.6599Z" fill="#231F20"/>
<path d="M62.396 41.7949L25.3882 55.1807L41.5518 99.8683L78.5596 86.4825L62.396 41.7949Z" fill="white"/>
<path d="M62.48 41.3598L78.75 85.9998L41.75 99.4698L25.49 54.8298L62.49 41.3598M62.49 40.3598C62.3741 40.36 62.259 40.3803 62.15 40.4198L25.15 53.8898C25.0253 53.9345 24.9107 54.0034 24.8129 54.0927C24.715 54.1819 24.6359 54.2897 24.58 54.4099C24.5291 54.5318 24.5029 54.6627 24.5029 54.7948C24.5029 54.927 24.5291 55.0579 24.58 55.1798L40.85 99.8498C40.9215 100.041 41.05 100.206 41.218 100.322C41.3861 100.439 41.5857 100.501 41.79 100.5C41.906 100.5 42.021 100.479 42.13 100.44L79.13 86.9698C79.3793 86.8796 79.5825 86.6941 79.695 86.454C79.8075 86.214 79.8201 85.9392 79.73 85.6898L63.42 40.9998C63.3501 40.8066 63.2224 40.6395 63.0542 40.5214C62.886 40.4033 62.6855 40.3399 62.48 40.3398L62.49 40.3598Z" fill="#231F20"/>
<path d="M79.91 43C79.7774 43.0239 79.6408 42.9941 79.5301 42.9172C79.4195 42.8403 79.3439 42.7226 79.3201 42.59C79.2962 42.4574 79.326 42.3208 79.4028 42.2101C79.4797 42.0995 79.5974 42.0239 79.73 42L107.3 32C107.362 31.977 107.427 31.9664 107.493 31.9688C107.559 31.9712 107.624 31.9866 107.684 32.0139C107.744 32.0413 107.797 32.0803 107.842 32.1285C107.887 32.1767 107.922 32.2333 107.945 32.295C107.968 32.3567 107.979 32.4224 107.976 32.4882C107.974 32.554 107.959 32.6187 107.931 32.6786C107.904 32.7385 107.865 32.7924 107.817 32.8373C107.768 32.8821 107.712 32.917 107.65 32.94L80.08 43H79.91Z" fill="#231F20"/>
<path d="M83.7202 53.4999C83.6178 53.4984 83.5182 53.4662 83.4343 53.4073C83.3505 53.3485 83.2863 53.2657 83.2502 53.1699C83.2265 53.1083 83.2155 53.0425 83.2178 52.9765C83.2202 52.9105 83.2358 52.8457 83.2638 52.786C83.2919 52.7262 83.3317 52.6727 83.3809 52.6287C83.4301 52.5847 83.4877 52.5511 83.5502 52.5299L123 38.1599C123.125 38.1148 123.262 38.1211 123.382 38.1774C123.502 38.2337 123.595 38.3353 123.64 38.4599C123.686 38.5832 123.681 38.7196 123.627 38.8394C123.572 38.9592 123.473 39.0528 123.35 39.0999L83.8902 53.4699C83.8357 53.4895 83.7782 53.4996 83.7202 53.4999Z" fill="#231F20"/>
<path d="M87.53 64C87.4279 63.9972 87.3289 63.9645 87.2453 63.9058C87.1618 63.8471 87.0973 63.7651 87.06 63.67C87.015 63.5453 87.0213 63.4079 87.0775 63.2879C87.1338 63.1679 87.2354 63.0751 87.36 63.03L105.16 56.54C105.285 56.495 105.422 56.5013 105.542 56.5575C105.662 56.6138 105.755 56.7154 105.8 56.84C105.824 56.9016 105.835 56.9674 105.832 57.0333C105.83 57.0993 105.814 57.1641 105.786 57.2239C105.758 57.2837 105.719 57.3372 105.669 57.3812C105.62 57.4252 105.563 57.4588 105.5 57.48L87.7 63.97C87.6457 63.9904 87.588 64.0006 87.53 64Z" fill="#231F20"/>
<path d="M112.31 54.94C112.207 54.9415 112.106 54.9104 112.022 54.8511C111.937 54.7919 111.874 54.7075 111.84 54.61C111.795 54.4854 111.801 54.3479 111.858 54.2279C111.914 54.1079 112.015 54.0152 112.14 53.97L129.94 47.49C130.064 47.4492 130.198 47.4583 130.315 47.5152C130.432 47.5721 130.523 47.6724 130.567 47.7948C130.611 47.9172 130.606 48.052 130.552 48.1706C130.499 48.2893 130.401 48.3823 130.28 48.43L112.48 54.91C112.425 54.9296 112.368 54.9398 112.31 54.94Z" fill="#231F20"/>
<path d="M91.35 74.4399C91.2174 74.4638 91.0807 74.434 90.9701 74.3571C90.8594 74.2802 90.7839 74.1625 90.76 74.0299C90.7361 73.8973 90.7659 73.7606 90.8428 73.65C90.9197 73.5393 91.0374 73.4638 91.17 73.4399L118.74 63.4399C118.865 63.3949 119.002 63.4012 119.122 63.4574C119.242 63.5137 119.335 63.6153 119.38 63.7399C119.404 63.8009 119.415 63.866 119.414 63.9315C119.412 63.997 119.397 64.0615 119.37 64.1212C119.343 64.1808 119.304 64.2345 119.256 64.2789C119.208 64.3233 119.152 64.3577 119.09 64.3799L91.52 74.3799L91.35 74.4399Z" fill="#D1D3D4"/>
<path d="M64.52 107.13C64.4166 107.133 64.3149 107.102 64.2302 107.043C64.1455 106.983 64.0823 106.898 64.05 106.8C64.005 106.675 64.0113 106.538 64.0675 106.418C64.1238 106.298 64.2254 106.205 64.35 106.16L91.57 96.2498C91.6936 96.209 91.8282 96.218 91.9453 96.2749C92.0624 96.3318 92.1526 96.4321 92.1969 96.5545C92.2412 96.6769 92.236 96.8118 92.1824 96.9304C92.1288 97.049 92.0311 97.1421 91.91 97.1898L64.69 107.1L64.52 107.13Z" fill="#D1D3D4"/>
<path d="M63.1193 120.193L50.9041 124.642L54.4628 134.414L66.678 129.966L63.1193 120.193Z" fill="white"/>
<path d="M54.4701 134.9C54.4009 134.914 54.3294 134.914 54.2601 134.9C54.1428 134.841 54.0506 134.741 54.0001 134.62L50.4401 124.84C50.3951 124.715 50.4014 124.578 50.4577 124.458C50.5139 124.338 50.6155 124.245 50.7402 124.2L63.0001 119.71C63.1219 119.66 63.2584 119.66 63.3802 119.71C63.4975 119.769 63.5897 119.868 63.6401 119.99L67.2001 129.76C67.2452 129.885 67.2389 130.022 67.1826 130.142C67.1264 130.262 67.0248 130.355 66.9001 130.4L54.6801 134.85C54.615 134.883 54.5431 134.9 54.4701 134.9ZM51.5501 124.9L54.7702 133.73L66.0501 129.63L62.8301 120.79L51.5501 124.9Z" fill="#231F20"/>
<path d="M56.4442 102.686L44.229 107.134L47.7877 116.906L60.0029 112.458L56.4442 102.686Z" fill="white"/>
<path d="M47.79 117.4C47.6879 117.397 47.5889 117.364 47.5053 117.306C47.4217 117.247 47.3573 117.165 47.32 117.07L43.76 107.3C43.7149 107.175 43.7212 107.038 43.7775 106.918C43.8338 106.798 43.9354 106.705 44.06 106.66L56.28 102.21C56.4046 102.165 56.5421 102.171 56.6621 102.227C56.7821 102.284 56.8748 102.385 56.92 102.51L60.48 112.28C60.525 112.405 60.5187 112.542 60.4625 112.662C60.4062 112.782 60.3046 112.875 60.18 112.92L48 117.37C47.9332 117.396 47.8613 117.406 47.79 117.4ZM44.87 107.4L48.09 116.24L59.37 112.13L56.15 103.3L44.87 107.4Z" fill="#231F20"/>
<path d="M70.49 123.54C70.3879 123.537 70.2889 123.504 70.2053 123.446C70.1217 123.387 70.0573 123.305 70.02 123.21C69.975 123.085 69.9812 122.948 70.0375 122.828C70.0938 122.708 70.1954 122.615 70.32 122.57L97.54 112.65C97.6646 112.605 97.8021 112.611 97.9221 112.667C98.0421 112.724 98.1348 112.825 98.18 112.95C98.2037 113.011 98.2147 113.077 98.2124 113.143C98.21 113.209 98.1943 113.274 98.1663 113.334C98.1383 113.394 98.0985 113.447 98.0493 113.491C98.0001 113.535 97.9425 113.569 97.88 113.59L70.66 123.51C70.6057 123.53 70.548 123.54 70.49 123.54Z" fill="#D1D3D4"/>
<path d="M114.213 83.0057L101.998 87.4541L105.556 97.2263L117.771 92.7779L114.213 83.0057Z" fill="white"/>
<path d="M105.56 97.72C105.457 97.7199 105.357 97.6882 105.273 97.6292C105.189 97.5701 105.125 97.4866 105.09 97.39L101.53 87.62C101.503 87.5603 101.489 87.4955 101.489 87.43C101.489 87.3645 101.503 87.2997 101.53 87.24C101.555 87.1788 101.593 87.1237 101.641 87.0788C101.69 87.0339 101.747 87.0001 101.81 86.98L114 82.53C114.125 82.485 114.262 82.4913 114.382 82.5475C114.502 82.6038 114.595 82.7054 114.64 82.83L118.2 92.6C118.224 92.6616 118.235 92.7274 118.232 92.7933C118.23 92.8593 118.214 92.9241 118.186 92.9839C118.158 93.0437 118.119 93.0972 118.069 93.1412C118.02 93.1852 117.963 93.2188 117.9 93.24L105.69 97.69L105.56 97.72ZM102.64 87.72L105.86 96.55L117.13 92.44L113.91 83.61L102.64 87.72Z" fill="#231F20"/>
<path d="M121.58 86.35C121.477 86.353 121.375 86.3225 121.29 86.2631C121.206 86.2036 121.142 86.1183 121.11 86.02C121.065 85.8954 121.071 85.7579 121.128 85.6379C121.184 85.5179 121.285 85.4251 121.41 85.38L148.63 75.47C148.754 75.4292 148.888 75.4382 149.005 75.4951C149.122 75.552 149.213 75.6524 149.257 75.7748C149.301 75.8972 149.296 76.032 149.242 76.1506C149.189 76.2692 149.091 76.3623 148.97 76.41L121.75 86.32L121.58 86.35Z" fill="#D1D3D4"/>
<path d="M120.184 99.4129L107.969 103.861L111.527 113.634L123.743 109.185L120.184 99.4129Z" fill="white"/>
<path d="M111.53 114.12C111.427 114.12 111.327 114.088 111.243 114.029C111.159 113.97 111.095 113.887 111.06 113.79L107.5 104C107.455 103.875 107.461 103.738 107.518 103.618C107.574 103.498 107.676 103.405 107.8 103.36L120 98.9299C120.125 98.8875 120.261 98.8951 120.381 98.951C120.5 99.007 120.593 99.1069 120.64 99.2299L124.2 109C124.25 109.122 124.25 109.258 124.2 109.38C124.144 109.5 124.044 109.593 123.92 109.64L111.7 114.09C111.646 114.11 111.588 114.12 111.53 114.12ZM108.61 104.12L111.83 112.95L123.1 108.85L119.89 99.9999L108.61 104.12Z" fill="#231F20"/>
<path d="M127.55 102.75C127.447 102.751 127.346 102.72 127.262 102.661C127.177 102.602 127.114 102.517 127.08 102.42C127.038 102.295 127.045 102.159 127.101 102.04C127.157 101.92 127.257 101.827 127.38 101.78L154.6 91.8699C154.724 91.8291 154.858 91.8381 154.975 91.895C155.092 91.9519 155.183 92.0523 155.227 92.1747C155.271 92.2971 155.266 92.4319 155.212 92.5505C155.159 92.6691 155.061 92.7622 154.94 92.8099L127.72 102.72C127.666 102.74 127.608 102.75 127.55 102.75Z" fill="#D1D3D4"/>
<path d="M161.381 110.496L59.2993 147.671L70.5469 178.557L172.629 141.382L161.381 110.496Z" fill="white"/>
<path d="M70.5501 179.05C70.4769 179.052 70.4044 179.035 70.3401 179C70.2799 178.974 70.2258 178.935 70.1811 178.887C70.1364 178.839 70.102 178.782 70.0801 178.72L58.8301 147.84C58.7806 147.715 58.7806 147.575 58.8301 147.45C58.8581 147.392 58.8972 147.34 58.9453 147.297C58.9933 147.254 59.0493 147.221 59.1101 147.2L161.21 110C161.272 109.976 161.338 109.965 161.403 109.968C161.469 109.97 161.534 109.986 161.594 110.014C161.654 110.042 161.707 110.081 161.751 110.131C161.795 110.18 161.829 110.237 161.85 110.3L173.1 141.2C173.15 141.322 173.15 141.458 173.1 141.58C173.075 141.641 173.037 141.696 172.989 141.741C172.941 141.786 172.883 141.82 172.82 141.84L70.7201 179C70.6672 179.027 70.6095 179.044 70.5501 179.05ZM59.9401 148L70.8501 177.95L172 141.07L161.09 111.13L59.9401 148Z" fill="#231F20"/>
<path d="M61.7201 154.8C61.5875 154.822 61.4514 154.791 61.3417 154.714C61.232 154.636 61.1576 154.518 61.1351 154.385C61.1126 154.252 61.1436 154.116 61.2215 154.006C61.2993 153.897 61.4175 153.822 61.5501 153.8L163.62 116.62C163.682 116.597 163.747 116.586 163.813 116.589C163.879 116.591 163.944 116.606 164.004 116.634C164.064 116.661 164.118 116.7 164.162 116.748C164.207 116.797 164.242 116.853 164.265 116.915C164.288 116.977 164.299 117.042 164.296 117.108C164.294 117.174 164.279 117.239 164.251 117.299C164.224 117.358 164.185 117.412 164.137 117.457C164.088 117.502 164.032 117.537 163.97 117.56L61.8901 154.77L61.7201 154.8Z" fill="#231F20"/>
<path d="M98.82 168.75C98.7184 168.751 98.619 168.72 98.5351 168.663C98.4511 168.606 98.3866 168.525 98.35 168.43L87.1 137.54C87.0755 137.478 87.0637 137.411 87.0653 137.344C87.067 137.278 87.082 137.212 87.1095 137.151C87.137 137.09 87.1765 137.035 87.2255 136.99C87.2746 136.944 87.3323 136.909 87.3951 136.887C87.458 136.864 87.5248 136.854 87.5915 136.857C87.6583 136.861 87.7237 136.878 87.7838 136.907C87.8439 136.936 87.8976 136.977 87.9416 137.028C87.9856 137.078 88.019 137.137 88.04 137.2L99.29 168.08C99.335 168.205 99.3287 168.342 99.2725 168.462C99.2162 168.582 99.1146 168.675 98.99 168.72C98.9369 168.744 98.8783 168.755 98.82 168.75Z" fill="#231F20"/>
<path d="M141.43 184.27C141.297 184.292 141.161 184.261 141.052 184.183C140.942 184.106 140.868 183.987 140.845 183.855C140.823 183.722 140.854 183.586 140.931 183.476C141.009 183.367 141.127 183.292 141.26 183.27L182.44 168.27C182.564 168.229 182.698 168.238 182.815 168.295C182.932 168.352 183.023 168.452 183.067 168.575C183.111 168.697 183.106 168.832 183.052 168.95C182.999 169.069 182.901 169.162 182.78 169.21L141.6 184.21L141.43 184.27Z" fill="#D1D3D4"/>
<path d="M74.0502 188.65C73.9176 188.673 73.7814 188.642 73.6717 188.564C73.562 188.486 73.4877 188.368 73.4652 188.235C73.4426 188.102 73.4737 187.966 73.5515 187.857C73.6294 187.747 73.7476 187.673 73.8802 187.65L176 150.5C176.062 150.477 176.128 150.466 176.193 150.469C176.259 150.471 176.324 150.487 176.384 150.514C176.444 150.541 176.498 150.58 176.542 150.628C176.587 150.677 176.622 150.733 176.645 150.795C176.668 150.857 176.679 150.922 176.676 150.988C176.674 151.054 176.659 151.119 176.631 151.179C176.604 151.239 176.565 151.292 176.517 151.337C176.468 151.382 176.412 151.417 176.35 151.44L74.2202 188.62L74.0502 188.65Z" fill="#D1D3D4"/>
<path d="M74.05 73.13L78.75 86.03L41.75 99.5L37.05 86.61C39.5 81.7 44.42 78.54 48.86 76.46C50.56 75.66 52.2001 75.03 53.6001 74.52L53.93 74.4C55.23 73.93 56.75 73.4 58.4 72.98H58.4901C63.2301 71.69 69 71 74.05 73.13Z" fill="#296C2E"/>
<path d="M59.5102 75.3899L60.4102 88.7099L60.6702 92.6099L59.8402 92.9099L57.5302 89.7499L49.6802 78.9999C52.662 77.1095 56.0136 75.8786 59.5102 75.3899Z" fill="#231F20"/>
<path d="M55.3902 61.3998C54.8302 58.5098 59.1302 56.1798 60.0802 59.4898C60.4698 60.6324 60.4414 61.8761 60.0002 62.9998C59.767 63.5449 59.3776 64.0087 58.881 64.3326C58.3844 64.6565 57.803 64.8261 57.2102 64.8198" fill="white"/>
<path d="M57.34 65.2999H57.14C57.073 65.2948 57.0076 65.2766 56.9476 65.2462C56.8877 65.2157 56.8343 65.1738 56.7906 65.1227C56.7469 65.0715 56.7138 65.0123 56.6931 64.9483C56.6724 64.8843 56.6646 64.8169 56.67 64.7499C56.6803 64.6137 56.7437 64.487 56.8467 64.3972C56.9496 64.3073 57.0837 64.2616 57.22 64.2699C57.7077 64.2699 58.1844 64.1256 58.5901 63.8551C58.9959 63.5846 59.3125 63.2 59.5 62.7499C59.8863 61.7538 59.9145 60.6545 59.58 59.6399C59.2 58.3199 58.31 58.3299 57.81 58.4399C57.1934 58.6025 56.6577 58.9852 56.3039 59.5158C55.9502 60.0464 55.803 60.6882 55.89 61.3199C55.9046 61.3857 55.9057 61.4537 55.8932 61.5199C55.8808 61.5861 55.8552 61.6491 55.8178 61.7051C55.7805 61.7611 55.7322 61.809 55.6759 61.8459C55.6195 61.8829 55.5563 61.908 55.49 61.9199C55.3548 61.9463 55.2146 61.918 55.1002 61.8411C54.9858 61.7642 54.9066 61.6451 54.88 61.5099C54.7404 60.6183 54.9388 59.7066 55.4364 58.9537C55.9341 58.2008 56.695 57.6609 57.57 57.4399C57.8936 57.3577 58.2307 57.3427 58.5603 57.396C58.8898 57.4493 59.205 57.5696 59.4862 57.7496C59.7674 57.9296 60.0087 58.1654 60.1952 58.4423C60.3816 58.7193 60.5092 59.0316 60.57 59.3599C60.9786 60.6087 60.9326 61.9618 60.44 63.1799C60.1742 63.7885 59.7425 64.31 59.1943 64.6849C58.6462 65.0598 58.0036 65.2729 57.34 65.2999Z" fill="#231F20"/>
<path d="M44.0701 65.53C42.6401 62.95 37.8501 63.93 39.2501 67.07C39.6899 68.1791 40.5083 69.0967 41.5601 69.66C42.0895 69.9282 42.6866 70.0334 43.2758 69.9622C43.865 69.891 44.4198 69.6466 44.8701 69.26" fill="white"/>
<path d="M43 70.4999C42.4358 70.5001 41.8788 70.3736 41.37 70.1299C40.2065 69.5125 39.2995 68.5027 38.81 67.2799C38.644 66.9906 38.5396 66.6701 38.5034 66.3386C38.4671 66.0071 38.4998 65.6716 38.5993 65.3533C38.6988 65.035 38.8631 64.7407 39.0818 64.4888C39.3004 64.237 39.5688 64.0331 39.87 63.8899C40.6825 63.4936 41.614 63.4165 42.4806 63.6738C43.3472 63.9312 44.0856 64.5043 44.55 65.2799C44.6163 65.3992 44.6325 65.54 44.595 65.6713C44.5575 65.8026 44.4694 65.9136 44.35 65.9799C44.2307 66.0462 44.0899 66.0624 43.9586 66.0249C43.8273 65.9874 43.7163 65.8992 43.65 65.7799C43.3165 65.234 42.7935 64.8302 42.181 64.6457C41.5685 64.4612 40.9095 64.509 40.33 64.7799C40.152 64.8641 39.994 64.9851 39.8663 65.135C39.7387 65.2849 39.6443 65.4601 39.5894 65.6492C39.5346 65.8383 39.5206 66.0369 39.5482 66.2318C39.5759 66.4267 39.6447 66.6135 39.75 66.7799C40.1477 67.7733 40.875 68.5995 41.81 69.1199C42.2453 69.3417 42.7362 69.4306 43.2216 69.3755C43.7071 69.3204 44.1655 69.1237 44.54 68.8099C44.6373 68.714 44.7684 68.6603 44.905 68.6603C45.0416 68.6603 45.1727 68.714 45.27 68.8099C45.3653 68.9055 45.4187 69.0349 45.4187 69.1699C45.4187 69.3048 45.3653 69.4343 45.27 69.5299C44.671 70.1401 43.855 70.4888 43 70.4999Z" fill="#231F20"/>
<path d="M49.65 78.9998C50.4346 79.6792 51.3937 80.1254 52.4187 80.288C53.4437 80.4506 54.4938 80.323 55.45 79.9198C56.4585 79.5824 57.3624 78.9897 58.0739 78.1994C58.7854 77.4091 59.2801 76.448 59.51 75.4098L55.2 65.0498L46.3 68.2898L49.65 78.9998Z" fill="white"/>
<path d="M53.2202 80.8298C51.7689 80.8479 50.3647 80.3155 49.2902 79.3398C49.232 79.2802 49.1876 79.2085 49.1602 79.1298L45.8102 68.4398C45.7718 68.3138 45.7837 68.1779 45.8434 68.0604C45.903 67.943 46.0058 67.8532 46.1302 67.8098L55.0002 64.5698C55.1251 64.5229 55.2633 64.5258 55.3861 64.5779C55.509 64.63 55.6071 64.7274 55.6602 64.8498L60.0002 75.1898C60.0205 75.2821 60.0205 75.3776 60.0002 75.4698C59.7575 76.6016 59.2241 77.6505 58.4525 78.5133C57.681 79.376 56.6979 80.0228 55.6002 80.3898C54.8384 80.6736 54.033 80.8225 53.2202 80.8298ZM50.1102 78.6898C50.8226 79.2691 51.6795 79.6432 52.5887 79.7719C53.4979 79.9005 54.425 79.7788 55.2702 79.4198C56.1727 79.1166 56.9846 78.5914 57.6311 77.8925C58.2777 77.1935 58.7381 76.3433 58.9702 75.4198L54.9102 65.6798L46.9102 68.5898L50.1102 78.6898Z" fill="#231F20"/>
<path d="M47.9401 72.79C48.9904 73.5377 50.2105 74.012 51.4901 74.17C53.6101 74.5 56.6401 74.64 58.6601 73.53L56.6601 69.21C55.1831 69.9888 53.6188 70.5897 52.0001 71C50.5945 71.4544 49.1274 71.6905 47.6501 71.7C47.3701 71.64 47.5101 72.46 47.9401 72.79Z" fill="#231F20"/>
<path d="M54.4001 74.8998C53.3955 74.895 52.3927 74.8148 51.4001 74.6598C50.0385 74.4933 48.7414 73.9841 47.6301 73.1798C47.391 72.9916 47.2098 72.7397 47.1073 72.4532C47.0047 72.1667 46.9849 71.8571 47.0501 71.5598C47.0918 71.4362 47.1733 71.3299 47.2819 71.2575C47.3905 71.1851 47.5199 71.1508 47.6501 71.1598C49.0735 71.1511 50.487 70.9217 51.8401 70.4798C53.4399 70.0972 54.9878 69.5231 56.4501 68.7698C56.5754 68.7203 56.7148 68.7203 56.8401 68.7698C56.9049 68.7916 56.9643 68.827 57.0143 68.8735C57.0643 68.9201 57.1038 68.9768 57.1301 69.0398L59.1301 73.3498C59.1841 73.4646 59.1924 73.5956 59.1534 73.7163C59.1144 73.837 59.031 73.9383 58.9201 73.9998C57.5091 74.6632 55.9576 74.9721 54.4001 74.8998ZM48.0801 72.1598C48.1192 72.251 48.1771 72.3328 48.2501 72.3998C49.2341 73.0942 50.3747 73.534 51.5701 73.6798C52.8301 73.8698 55.8801 74.2098 58.0101 73.2998L56.4501 69.8898C55.0617 70.557 53.6071 71.0765 52.1101 71.4398C50.8035 71.8526 49.4489 72.0946 48.0801 72.1598Z" fill="#231F20"/>
<path d="M52.41 71.9999L53.14 71.7299C53.9644 71.4317 54.7219 70.9739 55.3693 70.3826C56.0166 69.7914 56.541 69.0783 56.9125 68.2842C57.284 67.4901 57.4953 66.6305 57.5344 65.7547C57.5734 64.8789 57.4394 64.0039 57.14 63.1799L53.52 53.2499C51.1225 52.166 48.3977 52.0554 45.9202 52.9416C43.4427 53.8277 41.4062 55.6413 40.24 57.9999L43.85 67.9999C44.1493 68.8247 44.6081 69.5825 45.2003 70.2299C45.7925 70.8773 46.5065 71.4017 47.3014 71.7732C48.0963 72.1446 48.9566 72.3558 49.8331 72.3948C50.7097 72.4337 51.5853 72.2995 52.41 71.9999Z" fill="white"/>
<path d="M49.5101 52.2799C50.9 52.2525 52.2748 52.5721 53.5101 53.2099L57.1301 63.1399C57.4295 63.9639 57.5635 64.8388 57.5245 65.7146C57.4854 66.5905 57.2741 67.45 56.9026 68.2441C56.5311 69.0382 56.0067 69.7513 55.3594 70.3425C54.712 70.9338 53.9545 71.3916 53.1301 71.6899L52.4001 71.9599C51.6653 72.2233 50.8907 72.3586 50.1101 72.3599C48.7464 72.359 47.4156 71.9408 46.2965 71.1614C45.1774 70.382 44.3237 69.2787 43.8501 67.9999L40.2401 57.9999C40.77 56.7984 41.5483 55.7227 42.5239 54.8437C43.4994 53.9646 44.6501 53.3022 45.9001 52.8999C47.0549 52.468 48.2772 52.2446 49.5101 52.2399M49.5101 51.2399C48.1446 51.2411 46.7903 51.4849 45.5101 51.9599C44.1152 52.4147 42.8334 53.162 41.7504 54.1519C40.6674 55.1417 39.8082 56.3513 39.2301 57.6999C39.1482 57.9226 39.1482 58.1672 39.2301 58.3899L42.8401 68.3199C43.185 69.2719 43.7145 70.1465 44.3983 70.8934C45.082 71.6403 45.9066 72.2448 46.8246 72.6722C47.7425 73.0996 48.7359 73.3415 49.7476 73.384C50.7594 73.4265 51.7695 73.2688 52.7201 72.9199L53.4501 72.6499C55.3715 71.9509 56.9365 70.5173 57.8011 68.6645C58.6656 66.8117 58.7588 64.6914 58.0601 62.7699L54.4401 52.8499C54.3629 52.623 54.2067 52.4313 54.0001 52.3099C52.6029 51.5811 51.0457 51.2133 49.4701 51.2399H49.5101Z" fill="#231F20"/>
<path d="M56.5702 82.64L54.4001 81.95L55.6201 80.03L57.7802 80.72L56.5702 82.64Z" fill="white"/>
<path d="M60.4102 88.7198L60.6702 92.6198L59.8402 92.9198L57.5302 89.7598L55.8002 82.3898L55.7402 82.1398L55.7002 81.9798L56.8102 81.5798L56.8802 81.7298L57.0002 81.9498V81.9598L60.4102 88.7198Z" fill="white"/>
<path d="M46.3701 98.3398C46.2739 98.3398 46.1796 98.3126 46.0982 98.2613C46.0168 98.2099 45.9516 98.1366 45.9101 98.0498L40.8501 87.6198C40.808 87.4994 40.8118 87.3676 40.8605 87.2497C40.9093 87.1318 40.9997 87.036 41.1145 86.9804C41.2294 86.9248 41.3607 86.9134 41.4834 86.9483C41.6061 86.9833 41.7117 87.0621 41.7801 87.1698L46.8301 97.5998C46.8605 97.6607 46.8785 97.7271 46.8829 97.7951C46.8873 97.863 46.878 97.9311 46.8556 97.9955C46.8333 98.0598 46.7982 98.1189 46.7526 98.1695C46.707 98.2201 46.6518 98.261 46.5901 98.2898C46.5211 98.3218 46.4461 98.3388 46.3701 98.3398Z" fill="#231F20"/>
<path d="M74.1501 88.2199C74.0345 88.2228 73.9216 88.1854 73.8304 88.1143C73.7392 88.0432 73.6755 87.9427 73.6501 87.8299L70.8101 76.5899C70.7961 76.4648 70.828 76.3388 70.8998 76.2353C70.9716 76.1319 71.0786 76.058 71.2008 76.0275C71.3229 75.9969 71.4521 76.0118 71.5641 76.0692C71.6762 76.1267 71.7636 76.2229 71.8101 76.3399L74.6501 87.5799C74.6666 87.6462 74.6698 87.7152 74.6596 87.7827C74.6494 87.8503 74.626 87.9152 74.5907 87.9737C74.5554 88.0322 74.5089 88.0832 74.4539 88.1237C74.3989 88.1642 74.3365 88.1935 74.2701 88.2099L74.1501 88.2199Z" fill="#231F20"/>
<path d="M43.1901 66.65C42.2401 63.54 40.6301 59.76 41.1401 58.95C41.6501 58.14 42.2701 58.95 42.7801 58.03C43.2901 57.11 42.8601 57.03 42.8601 57.03C43.8864 56.2032 45.0419 55.5511 46.2801 55.1C47.4601 54.9 50.2801 54.72 51.3401 53.22C51.3401 53.22 54.0401 54.85 54.5901 56.14C55.1401 57.43 56.1001 61.14 56.3501 60.99C56.6001 60.84 57.1001 57.47 57.0001 55.99C56.8754 54.5988 56.2905 53.2889 55.3379 52.2674C54.3852 51.246 53.1192 50.5713 51.7401 50.35C51.7401 50.35 51.3501 48.71 47.2801 49.11C43.2101 49.51 39.7201 52.24 38.9601 53.84C38.1091 56.1465 37.9766 58.6567 38.5801 61.04C39.1701 62.82 39.8501 62.8 39.8501 62.8L43.1901 66.65Z" fill="white"/>
<path d="M43.1901 67.1598C43.1158 67.1607 43.0422 67.145 42.9748 67.1139C42.9073 67.0827 42.8476 67.0369 42.8001 66.9798L39.5601 63.1898C39.1901 63.0598 38.5601 62.5998 38.0901 61.1198C37.4482 58.6114 37.5878 55.9668 38.4901 53.5398C39.3401 51.7498 42.9401 48.9398 47.2301 48.5398C50.6601 48.2098 51.7601 49.2498 52.1001 49.8298C53.538 50.1204 54.8431 50.8687 55.8201 51.9629C56.7972 53.0572 57.3936 54.4384 57.5201 55.8998C57.5201 56.6998 57.3201 60.9998 56.6101 61.4098C56.5366 61.4446 56.4564 61.4626 56.3751 61.4626C56.2938 61.4626 56.2136 61.4446 56.1401 61.4098C55.7801 61.2698 55.6401 60.9598 54.9001 58.5898C54.6201 57.6998 54.3301 56.7798 54.1101 56.2798C53.407 55.2803 52.4962 54.4446 51.4401 53.8298C50.2701 54.9898 48.2101 55.2798 46.9301 55.4598L46.3601 55.5498C45.3358 55.9071 44.379 56.4345 43.5301 57.1098C43.5571 57.5155 43.4518 57.919 43.2301 58.2598C43.1173 58.5007 42.9353 58.7026 42.7073 58.8397C42.4794 58.9769 42.2158 59.043 41.9501 59.0298C41.7101 59.0298 41.6701 59.0298 41.5701 59.1998C41.3701 59.6598 42.2201 62.1398 42.7901 63.7798C43.1001 64.6798 43.4201 65.5998 43.6801 66.4798C43.7155 66.5922 43.711 66.7133 43.6672 66.8227C43.6235 66.9321 43.5432 67.0229 43.4401 67.0798C43.3646 67.1267 43.2787 67.1541 43.1901 67.1598ZM39.9201 62.1598C39.9839 62.1621 40.0463 62.1796 40.102 62.211C40.1576 62.2423 40.205 62.2865 40.2401 62.3398L41.8701 64.2498L41.8101 64.0798C40.7601 61.0198 40.2301 59.3898 40.7001 58.6298C40.8196 58.4175 40.9965 58.243 41.2104 58.1263C41.4244 58.0096 41.6668 57.9554 41.9101 57.9698C42.1601 57.9698 42.2001 57.9698 42.3201 57.7298C42.3981 57.5983 42.4586 57.4571 42.5001 57.3098C42.427 57.2348 42.3752 57.1416 42.3501 57.0398C42.3348 56.9457 42.3443 56.8491 42.3776 56.7597C42.4109 56.6703 42.4669 56.5911 42.5401 56.5298C43.6337 55.6597 44.8682 54.9832 46.1901 54.5298L46.7901 54.4398C48.0301 54.2698 50.1101 53.9698 50.9201 52.8598C50.9948 52.755 51.1065 52.6822 51.2326 52.6563C51.3587 52.6303 51.49 52.653 51.6001 52.7198C51.9001 52.8898 54.4601 54.4698 55.0601 55.8698C55.2901 56.4198 55.5901 57.3698 55.8801 58.2798C55.9901 58.6198 56.1101 58.9998 56.2301 59.3598C56.414 58.226 56.501 57.0785 56.4901 55.9298C56.3747 54.651 55.8361 53.4471 54.9594 52.5089C54.0828 51.5706 52.9182 50.9516 51.6501 50.7498C51.5509 50.7326 51.459 50.6863 51.386 50.6169C51.3131 50.5475 51.2623 50.4581 51.2401 50.3598C51.2401 50.3598 50.7801 49.1798 47.3301 49.5198C43.3301 49.9098 40.0601 52.6198 39.4301 53.9698C38.6304 56.1487 38.5015 58.5171 39.0601 60.7698C39.4901 62.0498 39.9101 62.1898 39.9101 62.1898L39.9201 62.1598Z" fill="#231F20"/>
<path d="M117.47 26.4699C116.885 26.4685 116.314 26.2875 115.834 25.9513C115.355 25.6151 114.991 25.1399 114.79 24.5899L110.26 12.1399C110.236 12.0789 110.225 12.0138 110.226 11.9483C110.228 11.8828 110.243 11.8183 110.27 11.7587C110.297 11.699 110.336 11.6453 110.384 11.6009C110.432 11.5565 110.488 11.5221 110.55 11.4999C110.676 11.4572 110.814 11.4644 110.935 11.5203C111.056 11.5761 111.151 11.6762 111.2 11.7999L115.73 24.2499C115.908 24.695 116.252 25.0537 116.689 25.2504C117.126 25.4471 117.622 25.4665 118.073 25.3045C118.524 25.1424 118.895 24.8116 119.107 24.3818C119.319 23.9519 119.356 23.4565 119.21 22.9999L112.64 4.99991C112.324 4.14002 111.681 3.43984 110.852 3.05206C110.022 2.66429 109.072 2.62038 108.21 2.92992C107.781 3.08397 107.388 3.32135 107.051 3.62837C106.715 3.93539 106.443 4.30597 106.25 4.71874C106.058 5.1315 105.949 5.57829 105.93 6.03331C105.911 6.48834 105.982 6.94261 106.14 7.36991L106.39 8.05992C106.435 8.18457 106.429 8.322 106.372 8.44201C106.316 8.56202 106.215 8.65478 106.09 8.69992C106.028 8.72362 105.963 8.73463 105.897 8.73228C105.831 8.72994 105.766 8.71429 105.706 8.68627C105.646 8.65825 105.593 8.61844 105.549 8.56923C105.505 8.52002 105.471 8.46244 105.45 8.39992L105.2 7.70991C104.899 6.88154 104.849 5.98243 105.059 5.12612C105.268 4.26981 105.726 3.49472 106.376 2.89872C107.025 2.30273 107.837 1.91257 108.708 1.77751C109.579 1.64246 110.471 1.76857 111.27 2.13991C111.802 2.38648 112.281 2.73614 112.677 3.16868C113.074 3.60123 113.381 4.10807 113.58 4.65991L120.15 22.6599C120.303 23.0909 120.351 23.5523 120.289 24.0055C120.228 24.4587 120.059 24.8907 119.797 25.2654C119.535 25.6402 119.187 25.9468 118.782 26.1598C118.377 26.3728 117.927 26.486 117.47 26.4899V26.4699Z" fill="#231F20"/>
<path d="M27.3501 172.61C32.8201 163.61 39.8701 149.78 44.4601 140.34C46.7101 135.71 55.0001 138.28 55.6001 142.21C56.4301 147.71 46.7501 176.03 46.6901 175.96C50.4005 180.53 52.6843 186.092 53.2568 191.951C53.8294 197.81 52.6655 203.708 49.9101 208.91" fill="white"/>
<path d="M49.9102 209.42C49.8251 209.42 49.7417 209.396 49.6701 209.35C49.6121 209.319 49.561 209.276 49.5198 209.225C49.4786 209.173 49.4482 209.114 49.4305 209.05C49.4128 208.987 49.408 208.92 49.4165 208.855C49.4251 208.79 49.4467 208.727 49.4801 208.67C52.1613 203.548 53.2886 197.754 52.7237 192C52.1588 186.247 49.9263 180.783 46.3001 176.28C46.2435 176.211 46.2062 176.129 46.1922 176.041C46.1781 175.953 46.1878 175.863 46.2201 175.78V175.71C46.7701 174.41 55.8602 147.46 55.0702 142.29C54.8002 140.53 52.5501 138.84 49.9301 138.44C47.5901 138.09 45.7002 138.88 44.8802 140.56C42.5102 145.42 34.2801 162.14 27.7501 172.87C27.7154 172.926 27.67 172.974 27.6165 173.013C27.563 173.051 27.5025 173.078 27.4384 173.093C27.3743 173.108 27.3078 173.11 27.2429 173.099C27.178 173.088 27.1159 173.065 27.0601 173.03C27.0038 172.997 26.9545 172.953 26.9154 172.901C26.8762 172.849 26.8478 172.789 26.832 172.726C26.8162 172.662 26.8132 172.597 26.8231 172.532C26.8331 172.467 26.8559 172.406 26.8901 172.35C33.4001 161.66 41.6201 144.98 43.9801 140.12C44.9801 138.02 47.2801 137.02 50.0801 137.45C52.6901 137.85 55.6801 139.63 56.0801 142.14C56.8001 146.88 49.0801 171.73 47.2301 175.84C50.9599 180.476 53.2434 186.108 53.7964 192.032C54.3494 197.957 53.1474 203.913 50.3401 209.16C50.297 209.237 50.2347 209.301 50.1594 209.347C50.084 209.392 49.9982 209.417 49.9102 209.42Z" fill="#231F20"/>
<path d="M56.7401 225.21C57.9385 225.21 58.9101 224.238 58.9101 223.04C58.9101 221.841 57.9385 220.87 56.7401 220.87C55.5416 220.87 54.5701 221.841 54.5701 223.04C54.5701 224.238 55.5416 225.21 56.7401 225.21Z" fill="#231F20"/>
</g>
<defs>
<clipPath id="clip0_15_19810">
<rect width="211" height="258" fill="white" transform="translate(0 -4)"/>
</clipPath>
</defs>
</svg>
