<svg width="321" height="180" viewBox="0 0 321 180" fill="none" xmlns="http://www.w3.org/2000/svg">
<g clip-path="url(#clip0_1216_33557)">
<path d="M144.4 151.856C125.612 156.255 106.5 159.139 87.2482 160.478C82.3634 160.777 77.3989 160.956 72.4543 160.956C67.5097 160.956 62.5451 160.777 57.6703 160.478C38.4154 159.138 19.2998 156.255 0.508393 151.856C0.508393 151.856 -0.21934 127.8 15.1229 111.381C30.4651 94.9623 56.7432 93.5303 72.4543 93.5303C88.1653 93.5303 114.453 94.9921 129.796 111.381C145.138 127.77 144.4 151.856 144.4 151.856Z" fill="#A5C5FF"/>
<path d="M87.2482 101.556V160.478C82.3634 160.777 77.3989 160.956 72.4543 160.956C67.5097 160.956 62.5452 160.777 57.6703 160.478V101.556H87.2482Z" fill="#231F20"/>
<path d="M72.8331 80.8112C87.693 80.8112 99.7393 67.0399 99.7393 50.0521C99.7393 33.0643 87.693 19.293 72.8331 19.293C57.9732 19.293 45.9269 33.0643 45.9269 50.0521C45.9269 67.0399 57.9732 80.8112 72.8331 80.8112Z" fill="white"/>
<path d="M72.8331 81.3284C57.7202 81.3284 45.4185 67.2963 45.4185 50.0521C45.4185 31.7339 47.4123 18.7759 72.8331 18.7759C98.2539 18.7759 100.258 31.7041 100.258 50.0521C100.258 67.2963 87.956 81.3284 72.8331 81.3284ZM72.8331 19.8002C48.2796 19.8002 46.4453 31.7339 46.4453 50.0521C46.4453 66.7295 58.2884 80.3041 72.8331 80.3041C87.3778 80.3041 99.2309 66.7295 99.2309 50.0521C99.2309 31.8234 97.3866 19.8002 72.8331 19.8002Z" fill="#231F20"/>
<path d="M89.8202 60.6629C91.1361 52.4684 104.774 50.4496 104.096 60.106C103.994 63.4628 102.705 66.6754 100.457 69.1756C98.1243 71.5424 94.3561 72.6662 91.3155 71.3037" fill="white"/>
<path d="M94.1667 72.368C93.1129 72.3739 92.0698 72.157 91.1062 71.7315C91.0447 71.7041 90.9891 71.6648 90.9428 71.616C90.8965 71.5672 90.8603 71.5097 90.8362 71.4469C90.8121 71.3841 90.8007 71.3172 90.8025 71.25C90.8044 71.1828 90.8195 71.1166 90.847 71.0553C90.8745 70.9939 90.9138 70.9385 90.9628 70.8923C91.0117 70.8461 91.0693 70.8099 91.1323 70.7859C91.1952 70.7619 91.2623 70.7505 91.3296 70.7524C91.397 70.7542 91.4633 70.7693 91.5249 70.7967C92.99 71.3543 94.5887 71.4629 96.1161 71.1086C97.6435 70.7542 99.03 69.9531 100.098 68.8078C102.249 66.391 103.481 63.2969 103.577 60.0663C103.916 55.2729 100.646 54.3779 99.2309 54.2089C95.5922 53.8011 91.0364 56.3768 90.3286 60.7426C90.3328 60.8201 90.3195 60.8975 90.2896 60.9692C90.2597 61.0408 90.2141 61.1048 90.156 61.1565C90.098 61.2082 90.029 61.2461 89.9542 61.2676C89.8794 61.289 89.8008 61.2934 89.7241 61.2804C89.6474 61.2674 89.5746 61.2373 89.5112 61.1924C89.4477 61.1475 89.3952 61.089 89.3575 61.0211C89.3198 60.9532 89.2979 60.8777 89.2935 60.8002C89.289 60.7227 89.3021 60.6453 89.3317 60.5735C90.1292 55.6011 95.2533 52.7271 99.3605 53.1945C102.122 53.5028 104.953 55.5017 104.624 60.1558C104.435 62.8807 103.627 66.7193 100.846 69.5437C99.9732 70.4292 98.9342 71.1345 97.7881 71.6191C96.642 72.1037 95.4114 72.3582 94.1667 72.368Z" fill="#231F20"/>
<path d="M55.8261 60.6629C54.5102 52.4684 40.8727 50.4496 41.5506 60.106C41.6542 63.4606 42.9389 66.6717 45.1793 69.1756C47.522 71.5424 51.2803 72.6662 54.3307 71.3037" fill="white"/>
<path d="M51.5095 72.3678C48.9988 72.3271 46.6071 71.2933 44.8602 69.4938C42.5322 66.905 41.1913 63.5817 41.072 60.1059C40.753 55.4617 43.5842 53.4629 46.3356 53.1446C50.4528 52.6772 55.5768 55.591 56.3744 60.5236C56.3947 60.6592 56.3613 60.7973 56.2813 60.9087C56.2013 61.02 56.0809 61.096 55.9457 61.1203C55.811 61.1404 55.6738 61.1068 55.5637 61.0268C55.4537 60.9468 55.3796 60.8267 55.3575 60.6927C54.6497 56.3269 50.1039 53.7314 46.4553 54.159C45.0397 54.328 41.7699 55.2231 42.0988 60.0164C42.2783 62.5722 43.0259 66.1623 45.588 68.7579C47.9506 71.1546 51.4696 71.9899 54.1513 70.7468C54.2134 70.7186 54.2806 70.7028 54.3489 70.7005C54.4171 70.6982 54.4852 70.7094 54.5491 70.7335C54.613 70.7575 54.6715 70.7939 54.7213 70.8405C54.7711 70.8872 54.8111 70.9432 54.8391 71.0054C54.8933 71.1295 54.8964 71.2699 54.848 71.3963C54.7995 71.5227 54.7033 71.6252 54.58 71.6816C53.6171 72.1256 52.5703 72.3596 51.5095 72.3678Z" fill="#231F20"/>
<path d="M57.6703 101.556C57.6703 101.556 61.3589 109.571 72.1153 109.571C75.117 109.653 78.0888 108.958 80.741 107.554C83.3931 106.149 85.6351 104.082 87.2482 101.556L85.8027 70.0806H59.1059L57.6703 101.556Z" fill="white"/>
<path d="M72.1154 110.088C61.1495 110.088 57.2417 101.854 57.1619 101.775C57.1433 101.696 57.1433 101.614 57.1619 101.536L58.5975 70.0508C58.6051 69.9189 58.6631 69.7949 58.7595 69.7043C58.8559 69.6136 58.9834 69.5633 59.1159 69.5635H85.8127C85.9451 69.5633 86.0727 69.6136 86.1691 69.7043C86.2655 69.7949 86.3234 69.9189 86.3311 70.0508L87.7267 101.536C87.732 101.629 87.7113 101.722 87.6669 101.804C86 104.395 83.6954 106.517 80.973 107.967C78.2505 109.418 75.201 110.148 72.1154 110.088ZM58.1588 101.446C58.6473 102.441 62.3558 109.064 72.1154 109.064C74.9993 109.13 77.8529 108.465 80.4089 107.131C82.9649 105.797 85.1398 103.837 86.7298 101.436L85.3242 70.6077H59.5944L58.1588 101.446Z" fill="#231F20"/>
<path d="M59.1059 83.5358C61.1666 86.5193 63.9379 88.9455 67.1707 90.5966C72.4643 93.5104 80.3696 96.7922 86.7896 95.8176L85.7329 82.5413C81.0345 83.1278 76.2833 83.1612 71.577 82.6408C67.4299 82.2728 63.1533 81.875 59.3551 80.2739C58.7071 79.9557 58.2884 82.2629 59.1059 83.5358Z" fill="#231F20"/>
<path d="M84.3473 96.4643C77.8774 96.4643 70.8294 93.1527 66.9315 90.9947C63.6147 89.3236 60.7778 86.8393 58.6872 83.7748C58.3465 83.2052 58.1617 82.5564 58.1512 81.8933C58.1407 81.2301 58.3049 80.5758 58.6274 79.9958C58.7358 79.8591 58.8862 79.7617 59.0555 79.7186C59.2248 79.6755 59.4036 79.689 59.5645 79.7571C63.3527 81.3483 67.749 81.7461 71.6169 82.0742C76.286 82.6004 81.0012 82.5704 85.6632 81.9847C85.7304 81.9769 85.7986 81.9825 85.8636 82.0013C85.9287 82.0201 85.9893 82.0516 86.042 82.0941C86.0967 82.1352 86.1419 82.1876 86.1746 82.2476C86.2072 82.3077 86.2266 82.374 86.2314 82.4422L87.2881 95.7483C87.2969 95.874 87.2575 95.9983 87.1779 96.0961C87.0984 96.194 86.9845 96.258 86.8594 96.2753C86.0283 96.4036 85.1883 96.4668 84.3473 96.4643ZM59.3152 80.7715C59.1774 81.1831 59.1249 81.6184 59.1609 82.0509C59.1968 82.4835 59.3206 82.9042 59.5246 83.2875C61.5348 86.2069 64.2503 88.5737 67.42 90.1693C71.6169 92.4864 79.5721 96.1958 86.2613 95.4002L85.2644 83.0786C80.693 83.5903 76.0786 83.5903 71.5073 83.0786C67.6393 82.7604 63.233 82.3726 59.3152 80.7715Z" fill="#231F20"/>
<path d="M71.7764 85.6541H73.9695C78.9475 85.633 83.7143 83.6456 87.2267 80.1267C90.7392 76.6079 92.7112 71.8442 92.7112 66.8784V37.1436C92.7112 37.1436 86.1715 39.0231 72.7733 39.0231C59.375 39.0231 52.8354 37.1436 52.8354 37.1436V66.8784C52.8367 69.3537 53.3283 71.8044 54.2821 74.0896C55.2359 76.3748 56.6331 78.4494 58.3932 80.1942C60.1534 81.939 62.2418 83.3196 64.5386 84.2565C66.8353 85.1935 69.295 85.6685 71.7764 85.6541Z" fill="white"/>
<path d="M92.7112 37.1436V66.8784C92.7112 71.858 90.7282 76.6337 87.1986 80.1548C83.6689 83.6759 78.8816 85.6541 73.8898 85.6541H71.7764C66.7855 85.6514 61.9997 83.6724 58.4706 80.1519C54.9415 76.6313 52.9577 71.8572 52.9551 66.8784V37.1436C52.9551 37.1436 59.5047 39.0231 72.893 39.0231C86.2812 39.0231 92.8308 37.1436 92.8308 37.1436M92.8308 36.1491C92.7384 36.1346 92.6442 36.1346 92.5517 36.1491C92.4919 36.1491 85.9523 37.9889 72.9129 37.9889C59.8735 37.9889 53.3438 36.169 53.284 36.1491C53.1882 36.1351 53.0908 36.1351 52.9949 36.1491C52.7305 36.1491 52.477 36.2539 52.29 36.4404C52.1031 36.6269 51.998 36.8798 51.998 37.1436V66.8784C52.0033 72.116 54.0865 77.1387 57.7925 80.8488C61.4986 84.5588 66.5261 86.6547 71.7764 86.6784H73.9696C79.233 86.6731 84.2794 84.5857 88.0021 80.8739C91.7248 77.1621 93.8198 72.1289 93.8277 66.8784V37.1436C93.8277 36.8798 93.7227 36.6269 93.5357 36.4404C93.3488 36.2539 93.0952 36.1491 92.8308 36.1491Z" fill="#231F20"/>
<path d="M31.5318 156.063C31.4036 156.063 31.2799 156.015 31.1857 155.929C31.0914 155.842 31.0334 155.723 31.0234 155.596L26.9261 115.817C26.9121 115.681 26.9525 115.545 27.0384 115.439C27.1243 115.333 27.2488 115.265 27.3847 115.25C27.5197 115.241 27.6531 115.283 27.7584 115.368C27.8637 115.452 27.9332 115.574 27.9529 115.707L32.0402 155.486C32.0471 155.553 32.0406 155.62 32.0213 155.684C32.0019 155.749 31.9699 155.808 31.9273 155.86C31.8847 155.912 31.8322 155.955 31.7728 155.986C31.7135 156.017 31.6485 156.037 31.5816 156.043L31.5318 156.063Z" fill="#231F20"/>
<path d="M113.387 156.063H113.327C113.26 156.057 113.195 156.037 113.136 156.006C113.076 155.975 113.024 155.932 112.981 155.88C112.939 155.828 112.907 155.769 112.887 155.704C112.868 155.64 112.862 155.573 112.868 155.506L116.966 115.727C117.007 115.62 117.082 115.53 117.18 115.471C117.278 115.411 117.392 115.386 117.506 115.398C117.62 115.411 117.727 115.46 117.809 115.54C117.892 115.619 117.946 115.723 117.963 115.837L113.865 155.616C113.849 155.734 113.793 155.843 113.706 155.924C113.619 156.006 113.506 156.055 113.387 156.063Z" fill="#231F20"/>
<path d="M276.05 50.1017C276.05 67.1171 318.308 133.767 249.134 133.767C179.959 133.767 222.218 67.137 222.218 50.1017C222.218 33.0663 223.354 19.2729 249.134 19.2729C274.914 19.2729 276.05 33.0763 276.05 50.1017Z" fill="white"/>
<path d="M249.104 134.254C231.778 134.254 219.915 129.998 213.854 121.595C203.636 107.423 211.391 84.3117 217.054 67.4354C219.516 60.1161 221.64 53.7912 221.64 50.0818C221.64 31.7338 223.633 18.7559 249.104 18.7559C274.575 18.7559 276.568 31.7338 276.568 50.0818C276.568 53.7912 278.682 60.1161 281.144 67.4354C286.806 84.3415 294.572 107.423 284.344 121.595C278.283 130.018 266.42 134.254 249.104 134.254ZM249.104 19.7802C224.501 19.7802 222.666 31.7735 222.666 50.0818C222.666 53.9603 220.523 60.3548 218.031 67.7636C212.438 84.4211 204.772 107.244 214.691 120.988C220.553 129.113 232.127 133.23 249.104 133.23C266.081 133.23 277.655 129.113 283.507 120.988C293.426 107.244 285.76 84.4211 280.167 67.7636C277.685 60.3548 275.532 53.9603 275.532 50.0818C275.532 31.8233 273.697 19.8001 249.104 19.8001V19.7802Z" fill="#231F20"/>
<path d="M320.492 151.856C301.704 156.255 282.591 159.139 263.34 160.478C258.455 160.777 253.49 160.956 248.546 160.956C243.601 160.956 238.637 160.777 233.762 160.478C214.507 159.138 195.391 156.255 176.6 151.856C176.6 151.856 175.872 127.8 191.214 111.411C206.557 95.0219 232.835 93.5601 248.546 93.5601C264.257 93.5601 290.555 95.0219 305.887 111.411C321.219 127.8 320.492 151.856 320.492 151.856Z" fill="#A5C5FF"/>
<path d="M263.34 101.556V160.478C258.455 160.777 253.49 160.956 248.546 160.956C243.601 160.956 238.637 160.777 233.762 160.478V101.556H263.34Z" fill="#231F20"/>
<path d="M207.623 156.063C207.495 156.063 207.371 156.015 207.277 155.929C207.183 155.842 207.125 155.723 207.115 155.596L203.018 115.817C203.004 115.681 203.044 115.545 203.13 115.439C203.216 115.333 203.34 115.265 203.476 115.25C203.611 115.241 203.745 115.283 203.85 115.368C203.955 115.452 204.025 115.574 204.044 115.707L208.132 155.486C208.14 155.553 208.134 155.621 208.116 155.686C208.097 155.75 208.065 155.811 208.022 155.863C207.979 155.915 207.926 155.958 207.866 155.989C207.806 156.02 207.74 156.038 207.673 156.043L207.623 156.063Z" fill="#231F20"/>
<path d="M289.478 156.063H289.418C289.352 156.057 289.287 156.037 289.227 156.006C289.168 155.974 289.115 155.932 289.073 155.88C289.03 155.828 288.998 155.768 288.979 155.704C288.959 155.64 288.953 155.573 288.96 155.506L293.057 115.727C293.075 115.592 293.143 115.47 293.249 115.384C293.355 115.299 293.49 115.258 293.625 115.269C293.761 115.284 293.886 115.352 293.972 115.459C294.058 115.565 294.098 115.701 294.084 115.836L289.987 155.615C289.97 155.738 289.909 155.851 289.816 155.933C289.723 156.016 289.603 156.062 289.478 156.063Z" fill="#231F20"/>
<path d="M266.111 60.6629C267.427 52.4585 281.064 50.4397 280.406 60.1159C280.306 63.476 279.017 66.6922 276.768 69.1955C274.435 71.5723 270.657 72.696 267.606 71.3336" fill="white"/>
<path d="M270.457 72.4473C269.404 72.4558 268.362 72.2423 267.397 71.8208C267.328 71.798 267.264 71.7609 267.21 71.7119C267.156 71.663 267.114 71.6032 267.084 71.5366C267.055 71.4699 267.04 71.3979 267.041 71.3252C267.042 71.2525 267.058 71.1807 267.088 71.1146C267.118 71.0485 267.162 70.9895 267.217 70.9415C267.272 70.8934 267.336 70.8575 267.406 70.8359C267.475 70.8143 267.549 70.8076 267.621 70.8163C267.693 70.8249 267.763 70.8487 267.826 70.886C270.507 72.0893 274.036 71.254 276.399 68.897C278.961 66.2915 279.719 62.6915 279.898 60.1357C280.227 55.3324 276.957 54.4274 275.532 54.2683C271.863 53.8606 267.327 56.4363 266.619 60.812C266.575 60.9204 266.494 61.0105 266.391 61.0673C266.288 61.1241 266.169 61.1444 266.053 61.1247C265.937 61.1051 265.832 61.0467 265.753 60.9591C265.675 60.8715 265.629 60.76 265.623 60.6429C266.42 55.6705 271.554 52.7766 275.671 53.244C278.433 53.5622 281.264 55.5611 280.945 60.2053C280.755 62.9401 279.948 66.7888 277.157 69.6131C275.388 71.4055 272.979 72.4248 270.457 72.4473Z" fill="#231F20"/>
<path d="M232.087 60.6629C230.771 52.4585 217.134 50.4397 217.791 60.1159C217.896 63.4751 219.185 66.69 221.43 69.1955C223.773 71.5723 227.541 72.696 230.592 71.3336" fill="white"/>
<path d="M227.741 72.4476C225.221 72.4072 222.82 71.374 221.061 69.5736C218.28 66.7493 217.473 62.9007 217.283 60.1659C216.954 55.5217 219.785 53.5228 222.547 53.2045C226.664 52.7371 231.808 55.6609 232.595 60.6034C232.608 60.6703 232.607 60.7391 232.592 60.8055C232.577 60.8719 232.549 60.9345 232.509 60.9895C232.468 61.0445 232.417 61.0907 232.359 61.1252C232.3 61.1598 232.234 61.1819 232.167 61.1902C232.034 61.2105 231.898 61.1782 231.788 61.1003C231.678 61.0223 231.603 60.9047 231.579 60.7725C230.881 56.3968 226.305 53.8112 222.666 54.2288C221.241 54.388 217.971 55.2929 218.31 60.0963C218.407 63.3345 219.642 66.4357 221.799 68.8576C222.87 70.0026 224.258 70.8034 225.787 71.1577C227.315 71.5119 228.915 71.4036 230.382 70.8465C230.507 70.7911 230.648 70.7873 230.775 70.8358C230.902 70.8842 231.005 70.9811 231.06 71.1051C231.116 71.2291 231.12 71.3699 231.071 71.4968C231.022 71.6236 230.925 71.7259 230.801 71.7813C229.84 72.2174 228.797 72.4445 227.741 72.4476Z" fill="#231F20"/>
<path d="M233.911 101.695C233.911 101.695 237.6 109.72 248.386 109.72C256.979 109.72 263.529 101.695 263.529 101.695L262.094 70.1602H235.347L233.911 101.695Z" fill="white"/>
<path d="M248.386 110.228C237.42 110.228 233.433 101.983 233.433 101.904C233.396 101.83 233.379 101.748 233.383 101.665L234.828 70.1304C234.836 70.0002 234.893 69.8776 234.987 69.7872C235.081 69.6968 235.206 69.6454 235.337 69.6431H262.084C262.214 69.6454 262.339 69.6968 262.434 69.7872C262.528 69.8776 262.584 70.0002 262.592 70.1304L264.037 101.665C264.039 101.791 263.997 101.914 263.918 102.013C263.659 102.351 257.129 110.228 248.386 110.228ZM234.43 101.586C234.918 102.58 238.627 109.203 248.386 109.203C256.002 109.203 262.074 102.59 263.011 101.516L261.595 70.6873H235.835L234.43 101.586Z" fill="#231F20"/>
<path d="M235.347 83.6551C237.413 86.6411 240.192 89.0675 243.432 90.7159C248.725 93.6397 256.65 96.9314 263.08 95.9469L262.024 82.6209C257.315 83.2038 252.554 83.2339 247.838 82.7104C243.681 82.3424 239.404 81.9446 235.596 80.3435C234.948 80.0551 234.529 82.3623 235.347 83.6551Z" fill="#231F20"/>
<path d="M260.628 96.6233C254.158 96.6233 247.09 93.3117 243.192 91.1537C239.868 89.4773 237.024 86.9863 234.928 83.914C234.588 83.3444 234.403 82.6956 234.392 82.0324C234.382 81.3693 234.546 80.715 234.868 80.1349C234.977 79.9983 235.127 79.9009 235.296 79.8577C235.466 79.8146 235.645 79.8282 235.805 79.8963C239.604 81.4974 244 81.8852 247.878 82.2134C252.557 82.7445 257.282 82.7145 261.954 82.1239C262.09 82.1102 262.225 82.1494 262.333 82.2333C262.385 82.2762 262.427 82.3291 262.458 82.389C262.489 82.4488 262.507 82.5142 262.512 82.5813L263.569 95.9073C263.581 96.0331 263.544 96.1587 263.466 96.2584C263.388 96.3582 263.275 96.4247 263.15 96.4443C262.315 96.5644 261.472 96.6242 260.628 96.6233ZM235.556 80.8709C235.418 81.2825 235.366 81.7178 235.402 82.1503C235.438 82.5828 235.562 83.0035 235.766 83.3869C237.782 86.3069 240.5 88.6763 243.671 90.2786C247.878 92.5957 255.853 96.315 262.542 95.5095L261.545 83.1681C256.967 83.6803 252.346 83.6803 247.768 83.1681C243.89 82.8598 239.474 82.472 235.556 80.8709Z" fill="#231F20"/>
<path d="M269.052 45.3184V66.9582C269.052 71.9413 267.068 76.7206 263.537 80.2451C260.006 83.7697 255.216 85.7511 250.221 85.7537H248.027C245.552 85.7551 243.1 85.2699 240.813 84.3261C238.525 83.3822 236.446 81.9981 234.695 80.2528C232.943 78.5074 231.553 76.4351 230.605 74.154C229.656 71.8729 229.167 69.4277 229.166 66.9582V46.4322L241.029 45.4377L242.395 36.0499L245.386 46.6709L253.799 45.5571C254.667 41.8079 253.799 33.7029 253.68 33.335L259.711 44.7515L269.052 45.3184Z" fill="white"/>
<path d="M250.221 86.271H248.027C242.892 86.2683 237.967 84.2334 234.334 80.6127C230.701 76.992 228.656 72.0813 228.648 66.9582V46.4323C228.647 46.3028 228.697 46.1781 228.786 46.0838C228.875 45.9895 228.997 45.9327 229.126 45.9251L240.581 44.9306L241.886 35.9803C241.902 35.8648 241.957 35.7582 242.043 35.6785C242.128 35.5988 242.238 35.5509 242.355 35.5428C242.475 35.5278 242.595 35.5584 242.693 35.6285C242.791 35.6985 242.859 35.8029 242.883 35.9207L245.744 46.114L253.351 45.1196C254.059 41.3505 253.241 33.8522 253.161 33.4643C253.138 33.399 253.127 33.3297 253.131 33.2604C253.134 33.1911 253.151 33.1231 253.18 33.0603C253.21 32.9975 253.252 32.9411 253.303 32.8944C253.355 32.8477 253.415 32.8116 253.48 32.7881C253.546 32.7646 253.615 32.7542 253.685 32.7574C253.754 32.7607 253.822 32.7776 253.885 32.8071C253.948 32.8367 254.005 32.8783 254.052 32.9296C254.098 32.981 254.135 33.041 254.158 33.1063L260.09 44.2245L269.142 44.8212C269.271 44.8288 269.393 44.8856 269.482 44.9799C269.571 45.0742 269.62 45.1989 269.62 45.3284V66.9682C269.612 72.0938 267.564 77.0065 263.926 80.6261C260.288 84.2458 255.359 86.2762 250.221 86.271ZM229.684 46.9096V66.9582C229.69 71.8087 231.624 76.4589 235.063 79.8878C238.503 83.3167 243.165 85.244 248.027 85.2466H250.221C255.081 85.2414 259.741 83.3129 263.178 79.8843C266.615 76.4557 268.548 71.807 268.553 66.9582V45.8058L259.691 45.219C259.604 45.212 259.521 45.1839 259.448 45.137C259.375 45.0902 259.315 45.0261 259.272 44.9505L254.437 35.8809C254.667 38.7251 254.866 43.1505 254.288 45.6864C254.265 45.789 254.211 45.8818 254.132 45.9515C254.053 46.0211 253.954 46.0641 253.849 46.0743L245.435 47.1881C245.312 47.2049 245.187 47.1771 245.083 47.1095C244.978 47.042 244.902 46.9392 244.867 46.8201L242.554 38.5361L241.558 45.4975C241.542 45.613 241.487 45.7196 241.401 45.7993C241.316 45.879 241.206 45.927 241.089 45.935L229.684 46.9096Z" fill="#231F20"/>
<path d="M232.974 117.408C213.585 96.683 180.368 94.8433 160.5 94.8433C140.632 94.8433 107.415 96.683 88.0258 117.408C68.6362 138.133 69.5633 168.524 69.5633 168.524C69.5633 168.524 115.729 180 160.5 180C205.271 180 251.437 168.494 251.437 168.494C251.437 168.494 252.354 138.133 232.974 117.408Z" fill="#A5C5FF"/>
<path d="M179.192 104.947L165.953 150.583L160.5 169.389L155.037 150.554L141.808 104.947C150.77 102.292 170.23 102.292 179.192 104.947Z" fill="#231F20"/>
<path d="M160.978 78.7328C179.758 78.7328 194.983 61.3238 194.983 39.8488C194.983 18.3738 179.758 0.964844 160.978 0.964844C142.199 0.964844 126.974 18.3738 126.974 39.8488C126.974 61.3238 142.199 78.7328 160.978 78.7328Z" fill="white"/>
<path d="M160.978 79.24C141.948 79.24 126.456 61.5682 126.456 39.8489C126.456 16.777 128.938 0.447754 160.978 0.447754C193.019 0.447754 195.501 16.777 195.501 39.8489C195.501 61.5682 180.019 79.24 160.978 79.24ZM160.978 1.47206C129.816 1.47206 127.483 16.6676 127.483 39.8489C127.483 61.0013 142.516 78.2157 160.978 78.2157C179.441 78.2157 194.474 61.0013 194.474 39.8489C194.474 16.6676 192.141 1.47206 160.978 1.47206Z" fill="#231F20"/>
<path d="M182.432 53.2046C184.087 42.8521 201.323 40.2765 200.466 52.5085C200.176 56.6952 198.831 60.9715 195.88 63.9649C192.929 66.9582 188.164 68.3803 184.316 66.6698" fill="white"/>
<path d="M187.935 67.9226C186.624 67.9302 185.326 67.6625 184.126 67.137C184.002 67.0786 183.906 66.9743 183.858 66.8462C183.809 66.7182 183.813 66.5764 183.867 66.4508C183.924 66.3278 184.026 66.2318 184.153 66.1834C184.28 66.1351 184.421 66.1383 184.545 66.1922C187.994 67.7436 192.52 66.6696 195.511 63.6066C198.771 60.295 199.728 55.7204 199.957 52.4685C200.256 48.1823 198.153 45.358 194.335 44.9204C189.659 44.3834 183.837 47.695 182.94 53.284C182.916 53.4188 182.84 53.5389 182.728 53.6187C182.616 53.6986 182.478 53.7319 182.342 53.7116C182.275 53.702 182.211 53.679 182.153 53.644C182.096 53.609 182.046 53.5626 182.007 53.5077C181.967 53.4529 181.94 53.3906 181.926 53.3248C181.911 53.259 181.91 53.191 181.923 53.1248C182.92 46.9591 189.34 43.3293 194.444 43.9061C197.874 44.2939 201.423 46.7701 200.984 52.5381C200.745 55.969 199.728 60.7922 196.249 64.3226C194.062 66.5703 191.074 67.8644 187.935 67.9226Z" fill="#231F20"/>
<path d="M139.565 53.2046C137.9 42.8521 120.674 40.2765 121.521 52.5085C121.821 56.6952 123.166 60.9715 126.117 63.9649C129.068 66.9582 133.833 68.3803 137.671 66.6698" fill="white"/>
<path d="M134.022 67.9226C130.879 67.8703 127.885 66.5755 125.698 64.3226C122.219 60.7922 121.202 55.969 120.963 52.5381C120.554 46.7701 124.073 44.2939 127.493 43.9061C132.617 43.3293 139.027 46.9591 140.024 53.1248C140.053 53.197 140.066 53.2748 140.061 53.3526C140.057 53.4303 140.034 53.506 139.996 53.5739C139.958 53.6418 139.904 53.7003 139.84 53.7448C139.776 53.7894 139.703 53.8189 139.626 53.8312C139.549 53.8435 139.47 53.8383 139.395 53.8159C139.32 53.7935 139.251 53.7546 139.194 53.7019C139.136 53.6493 139.091 53.5844 139.062 53.512C139.033 53.4396 139.021 53.3617 139.027 53.284C138.13 47.695 132.308 44.3337 127.632 44.9204C123.804 45.358 121.711 48.1823 122.01 52.4685C122.229 55.7204 123.186 60.295 126.456 63.6066C129.447 66.6696 133.993 67.7337 137.422 66.1922C137.483 66.1642 137.55 66.1486 137.617 66.1464C137.685 66.1442 137.752 66.1555 137.815 66.1796C137.878 66.2037 137.936 66.2401 137.985 66.2866C138.034 66.3332 138.073 66.389 138.1 66.4508C138.128 66.5128 138.144 66.5798 138.146 66.6479C138.148 66.716 138.137 66.7839 138.113 66.8477C138.089 66.9114 138.053 66.9698 138.006 67.0195C137.959 67.0691 137.903 67.1091 137.841 67.137C136.637 67.6638 135.336 67.9316 134.022 67.9226Z" fill="#231F20"/>
<path d="M141.808 104.947C141.808 104.947 146.474 115.081 160.071 115.081C173.669 115.081 179.192 104.947 179.192 104.947L177.377 65.168H143.623L141.808 104.947Z" fill="white"/>
<path d="M160.071 115.598C146.304 115.598 141.39 105.265 141.34 105.166C141.321 105.087 141.321 105.005 141.34 104.927L143.154 65.1479C143.159 65.0169 143.215 64.893 143.31 64.8021C143.405 64.7112 143.531 64.6605 143.662 64.6606H177.417C177.549 64.6605 177.675 64.7112 177.77 64.8021C177.865 64.893 177.921 65.0169 177.926 65.1479L179.74 104.927C179.75 105.021 179.729 105.115 179.68 105.195C177.582 108.462 174.675 111.136 171.241 112.957C167.807 114.779 163.96 115.689 160.071 115.598ZM142.327 104.837C142.875 105.902 147.72 114.563 160.071 114.563C163.746 114.645 167.381 113.793 170.635 112.088C173.889 110.384 176.655 107.882 178.673 104.818L176.879 65.6352H144.121L142.327 104.837Z" fill="#231F20"/>
<path d="M143.623 82.1934C145.965 85.9525 149.853 88.9061 153.821 91.1437C160.51 94.8332 170.509 98.9801 178.614 97.747L177.288 80.9204C171.332 81.6611 165.309 81.7012 159.344 81.0398C154.11 80.5823 148.707 80.0453 143.902 78.0564C143.114 77.6486 142.556 80.5525 143.623 82.1934Z" fill="#231F20"/>
<path d="M175.523 98.4532C167.389 98.4532 158.496 94.2764 153.592 91.5715C148.687 88.8665 145.327 85.8632 143.214 82.482C142.327 81.0797 142.416 78.693 143.134 77.8576C143.249 77.7113 143.408 77.6067 143.589 77.5599C143.769 77.5132 143.959 77.5269 144.131 77.5991C148.946 79.588 154.499 80.1052 159.413 80.5328C165.325 81.1986 171.295 81.1619 177.198 80.4234C177.332 80.4058 177.468 80.4415 177.577 80.5228C177.678 80.6122 177.742 80.7365 177.756 80.8709L179.092 97.6974C179.104 97.8221 179.066 97.9464 178.988 98.0446C178.911 98.1427 178.798 98.2071 178.673 98.2245C177.631 98.3802 176.578 98.4566 175.523 98.4532ZM143.842 78.5637C143.619 79.1114 143.521 79.7016 143.556 80.2917C143.59 80.8817 143.756 81.4567 144.041 81.9748C146.035 85.2168 149.434 88.1604 154.07 90.7262C159.423 93.7096 169.572 98.4035 178.085 97.3295L176.829 81.4974C171.019 82.1554 165.153 82.1554 159.344 81.4974C154.389 81.0599 148.786 80.5527 143.842 78.5637Z" fill="#231F20"/>
<path d="M159.593 84.8485H162.364C168.675 84.8485 174.728 82.3475 179.19 77.8957C183.653 73.444 186.16 67.4061 186.16 61.1103V23.5391C186.16 23.5391 177.886 25.9159 160.979 25.9159C144.071 25.9159 135.807 23.5391 135.807 23.5391V61.1103C135.807 67.4043 138.313 73.4407 142.773 77.8922C147.234 82.3437 153.284 84.8458 159.593 84.8485Z" fill="white"/>
<path d="M186.16 23.5391V61.1104C186.16 67.4061 183.653 73.444 179.19 77.8958C174.728 82.3475 168.675 84.8485 162.364 84.8485H159.593C153.284 84.8459 147.234 82.3437 142.773 77.8923C138.313 73.4408 135.807 67.4044 135.807 61.1104V23.5391C135.807 23.5391 144.081 25.9159 160.979 25.9159C177.876 25.9159 186.16 23.5391 186.16 23.5391ZM135.807 22.5446C135.585 22.5452 135.369 22.6148 135.189 22.7435C135.059 22.8381 134.954 22.9625 134.883 23.1062C134.812 23.2499 134.777 23.4087 134.78 23.5689V61.1402C134.785 67.7043 137.401 73.9981 142.053 78.6406C146.705 83.283 153.013 85.8948 159.593 85.9027H162.364C168.945 85.8948 175.254 83.2833 179.908 78.6412C184.561 73.999 187.179 67.7052 187.187 61.1402V23.5391C187.191 23.3789 187.155 23.2201 187.084 23.0764C187.013 22.9327 186.908 22.8082 186.778 22.7137C186.598 22.5849 186.382 22.5154 186.16 22.5148C186.064 22.5008 185.967 22.5008 185.871 22.5148C185.791 22.5148 177.507 24.8419 160.949 24.8419C144.39 24.8419 136.136 22.5347 136.026 22.5148C135.934 22.5003 135.84 22.5003 135.747 22.5148L135.807 22.5446Z" fill="#231F20"/>
<path d="M160.5 125.582L154.09 120.65L160.5 115.717L166.91 120.65L160.5 125.582Z" fill="white"/>
<path d="M165.953 150.584L160.5 169.389L155.047 150.554L158.337 122.907L158.407 122.331H162.593L162.653 122.927L165.953 150.584Z" fill="white"/>
<path d="M108.771 173.705C108.645 173.706 108.522 173.659 108.428 173.575C108.334 173.49 108.275 173.373 108.263 173.248L103.089 122.957C103.081 122.89 103.086 122.821 103.105 122.756C103.123 122.691 103.155 122.63 103.198 122.577C103.241 122.524 103.294 122.48 103.354 122.448C103.414 122.416 103.48 122.396 103.547 122.39C103.681 122.382 103.814 122.424 103.917 122.509C104.021 122.594 104.088 122.715 104.106 122.848L109.28 173.138C109.294 173.274 109.253 173.41 109.167 173.516C109.081 173.622 108.957 173.69 108.821 173.705H108.771Z" fill="#231F20"/>
<path d="M212.229 173.705C212.093 173.69 211.968 173.622 211.883 173.516C211.797 173.41 211.756 173.274 211.77 173.138L216.944 122.848C216.962 122.715 217.029 122.594 217.133 122.509C217.236 122.424 217.369 122.382 217.502 122.39C217.57 122.396 217.636 122.416 217.696 122.448C217.756 122.48 217.809 122.524 217.852 122.577C217.895 122.63 217.926 122.691 217.945 122.756C217.964 122.821 217.969 122.89 217.961 122.957L212.787 173.248C212.781 173.314 212.761 173.379 212.73 173.438C212.698 173.498 212.656 173.55 212.604 173.593C212.552 173.635 212.492 173.667 212.428 173.686C212.363 173.706 212.296 173.712 212.229 173.705Z" fill="#231F20"/>
<path d="M69.6132 168.226C69.5455 168.223 69.479 168.207 69.4176 168.178C69.3563 168.15 69.3012 168.11 69.2557 168.059C69.2102 168.009 69.1752 167.951 69.1527 167.887C69.1302 167.823 69.1207 167.756 69.1247 167.688C69.1247 167.301 71.1185 128.357 92.3125 112.664C111.562 98.3835 141.479 95.1216 141.778 95.0918C141.891 95.11 141.995 95.1649 142.073 95.2479C142.151 95.3309 142.2 95.4374 142.211 95.5508C142.223 95.6642 142.196 95.7782 142.136 95.875C142.076 95.9719 141.985 96.0461 141.878 96.0863C141.589 96.0863 111.971 99.3482 92.9206 113.46C72.1652 128.864 70.1615 167.321 70.1515 167.708C70.1515 167.778 70.1375 167.847 70.1102 167.911C70.0829 167.975 70.0429 168.033 69.9927 168.081C69.9424 168.13 69.8829 168.167 69.8177 168.192C69.7525 168.217 69.6829 168.228 69.6132 168.226Z" fill="#231F20"/>
<path d="M251.447 168.226C251.314 168.226 251.187 168.175 251.09 168.085C250.994 167.994 250.936 167.87 250.928 167.738C250.928 167.35 248.934 128.894 228.149 113.49C209.128 99.378 179.491 96.1459 179.192 96.1161C179.113 96.1277 179.033 96.1211 178.958 96.097C178.882 96.0729 178.813 96.0318 178.756 95.9769C178.699 95.9221 178.656 95.8549 178.629 95.7805C178.602 95.7061 178.592 95.6266 178.601 95.548C178.609 95.4694 178.636 95.3938 178.679 95.3271C178.721 95.2603 178.778 95.2042 178.846 95.163C178.914 95.1219 178.99 95.0967 179.069 95.0895C179.148 95.0824 179.227 95.0933 179.301 95.1216C179.6 95.1216 209.517 98.4133 228.767 112.694C249.921 128.387 251.935 167.33 251.955 167.718C251.958 167.853 251.909 167.984 251.818 168.084C251.727 168.184 251.601 168.245 251.467 168.255L251.447 168.226Z" fill="#231F20"/>
</g>
<defs>
<clipPath id="clip0_1216_33557">
<rect width="321" height="180" fill="white"/>
</clipPath>
</defs>
</svg>
