<svg width="251" height="186" viewBox="0 0 251 186" fill="none" xmlns="http://www.w3.org/2000/svg">
<g clip-path="url(#clip0_13_8815)">
<ellipse opacity="0.1" cx="127" cy="174.5" rx="124" ry="11.5" fill="black"/>
<path d="M249.602 149.578H0.398102C0.300968 149.578 0.207814 149.539 0.13913 149.47C0.0704468 149.402 0.0318604 149.309 0.0318604 149.211C0.0338925 149.115 0.0731298 149.023 0.141378 148.955C0.209626 148.886 0.301606 148.847 0.398102 148.845H249.602C249.698 148.847 249.79 148.886 249.859 148.955C249.927 149.023 249.966 149.115 249.968 149.211C249.968 149.309 249.93 149.402 249.861 149.47C249.792 149.539 249.699 149.578 249.602 149.578Z" fill="#D1D3D4"/>
<path d="M231.457 0.819824H23.3281C20.9668 0.819824 19.0526 2.73402 19.0526 5.0953V128.973C19.0526 131.334 20.9668 133.248 23.3281 133.248H231.457C233.818 133.248 235.733 131.334 235.733 128.973V5.0953C235.733 2.73402 233.818 0.819824 231.457 0.819824Z" fill="white"/>
<path d="M231.449 133.646H23.328C22.0877 133.644 20.899 133.15 20.0228 132.272C19.1466 131.395 18.6544 130.205 18.6544 128.965V5.09529C18.6565 3.85717 19.1499 2.67047 20.0261 1.79573C20.9023 0.920986 22.0899 0.429686 23.328 0.429688H231.449C232.689 0.429688 233.877 0.92208 234.754 1.79854C235.63 2.67501 236.123 3.86375 236.123 5.10325V128.965C236.123 130.205 235.63 131.395 234.754 132.272C233.878 133.15 232.689 133.644 231.449 133.646ZM23.328 1.22587C22.2996 1.22587 21.3134 1.63438 20.5863 2.36153C19.8591 3.08868 19.4506 4.07491 19.4506 5.10325V128.965C19.4506 129.994 19.8589 130.981 20.5858 131.709C21.3127 132.438 22.2989 132.848 23.328 132.85H231.449C232.478 132.848 233.464 132.438 234.191 131.709C234.918 130.981 235.326 129.994 235.326 128.965V5.09529C235.324 4.06833 234.915 3.08414 234.188 2.35871C233.461 1.63328 232.476 1.22586 231.449 1.22587H23.328Z" fill="#232323"/>
<path d="M115.247 95.7083H31.5525C31.4554 95.7083 31.3622 95.6697 31.2936 95.601C31.2249 95.5324 31.1863 95.4392 31.1863 95.3421C31.1883 95.2456 31.2276 95.1536 31.2958 95.0854C31.364 95.0171 31.456 94.9779 31.5525 94.9758H115.247C115.343 94.9779 115.435 95.0171 115.504 95.0854C115.572 95.1536 115.611 95.2456 115.613 95.3421C115.613 95.3902 115.604 95.4378 115.585 95.4822C115.567 95.5267 115.54 95.567 115.506 95.601C115.472 95.635 115.431 95.662 115.387 95.6804C115.343 95.6988 115.295 95.7083 115.247 95.7083Z" fill="#D1D3D4"/>
<path d="M76.6879 126.496C76.5908 126.496 76.4976 126.458 76.4289 126.389C76.3602 126.321 76.3217 126.227 76.3217 126.13V95.1748C76.3217 95.0777 76.3602 94.9846 76.4289 94.9159C76.4976 94.8472 76.5908 94.8086 76.6879 94.8086C76.7844 94.8106 76.8764 94.8499 76.9446 94.9181C77.0129 94.9864 77.0521 95.0783 77.0541 95.1748V126.114C77.0552 126.163 77.0466 126.212 77.0287 126.258C77.0109 126.304 76.9842 126.346 76.9502 126.381C76.9162 126.417 76.8755 126.445 76.8305 126.465C76.7855 126.485 76.737 126.495 76.6879 126.496Z" fill="#D1D3D4"/>
<path d="M221.051 75.0873H124.809C124.712 75.0873 124.619 75.0487 124.55 74.98C124.481 74.9114 124.443 74.8182 124.443 74.7211C124.442 74.6727 124.45 74.6246 124.468 74.5796C124.486 74.5347 124.513 74.4939 124.548 74.4597C124.582 74.4254 124.623 74.3985 124.668 74.3805C124.712 74.3625 124.761 74.3537 124.809 74.3548H221.051C221.099 74.3537 221.147 74.3625 221.192 74.3805C221.237 74.3985 221.278 74.4254 221.312 74.4597C221.347 74.4939 221.374 74.5347 221.392 74.5796C221.41 74.6246 221.418 74.6727 221.417 74.7211C221.417 74.8182 221.379 74.9114 221.31 74.98C221.241 75.0487 221.148 75.0873 221.051 75.0873Z" fill="#D1D3D4"/>
<path d="M221.051 84.4981H124.809C124.761 84.4992 124.712 84.4905 124.668 84.4724C124.623 84.4544 124.582 84.4275 124.548 84.3933C124.513 84.359 124.486 84.3182 124.468 84.2733C124.45 84.2284 124.442 84.1803 124.443 84.1319C124.443 84.0347 124.481 83.9416 124.55 83.8729C124.619 83.8042 124.712 83.7656 124.809 83.7656H221.051C221.148 83.7656 221.241 83.8042 221.31 83.8729C221.379 83.9416 221.417 84.0347 221.417 84.1319C221.418 84.1803 221.41 84.2284 221.392 84.2733C221.374 84.3182 221.347 84.359 221.312 84.3933C221.278 84.4275 221.237 84.4544 221.192 84.4724C221.147 84.4905 221.099 84.4992 221.051 84.4981Z" fill="#D1D3D4"/>
<path d="M221.051 93.9171H124.809C124.712 93.9171 124.619 93.8785 124.55 93.8098C124.481 93.7411 124.443 93.648 124.443 93.5508C124.443 93.4537 124.481 93.3605 124.55 93.2918C124.619 93.2232 124.712 93.1846 124.809 93.1846H221.051C221.099 93.1846 221.147 93.194 221.191 93.2125C221.236 93.2309 221.276 93.2578 221.31 93.2918C221.344 93.3259 221.371 93.3662 221.389 93.4107C221.408 93.4551 221.417 93.5027 221.417 93.5508C221.417 93.5989 221.408 93.6465 221.389 93.691C221.371 93.7354 221.344 93.7758 221.31 93.8098C221.276 93.8438 221.236 93.8708 221.191 93.8892C221.147 93.9076 221.099 93.9171 221.051 93.9171Z" fill="#D1D3D4"/>
<path d="M221.051 103.336H124.809C124.72 103.323 124.639 103.278 124.58 103.21C124.521 103.142 124.489 103.055 124.489 102.965C124.489 102.876 124.521 102.789 124.58 102.721C124.639 102.653 124.72 102.608 124.809 102.595H221.051C221.14 102.608 221.221 102.653 221.28 102.721C221.338 102.789 221.371 102.876 221.371 102.965C221.371 103.055 221.338 103.142 221.28 103.21C221.221 103.278 221.14 103.323 221.051 103.336Z" fill="#D1D3D4"/>
<path d="M221.051 112.747H124.809C124.712 112.747 124.619 112.708 124.55 112.639C124.481 112.571 124.443 112.478 124.443 112.38C124.443 112.283 124.481 112.19 124.55 112.121C124.619 112.053 124.712 112.014 124.809 112.014H221.051C221.099 112.014 221.147 112.024 221.191 112.042C221.236 112.06 221.276 112.087 221.31 112.121C221.344 112.155 221.371 112.196 221.389 112.24C221.408 112.285 221.417 112.332 221.417 112.38C221.417 112.429 221.408 112.476 221.389 112.521C221.371 112.565 221.344 112.605 221.31 112.639C221.276 112.673 221.236 112.7 221.191 112.719C221.147 112.737 221.099 112.747 221.051 112.747Z" fill="#D1D3D4"/>
<path d="M225.987 62.3804H114.793C114.696 62.3804 114.603 62.3418 114.534 62.2732C114.465 62.2045 114.427 62.1113 114.427 62.0142C114.429 61.9177 114.468 61.8257 114.536 61.7575C114.605 61.6892 114.696 61.65 114.793 61.6479H225.987C226.084 61.65 226.176 61.6892 226.244 61.7575C226.312 61.8257 226.351 61.9177 226.354 62.0142C226.354 62.1113 226.315 62.2045 226.246 62.2732C226.178 62.3418 226.084 62.3804 225.987 62.3804Z" fill="#D1D3D4"/>
<path d="M161.107 27.4917H126.162C125.248 27.4917 124.506 28.2331 124.506 29.1478V51.8388C124.506 52.7534 125.248 53.4949 126.162 53.4949H161.107C162.021 53.4949 162.763 52.7534 162.763 51.8388V29.1478C162.763 28.2331 162.021 27.4917 161.107 27.4917Z" fill="#E2F6E3"/>
<path d="M115.096 125.748C115.047 125.749 114.999 125.741 114.954 125.723C114.909 125.705 114.868 125.678 114.834 125.643C114.8 125.609 114.773 125.568 114.755 125.523C114.737 125.479 114.728 125.43 114.729 125.382V19.9839C114.729 19.8868 114.768 19.7936 114.837 19.7249C114.905 19.6563 114.998 19.6177 115.096 19.6177C115.192 19.6197 115.284 19.6589 115.352 19.7272C115.421 19.7954 115.46 19.8874 115.462 19.9839V125.382C115.462 125.43 115.452 125.478 115.434 125.522C115.416 125.567 115.389 125.607 115.355 125.641C115.321 125.675 115.28 125.702 115.236 125.72C115.191 125.739 115.144 125.748 115.096 125.748Z" fill="#D1D3D4"/>
<path d="M226.728 20.0872H27.6831C27.586 20.0872 27.4929 20.0486 27.4242 19.98C27.3555 19.9113 27.3169 19.8181 27.3169 19.721C27.3189 19.6245 27.3582 19.5325 27.4264 19.4643C27.4947 19.396 27.5866 19.3568 27.6831 19.3547H226.728C226.826 19.3547 226.92 19.393 226.99 19.4615C227.059 19.53 227.1 19.6231 227.102 19.721C227.102 19.7698 227.092 19.818 227.073 19.863C227.054 19.908 227.027 19.9487 226.992 19.9828C226.957 20.0169 226.916 20.0437 226.87 20.0617C226.825 20.0796 226.776 20.0883 226.728 20.0872Z" fill="#D1D3D4"/>
<path d="M222.627 126.767H32.1497C30.9094 126.767 29.7199 126.275 28.8421 125.399C27.9644 124.523 27.4702 123.334 27.4681 122.094V11.9743C27.4702 10.7333 27.9642 9.54374 28.8417 8.66624C29.7192 7.78874 30.9087 7.29483 32.1497 7.29272H222.627C223.868 7.29483 225.058 7.78874 225.935 8.66624C226.813 9.54374 227.307 10.7333 227.309 11.9743V122.094C227.307 123.334 226.813 124.523 225.935 125.399C225.057 126.275 223.868 126.767 222.627 126.767ZM32.1497 8.0889C31.1199 8.09101 30.1328 8.50103 29.4046 9.22922C28.6764 9.95741 28.2664 10.9444 28.2643 11.9743V122.094C28.2664 123.123 28.6767 124.109 29.4051 124.836C30.1335 125.563 31.1206 125.971 32.1497 125.971H222.627C223.656 125.971 224.643 125.563 225.372 124.836C226.1 124.109 226.511 123.123 226.513 122.094V11.9743C226.511 10.9444 226.101 9.95741 225.372 9.22922C224.644 8.50103 223.657 8.09101 222.627 8.0889H32.1497Z" fill="#232323"/>
<path d="M149.443 133.288L126.592 133.232L103.75 133.288C103.75 133.288 101.736 153.989 88.6226 162.85H164.586C151.457 154.012 149.443 133.288 149.443 133.288Z" fill="white"/>
<path d="M164.578 163.248H88.6067C88.5226 163.248 88.4408 163.221 88.3734 163.171C88.306 163.121 88.2565 163.05 88.2325 162.97C88.2051 162.888 88.2059 162.8 88.2348 162.719C88.2637 162.638 88.319 162.569 88.3918 162.524C101.202 153.893 103.328 133.455 103.352 133.248C103.362 133.15 103.408 133.058 103.482 132.992C103.555 132.926 103.651 132.889 103.75 132.89L126.592 132.834L149.443 132.89C149.541 132.891 149.636 132.928 149.709 132.994C149.782 133.06 149.829 133.15 149.841 133.248C149.841 133.455 151.99 153.893 164.801 162.524C164.871 162.572 164.924 162.641 164.952 162.721C164.981 162.801 164.984 162.888 164.96 162.97C164.935 163.051 164.884 163.122 164.815 163.172C164.746 163.222 164.663 163.249 164.578 163.248ZM89.8567 162.452H163.336C152.03 153.941 149.427 136.409 149.092 133.686L126.592 133.63L104.1 133.686C103.758 136.409 101.162 153.941 89.8567 162.452Z" fill="#232323"/>
<path d="M170.334 162.85H82.8583C80.7213 162.85 78.9889 164.582 78.9889 166.72V166.863C78.9889 169 80.7213 170.732 82.8583 170.732H170.334C172.471 170.732 174.204 169 174.204 166.863V166.72C174.204 164.582 172.471 162.85 170.334 162.85Z" fill="white"/>
<path d="M170.334 171.138H82.8583C81.7272 171.136 80.6429 170.686 79.8431 169.886C79.0432 169.086 78.5929 168.002 78.5908 166.871V166.719C78.5929 165.588 79.0432 164.504 79.8431 163.704C80.6429 162.904 81.7272 162.454 82.8583 162.452H170.334C171.466 162.454 172.55 162.904 173.35 163.704C174.15 164.504 174.6 165.588 174.602 166.719V166.871C174.6 168.002 174.15 169.086 173.35 169.886C172.55 170.686 171.466 171.136 170.334 171.138ZM82.8583 163.248C81.9383 163.25 81.0566 163.617 80.406 164.267C79.7555 164.918 79.3891 165.799 79.387 166.719V166.871C79.3891 167.791 79.7555 168.672 80.406 169.323C81.0566 169.974 81.9383 170.34 82.8583 170.342H170.334C171.254 170.34 172.136 169.974 172.787 169.323C173.437 168.672 173.804 167.791 173.806 166.871V166.719C173.804 165.799 173.437 164.918 172.787 164.267C172.136 163.617 171.254 163.25 170.334 163.248H82.8583Z" fill="#232323"/>
<path d="M40.3424 16.7592C41.7187 16.7592 42.8344 15.6435 42.8344 14.2672C42.8344 12.8909 41.7187 11.7751 40.3424 11.7751C38.9661 11.7751 37.8503 12.8909 37.8503 14.2672C37.8503 15.6435 38.9661 16.7592 40.3424 16.7592Z" fill="#0E8345"/>
<path d="M50.0797 16.7592C51.456 16.7592 52.5717 15.6435 52.5717 14.2672C52.5717 12.8909 51.456 11.7751 50.0797 11.7751C48.7034 11.7751 47.5876 12.8909 47.5876 14.2672C47.5876 15.6435 48.7034 16.7592 50.0797 16.7592Z" fill="#F6BC2F"/>
<path d="M59.8248 16.7592C61.2011 16.7592 62.3168 15.6435 62.3168 14.2672C62.3168 12.8909 61.2011 11.7751 59.8248 11.7751C58.4485 11.7751 57.3328 12.8909 57.3328 14.2672C57.3328 15.6435 58.4485 16.7592 59.8248 16.7592Z" fill="#DE1135"/>
<path d="M44.8965 144.084L51.3933 167.93C51.3933 167.93 62.7946 170.581 62.5398 171.314C62.2851 172.046 44.586 174.443 44.586 174.443L37.0621 146.927" fill="white"/>
<path d="M44.586 174.84C44.4988 174.84 44.4142 174.811 44.3452 174.758C44.2761 174.704 44.2265 174.63 44.2038 174.546L36.6799 146.998C36.6655 146.948 36.6613 146.895 36.6676 146.843C36.6739 146.792 36.6906 146.742 36.7165 146.696C36.7425 146.651 36.7773 146.611 36.8189 146.58C36.8605 146.548 36.908 146.525 36.9586 146.512C37.0599 146.486 37.1678 146.5 37.2587 146.552C37.3496 146.604 37.4163 146.69 37.4443 146.791L44.8806 173.996C50.7245 173.2 59.586 171.871 61.7994 171.234C58.3624 170.055 54.8583 169.082 51.3057 168.32C51.2362 168.304 51.1721 168.27 51.1203 168.221C51.0685 168.172 51.0308 168.11 51.0111 168.041L44.5143 144.156C44.4869 144.05 44.5025 143.938 44.5577 143.844C44.613 143.75 44.7033 143.682 44.8089 143.654C44.9145 143.627 45.0267 143.642 45.1207 143.698C45.2148 143.753 45.2831 143.843 45.3105 143.949L51.7516 167.627C55.828 168.582 62.4522 170.238 62.8981 171.074C62.9543 171.199 62.9683 171.339 62.9379 171.473C62.8424 171.759 62.6115 172.444 44.6258 174.864L44.586 174.84Z" fill="#232323"/>
<path d="M24.6816 136.146L22.8105 172.293C22.8105 172.293 40.6211 176.154 40.6847 175.692C40.7484 175.231 31.1306 168.36 31.1306 168.36L33.9252 142.675" fill="white"/>
<path d="M40.5254 176.099C39.6496 176.099 36.3535 175.645 22.691 172.683C22.5977 172.662 22.5146 172.61 22.4564 172.534C22.3982 172.458 22.3685 172.364 22.3726 172.269L24.2436 136.13C24.2489 136.025 24.2959 135.926 24.3743 135.855C24.4526 135.784 24.556 135.747 24.6616 135.752C24.7672 135.757 24.8663 135.804 24.9372 135.883C25.0082 135.961 25.045 136.065 25.0398 136.17L23.1847 171.998C28.6942 173.192 36.9347 174.896 39.6656 175.278C38.0732 173.917 33.6863 170.748 30.82 168.71C30.7636 168.668 30.7191 168.613 30.6912 168.548C30.6632 168.484 30.6527 168.413 30.6608 168.344L33.4394 142.635C33.4444 142.583 33.4597 142.532 33.4845 142.485C33.5092 142.439 33.543 142.398 33.5837 142.365C33.6244 142.331 33.6713 142.306 33.7217 142.291C33.7721 142.276 33.825 142.271 33.8773 142.277C33.9838 142.289 34.0812 142.343 34.1483 142.426C34.2154 142.51 34.2468 142.616 34.2356 142.723L31.4649 168.2C41.1385 175.079 41.0748 175.485 41.0191 175.78C40.9976 175.892 40.9351 175.991 40.8439 176.059C40.8439 176.059 40.7722 176.099 40.5254 176.099Z" fill="#232323"/>
<path d="M55.1593 167.715L52.7708 171.377L43.3759 172.484L44.2994 176.083C44.2994 176.083 65.0001 173.495 65.438 171.608C65.8759 169.721 55.1593 167.715 55.1593 167.715Z" fill="#232323"/>
<path d="M21.1146 173.121L21.656 169.427L32.5318 172.404L34.6497 169.61C34.6497 169.61 42.6114 175.39 41.5286 176.632C40.4458 177.874 28.6624 175.629 21.1146 173.121Z" fill="#232323"/>
<path d="M17.4682 47.8899C18.5233 47.5781 19.6561 47.663 20.6529 48.1288C21.2848 46.6408 22.2734 45.3314 23.5315 44.3163C24.7896 43.3012 26.2784 42.6117 27.8663 42.3087C28.9719 42.128 30.09 42.0348 31.2103 42.03C32.8822 42.03 34.6816 42.1335 35.9873 43.1606C36.7371 43.8326 37.2837 44.7012 37.5651 45.6679C37.8466 46.6347 37.8516 47.6609 37.5797 48.6303C36.6083 52.6112 33.5988 53.5905 30.8679 55.8437C29.543 57.0079 28.4808 58.4405 27.7519 60.0465C27.023 61.6526 26.644 63.3953 26.6402 65.159C26.6402 73.0093 29.1243 81.6877 20.5176 86.401C15.0319 89.3947 7.5956 87.0778 3.91726 82.0221C3.08961 80.927 2.47887 79.6839 2.1179 78.3596C1.21821 74.7848 2.77872 71.0428 4.73732 67.9218C6.69592 64.8007 8.71821 61.9743 10.3583 58.7737C11.7755 55.987 11.9507 52.6272 14.0048 50.1272C14.8967 49.0373 16.1081 48.2548 17.4682 47.8899Z" fill="white"/>
<path d="M15.1672 88.1286C12.9254 88.1077 10.7191 87.566 8.72255 86.5463C6.72596 85.5265 4.99368 84.0567 3.66245 82.2529C2.80588 81.1167 2.17359 79.8278 1.79939 78.4551C1.00321 75.342 1.88697 71.8229 4.46659 67.7067C5.03188 66.807 5.61309 65.9232 6.18634 65.0395C7.59632 62.9611 8.89332 60.8083 10.0717 58.5904C10.5943 57.4754 11.0257 56.3198 11.3615 55.135C11.8109 53.2432 12.622 51.4561 13.75 49.8723C14.6754 48.7249 15.9321 47.8908 17.3488 47.4837C18.3784 47.1807 19.4783 47.2169 20.4857 47.5873C21.1748 46.1223 22.2042 44.8434 23.4881 43.8573C24.772 42.8711 26.2732 42.2064 27.8663 41.9185C28.993 41.735 30.1323 41.6391 31.2739 41.6318C32.9618 41.6318 34.8726 41.7274 36.3217 42.842C37.1397 43.5572 37.7389 44.489 38.0502 45.5301C38.3616 46.5711 38.3723 47.6789 38.0812 48.7258C37.2851 51.9105 35.3424 53.2401 33.3042 54.6653C32.6354 55.1271 31.9427 55.6048 31.2739 56.1462C29.9932 57.2714 28.9666 58.6563 28.2624 60.2089C27.5582 61.7615 27.1925 63.4461 27.1895 65.1509C27.1895 66.5761 27.2771 68.057 27.3567 69.4901C27.7309 76.0188 28.1529 82.7783 20.8599 86.7433C19.1116 87.6832 17.1519 88.1601 15.1672 88.1286ZM17.5558 48.272C16.3043 48.6307 15.1929 49.3642 14.371 50.3739C13.306 51.8776 12.541 53.5725 12.1179 55.3659C11.7741 56.5958 11.3266 57.7944 10.7803 58.9487C9.59101 61.1918 8.28069 63.3686 6.85513 65.4694C6.28188 66.3532 5.70067 67.2369 5.14334 68.1287C2.68315 72.0538 1.84716 75.3659 2.57169 78.264C2.92184 79.5365 3.51087 80.7307 4.30735 81.7831C8.05735 86.9423 15.2787 88.8532 20.3981 86.0506C27.2134 82.3165 26.8631 76.1064 26.4809 69.5299C26.4013 68.0888 26.3137 66.6 26.3137 65.1589C26.3164 63.3352 26.7084 61.5331 27.4636 59.8731C28.2188 58.2131 29.3197 56.7334 30.6927 55.5331C31.3854 54.9678 32.086 54.4822 32.7707 54.0124C34.8089 52.6111 36.5685 51.4009 37.2612 48.5427C37.6672 46.8946 37.3647 44.6892 35.7962 43.471C34.5462 42.5076 32.7867 42.4041 31.25 42.428C30.1507 42.4282 29.0534 42.5214 27.9698 42.7067C26.4479 42.9946 25.0208 43.654 23.8152 44.6263C22.6095 45.5986 21.6628 46.8536 21.0589 48.2799C21.011 48.3757 20.9285 48.4497 20.8281 48.4869C20.7277 48.5228 20.6179 48.5228 20.5175 48.4869C19.5958 48.054 18.5465 47.9775 17.5717 48.272H17.5558Z" fill="#232323"/>
<path d="M43.4873 74.0125C41.7197 74.6892 38.8137 75.3182 38.0573 72.866C37.9407 72.4303 37.903 71.9773 37.9459 71.5284C38.0175 70.8677 38.1372 70.2131 38.3041 69.5698C38.7782 67.7695 39.4014 66.0118 40.1672 64.315C40.3503 63.8851 40.7166 63.3675 41.1624 63.5188C41.6083 63.6701 41.5924 64.1398 41.5844 64.5379C41.5844 65.6446 41.4013 66.7672 41.4252 67.8739C43.7659 67.2768 45.2388 64.8007 47.4681 64.2672C48.0971 64.1239 48.8615 64.0761 48.9331 64.8882C49.0127 65.8914 47.1974 66.6797 46.5923 67.1972C47.2712 66.6145 48.0511 66.1612 48.8933 65.8596C49.1286 65.7569 49.3862 65.7158 49.6417 65.7402C49.7706 65.758 49.89 65.8174 49.982 65.9094C50.074 66.0014 50.1334 66.1209 50.1513 66.2497C50.1446 66.3546 50.1173 66.4572 50.0709 66.5515C50.0244 66.6458 49.9597 66.7299 49.8806 66.7991C49.5338 67.1909 49.1498 67.5482 48.7341 67.866C49.1437 67.3776 49.7037 67.0388 50.3264 66.9026C50.4812 66.8475 50.6492 66.8417 50.8074 66.8859C50.9657 66.9301 51.1063 67.0221 51.2102 67.1494C51.4729 67.5714 50.9713 68.0491 50.5414 68.2959C50.8824 67.9881 51.3008 67.779 51.7516 67.6908C51.9768 67.6527 52.2081 67.7024 52.3977 67.8298C52.5874 67.9572 52.7209 68.1526 52.7707 68.3755C52.7619 68.5536 52.7147 68.7276 52.6322 68.8857C52.5498 69.0437 52.434 69.1821 52.293 69.2911C50.0159 71.5602 46.449 72.8819 43.4873 74.0125Z" fill="white"/>
<path d="M40.6609 75.0156C40.1128 75.0319 39.5682 74.923 39.0685 74.6971C38.7267 74.5278 38.4249 74.2875 38.1832 73.9924C37.9416 73.6972 37.7657 73.3539 37.6672 72.9854C37.5285 72.5021 37.4826 71.9969 37.5319 71.4965C37.604 70.8143 37.7265 70.1384 37.8981 69.4742C38.3833 67.6401 39.0225 65.8503 39.809 64.1239C40.1593 63.3277 40.7246 62.9137 41.2978 63.1127C41.6242 63.2242 42.0144 63.5586 41.9905 64.514C41.9905 64.9917 41.9905 65.4694 41.9109 65.9471C41.8313 66.4248 41.8472 66.8468 41.8313 67.2927C42.7031 66.8852 43.5083 66.3484 44.2198 65.7003C45.111 64.8636 46.177 64.2353 47.3408 63.8611C47.5887 63.7746 47.8519 63.7405 48.1137 63.7611C48.3755 63.7816 48.6301 63.8564 48.8615 63.9806C48.9922 64.0815 49.0986 64.2104 49.173 64.3578C49.2474 64.5052 49.2879 64.6674 49.2914 64.8325C49.305 64.9991 49.2861 65.1667 49.2357 65.3261C49.3834 65.3022 49.5339 65.3022 49.6816 65.3261C49.8905 65.3676 50.0807 65.4751 50.224 65.6328C50.3673 65.7904 50.4563 65.9899 50.4777 66.2019C50.4864 66.2866 50.4864 66.372 50.4777 66.4567C50.6798 66.4258 50.8865 66.4528 51.0739 66.5346C51.2613 66.6163 51.4218 66.7494 51.5367 66.9185C51.6045 67.0244 51.648 67.144 51.6641 67.2688C52.0414 67.2316 52.4184 67.343 52.715 67.5793C52.8285 67.6695 52.9229 67.7815 52.9926 67.9086C53.0623 68.0358 53.106 68.1755 53.1211 68.3197C53.1185 68.5556 53.0637 68.7879 52.9604 69C52.8571 69.212 52.7081 69.3985 52.5239 69.5459C50.2628 71.7752 46.9029 73.065 43.9491 74.2035L43.551 74.3627C42.6306 74.7396 41.6538 74.9602 40.6609 75.0156ZM41.0032 63.8691C40.8758 63.8691 40.6768 64.1159 40.5335 64.4424C39.7718 66.1392 39.154 67.8969 38.6863 69.6971C38.5247 70.3219 38.4103 70.958 38.344 71.6C38.3065 72.0006 38.3389 72.4047 38.4395 72.7943C38.508 73.0568 38.6315 73.3019 38.8016 73.5132C38.9718 73.7246 39.1849 73.8974 39.4268 74.0204C40.5972 74.5857 42.3806 74.0204 43.344 73.678L43.7421 73.5267C46.6242 72.4121 49.8965 71.1382 52.0462 69.0443C52.2055 68.885 52.4204 68.6462 52.4045 68.4551C52.3947 68.3767 52.3547 68.3053 52.293 68.256C52.1606 68.1565 51.9965 68.1085 51.8312 68.1207C51.5956 68.1593 51.3722 68.2519 51.1784 68.3914C51.0531 68.5004 50.917 68.5964 50.7723 68.678C50.6836 68.7273 50.5796 68.7416 50.4809 68.718C50.3821 68.6944 50.2958 68.6347 50.2389 68.5506C50.1845 68.4661 50.1642 68.3641 50.1819 68.2651C50.1996 68.1662 50.2541 68.0776 50.3344 68.0172L50.6927 67.7545C50.7926 67.6785 50.8697 67.5766 50.9156 67.4599C50.8679 67.3245 50.6768 67.2847 50.43 67.3325C50.1668 67.3874 49.9141 67.4842 49.6816 67.6191C49.4565 67.8335 49.2199 68.0355 48.973 68.2242C48.8955 68.2881 48.7967 68.3204 48.6964 68.3146C48.5961 68.3087 48.5017 68.2651 48.4322 68.1926C48.3627 68.12 48.3232 68.0239 48.3216 67.9235C48.32 67.823 48.3564 67.7256 48.4236 67.6509C48.6535 67.3889 48.922 67.1634 49.2198 66.9822C49.3551 66.8548 49.4825 66.7194 49.6099 66.5761C49.7373 66.4328 49.7771 66.3532 49.7771 66.3054C49.7771 66.2576 49.6975 66.1939 49.594 66.178C49.4085 66.1661 49.2228 66.1989 49.0526 66.2736C48.7579 66.3789 48.4706 66.5039 48.1927 66.6478C47.9618 66.815 47.723 66.9662 47.5 67.1095C47.2844 67.2399 47.077 67.3835 46.879 67.5395C46.8403 67.5767 46.7944 67.6057 46.7441 67.6247C46.6938 67.6437 46.6403 67.6524 46.5866 67.6501C46.5329 67.6479 46.4802 67.6348 46.4317 67.6116C46.3832 67.5884 46.3399 67.5557 46.3044 67.5154C46.2689 67.475 46.2419 67.4279 46.2251 67.3769C46.2083 67.3258 46.202 67.2719 46.2066 67.2184C46.2112 67.1648 46.2266 67.1128 46.2518 67.0653C46.2771 67.0179 46.3117 66.9761 46.3535 66.9424C46.7823 66.5747 47.2494 66.2544 47.7469 65.9869C48.1927 65.6605 48.543 65.2943 48.543 64.9678C48.543 64.7688 48.4555 64.7131 48.4316 64.6971C48.4077 64.6812 48.137 64.5697 47.5717 64.6971C46.5232 65.0485 45.564 65.6245 44.7612 66.385C43.8504 67.2449 42.7638 67.8969 41.5765 68.2959C41.5183 68.3119 41.4573 68.3145 41.398 68.3034C41.3387 68.2924 41.2826 68.268 41.2341 68.2322C41.187 68.1948 41.1484 68.1477 41.1209 68.0941C41.0934 68.0406 41.0777 67.9818 41.0749 67.9217C41.0749 67.2608 41.0749 66.6 41.1545 65.9551C41.1943 65.4933 41.2262 65.0315 41.2341 64.5697C41.2421 64.108 41.1625 63.9646 41.0749 63.9408L41.0032 63.8691Z" fill="#232323"/>
<path d="M41.5366 67.9775C42.0708 68.6233 42.369 69.4319 42.3821 70.2699C42.3951 71.1079 42.1222 71.9253 41.6083 72.5874H41.8392" fill="white"/>
<path d="M41.6083 72.9853C41.5339 72.9846 41.4611 72.9634 41.3979 72.9241C41.3348 72.8847 41.2836 72.8288 41.25 72.7624C41.2167 72.6935 41.2034 72.6166 41.2119 72.5406C41.2204 72.4645 41.2501 72.3923 41.2978 72.3325C41.7526 71.7441 41.9941 71.0187 41.9825 70.2751C41.9709 69.5316 41.707 68.814 41.2341 68.2401C41.1655 68.1599 41.1315 68.0557 41.1398 67.9504C41.148 67.8451 41.1977 67.7474 41.2779 67.6788C41.3581 67.6102 41.4624 67.5762 41.5676 67.5845C41.6729 67.5927 41.7706 67.6424 41.8392 67.7226C42.3818 68.3715 42.7087 69.1734 42.7744 70.0168C42.84 70.8601 42.6411 71.7029 42.2054 72.428C42.2091 72.4677 42.2091 72.5077 42.2054 72.5474C42.2087 72.5997 42.2016 72.6522 42.1845 72.7017C42.1674 72.7512 42.1407 72.7969 42.106 72.8361C42.0712 72.8753 42.029 72.9073 41.9819 72.9302C41.9347 72.953 41.8836 72.9664 41.8312 72.9694H41.6004L41.6083 72.9853Z" fill="#232323"/>
<path d="M97.6273 41.9744H44.6735C43.2049 41.9744 42.0143 43.1649 42.0143 44.6336V66.9664C42.0143 68.4351 43.2049 69.6256 44.6735 69.6256H97.6273C99.096 69.6256 100.287 68.4351 100.287 66.9664V44.6336C100.287 43.1649 99.096 41.9744 97.6273 41.9744Z" fill="white"/>
<path d="M97.6274 70.0236H44.6735C44.272 70.0236 43.8745 69.9445 43.5036 69.7909C43.1326 69.6372 42.7956 69.412 42.5117 69.1281C42.2278 68.8442 42.0026 68.5072 41.8489 68.1363C41.6953 67.7653 41.6162 67.3678 41.6162 66.9663V44.6733C41.6162 43.8624 41.9383 43.0848 42.5117 42.5114C43.085 41.9381 43.8627 41.616 44.6735 41.616H97.6274C98.4382 41.616 99.2159 41.9381 99.7892 42.5114C100.363 43.0848 100.685 43.8624 100.685 44.6733V67.0061C100.674 67.81 100.347 68.5775 99.7753 69.1423C99.203 69.707 98.4314 70.0237 97.6274 70.0236ZM44.6735 42.3723C44.0738 42.3723 43.4987 42.6106 43.0747 43.0346C42.6506 43.4587 42.4124 44.0338 42.4124 44.6335V66.9663C42.4124 67.566 42.6506 68.1411 43.0747 68.5652C43.4987 68.9892 44.0738 69.2274 44.6735 69.2274H97.6274C98.2271 69.2274 98.8022 68.9892 99.2262 68.5652C99.6503 68.1411 99.8885 67.566 99.8885 66.9663V44.6733C99.8885 44.0736 99.6503 43.4985 99.2262 43.0744C98.8022 42.6504 98.2271 42.4121 97.6274 42.4121L44.6735 42.3723Z" fill="#232323"/>
<path d="M55.4458 63.2005C59.5308 63.2005 62.8423 59.8889 62.8423 55.804C62.8423 51.719 59.5308 48.4075 55.4458 48.4075C51.3608 48.4075 48.0493 51.719 48.0493 55.804C48.0493 59.8889 51.3608 63.2005 55.4458 63.2005Z" fill="#232323"/>
<path d="M93.9013 52.2769H70.406C70.3004 52.2769 70.1992 52.235 70.1245 52.1603C70.0499 52.0856 70.0079 51.9844 70.0079 51.8788C70.0079 51.7732 70.0499 51.672 70.1245 51.5973C70.1992 51.5227 70.3004 51.4807 70.406 51.4807H93.9013C94.0068 51.4807 94.1081 51.5227 94.1827 51.5973C94.2574 51.672 94.2993 51.7732 94.2993 51.8788C94.2993 51.9844 94.2574 52.0856 94.1827 52.1603C94.1081 52.235 94.0068 52.2769 93.9013 52.2769Z" fill="#232323"/>
<path d="M93.9013 56.2019H70.406C70.3004 56.2019 70.1992 56.16 70.1245 56.0853C70.0499 56.0107 70.0079 55.9094 70.0079 55.8039C70.0079 55.6983 70.0499 55.597 70.1245 55.5224C70.1992 55.4477 70.3004 55.4058 70.406 55.4058H93.9013C94.0068 55.4058 94.1081 55.4477 94.1827 55.5224C94.2574 55.597 94.2993 55.6983 94.2993 55.8039C94.2993 55.9094 94.2574 56.0107 94.1827 56.0853C94.1081 56.16 94.0068 56.2019 93.9013 56.2019Z" fill="#232323"/>
<path d="M85.7404 60.1431H70.406C70.3004 60.1431 70.1992 60.1012 70.1245 60.0265C70.0499 59.9518 70.0079 59.8506 70.0079 59.745C70.0079 59.6394 70.0499 59.5382 70.1245 59.4635C70.1992 59.3889 70.3004 59.3469 70.406 59.3469H85.7404C85.846 59.3469 85.9473 59.3889 86.0219 59.4635C86.0966 59.5382 86.1385 59.6394 86.1385 59.745C86.1385 59.8506 86.0966 59.9518 86.0219 60.0265C85.9473 60.1012 85.846 60.1431 85.7404 60.1431Z" fill="#232323"/>
<path d="M42.9937 73.7259C42.9937 73.7259 52.4523 80.0317 56.1306 78.1368C59.8089 76.2419 67.3806 69.5221 67.3806 69.5221C67.3806 69.5221 69.172 65.1033 70.7484 65.4138C72.3249 65.7243 70.8519 69.9361 70.8519 69.9361C70.8519 69.9361 80.207 68.3438 80.1035 69.3071C80 70.2705 75.0558 72.5635 72.8503 72.9855C70.6449 73.4075 62.6752 86.0269 57.3249 87.4998C51.9746 88.9727 46.6004 85.7084 40.8121 82.1336" fill="white"/>
<path d="M54.5701 88.264C49.9602 88.264 45.3902 85.4376 40.5972 82.4758C40.5518 82.4489 40.5124 82.4131 40.4813 82.3706C40.4502 82.328 40.428 82.2796 40.4161 82.2283C40.4042 82.177 40.4028 82.1237 40.412 82.0719C40.4213 82.02 40.4409 81.9705 40.4698 81.9264C40.4959 81.8813 40.5309 81.8421 40.5727 81.811C40.6146 81.78 40.6623 81.7578 40.713 81.7459C40.7637 81.7339 40.8163 81.7325 40.8676 81.7416C40.9189 81.7508 40.9677 81.7703 41.0112 81.799C46.6402 85.2703 51.9507 88.5586 57.2055 87.1175C60.2946 86.2656 64.3711 81.4726 67.6593 77.627C70.2867 74.5379 71.8233 72.7863 72.8026 72.5952C74.9682 72.1812 78.8774 70.2624 79.6179 69.4105C78.559 69.2353 74.5542 69.6971 70.9395 70.3102C70.872 70.321 70.8028 70.3142 70.7387 70.2905C70.6745 70.2668 70.6176 70.2269 70.5733 70.1748C70.5276 70.1221 70.4968 70.0581 70.4842 69.9895C70.4716 69.9209 70.4776 69.8502 70.5016 69.7847C70.8838 68.678 71.3456 66.6716 70.9475 65.9789C70.9249 65.928 70.8896 65.8837 70.845 65.8502C70.8004 65.8168 70.748 65.7953 70.6927 65.7879C69.8408 65.6127 68.4475 67.9853 67.7787 69.6414C67.7536 69.6976 67.7186 69.7489 67.6752 69.7926C67.3567 70.0713 60.0239 76.5761 56.3376 78.471C52.5001 80.4455 43.1848 74.2911 42.8026 74.0283C42.7254 73.9661 42.6741 73.8773 42.6589 73.7793C42.6437 73.6812 42.6657 73.5811 42.7205 73.4984C42.7753 73.4157 42.8589 73.3565 42.9551 73.3322C43.0513 73.308 43.1531 73.3206 43.2405 73.3675C45.8201 75.0872 53.137 79.2274 55.9793 77.7624C59.395 76.0108 66.3297 69.936 67.0781 69.2592C67.4762 68.3038 69.1083 64.6573 70.8599 64.9996C71.0284 65.0315 71.1876 65.1011 71.3254 65.2031C71.4633 65.3051 71.5763 65.437 71.6561 65.5888C72.1895 66.5203 71.7596 68.4152 71.465 69.4184C74.7532 68.877 79.6657 68.2082 80.3742 68.877C80.4335 68.9359 80.4792 69.0071 80.5081 69.0854C80.5369 69.1638 80.5483 69.2476 80.5415 69.3309C80.3902 70.6525 74.8965 72.9853 72.9618 73.3516C72.2134 73.4949 70.215 75.8436 68.2803 78.1286C64.9284 82.0538 60.7644 86.9503 57.4364 87.8659C56.5034 88.1281 55.5392 88.262 54.5701 88.264Z" fill="#232323"/>
<path d="M39.3949 95.8437C40.1911 101.345 40.3583 103.511 48.2007 148.535C48.2007 148.535 29.8886 152.842 22.8185 154.108C18.0414 144.259 15.8838 135.398 12.6274 124.976C10.5176 118.216 8.91723 109.164 11.9507 102.77C12.4363 101.751 17.1179 91.823 17.1179 91.823C17.1179 91.823 39.4268 96.0427 39.3949 95.8437Z" fill="#232323"/>
<path d="M23.4076 70.8278C23.6863 64.8167 22.4761 52.6272 22.4761 52.6272C22.4761 52.6272 30.1353 53.0651 32.707 49.3867C35.8917 51.8549 36.5127 58.8135 35.8917 60.8995C34.7531 65.0077 29.4187 64.0842 29.4187 64.0842L30.0955 71.6001L23.4076 70.8278Z" fill="white"/>
<path d="M30.1354 72.0142L23.3997 71.218C23.2998 71.206 23.2081 71.1567 23.1432 71.0799C23.0782 71.003 23.0447 70.9045 23.0494 70.804C23.3281 64.8963 22.1338 52.7865 22.1179 52.667C22.1135 52.6091 22.1212 52.551 22.1404 52.4962C22.1596 52.4414 22.1898 52.3911 22.2293 52.3486C22.27 52.3083 22.3186 52.2768 22.3721 52.2563C22.4255 52.2357 22.4826 52.2265 22.5398 52.2291C22.6115 52.2291 30.008 52.6113 32.4204 49.1559C32.4512 49.1111 32.4909 49.0732 32.5369 49.0444C32.583 49.0155 32.6344 48.9964 32.6881 48.9882C32.7418 48.98 32.7966 48.9829 32.8492 48.9967C32.9017 49.0104 32.9509 49.0348 32.9937 49.0683C36.2978 51.6559 36.9746 58.7976 36.3615 61.011C35.3504 64.6256 31.3615 64.6654 29.9363 64.554L30.5733 71.5922C30.5806 71.651 30.5736 71.7107 30.5528 71.7661C30.532 71.8216 30.498 71.8712 30.4539 71.9107C30.4115 71.95 30.361 71.9796 30.306 71.9975C30.251 72.0154 30.1928 72.0211 30.1354 72.0142ZM23.8217 70.4935L29.6975 71.1861L29.0605 64.124C29.0529 64.0621 29.0605 63.9993 29.0827 63.941C29.1049 63.8827 29.141 63.8308 29.1879 63.7896C29.2325 63.7489 29.2859 63.7191 29.3439 63.7025C29.4019 63.686 29.463 63.6831 29.5223 63.6941C29.7293 63.6941 34.5223 64.4903 35.5494 60.7721C36.043 59.0046 35.5494 52.5556 32.7707 49.9441C30.2787 52.9298 24.594 53.0492 22.9141 53.0253C23.129 55.2546 24.0128 65.0715 23.8217 70.4935Z" fill="#232323"/>
<path d="M29.4586 64.1241C28.2529 63.9776 27.1102 63.504 26.1544 62.7546C26.1544 62.7546 27.6114 66.4011 29.8566 66.9425L29.4586 64.1241Z" fill="#232323"/>
<path d="M29.8567 67.3087H29.7691C27.3806 66.7195 25.8837 63.0571 25.7882 62.8979C25.7576 62.8204 25.7543 62.7348 25.7789 62.6551C25.8035 62.5755 25.8545 62.5067 25.9235 62.46C25.9947 62.4148 26.0789 62.3949 26.1627 62.4036C26.2465 62.4123 26.325 62.449 26.3853 62.5077C27.3726 63.503 29.4506 63.7657 29.4665 63.7737C29.5469 63.782 29.622 63.8172 29.6798 63.8735C29.7376 63.9299 29.7747 64.0041 29.785 64.0842L30.1831 66.9027C30.1936 66.9608 30.1889 67.0208 30.1693 67.0766C30.1498 67.1324 30.1161 67.1822 30.0716 67.2211C30.0111 67.2724 29.9358 67.303 29.8567 67.3087ZM27.07 63.7896C27.5976 64.8438 28.401 65.7353 29.3949 66.3692L29.1162 64.4186C28.4097 64.2987 27.7219 64.0872 27.07 63.7896Z" fill="#232323"/>
<path d="M35.2309 67.7307L52.7468 77.2849L48.5191 89.5221C48.5191 89.5221 26.5366 77.89 26.3853 74.7371C26.234 71.5842 35.2309 67.7307 35.2309 67.7307Z" fill="#296C2E"/>
<path d="M39.6656 98.0012C40.7532 91.8321 40.8419 85.5282 39.9284 79.3309C39.2596 75.2863 39.5223 72.4439 38.1768 70.2544C33.6784 62.9057 16.1465 65.0952 13.5987 70.1987C11.051 75.3022 15.8042 93.9328 15.8042 93.9328L39.6656 98.0012Z" fill="#296C2E"/>
<path d="M23.7262 56.9026C23.6284 56.43 23.4031 55.9931 23.0747 55.6394C22.7462 55.2857 22.3272 55.0287 21.8631 54.8963C21.6536 54.8317 21.433 54.8111 21.2152 54.8358C20.9974 54.8604 20.787 54.9298 20.5972 55.0396C20.3712 55.232 20.1994 55.4802 20.0989 55.7595C19.9983 56.0388 19.9725 56.3396 20.0239 56.6319C20.0913 57.5459 20.5041 58.3999 21.1784 59.0205C21.8506 59.6379 22.7339 59.9741 23.6466 59.9599" fill="white"/>
<path d="M23.5987 60.3102C22.6028 60.3114 21.6426 59.9393 20.9076 59.2673C20.1635 58.5784 19.7059 57.6348 19.6258 56.6239C19.572 56.2678 19.6129 55.9038 19.7443 55.5684C19.8756 55.233 20.0928 54.938 20.3742 54.7131C20.6097 54.5675 20.8739 54.4743 21.1486 54.4399C21.4234 54.4056 21.7024 54.4309 21.9665 54.5141C22.5017 54.6656 22.9851 54.9609 23.3641 55.368C23.7432 55.7751 24.0033 56.2784 24.1162 56.823C24.135 56.9274 24.1122 57.035 24.0527 57.1227C23.9932 57.2105 23.9017 57.2715 23.7977 57.2927C23.6943 57.3113 23.5877 57.2883 23.5012 57.2286C23.4147 57.169 23.3553 57.0775 23.336 56.9743C23.2486 56.5749 23.0543 56.2069 22.7738 55.9096C22.4933 55.6122 22.1372 55.3968 21.7436 55.2864C21.5916 55.2324 21.4299 55.2116 21.2692 55.2254C21.1086 55.2391 20.9527 55.287 20.8121 55.366C20.6542 55.5183 20.5349 55.7062 20.4643 55.9139C20.3937 56.1216 20.3737 56.3432 20.406 56.5602C20.4633 57.3703 20.8278 58.1279 21.4251 58.6781C22.0277 59.2166 22.8149 59.5018 23.6226 59.4743C23.7275 59.4763 23.8276 59.5189 23.9018 59.5931C23.976 59.6673 24.0186 59.7674 24.0207 59.8724C24.0207 59.9779 23.9787 60.0792 23.9041 60.1538C23.8294 60.2285 23.7282 60.2704 23.6226 60.2704L23.5987 60.3102Z" fill="#232323"/>
<path d="M33.1557 53.9577C33.3488 53.8974 33.414 53.556 33.3014 53.195C33.1887 52.834 32.9409 52.5902 32.7478 52.6504C32.5547 52.7107 32.4895 53.0522 32.6022 53.4132C32.7148 53.7741 32.9626 54.0179 33.1557 53.9577Z" fill="#232323"/>
<path d="M34.5781 61.194C34.1021 61.4996 33.5808 61.728 33.0335 61.8708C32.677 62.0054 32.2908 62.0417 31.9154 61.9759C31.54 61.9101 31.1892 61.7445 30.8997 61.4966C30.6931 61.2428 30.5389 60.9505 30.4459 60.6367" fill="white"/>
<path d="M32.1895 62.3882C31.8951 62.4051 31.6004 62.3583 31.3257 62.2512C31.0509 62.144 30.8024 61.9789 30.5972 61.7672C30.3542 61.4747 30.1728 61.1362 30.0637 60.7719C30.0447 60.7234 30.0355 60.6715 30.0369 60.6194C30.0382 60.5672 30.05 60.5159 30.0715 60.4684C30.093 60.4209 30.1239 60.3782 30.1622 60.3428C30.2005 60.3074 30.2455 60.2801 30.2946 60.2624C30.3437 60.2432 30.3961 60.234 30.4488 60.2352C30.5016 60.2365 30.5535 60.2482 30.6016 60.2696C30.6498 60.2911 30.6932 60.322 30.7293 60.3604C30.7654 60.3987 30.7936 60.4439 30.8121 60.4933C30.888 60.7619 31.015 61.0133 31.1863 61.2337C31.672 61.7672 32.6433 61.5681 32.93 61.4885C33.4339 61.3517 33.9144 61.1397 34.3551 60.8595C34.4438 60.8027 34.5515 60.7833 34.6545 60.8057C34.7575 60.8281 34.8474 60.8904 34.9045 60.979C34.9337 61.0226 34.9538 61.0716 34.9637 61.1232C34.9735 61.1747 34.9728 61.2277 34.9616 61.279C34.9505 61.3303 34.9291 61.3788 34.8988 61.4217C34.8684 61.4645 34.8297 61.5008 34.7851 61.5283C34.2737 61.8557 33.7152 62.1027 33.129 62.2608C32.8225 62.3428 32.5068 62.3856 32.1895 62.3882Z" fill="#232323"/>
<path d="M34.6259 54.0046C34.6259 54.0046 37.6991 57.5078 36.9427 58.2642C36.1864 59.0206 34.4109 58.6464 34.4109 58.6464" fill="white"/>
<path d="M35.3901 59.14C35.0321 59.1374 34.675 59.1027 34.3232 59.0364C34.2719 59.0252 34.2233 59.0038 34.1802 58.9736C34.1372 58.9435 34.1005 58.9051 34.0724 58.8606C34.0443 58.8162 34.0252 58.7667 34.0163 58.7149C34.0075 58.663 34.0089 58.61 34.0207 58.5587C34.031 58.5077 34.0515 58.4593 34.0809 58.4163C34.1103 58.3733 34.148 58.3366 34.1917 58.3084C34.2355 58.2802 34.2845 58.2611 34.3358 58.2521C34.3871 58.2431 34.4397 58.2445 34.4904 58.2562C34.9283 58.3438 36.1704 58.4791 36.664 57.9855C36.8312 57.6352 35.7165 55.8597 34.3232 54.2673C34.2498 54.1916 34.2087 54.0902 34.2087 53.9847C34.2087 53.8792 34.2498 53.7778 34.3232 53.7021C34.3595 53.665 34.4029 53.6355 34.4508 53.6154C34.4986 53.5953 34.55 53.585 34.6019 53.585C34.6538 53.585 34.7052 53.5953 34.753 53.6154C34.8009 53.6355 34.8442 53.665 34.8805 53.7021C36.1226 55.1113 38.0653 57.6193 37.1895 58.4791C36.6939 58.9175 36.0516 59.1534 35.3901 59.14Z" fill="#232323"/>
<path d="M48.4873 89.9519C48.4207 89.9513 48.3553 89.9349 48.2962 89.9041C48.1768 89.8404 36.0908 83.3834 31.68 80.9869C31.6342 80.9627 31.5936 80.9296 31.5607 80.8895C31.5279 80.8495 31.5033 80.8033 31.4885 80.7536C31.4736 80.7039 31.4689 80.6518 31.4744 80.6003C31.4799 80.5488 31.4957 80.4989 31.5207 80.4535C31.5451 80.4067 31.5784 80.3652 31.6189 80.3315C31.6594 80.2977 31.7061 80.2723 31.7565 80.2567C31.8069 80.2412 31.8598 80.2358 31.9123 80.2409C31.9648 80.2459 32.0157 80.2614 32.0621 80.2863C36.465 82.6748 48.551 89.1318 48.6704 89.2035C48.7169 89.227 48.7582 89.2596 48.7919 89.2994C48.8256 89.3391 48.851 89.3852 48.8666 89.4349C48.8822 89.4846 48.8876 89.537 48.8827 89.5889C48.8777 89.6407 48.8624 89.6911 48.8376 89.7369C48.8043 89.8012 48.7541 89.8552 48.6924 89.8931C48.6306 89.931 48.5597 89.9513 48.4873 89.9519Z" fill="#232323"/>
<path d="M199.045 95.4376L200.518 95.3978C201.153 95.3715 201.783 95.5315 202.329 95.8583C202.875 96.185 203.314 96.6643 203.591 97.237L232.325 176.624C232.707 177.675 231.943 178.559 230.621 178.598L229.156 178.638C228.52 178.662 227.89 178.501 227.343 178.175C226.796 177.848 226.356 177.371 226.075 176.799L197.365 97.4042C196.99 96.3532 197.747 95.4695 199.045 95.4376Z" fill="white"/>
<path d="M229.092 179.036C228.388 179.049 227.695 178.857 227.097 178.484C226.5 178.111 226.023 177.573 225.725 176.934L196.99 97.5633C196.888 97.304 196.85 97.0239 196.879 96.7467C196.909 96.4696 197.004 96.2035 197.158 95.971C197.381 95.6814 197.67 95.449 198.001 95.2926C198.332 95.1362 198.695 95.0604 199.061 95.0713L200.525 95.0315C201.244 95.0067 201.954 95.1915 202.569 95.5633C203.184 95.9352 203.677 96.4779 203.989 97.1254L232.723 176.52C232.826 176.78 232.864 177.06 232.835 177.337C232.806 177.614 232.71 177.88 232.556 178.113C232.333 178.402 232.046 178.634 231.716 178.79C231.387 178.947 231.025 179.023 230.661 179.012L229.188 179.052L229.092 179.036ZM199.084 95.8356C198.845 95.8222 198.606 95.8648 198.386 95.9602C198.167 96.0556 197.972 96.2011 197.818 96.385C197.734 96.5146 197.683 96.6629 197.669 96.817C197.655 96.971 197.679 97.1261 197.739 97.2688L226.473 176.664C226.725 177.156 227.112 177.567 227.588 177.849C228.065 178.131 228.611 178.272 229.164 178.256L230.637 178.216C230.876 178.224 231.114 178.179 231.334 178.082C231.553 177.986 231.747 177.841 231.903 177.659C231.986 177.529 232.036 177.38 232.048 177.226C232.061 177.072 232.036 176.917 231.975 176.775L203.24 97.3802C202.993 96.884 202.607 96.4698 202.13 96.1874C201.652 95.9049 201.104 95.7662 200.549 95.7879L199.084 95.8277V95.8356Z" fill="#D1D3D4"/>
<path d="M200.637 101.672L173.949 102.126C173.467 102.142 172.991 102.019 172.578 101.772C172.164 101.525 171.83 101.164 171.616 100.732C171.33 99.9362 171.911 99.2674 172.906 99.2435L199.594 98.7897C200.076 98.7712 200.553 98.8931 200.967 99.1404C201.381 99.3877 201.714 99.7499 201.927 100.183C202.229 100.979 201.656 101.648 200.637 101.672Z" fill="white"/>
<path d="M173.901 102.524C173.348 102.531 172.804 102.379 172.335 102.085C171.867 101.792 171.492 101.369 171.258 100.868C171.173 100.655 171.142 100.425 171.167 100.197C171.192 99.9693 171.273 99.7513 171.401 99.5619C171.578 99.3308 171.808 99.1453 172.071 99.0207C172.334 98.8961 172.623 98.836 172.914 98.8454L199.602 98.3597C200.168 98.3337 200.729 98.4774 201.213 98.7725C201.696 99.0676 202.081 99.5005 202.317 100.016C202.401 100.227 202.433 100.455 202.41 100.681C202.386 100.907 202.308 101.124 202.182 101.314C202.006 101.547 201.777 101.734 201.513 101.86C201.25 101.986 200.961 102.047 200.669 102.038L173.981 102.492L173.901 102.524ZM199.674 99.1559H199.626L172.93 99.6097C172.765 99.5993 172.6 99.6278 172.448 99.6928C172.296 99.7578 172.161 99.8575 172.054 99.9839C172.001 100.07 171.968 100.168 171.96 100.269C171.952 100.37 171.968 100.471 172.006 100.565C172.189 100.921 172.47 101.216 172.816 101.417C173.162 101.617 173.558 101.714 173.957 101.696L200.645 101.242C200.81 101.252 200.975 101.224 201.127 101.159C201.279 101.094 201.414 100.994 201.521 100.868C201.576 100.782 201.61 100.685 201.618 100.583C201.626 100.482 201.609 100.38 201.569 100.286C201.389 99.9403 201.117 99.6511 200.782 99.4513C200.447 99.2516 200.063 99.1492 199.674 99.1559Z" fill="#D1D3D4"/>
<path d="M204.666 112.747L177.978 113.2C177.496 113.219 177.019 113.097 176.605 112.85C176.191 112.602 175.857 112.24 175.645 111.807C175.358 111.011 175.931 110.342 176.935 110.318L203.623 109.864C204.104 109.848 204.58 109.971 204.994 110.218C205.408 110.465 205.741 110.826 205.955 111.258C206.21 112.054 205.661 112.691 204.666 112.747Z" fill="white"/>
<path d="M177.906 113.599C177.354 113.606 176.811 113.453 176.344 113.159C175.876 112.866 175.504 112.443 175.271 111.942C175.186 111.731 175.155 111.503 175.178 111.277C175.202 111.051 175.28 110.834 175.406 110.645C175.583 110.411 175.813 110.223 176.078 110.097C176.343 109.971 176.634 109.91 176.927 109.92L203.615 109.466C204.18 109.447 204.738 109.593 205.22 109.887C205.703 110.182 206.089 110.611 206.33 111.122C206.413 111.335 206.445 111.565 206.421 111.792C206.398 112.019 206.32 112.237 206.194 112.428C206.015 112.659 205.784 112.844 205.52 112.969C205.255 113.093 204.966 113.153 204.674 113.145L177.986 113.599H177.906ZM203.686 110.302H203.631L176.943 110.756C176.778 110.745 176.612 110.773 176.46 110.838C176.308 110.903 176.173 111.003 176.067 111.13C176.011 111.216 175.978 111.313 175.969 111.415C175.961 111.516 175.978 111.618 176.019 111.712C176.201 112.068 176.482 112.364 176.828 112.564C177.174 112.765 177.57 112.861 177.97 112.842L204.658 112.388C204.823 112.399 204.988 112.371 205.14 112.306C205.293 112.241 205.427 112.141 205.533 112.014C205.587 111.928 205.619 111.83 205.628 111.729C205.636 111.628 205.62 111.527 205.581 111.433C205.4 111.088 205.128 110.8 204.793 110.6C204.459 110.401 204.076 110.298 203.686 110.302Z" fill="#D1D3D4"/>
<path d="M208.67 123.837L181.983 124.283C181.501 124.302 181.025 124.182 180.611 123.936C180.197 123.69 179.863 123.329 179.65 122.898C179.363 122.102 179.944 121.433 180.94 121.401L207.627 120.955C208.11 120.935 208.588 121.056 209.002 121.303C209.416 121.551 209.75 121.914 209.96 122.348C210.247 123.137 209.674 123.837 208.67 123.837Z" fill="white"/>
<path d="M181.919 124.681C181.366 124.689 180.822 124.537 180.353 124.243C179.884 123.949 179.51 123.526 179.276 123.025C179.19 122.813 179.159 122.582 179.184 122.354C179.209 122.127 179.289 121.909 179.419 121.72C179.596 121.488 179.826 121.302 180.089 121.177C180.351 121.051 180.64 120.988 180.932 120.995L207.619 120.549C208.185 120.524 208.746 120.668 209.229 120.963C209.713 121.258 210.098 121.691 210.334 122.205C210.419 122.416 210.451 122.645 210.427 122.871C210.403 123.097 210.325 123.314 210.199 123.503C210.022 123.735 209.793 123.921 209.53 124.047C209.267 124.173 208.978 124.235 208.686 124.228L181.998 124.673L181.919 124.681ZM207.691 121.345H207.643L180.947 121.791C180.783 121.784 180.619 121.815 180.467 121.879C180.316 121.944 180.181 122.042 180.072 122.165C180.017 122.253 179.985 122.352 179.978 122.455C179.971 122.558 179.99 122.661 180.032 122.755C180.212 123.11 180.491 123.405 180.836 123.605C181.181 123.804 181.577 123.899 181.975 123.877L208.662 123.431C208.827 123.44 208.992 123.411 209.144 123.346C209.295 123.281 209.43 123.182 209.538 123.057C209.594 122.972 209.627 122.874 209.636 122.773C209.644 122.671 209.627 122.569 209.586 122.476C209.407 122.13 209.134 121.841 208.8 121.641C208.465 121.441 208.081 121.339 207.691 121.345Z" fill="#D1D3D4"/>
<path d="M212.683 134.904L185.995 135.358C185.513 135.377 185.036 135.255 184.622 135.007C184.208 134.76 183.875 134.398 183.662 133.965C183.376 133.169 183.949 132.5 184.952 132.476L211.64 132.022C212.122 132.005 212.598 132.127 213.012 132.374C213.426 132.621 213.76 132.983 213.973 133.415C214.26 134.188 213.678 134.88 212.683 134.904Z" fill="white"/>
<path d="M185.924 135.78C185.371 135.787 184.829 135.635 184.361 135.341C183.894 135.047 183.521 134.624 183.288 134.124C183.204 133.911 183.173 133.682 183.197 133.455C183.22 133.227 183.298 133.009 183.424 132.818C183.602 132.587 183.833 132.401 184.098 132.277C184.362 132.152 184.652 132.092 184.944 132.102L211.632 131.648C212.198 131.624 212.758 131.769 213.241 132.063C213.725 132.358 214.109 132.79 214.347 133.304C214.431 133.515 214.463 133.743 214.44 133.969C214.416 134.196 214.338 134.413 214.212 134.602C214.034 134.835 213.804 135.022 213.539 135.148C213.275 135.274 212.984 135.335 212.691 135.326L186.003 135.78H185.924ZM211.704 132.444H211.648L184.96 132.898C184.795 132.887 184.63 132.915 184.477 132.98C184.325 133.045 184.191 133.145 184.084 133.272C184.029 133.357 183.995 133.455 183.987 133.557C183.979 133.658 183.996 133.76 184.037 133.853C184.219 134.209 184.5 134.504 184.846 134.705C185.192 134.905 185.588 135.002 185.987 134.984L212.675 134.53C212.84 134.541 213.006 134.513 213.158 134.448C213.31 134.383 213.445 134.283 213.551 134.156C213.605 134.07 213.637 133.972 213.645 133.871C213.654 133.77 213.638 133.668 213.599 133.575C213.422 133.225 213.151 132.931 212.816 132.727C212.481 132.523 212.096 132.417 211.704 132.42V132.444Z" fill="#D1D3D4"/>
<path d="M216.688 145.987L190 146.433C189.519 146.452 189.043 146.33 188.63 146.083C188.217 145.835 187.885 145.473 187.675 145.04C187.381 144.243 187.962 143.583 188.957 143.551L215.645 143.105C216.126 143.084 216.604 143.204 217.018 143.45C217.432 143.696 217.766 144.057 217.978 144.49C218.264 145.286 217.691 145.955 216.688 145.987Z" fill="white"/>
<path d="M189.936 146.831C189.384 146.839 188.841 146.687 188.373 146.393C187.906 146.099 187.533 145.676 187.301 145.175C187.213 144.965 187.179 144.736 187.203 144.509C187.227 144.282 187.307 144.065 187.436 143.877C187.613 143.645 187.842 143.458 188.105 143.332C188.368 143.206 188.657 143.144 188.949 143.153L215.637 142.707C216.202 142.681 216.762 142.824 217.245 143.118C217.729 143.411 218.114 143.842 218.352 144.355C218.436 144.567 218.468 144.797 218.445 145.024C218.421 145.252 218.343 145.47 218.217 145.661C218.038 145.891 217.809 146.076 217.546 146.202C217.283 146.328 216.995 146.39 216.704 146.385L190.016 146.831H189.936ZM215.709 143.495H215.661L188.965 143.941C188.8 143.934 188.636 143.964 188.485 144.029C188.333 144.094 188.198 144.191 188.089 144.315C188.037 144.402 188.006 144.5 187.999 144.601C187.992 144.702 188.009 144.803 188.049 144.896C188.23 145.252 188.509 145.548 188.854 145.748C189.198 145.949 189.594 146.046 189.992 146.027L216.68 145.581C216.845 145.59 217.009 145.56 217.161 145.495C217.313 145.431 217.448 145.332 217.556 145.207C217.611 145.12 217.645 145.021 217.653 144.918C217.661 144.815 217.644 144.712 217.603 144.618C217.423 144.273 217.15 143.985 216.816 143.787C216.481 143.589 216.098 143.488 215.709 143.495Z" fill="#D1D3D4"/>
<path d="M220.701 157.062L194.013 157.516C193.531 157.534 193.054 157.412 192.64 157.165C192.226 156.918 191.892 156.555 191.68 156.122C191.393 155.326 191.967 154.657 192.97 154.633L219.658 154.18C220.139 154.162 220.616 154.284 221.03 154.532C221.444 154.779 221.777 155.14 221.99 155.573C222.277 156.369 221.696 157.038 220.701 157.062Z" fill="white"/>
<path d="M193.941 157.914C193.389 157.921 192.847 157.768 192.379 157.475C191.912 157.181 191.539 156.758 191.306 156.258C191.221 156.045 191.19 155.816 191.213 155.588C191.237 155.361 191.315 155.143 191.441 154.952C191.62 154.721 191.851 154.535 192.115 154.411C192.38 154.286 192.67 154.226 192.962 154.235L219.65 153.782C220.215 153.76 220.774 153.905 221.257 154.2C221.74 154.495 222.125 154.925 222.365 155.438C222.449 155.649 222.481 155.877 222.457 156.103C222.434 156.329 222.355 156.546 222.229 156.736C222.052 156.969 221.821 157.156 221.557 157.282C221.292 157.408 221.001 157.469 220.709 157.46L194.021 157.914H193.941ZM219.745 154.578H219.689L193.002 155.032C192.836 155.021 192.671 155.049 192.519 155.114C192.367 155.179 192.232 155.279 192.126 155.406C192.07 155.491 192.037 155.589 192.028 155.69C192.02 155.792 192.037 155.894 192.078 155.987C192.26 156.343 192.541 156.639 192.887 156.84C193.233 157.04 193.629 157.137 194.029 157.118L220.717 156.664C220.882 156.674 221.047 156.645 221.199 156.58C221.351 156.515 221.485 156.416 221.592 156.29C221.646 156.204 221.678 156.106 221.687 156.005C221.695 155.904 221.679 155.802 221.64 155.708C221.46 155.363 221.188 155.074 220.853 154.874C220.518 154.675 220.135 154.572 219.745 154.578Z" fill="#D1D3D4"/>
<path d="M224.705 168.137L198.025 168.59C197.543 168.609 197.067 168.487 196.652 168.24C196.238 167.992 195.905 167.63 195.693 167.197C195.398 166.401 195.979 165.732 196.974 165.708L223.662 165.255C224.144 165.236 224.621 165.358 225.035 165.605C225.449 165.853 225.783 166.215 225.995 166.648C226.282 167.444 225.709 168.113 224.705 168.137Z" fill="white"/>
<path d="M197.954 168.989C197.402 168.997 196.859 168.845 196.391 168.551C195.923 168.257 195.551 167.834 195.319 167.332C195.232 167.122 195.199 166.893 195.223 166.667C195.246 166.44 195.326 166.223 195.454 166.035C195.629 165.801 195.858 165.613 196.122 165.487C196.385 165.361 196.675 165.3 196.967 165.31L223.655 164.856C224.22 164.834 224.78 164.979 225.263 165.273C225.746 165.568 226.131 165.999 226.369 166.512C226.454 166.725 226.486 166.955 226.462 167.182C226.439 167.409 226.36 167.628 226.234 167.818C226.057 168.049 225.827 168.234 225.564 168.358C225.301 168.483 225.012 168.543 224.721 168.535L198.033 168.989H197.954ZM223.726 165.653H223.678L196.983 166.106C196.817 166.096 196.652 166.124 196.5 166.189C196.348 166.254 196.213 166.354 196.107 166.481C196.054 166.567 196.023 166.665 196.016 166.766C196.01 166.867 196.027 166.969 196.067 167.062C196.247 167.418 196.526 167.714 196.871 167.915C197.216 168.116 197.611 168.212 198.01 168.192L224.697 167.739C224.863 167.751 225.029 167.723 225.181 167.658C225.333 167.593 225.468 167.492 225.573 167.364C225.629 167.279 225.662 167.181 225.671 167.08C225.679 166.978 225.662 166.876 225.621 166.783C225.442 166.437 225.169 166.148 224.835 165.948C224.5 165.748 224.116 165.646 223.726 165.653Z" fill="#D1D3D4"/>
<path d="M170.311 95.971L171.776 95.9232C172.412 95.8994 173.042 96.0604 173.588 96.3868C174.135 96.7131 174.576 97.1909 174.857 97.7624L203.591 177.157C203.965 178.208 203.209 179.092 201.887 179.124H200.414C199.779 179.151 199.15 178.992 198.604 178.667C198.058 178.341 197.619 177.864 197.341 177.293L168.607 97.8977C168.225 96.8627 168.989 95.971 170.311 95.971Z" fill="white"/>
<path d="M200.334 179.57C199.631 179.583 198.939 179.392 198.341 179.021C197.743 178.649 197.266 178.113 196.967 177.476L168.233 98.0492C168.13 97.79 168.091 97.5098 168.121 97.2325C168.15 96.9552 168.245 96.6891 168.4 96.4569C168.623 96.1689 168.91 95.9379 169.24 95.7829C169.569 95.6279 169.931 95.5533 170.295 95.5651L171.768 95.5253C172.487 95.4922 173.201 95.6736 173.817 96.0463C174.434 96.4191 174.926 96.9666 175.231 97.6193L203.965 177.014C204.067 177.274 204.105 177.554 204.076 177.831C204.047 178.108 203.951 178.374 203.798 178.607C203.574 178.896 203.285 179.129 202.954 179.285C202.624 179.441 202.261 179.517 201.895 179.506H200.43L200.334 179.57ZM170.319 96.3772C170.08 96.3638 169.843 96.4065 169.624 96.5019C169.406 96.5973 169.212 96.7428 169.061 96.9266C168.974 97.0554 168.922 97.2038 168.908 97.3583C168.894 97.5127 168.919 97.6682 168.981 97.8104L197.715 177.181C197.964 177.677 198.349 178.091 198.827 178.373C199.304 178.655 199.852 178.794 200.406 178.774H201.871C202.11 178.788 202.35 178.745 202.57 178.65C202.789 178.555 202.984 178.409 203.137 178.224C203.221 178.095 203.273 177.946 203.287 177.792C203.301 177.638 203.276 177.483 203.217 177.341L174.483 97.9457C174.236 97.4489 173.85 97.0341 173.372 96.7516C172.895 96.469 172.346 96.3307 171.791 96.3533L170.319 96.3772Z" fill="#D1D3D4"/>
<path d="M190.374 49.2912C184.65 52.6112 178.026 55.2068 171.306 53.9011C165.605 52.8023 160.462 48.9966 158.44 43.487C158.033 42.4042 157.779 41.2657 157.349 40.1829C157.174 39.753 156.903 39.2753 156.441 39.2354C155.693 39.1718 155.438 40.2068 155.526 40.9472C155.597 41.5444 155.669 42.0937 155.685 42.6829C155.685 43.089 155.685 44.1479 156.043 44.4504L150.947 39.5141C150.713 39.2457 150.41 39.045 150.072 38.9329C149.902 38.8824 149.719 38.8998 149.561 38.9815C149.404 39.0632 149.284 39.2027 149.228 39.3708C149.216 39.5177 149.236 39.6654 149.289 39.8032C149.341 39.941 149.424 40.0653 149.53 40.167L151.561 42.7864C150.661 42.0125 149.723 41.2844 148.75 40.6049C147.444 39.7052 147.038 41.0268 147.811 42.0221L149.873 44.6733C149.192 43.9746 148.457 43.3304 147.675 42.7466C147.444 42.5714 147.134 42.4042 146.879 42.5635C146.806 42.627 146.754 42.7113 146.729 42.8051C146.705 42.899 146.71 42.998 146.744 43.089C146.813 43.2725 146.921 43.4383 147.062 43.5746L148.981 45.7641C148.647 45.4297 146.99 43.8692 146.545 44.7211C146.29 45.2068 147.237 45.9791 147.524 46.2657C149.395 48.0969 151.29 49.8485 153.225 51.5762C158.424 56.2259 164.371 60.5332 171.385 62.1176C179.069 63.8612 187.508 61.8788 193.981 57.444" fill="white"/>
<path d="M177.094 63.1048C175.136 63.11 173.184 62.8964 171.274 62.4679C163.519 60.7083 157.094 55.5571 152.962 51.8389C150.82 49.9201 148.981 48.1765 147.261 46.5125L147.126 46.3931C146.64 45.9392 145.836 45.1908 146.202 44.4982C146.258 44.3772 146.344 44.2723 146.451 44.193C146.558 44.1138 146.683 44.0626 146.815 44.0443H146.975L146.768 43.8134C146.594 43.6328 146.458 43.4189 146.369 43.1845C146.312 43.012 146.309 42.8258 146.362 42.6518C146.414 42.4777 146.52 42.3244 146.664 42.2131C146.771 42.1392 146.894 42.0926 147.023 42.0773C147.152 42.062 147.283 42.0786 147.404 42.1255C147.171 41.8575 147.034 41.519 147.015 41.1641C146.997 40.8091 147.097 40.4581 147.301 40.1669C147.444 40.0157 147.986 39.5778 148.965 40.2545L149.268 40.4695L149.204 40.3899C149.07 40.2466 148.968 40.077 148.903 39.8919C148.839 39.7068 148.814 39.5104 148.83 39.315C148.855 39.1927 148.904 39.0767 148.975 38.974C149.047 38.8714 149.138 38.7843 149.244 38.7179C149.376 38.6313 149.525 38.5726 149.681 38.5452C149.837 38.5178 149.997 38.5224 150.151 38.5587C150.559 38.6879 150.925 38.9244 151.21 39.2434L155.303 43.2243V42.7386C155.286 42.2698 155.247 41.8021 155.183 41.3373L155.143 41.0348C155.095 40.7126 155.113 40.3839 155.197 40.069C155.28 39.754 155.427 39.4595 155.629 39.2036C155.738 39.0875 155.872 38.9978 156.021 38.9413C156.17 38.8847 156.33 38.8628 156.489 38.8771C157.014 38.9249 157.436 39.331 157.731 40.0794C157.97 40.6685 158.153 41.2816 158.336 41.8708C158.519 42.4599 158.646 42.8899 158.83 43.3915C160.748 48.5189 165.581 52.4122 171.441 53.5507C176.943 54.6255 183.089 53.1287 190.231 48.9886C190.276 48.9558 190.327 48.9329 190.382 48.9213C190.436 48.9096 190.493 48.9095 190.547 48.921C190.602 48.9325 190.653 48.9553 190.698 48.9879C190.743 49.0206 190.781 49.0623 190.809 49.1105C190.837 49.1586 190.855 49.2121 190.861 49.2675C190.867 49.3229 190.861 49.3789 190.844 49.4319C190.827 49.485 190.799 49.5339 190.762 49.5755C190.725 49.617 190.68 49.6504 190.629 49.6733C183.312 53.9169 176.99 55.4376 171.29 54.331C165.159 53.1446 160.096 49.0523 158.081 43.6701C157.89 43.1526 157.731 42.6271 157.572 42.0778C157.412 41.5284 157.213 40.9074 156.99 40.3501C156.871 40.0396 156.672 39.6733 156.417 39.6494C156.376 39.6453 156.334 39.6511 156.295 39.6663C156.256 39.6816 156.222 39.7058 156.194 39.737C155.962 40.0857 155.87 40.5099 155.939 40.9233V41.2179C155.995 41.7115 156.051 42.1813 156.067 42.6829C156.067 43.8851 156.258 44.1319 156.298 44.1797C156.336 44.2154 156.366 44.2586 156.387 44.3065C156.408 44.3544 156.418 44.4061 156.418 44.4583C156.418 44.5106 156.408 44.5622 156.387 44.6102C156.366 44.6581 156.336 44.7013 156.298 44.737C156.261 44.7741 156.218 44.8035 156.17 44.8236C156.122 44.8437 156.071 44.8541 156.019 44.8541C155.967 44.8541 155.916 44.8437 155.868 44.8236C155.82 44.8035 155.777 44.7741 155.74 44.737L150.645 39.8087C150.459 39.5946 150.224 39.4281 149.96 39.323C149.856 39.3051 149.749 39.3248 149.658 39.3787C149.642 39.3869 149.628 39.3982 149.617 39.4119C149.607 39.4256 149.599 39.4414 149.594 39.4583C149.594 39.5698 149.737 39.7848 149.817 39.8883L151.855 42.5157C151.911 42.5939 151.936 42.6897 151.927 42.7852C151.917 42.8808 151.874 42.9698 151.804 43.0357C151.734 43.1016 151.643 43.1401 151.547 43.144C151.451 43.148 151.357 43.1171 151.282 43.0571C150.392 42.2892 149.461 41.569 148.495 40.8994C148.169 40.6765 147.938 40.6367 147.866 40.7083C147.795 40.78 147.739 41.2816 148.097 41.7434L150.159 44.3947C150.224 44.4747 150.255 44.5765 150.246 44.6789C150.237 44.7813 150.189 44.8763 150.111 44.944C150.037 45.0128 149.939 45.051 149.837 45.051C149.735 45.051 149.637 45.0128 149.562 44.944C148.895 44.2605 148.177 43.6297 147.412 43.0571C147.322 42.9752 147.213 42.9176 147.094 42.8899C147.094 42.8899 147.094 42.8899 147.094 42.9695C147.151 43.0937 147.229 43.2069 147.325 43.3039L149.252 45.4934C149.322 45.5674 149.362 45.6658 149.362 45.7681C149.362 45.8703 149.322 45.9687 149.252 46.0427C149.176 46.1138 149.077 46.1535 148.973 46.1535C148.869 46.1535 148.77 46.1138 148.694 46.0427C147.898 45.2466 147.166 44.8325 146.927 44.8724C146.879 44.9759 146.927 45.2068 147.651 45.8437L147.795 45.987C149.482 47.6431 151.346 49.3708 153.479 51.2816C157.572 54.944 163.893 60.0396 171.465 61.7275C178.782 63.3915 187.11 61.6638 193.758 57.1176C193.801 57.0845 193.85 57.0604 193.902 57.0469C193.954 57.0333 194.009 57.0305 194.062 57.0387C194.116 57.0469 194.167 57.0658 194.213 57.0944C194.258 57.123 194.298 57.1606 194.329 57.205C194.36 57.2493 194.381 57.2995 194.392 57.3524C194.403 57.4054 194.403 57.4599 194.392 57.5128C194.381 57.5657 194.359 57.6159 194.328 57.6601C194.297 57.7044 194.258 57.742 194.212 57.7704C189.167 61.218 183.205 63.0759 177.094 63.1048Z" fill="#232323"/>
<path d="M216.959 136.711L217.675 141.958C217.675 141.958 203.073 143.471 203.639 142.213C204.708 140.389 205.883 138.629 207.158 136.942" fill="white"/>
<path d="M206.72 143.105C204.912 143.105 203.591 142.97 203.328 142.595C203.27 142.517 203.235 142.425 203.225 142.328C203.215 142.232 203.231 142.134 203.272 142.046C204.355 140.197 205.546 138.413 206.839 136.704C206.904 136.621 206.998 136.566 207.102 136.552C207.206 136.537 207.311 136.563 207.396 136.624C207.481 136.687 207.537 136.782 207.552 136.886C207.567 136.991 207.539 137.097 207.476 137.181C207.476 137.221 204.825 140.772 204.1 142.165C205.31 142.532 211.473 142.165 217.229 141.608L216.56 136.759C216.547 136.654 216.576 136.547 216.64 136.463C216.705 136.378 216.801 136.323 216.907 136.31C217.012 136.296 217.119 136.325 217.203 136.39C217.288 136.454 217.343 136.55 217.357 136.656L218.081 141.903C218.089 141.956 218.085 142.01 218.072 142.062C218.058 142.114 218.034 142.163 218.002 142.205C217.932 142.29 217.832 142.344 217.723 142.356C214.506 142.691 209.865 143.105 206.72 143.105Z" fill="#232323"/>
<path d="M196.497 116.584C196.497 116.584 199.546 120.414 198.989 121.114C198.432 121.815 182.269 122.611 182.962 120.931C183.655 119.251 187.986 115.677 187.986 115.677" fill="white"/>
<path d="M189.323 122.333C186.401 122.333 183.75 122.149 182.954 121.672C182.787 121.6 182.655 121.465 182.587 121.297C182.518 121.129 182.518 120.94 182.588 120.772C183.312 119.021 187.54 115.517 187.723 115.366C187.804 115.3 187.909 115.269 188.013 115.279C188.117 115.29 188.213 115.341 188.28 115.422C188.314 115.462 188.34 115.509 188.355 115.56C188.371 115.61 188.376 115.663 188.371 115.716C188.366 115.769 188.35 115.82 188.325 115.866C188.3 115.913 188.266 115.954 188.224 115.987C187.07 116.935 183.997 119.657 183.36 120.995C184.602 121.903 197.174 121.465 198.654 120.852C198.654 120.35 197.556 118.567 196.178 116.831C196.145 116.791 196.119 116.745 196.104 116.695C196.088 116.645 196.083 116.593 196.088 116.541C196.093 116.489 196.109 116.438 196.134 116.392C196.159 116.346 196.193 116.306 196.234 116.274C196.318 116.208 196.424 116.178 196.53 116.19C196.635 116.202 196.732 116.255 196.799 116.337C198.28 118.2 199.912 120.581 199.291 121.361C198.869 121.903 193.758 122.333 189.323 122.333Z" fill="#232323"/>
<path d="M190.828 75.5811C190.828 75.5811 172.588 86.9027 172.818 93.0253C172.97 97.1814 185.732 118.057 185.732 118.057L197.97 117.38C197.97 117.38 186.823 100.35 189.283 97.8581C191.744 95.3661 205.414 88.4951 205.414 88.4951L205.661 137.452C205.661 137.452 218.153 136.576 218.153 135.868C218.153 135.159 220.852 77.6591 220.852 77.6591L190.828 75.5811Z" fill="#232323"/>
<path d="M217.285 22.9616C217.228 22.2013 216.911 21.484 216.385 20.9313C216.112 20.6716 215.756 20.5171 215.38 20.4953C215.004 20.4734 214.632 20.5856 214.331 20.8119C214.427 19.4584 213.201 18.4233 212.006 17.7466C210.516 16.9278 208.903 16.3576 207.229 16.0587C206.124 15.8788 205.006 15.7856 203.885 15.78C202.205 15.78 200.414 15.8835 199.108 16.9106C198.355 17.5803 197.807 18.4488 197.525 19.4163C197.243 20.3838 197.24 21.4111 197.516 22.3803C198.089 24.3213 199.192 26.0639 200.701 27.4122C202.404 29.2015 204.52 30.5465 206.863 31.3294C208.257 31.7214 209.698 31.9249 211.147 31.9345C213.463 32.0141 214.467 30.9233 215.653 29.1558C216.969 27.3758 217.553 25.1591 217.285 22.9616Z" fill="white"/>
<path d="M211.306 32.3404H211.075C209.592 32.3266 208.117 32.1178 206.688 31.7194C204.272 30.932 202.085 29.5653 200.318 27.7385C198.754 26.3394 197.612 24.5302 197.022 22.5156C196.73 21.4695 196.74 20.3621 197.05 19.3211C197.36 18.2802 197.957 17.3479 198.774 16.6318C200.223 15.5172 202.142 15.3898 203.83 15.4216C204.969 15.4246 206.106 15.5204 207.229 15.7083C208.956 16.008 210.622 16.5918 212.158 17.436C213.018 17.9057 214.363 18.8452 214.642 20.1987C214.985 20.1065 215.345 20.1019 215.69 20.1854C216.035 20.2688 216.354 20.4377 216.616 20.6764C217.211 21.2911 217.574 22.0931 217.643 22.9455C217.954 25.1032 217.389 27.1573 215.876 29.4105C214.793 31.0506 213.734 32.3404 211.306 32.3404ZM203.479 16.1701C202.011 16.0561 200.546 16.4251 199.307 17.221C197.715 18.4392 197.436 20.6446 197.834 22.2847C198.393 24.1549 199.46 25.8334 200.916 27.1334C202.575 28.8762 204.636 30.1856 206.919 30.9471C208.279 31.331 209.685 31.5292 211.099 31.5363C213.105 31.608 214.013 30.7879 215.255 28.9328C216.547 27.248 217.136 25.1271 216.895 23.0172C216.848 22.3452 216.566 21.7112 216.099 21.2258C215.901 21.0311 215.642 20.9117 215.365 20.8884C215.089 20.8652 214.813 20.9395 214.586 21.0984C214.53 21.1555 214.458 21.1932 214.379 21.2061C214.3 21.219 214.219 21.2064 214.148 21.1701C214.075 21.1376 214.014 21.0836 213.973 21.0153C213.931 20.9469 213.912 20.8676 213.917 20.7879C214.005 19.506 212.627 18.5506 211.799 18.0968C210.341 17.2912 208.759 16.7342 207.118 16.4487C206.033 16.2704 204.936 16.1798 203.838 16.178L203.479 16.1701Z" fill="#232323"/>
<path d="M211.688 44.5777C211.409 38.5666 212.627 26.3771 212.627 26.3771C212.627 26.3771 204.968 26.815 202.389 23.1287C199.204 25.6048 198.591 32.5634 199.164 34.6414C200.31 38.7576 205.645 37.8261 205.645 37.8261L204.96 45.342L211.688 44.5777Z" fill="white"/>
<path d="M204.96 45.7642C204.857 45.7632 204.757 45.7234 204.681 45.6527C204.641 45.6105 204.61 45.5605 204.589 45.5058C204.568 45.451 204.559 45.3927 204.562 45.3342L205.207 38.296C203.782 38.4075 199.785 38.3677 198.782 34.753C198.169 32.5476 198.846 25.4059 202.142 22.8104C202.231 22.7448 202.342 22.7163 202.452 22.7307C202.505 22.7386 202.556 22.7576 202.601 22.7864C202.647 22.8152 202.685 22.8532 202.715 22.8979C205.103 26.3533 212.524 25.9712 212.603 25.9712C212.661 25.9658 212.719 25.9738 212.773 25.9945C212.827 26.0152 212.875 26.0481 212.914 26.0906C212.954 26.1327 212.984 26.1831 213.002 26.2382C213.02 26.2933 213.025 26.3516 213.017 26.4091C213.017 26.5285 211.815 38.6384 212.086 44.546C212.093 44.647 212.06 44.7466 211.995 44.8239C211.929 44.9011 211.836 44.9499 211.736 44.96L205.008 45.7562L204.96 45.7642ZM205.645 37.4521C205.745 37.4521 205.841 37.4889 205.916 37.5556C205.959 37.5977 205.993 37.6486 206.015 37.7049C206.037 37.7613 206.046 37.8216 206.043 37.882L205.406 44.9123L211.282 44.2196C211.091 38.8215 211.975 29.0046 212.182 26.7912C210.517 26.7912 204.825 26.6957 202.333 23.71C199.53 26.3135 199.06 32.7705 199.546 34.5381C200.581 38.2482 205.374 37.4919 205.581 37.46L205.645 37.4521Z" fill="#232323"/>
<path d="M205.645 37.8501C205.645 37.8501 207.85 37.5715 208.941 36.4807C208.941 36.4807 207.484 40.1272 205.239 40.6686L205.645 37.8501Z" fill="#232323"/>
<path d="M205.239 41.0347C205.195 41.0353 205.151 41.0272 205.11 41.0108C205.069 40.9944 205.031 40.97 205 40.9391C204.956 40.8997 204.922 40.8501 204.901 40.7946C204.88 40.7391 204.873 40.6795 204.881 40.6207L205.287 37.7942C205.298 37.7168 205.335 37.6453 205.391 37.5907C205.447 37.536 205.519 37.5013 205.597 37.4917C205.597 37.4917 207.699 37.213 208.686 36.2258C208.747 36.167 208.825 36.1303 208.909 36.1216C208.993 36.1129 209.077 36.1328 209.148 36.178C209.217 36.2247 209.268 36.2935 209.293 36.3732C209.317 36.4528 209.314 36.5384 209.283 36.6159C209.22 36.7751 207.731 40.4376 205.302 41.0188L205.239 41.0347ZM205.971 38.1684L205.685 40.1191C206.681 39.4857 207.487 38.5942 208.017 37.5395C207.364 37.8335 206.677 38.0448 205.971 38.1684Z" fill="#232323"/>
<path d="M200.876 40.6924L183.4 50.2465L187.627 62.5316C187.627 62.5316 209.61 50.8994 209.753 47.7545C209.896 44.6096 200.876 40.6924 200.876 40.6924Z" fill="#296C2E"/>
<path d="M190.374 75.9152C190.374 75.9152 191.21 63.4073 192.763 53.877C193.431 49.8245 193.177 46.9901 194.522 44.8006C199.021 37.4439 216.553 39.6414 219.1 44.7449C221.648 49.8484 220.852 77.6589 220.852 77.6589L190.374 75.9152Z" fill="#296C2E"/>
<path d="M211.377 30.6845C211.475 30.2126 211.7 29.7766 212.029 29.4241C212.357 29.0716 212.777 28.8163 213.24 28.6861C213.448 28.6193 213.668 28.5975 213.885 28.6222C214.102 28.6469 214.311 28.7175 214.498 28.8294C214.72 29.0173 214.889 29.2585 214.991 29.5302C215.092 29.8019 215.123 30.0951 215.08 30.382C215.013 31.2929 214.601 32.1438 213.927 32.7609C213.254 33.378 212.37 33.7146 211.457 33.702" fill="white"/>
<path d="M211.505 34.0603H211.449C211.397 34.0592 211.345 34.0479 211.297 34.027C211.249 34.006 211.206 33.9758 211.17 33.9381C211.134 33.9004 211.105 33.8559 211.086 33.8072C211.067 33.7585 211.058 33.7065 211.059 33.6542C211.059 33.6016 211.07 33.5496 211.09 33.5012C211.111 33.4528 211.141 33.409 211.179 33.3726C211.217 33.3361 211.262 33.3077 211.311 33.2891C211.36 33.2705 211.412 33.262 211.465 33.2641C212.271 33.2981 213.058 33.0119 213.654 32.4679C214.255 31.919 214.622 31.1613 214.682 30.3501C214.712 30.1331 214.691 29.9121 214.621 29.7047C214.55 29.4973 214.432 29.3093 214.276 29.1558C214.135 29.0774 213.979 29.0297 213.818 29.016C213.658 29.0023 213.496 29.0228 213.344 29.0762C212.95 29.1851 212.593 29.4 212.312 29.6976C212.031 29.9952 211.837 30.364 211.752 30.7641C211.73 30.8664 211.671 30.9566 211.585 31.0159C211.499 31.0752 211.393 31.0991 211.29 31.0826C211.186 31.0614 211.094 31.0004 211.035 30.9126C210.975 30.8248 210.953 30.7172 210.971 30.6128C211.083 30.0675 211.342 29.5634 211.721 29.156C212.101 28.7486 212.585 28.4538 213.121 28.3039C213.385 28.2186 213.664 28.1922 213.939 28.2265C214.214 28.2609 214.479 28.3553 214.713 28.503C214.994 28.7265 215.21 29.0203 215.34 29.3545C215.47 29.6888 215.51 30.0515 215.454 30.4058C215.381 31.4112 214.93 32.3516 214.191 33.0372C213.452 33.7229 212.481 34.1027 211.473 34.1001L211.505 34.0603Z" fill="#232323"/>
<path d="M202.487 27.1569C202.599 26.7959 202.534 26.4544 202.341 26.3941C202.148 26.3339 201.9 26.5777 201.787 26.9387C201.675 27.2997 201.74 27.6411 201.933 27.7014C202.126 27.7616 202.374 27.5178 202.487 27.1569Z" fill="#232323"/>
<path d="M200.518 34.944C200.995 35.2467 201.516 35.4749 202.062 35.6208C202.42 35.7553 202.807 35.7915 203.184 35.7257C203.561 35.6599 203.913 35.4944 204.204 35.2466C204.405 34.9889 204.558 34.6978 204.658 34.3867" fill="white"/>
<path d="M202.914 36.1382C202.591 36.1369 202.27 36.0941 201.959 36.0108C201.374 35.8497 200.815 35.6028 200.303 35.2783C200.214 35.2212 200.152 35.1313 200.129 35.0284C200.107 34.9254 200.126 34.8177 200.183 34.729C200.211 34.6843 200.247 34.6456 200.29 34.6153C200.333 34.5849 200.381 34.5636 200.432 34.5524C200.484 34.5413 200.537 34.5406 200.588 34.5504C200.64 34.5602 200.689 34.5803 200.733 34.6096C201.176 34.8898 201.659 35.1018 202.166 35.2385C202.452 35.3102 203.424 35.5172 203.909 34.9838C204.075 34.7597 204.201 34.5094 204.283 34.2433C204.321 34.1456 204.396 34.0665 204.491 34.0233C204.586 33.9801 204.695 33.9762 204.793 34.0124C204.892 34.0484 204.973 34.1222 205.018 34.2178C205.063 34.3133 205.068 34.4227 205.032 34.522C204.92 34.8849 204.738 35.2227 204.498 35.5172C204.293 35.7259 204.045 35.8889 203.772 35.9959C203.499 36.1029 203.207 36.1514 202.914 36.1382Z" fill="#232323"/>
<path d="M200.478 27.7546C200.478 27.7546 197.404 31.2578 198.153 32.0142C198.901 32.7706 200.693 32.3884 200.693 32.3884" fill="white"/>
<path d="M199.713 32.8898C199.046 32.9351 198.387 32.7212 197.874 32.2927C196.99 31.409 198.941 28.901 200.175 27.5156C200.251 27.4422 200.352 27.4011 200.458 27.4011C200.563 27.4011 200.665 27.4422 200.74 27.5156C200.778 27.5527 200.807 27.5967 200.828 27.6452C200.848 27.6937 200.858 27.7457 200.858 27.7983C200.858 27.8508 200.848 27.9029 200.828 27.9514C200.807 27.9999 200.778 28.0439 200.74 28.0809C199.347 29.6733 198.24 31.4488 198.416 31.807C198.901 32.2848 200.143 32.1574 200.581 32.0698C200.687 32.0487 200.796 32.0704 200.886 32.1301C200.976 32.1898 201.038 32.2827 201.059 32.3883C201.08 32.4938 201.058 32.6035 200.999 32.6931C200.939 32.7827 200.846 32.8448 200.74 32.866C200.4 32.9096 200.056 32.9176 199.713 32.8898Z" fill="#232323"/>
<path d="M187.627 62.9057C187.556 62.9068 187.485 62.888 187.423 62.8515C187.361 62.815 187.311 62.7621 187.277 62.6987C187.228 62.6054 187.218 62.4968 187.247 62.3958C187.277 62.2948 187.345 62.2093 187.436 62.1573C187.556 62.0936 199.65 55.6366 204.053 53.248C204.098 53.223 204.148 53.2072 204.199 53.2017C204.251 53.1962 204.303 53.2009 204.353 53.2158C204.402 53.2306 204.448 53.2552 204.489 53.288C204.529 53.3209 204.562 53.3615 204.586 53.4073C204.612 53.453 204.629 53.5036 204.635 53.556C204.641 53.6083 204.637 53.6614 204.622 53.712C204.607 53.7627 204.582 53.8097 204.549 53.8504C204.515 53.8911 204.474 53.9245 204.427 53.9487C200.024 56.3372 187.938 62.7942 187.81 62.8579C187.755 62.8896 187.692 62.9061 187.627 62.9057Z" fill="#232323"/>
<path d="M80.8678 123.36C80.8143 123.359 80.7616 123.346 80.7135 123.323C80.6653 123.3 80.6229 123.266 80.5891 123.224C80.5581 123.187 80.5348 123.144 80.5204 123.098C80.506 123.052 80.5009 123.004 80.5053 122.956C80.5098 122.908 80.5237 122.861 80.5463 122.818C80.5688 122.775 80.5997 122.738 80.6369 122.707L111.465 97.4521C111.541 97.3914 111.637 97.3625 111.733 97.3715C111.83 97.3804 111.919 97.4264 111.982 97.4998C112.013 97.5374 112.036 97.5806 112.05 97.627C112.063 97.6734 112.068 97.7221 112.063 97.7702C112.057 97.8183 112.043 97.865 112.019 97.9074C111.996 97.9498 111.965 97.9872 111.927 98.0174L81.1465 123.272C81.0688 123.337 80.9686 123.369 80.8678 123.36Z" fill="#D1D3D4"/>
<path d="M111.656 123.36C111.571 123.358 111.49 123.327 111.425 123.272L80.6369 98.0174C80.5997 97.9866 80.5688 97.9488 80.5463 97.9061C80.5237 97.8634 80.5098 97.8166 80.5053 97.7685C80.5009 97.7204 80.506 97.6719 80.5204 97.6258C80.5348 97.5797 80.5581 97.5369 80.5891 97.4998C80.6524 97.4264 80.7417 97.3804 80.8383 97.3715C80.9348 97.3625 81.031 97.3914 81.1067 97.4521L111.887 122.707C111.925 122.737 111.956 122.774 111.98 122.817C112.003 122.859 112.018 122.906 112.023 122.954C112.028 123.002 112.023 123.051 112.01 123.097C111.996 123.144 111.973 123.187 111.943 123.224C111.907 123.266 111.863 123.3 111.814 123.323C111.765 123.346 111.711 123.359 111.656 123.36Z" fill="#D1D3D4"/>
<path d="M205.414 88.8851C205.324 88.8898 205.235 88.8633 205.163 88.8101C205.09 88.7568 205.038 88.6802 205.016 88.593C204.993 88.5058 205.002 88.4136 205.039 88.3319C205.077 88.2502 205.142 88.184 205.223 88.1447C205.271 88.1447 209.419 85.9074 210.47 83.909C210.494 83.8632 210.527 83.8226 210.567 83.7898C210.607 83.7569 210.653 83.7323 210.703 83.7175C210.753 83.7026 210.805 83.6979 210.856 83.7034C210.908 83.709 210.958 83.7247 211.003 83.7497C211.05 83.7733 211.091 83.8059 211.125 83.8456C211.158 83.8854 211.184 83.9315 211.199 83.9812C211.215 84.0309 211.22 84.0832 211.215 84.1351C211.21 84.187 211.195 84.2373 211.17 84.2832C210.008 86.4966 205.772 88.7498 205.597 88.8453C205.539 88.8698 205.477 88.8833 205.414 88.8851Z" fill="white"/>
<path d="M25.1274 134.371C25.0556 134.372 24.9849 134.353 24.9231 134.317C24.8613 134.28 24.8107 134.227 24.7771 134.164C23.2404 131.313 18.3599 124.864 18.3121 124.801C18.2725 124.76 18.242 124.712 18.2225 124.659C18.203 124.606 18.1951 124.549 18.1992 124.493C18.2033 124.437 18.2193 124.382 18.2463 124.332C18.2732 124.282 18.3104 124.239 18.3554 124.205C18.4004 124.171 18.4522 124.146 18.5073 124.134C18.5624 124.121 18.6195 124.12 18.6749 124.132C18.7303 124.143 18.7827 124.166 18.8286 124.199C18.8745 124.232 18.9128 124.274 18.9411 124.323C19.1401 124.586 23.9092 130.884 25.4777 133.79C25.5024 133.835 25.5178 133.886 25.5227 133.938C25.5277 133.989 25.5222 134.042 25.5067 134.092C25.4911 134.141 25.4657 134.187 25.432 134.227C25.3983 134.267 25.357 134.299 25.3105 134.323C25.2547 134.355 25.1915 134.371 25.1274 134.371Z" fill="white"/>
</g>
<defs>
<clipPath id="clip0_13_8815">
<rect width="251" height="186" fill="white"/>
</clipPath>
</defs>
</svg>
